<?xml version="1.0" encoding="UTF-8" standalone="no"?>
<!DOCTYPE svg PUBLIC "-//W3C//DTD SVG 1.0//EN" "http://www.w3.org/TR/SVG/DTD/svg10.dtd">
<svg width="1986" xmlns="http://www.w3.org/2000/svg" height="1245.0"><rect y="0" x="0" style="fill:#ffffff;" height="1245.0" width="1986"/><g style="stroke:#606060; stroke-opacity:0.15; fill:none;"><path d="M1618,543 Q1469,665 1321,482"/>
<path d="M1717,597 Q1722,600 1727,405"/>
<path d="M1717,597 Q1519,768 1321,482"/>
<path d="M1226,484 Q1273,530 1321,482"/>
<path d="M1516,723 Q1323,1106 1131,941"/>
<path d="M1516,723 Q1284,1102 1053,933"/>
<path d="M1516,723 Q1521,727 1526,583"/>
<path d="M1304,753 Q1430,854 1557,781"/>
<path d="M1304,753 Q1408,849 1513,787"/>
<path d="M1402,704 Q1376,721 1350,676"/>
<path d="M1464,555 Q1628,642 1792,491"/>
<path d="M1464,555 Q1392,597 1321,482"/>
<path d="M1464,555 Q1304,870 1145,744"/>
<path d="M1464,555 Q1488,801 1513,787"/>
<path d="M764,654 Q956,809 1148,614"/>
<path d="M764,654 Q1086,1011 1409,743"/>
<path d="M764,654 Q1099,1003 1435,802"/>
<path d="M764,654 Q847,728 931,651"/>
<path d="M924,456 Q1259,781 1594,407"/>
<path d="M924,456 Q1122,661 1321,482"/>
<path d="M924,456 Q977,933 1030,881"/>
<path d="M1822,617 Q1315,1102 808,594"/>
<path d="M1822,617 Q1377,1053 932,634"/>
<path d="M1822,617 Q1390,1092 959,840"/>
<path d="M1205,820 Q1129,990 1054,921"/>
<path d="M1205,820 Q1146,878 1087,545"/>
<path d="M1205,820 Q1399,1010 1593,455"/>
<path d="M1205,820 Q1525,1025 1845,454"/>
<path d="M1205,820 Q1250,858 1296,738"/>
<path d="M1205,820 Q1331,884 1457,639"/>
<path d="M1205,820 Q1072,906 940,430"/>
<path d="M1205,820 Q1406,976 1607,859"/>
<path d="M1205,820 Q1038,974 872,674"/>
<path d="M1076,803 Q1145,857 1214,651"/>
<path d="M1598,752 Q1695,813 1792,491"/>
<path d="M1598,752 Q1555,810 1513,787"/>
<path d="M1806,733 Q1669,935 1532,858"/>
<path d="M1806,733 Q1659,905 1513,787"/>
<path d="M1806,733 Q1648,897 1490,763"/>
<path d="M1288,721 Q1582,972 1876,539"/>
<path d="M1288,721 Q1326,817 1365,789"/>
<path d="M1318,459 Q1202,641 1087,545"/>
<path d="M1318,459 Q1432,885 1546,800"/>
<path d="M1318,459 Q1129,569 940,430"/>
<path d="M1318,459 Q1070,607 823,458"/>
<path d="M1318,459 Q1347,666 1377,640"/>
<path d="M1318,459 Q1402,698 1487,650"/>
<path d="M1318,459 Q1426,958 1535,871"/>
<path d="M1318,459 Q1380,516 1443,377"/>
<path d="M1490,763 Q1518,826 1546,800"/>
<path d="M1490,763 Q1501,794 1513,787"/>
<path d="M1490,763 Q1512,884 1535,871"/>
<path d="M1490,763 Q1503,774 1516,723"/>
<path d="M1490,763 Q1463,887 1436,871"/>
<path d="M1490,763 Q1523,807 1557,781"/>
<path d="M1490,763 Q1488,764 1487,650"/>
<path d="M1490,763 Q1483,766 1477,626"/>
<path d="M1594,602 Q1343,758 1093,302"/>
<path d="M1497,502 Q1453,779 1409,743"/>
<path d="M1497,502 Q1163,790 829,373"/>
<path d="M1497,502 Q1409,550 1321,482"/>
<path d="M959,596 Q1236,1034 1513,787"/>
<path d="M1204,557 Q1262,591 1321,482"/>
<path d="M1054,921 Q1053,933 1053,933"/>
<path d="M1054,921 Q1092,974 1131,941"/>
<path d="M1101,491 Q1211,585 1321,482"/>
<path d="M1498,698 Q1675,796 1852,466"/>
<path d="M1498,698 Q1531,727 1564,394"/>
<path d="M1498,698 Q1408,752 1318,459"/>
<path d="M1498,698 Q1494,766 1490,763"/>
<path d="M1165,532 Q1243,600 1321,482"/>
<path d="M944,780 Q1326,1141 1709,580"/>
<path d="M944,780 Q947,781 950,716"/>
<path d="M944,780 Q825,844 706,533"/>
<path d="M944,780 Q1223,1003 1502,836"/>
<path d="M1777,706 Q1627,785 1477,626"/>
<path d="M1777,706 Q1415,1145 1054,921"/>
<path d="M1392,936 Q1526,1037 1660,386"/>
<path d="M1392,936 Q1369,953 1346,900"/>
<path d="M438,740 Q717,974 996,529"/>
<path d="M1687,448 Q1733,482 1779,377"/>
<path d="M1687,448 Q1766,524 1845,454"/>
<path d="M1687,448 Q1584,543 1482,463"/>
<path d="M1687,448 Q1561,925 1435,802"/>
<path d="M1687,448 Q1640,494 1593,455"/>
<path d="M1814,437 Q1770,469 1727,405"/>
<path d="M1814,437 Q1611,914 1409,743"/>
<path d="M1814,437 Q1453,784 1093,302"/>
<path d="M1360,303 Q1340,499 1321,482"/>
<path d="M1360,303 Q1033,840 706,533"/>
<path d="M1360,303 Q1436,859 1513,787"/>
<path d="M1360,303 Q1412,605 1464,555"/>
<path d="M1183,669 Q1427,825 1671,538"/>
<path d="M1183,669 Q1106,927 1030,881"/>
<path d="M1183,669 Q1417,832 1652,334"/>
<path d="M1183,669 Q1361,835 1540,620"/>
<path d="M1183,669 Q1340,798 1497,502"/>
<path d="M1183,669 Q1089,752 996,529"/>
<path d="M1183,669 Q944,815 706,533"/>
<path d="M1183,669 Q1348,903 1513,787"/>
<path d="M795,568 Q1222,1000 1649,729"/>
<path d="M795,568 Q876,610 958,387"/>
<path d="M795,568 Q1369,1115 1944,427"/>
<path d="M795,568 Q801,597 808,594"/>
<path d="M1145,744 Q1426,1115 1707,866"/>
<path d="M1145,744 Q1329,943 1513,787"/>
<path d="M1574,569 Q1204,963 834,606"/>
<path d="M932,634 Q1031,999 1131,941"/>
<path d="M932,634 Q1269,1163 1607,859"/>
<path d="M932,634 Q945,847 959,840"/>
<path d="M932,634 Q1211,915 1490,763"/>
<path d="M1571,922 Q1467,989 1363,803"/>
<path d="M1571,922 Q1379,1101 1188,546"/>
<path d="M961,223 Q947,590 933,581"/>
<path d="M961,223 Q1087,749 1214,651"/>
<path d="M1361,777 Q1535,948 1709,580"/>
<path d="M1361,777 Q1355,782 1350,676"/>
<path d="M1873,367 Q1826,406 1779,377"/>
<path d="M1873,367 Q1862,476 1852,466"/>
<path d="M1409,743 Q1350,775 1291,700"/>
<path d="M1409,743 Q1229,863 1049,363"/>
<path d="M1409,743 Q1227,1164 1045,1059"/>
<path d="M1409,743 Q1585,903 1762,624"/>
<path d="M1409,743 Q1492,977 1575,898"/>
<path d="M1087,545 Q1205,904 1323,814"/>
<path d="M1087,545 Q1286,987 1485,797"/>
<path d="M1087,545 Q947,716 808,594"/>
<path d="M1478,859 Q1484,864 1490,763"/>
<path d="M1478,859 Q1542,911 1607,859"/>
<path d="M1478,859 Q1477,859 1477,626"/>
<path d="M1478,859 Q1219,1024 961,223"/>
<path d="M1566,678 Q1326,812 1087,545"/>
<path d="M1566,678 Q1190,1002 814,544"/>
<path d="M1566,678 Q1528,800 1490,763"/>
<path d="M1566,678 Q1329,874 1093,302"/>
<path d="M1566,678 Q1279,925 993,503"/>
<path d="M1566,678 Q1646,744 1726,689"/>
<path d="M1566,678 Q1216,927 867,489"/>
<path d="M1566,678 Q1458,756 1350,676"/>
<path d="M1805,447 Q1766,472 1727,405"/>
<path d="M1805,447 Q1699,514 1593,455"/>
<path d="M1805,447 Q1520,1166 1235,917"/>
<path d="M1805,447 Q1643,536 1482,394"/>
<path d="M940,430 Q965,649 991,625"/>
<path d="M1292,1047 Q1080,1178 869,274"/>
<path d="M1292,1047 Q1542,1263 1792,491"/>
<path d="M1292,1047 Q1304,1056 1317,1008"/>
<path d="M992,517 Q1266,845 1540,620"/>
<path d="M992,517 Q1156,650 1321,482"/>
<path d="M992,517 Q994,530 996,529"/>
<path d="M992,517 Q1345,1110 1699,788"/>
<path d="M992,517 Q1068,802 1145,744"/>
<path d="M793,581 Q892,682 991,625"/>
<path d="M931,651 Q762,810 594,347"/>
<path d="M931,651 Q1113,900 1296,738"/>
<path d="M931,651 Q567,912 204,468"/>
<path d="M931,651 Q1346,903 1762,624"/>
<path d="M931,651 Q1204,801 1477,626"/>
<path d="M931,651 Q1269,1084 1607,859"/>
<path d="M931,651 Q1117,929 1304,753"/>
<path d="M931,651 Q1222,975 1513,787"/>
<path d="M931,651 Q944,663 958,559"/>
<path d="M931,651 Q1126,834 1321,482"/>
<path d="M931,651 Q1315,1026 1699,788"/>
<path d="M931,651 Q916,660 901,614"/>
<path d="M931,651 Q942,658 954,409"/>
<path d="M931,651 Q1216,1084 1502,836"/>
<path d="M931,651 Q967,694 1004,664"/>
<path d="M931,651 Q940,721 950,716"/>
<path d="M1408,451 Q1453,485 1499,331"/>
<path d="M1408,451 Q1364,519 1321,482"/>
<path d="M1408,451 Q1557,1003 1707,866"/>
<path d="M1408,451 Q1307,563 1206,494"/>
<path d="M1408,451 Q1460,819 1513,787"/>
<path d="M1709,580 Q1073,1148 438,740"/>
<path d="M1709,580 Q1355,855 1002,569"/>
<path d="M1709,580 Q1401,742 1093,302"/>
<path d="M1709,580 Q1491,911 1274,781"/>
<path d="M1709,580 Q1572,994 1436,871"/>
<path d="M1205,788 Q1261,824 1318,459"/>
<path d="M1205,788 Q1347,865 1490,763"/>
<path d="M1205,788 Q1492,1040 1779,377"/>
<path d="M1205,788 Q1227,1038 1250,1024"/>
<path d="M1649,729 Q1688,760 1727,405"/>
<path d="M1649,729 Q1347,976 1046,558"/>
<path d="M1649,729 Q1594,774 1540,620"/>
<path d="M1649,729 Q1485,882 1321,482"/>
<path d="M1649,729 Q1371,988 1093,302"/>
<path d="M1727,405 Q1568,832 1409,743"/>
<path d="M1727,405 Q1672,703 1618,663"/>
<path d="M1727,405 Q1759,511 1792,491"/>
<path d="M1727,405 Q1267,1005 808,594"/>
<path d="M1727,405 Q1524,608 1321,482"/>
<path d="M1727,405 Q1390,1157 1053,933"/>
<path d="M1727,405 Q1652,685 1577,619"/>
<path d="M1317,1008 Q1183,1088 1049,363"/>
<path d="M1317,1008 Q1133,1141 950,716"/>
<path d="M1317,1008 Q1319,1009 1321,482"/>
<path d="M1317,1008 Q1363,1037 1409,743"/>
<path d="M1317,1008 Q1448,1116 1579,982"/>
<path d="M1317,1008 Q1415,1057 1513,787"/>
<path d="M1845,454 Q1880,484 1915,386"/>
<path d="M1845,454 Q1611,781 1377,640"/>
<path d="M1845,454 Q1573,809 1302,657"/>
<path d="M1845,454 Q1812,477 1779,377"/>
<path d="M1631,588 Q1679,631 1727,405"/>
<path d="M1631,588 Q1476,686 1321,482"/>
<path d="M1631,588 Q1643,633 1655,626"/>
<path d="M1542,555 Q1188,937 834,606"/>
<path d="M1542,555 Q1640,729 1739,662"/>
<path d="M1542,555 Q1150,958 759,588"/>
<path d="M1542,555 Q1567,572 1593,455"/>
<path d="M1542,555 Q1520,715 1498,698"/>
<path d="M1542,555 Q1223,850 905,309"/>
<path d="M1542,555 Q1512,573 1482,463"/>
<path d="M1542,555 Q1673,657 1805,447"/>
<path d="M1542,555 Q1660,643 1779,377"/>
<path d="M1542,555 Q1373,922 1205,788"/>
<path d="M1542,555 Q1602,597 1663,561"/>
<path d="M1542,555 Q1581,722 1621,700"/>
<path d="M1066,575 Q1342,802 1618,543"/>
<path d="M1066,575 Q1193,638 1321,482"/>
<path d="M1066,575 Q1359,942 1652,744"/>
<path d="M1066,575 Q1106,603 1147,569"/>
<path d="M1062,507 Q1074,554 1087,545"/>
<path d="M1062,507 Q1433,797 1805,447"/>
<path d="M1531,887 Q1159,1206 788,501"/>
<path d="M1531,887 Q1470,937 1409,743"/>
<path d="M1531,887 Q1523,893 1516,723"/>
<path d="M1531,887 Q1569,918 1607,859"/>
<path d="M1531,887 Q1723,994 1915,386"/>
<path d="M421,716 Q733,874 1046,558"/>
<path d="M1118,953 Q1085,982 1053,933"/>
<path d="M1093,302 Q1442,800 1792,491"/>
<path d="M1093,302 Q1013,647 933,581"/>
<path d="M1093,302 Q1025,420 958,387"/>
<path d="M1093,302 Q1264,999 1436,871"/>
<path d="M1093,302 Q1290,775 1487,665"/>
<path d="M1093,302 Q1287,728 1481,543"/>
<path d="M1093,302 Q765,1033 438,740"/>
<path d="M1093,302 Q1207,567 1321,482"/>
<path d="M1093,302 Q1295,678 1497,502"/>
<path d="M1093,302 Q1044,571 996,529"/>
<path d="M1285,346 Q1303,499 1321,482"/>
<path d="M1186,424 Q1253,526 1321,482"/>
<path d="M1521,687 Q1287,1130 1054,921"/>
<path d="M1521,687 Q1449,734 1377,640"/>
<path d="M1671,538 Q1657,547 1644,495"/>
<path d="M1671,538 Q1644,812 1618,792"/>
<path d="M1671,538 Q1741,620 1812,577"/>
<path d="M1628,578 Q1218,856 808,594"/>
<path d="M1122,963 Q1457,1213 1792,491"/>
<path d="M1122,963 Q1243,1067 1365,789"/>
<path d="M1122,963 Q1087,982 1053,933"/>
<path d="M1122,963 Q1041,1040 960,443"/>
<path d="M1769,852 Q1490,1068 1212,702"/>
<path d="M1769,852 Q1780,861 1792,491"/>
<path d="M1175,520 Q1248,570 1321,482"/>
<path d="M1175,520 Q1188,531 1202,410"/>
<path d="M1279,494 Q1167,582 1056,462"/>
<path d="M1279,494 Q1396,866 1513,787"/>
<path d="M1788,818 Q1757,838 1726,689"/>
<path d="M1788,818 Q1743,848 1699,788"/>
<path d="M1487,665 Q1482,668 1477,626"/>
<path d="M1487,665 Q1241,789 996,529"/>
<path d="M1654,676 Q1386,1202 1118,953"/>
<path d="M1654,676 Q1399,1153 1144,1010"/>
<path d="M1654,676 Q1168,1046 682,560"/>
<path d="M1654,676 Q1345,1285 1037,1025"/>
<path d="M1654,676 Q1338,1036 1023,871"/>
<path d="M1654,676 Q1306,1224 958,953"/>
<path d="M1530,344 Q1561,478 1593,455"/>
<path d="M1530,344 Q1367,911 1205,820"/>
<path d="M1530,344 Q1722,517 1915,386"/>
<path d="M1374,391 Q1347,498 1321,482"/>
<path d="M1560,608 Q1643,677 1727,405"/>
<path d="M1501,957 Q1450,991 1399,828"/>
<path d="M1501,957 Q1425,1026 1350,676"/>
<path d="M1501,957 Q1433,1015 1365,789"/>
<path d="M1501,957 Q1511,963 1521,687"/>
<path d="M1274,781 Q1202,991 1131,941"/>
<path d="M1274,781 Q1211,841 1148,614"/>
<path d="M1274,781 Q1135,910 996,529"/>
<path d="M1274,781 Q1325,827 1377,640"/>
<path d="M1046,558 Q987,590 929,525"/>
<path d="M1046,558 Q1000,599 954,409"/>
<path d="M1266,898 Q1151,1082 1037,1025"/>
<path d="M1266,898 Q1192,1005 1118,953"/>
<path d="M1266,898 Q1112,1035 958,953"/>
<path d="M773,632 Q790,640 808,594"/>
<path d="M916,826 Q1004,874 1093,793"/>
<path d="M1334,761 Q1371,798 1409,743"/>
<path d="M1567,494 Q1177,785 788,501"/>
<path d="M1567,494 Q1580,505 1593,455"/>
<path d="M1567,494 Q1394,1139 1221,973"/>
<path d="M1049,363 Q821,511 594,347"/>
<path d="M1390,729 Q1413,887 1436,871"/>
<path d="M1390,729 Q1193,864 996,529"/>
<path d="M1390,729 Q1395,732 1400,717"/>
<path d="M1390,729 Q1296,808 1202,410"/>
<path d="M1390,729 Q1440,795 1490,763"/>
<path d="M1668,940 Q1621,969 1575,898"/>
<path d="M1346,900 Q1052,1172 759,588"/>
<path d="M1346,900 Q1377,917 1409,743"/>
<path d="M1346,900 Q1275,946 1205,820"/>
<path d="M1346,900 Q1324,912 1302,657"/>
<path d="M1346,900 Q1469,1022 1593,455"/>
<path d="M877,800 Q1032,880 1188,546"/>
<path d="M877,800 Q1327,1207 1777,706"/>
<path d="M959,840 Q1002,873 1045,585"/>
<path d="M959,840 Q1051,894 1143,804"/>
<path d="M1593,455 Q1340,717 1087,545"/>
<path d="M1593,455 Q1578,463 1564,394"/>
<path d="M1593,455 Q1414,1029 1235,917"/>
<path d="M1593,455 Q1485,724 1377,640"/>
<path d="M1593,455 Q1537,581 1481,543"/>
<path d="M1593,455 Q1649,490 1705,345"/>
<path d="M1593,455 Q1660,494 1727,405"/>
<path d="M1593,455 Q1370,733 1148,614"/>
<path d="M1593,455 Q1261,692 929,525"/>
<path d="M1410,342 Q1479,553 1548,510"/>
<path d="M1410,342 Q1421,702 1433,691"/>
<path d="M1639,905 Q1633,909 1628,578"/>
<path d="M1639,905 Q1480,1036 1321,482"/>
<path d="M1639,905 Q1639,905 1640,811"/>
<path d="M1639,905 Q1564,950 1490,763"/>
<path d="M1121,473 Q1221,557 1321,482"/>
<path d="M850,333 Q1303,897 1757,567"/>
<path d="M850,333 Q839,380 829,373"/>
<path d="M850,333 Q1235,917 1621,700"/>
<path d="M850,333 Q1142,996 1435,802"/>
<path d="M850,333 Q1027,891 1205,788"/>
<path d="M1293,544 Q1307,557 1321,482"/>
<path d="M1497,442 Q1545,481 1593,455"/>
<path d="M1497,442 Q1671,608 1845,454"/>
<path d="M1769,765 Q1720,808 1671,538"/>
<path d="M1769,765 Q1564,930 1359,569"/>
<path d="M1769,765 Q1753,780 1738,750"/>
<path d="M1769,765 Q1388,1049 1007,548"/>
<path d="M1769,765 Q1536,993 1304,753"/>
<path d="M1769,765 Q1616,870 1464,555"/>
<path d="M1394,462 Q1357,506 1321,482"/>
<path d="M682,560 Q1168,1083 1655,626"/>
<path d="M682,560 Q752,618 823,458"/>
<path d="M682,560 Q867,1068 1053,933"/>
<path d="M1706,313 Q1716,414 1727,405"/>
<path d="M1706,313 Q1332,639 958,387"/>
<path d="M1706,313 Q1513,627 1321,482"/>
<path d="M1270,764 Q1206,842 1143,804"/>
<path d="M738,501 Q1150,962 1562,741"/>
<path d="M738,501 Q776,564 814,544"/>
<path d="M1772,329 Q1749,423 1727,405"/>
<path d="M1772,329 Q1445,1159 1118,953"/>
<path d="M1772,329 Q1458,1283 1144,1010"/>
<path d="M1772,329 Q1530,927 1288,721"/>
<path d="M1772,329 Q1397,1099 1023,871"/>
<path d="M1772,329 Q1661,800 1551,730"/>
<path d="M1605,764 Q1638,786 1671,538"/>
<path d="M1605,764 Q1329,1138 1054,921"/>
<path d="M1605,764 Q1461,845 1318,459"/>
<path d="M1605,764 Q1547,796 1490,763"/>
<path d="M1605,764 Q1551,812 1497,502"/>
<path d="M1605,764 Q1581,799 1557,781"/>
<path d="M1409,545 Q1477,866 1546,800"/>
<path d="M1409,545 Q1365,573 1321,482"/>
<path d="M1499,331 Q1506,792 1513,787"/>
<path d="M1248,567 Q1157,648 1066,575"/>
<path d="M1609,688 Q1668,737 1727,405"/>
<path d="M1609,688 Q1331,1121 1054,921"/>
<path d="M1609,688 Q1543,904 1478,859"/>
<path d="M1609,688 Q1378,887 1148,614"/>
<path d="M1609,688 Q1504,931 1399,828"/>
<path d="M1609,688 Q1549,814 1490,763"/>
<path d="M1609,688 Q1543,736 1477,626"/>
<path d="M1609,688 Q1573,745 1537,710"/>
<path d="M1609,688 Q1450,802 1291,700"/>
<path d="M1609,688 Q1607,765 1605,764"/>
<path d="M1609,688 Q1565,730 1521,687"/>
<path d="M1183,449 Q1252,521 1321,482"/>
<path d="M1794,602 Q1793,602 1792,491"/>
<path d="M1794,602 Q1759,622 1725,553"/>
<path d="M1794,602 Q1833,622 1873,593"/>
<path d="M1794,602 Q1549,993 1304,753"/>
<path d="M1794,602 Q1597,890 1400,717"/>
<path d="M1794,602 Q1746,826 1699,788"/>
<path d="M1359,569 Q1340,579 1321,482"/>
<path d="M1717,648 Q1722,652 1727,405"/>
<path d="M1717,648 Q1519,833 1321,482"/>
<path d="M1717,648 Q1686,665 1655,626"/>
<path d="M1081,162 Q1033,209 985,102"/>
<path d="M1160,462 Q1240,544 1321,482"/>
<path d="M1740,365 Q1733,409 1727,405"/>
<path d="M1603,715 Q1400,903 1198,390"/>
<path d="M1603,715 Q1299,870 996,529"/>
<path d="M1603,715 Q1598,783 1593,779"/>
<path d="M1603,715 Q1462,808 1321,482"/>
<path d="M1603,715 Q1627,756 1652,744"/>
<path d="M1603,715 Q1621,826 1640,811"/>
<path d="M1603,715 Q1419,925 1235,813"/>
<path d="M1603,715 Q1484,803 1365,269"/>
<path d="M1603,715 Q1348,909 1093,302"/>
<path d="M1603,715 Q1557,747 1511,597"/>
<path d="M1603,715 Q1379,920 1156,357"/>
<path d="M1603,715 Q1546,819 1490,763"/>
<path d="M1603,715 Q1558,824 1513,787"/>
<path d="M1603,715 Q1373,877 1144,396"/>
<path d="M1582,647 Q1654,690 1727,405"/>
<path d="M1582,647 Q1547,811 1513,787"/>
<path d="M1095,672 Q1208,738 1321,482"/>
<path d="M1095,672 Q1022,770 950,716"/>
<path d="M929,525 Q1243,952 1557,781"/>
<path d="M1190,379 Q1255,545 1321,482"/>
<path d="M1516,533 Q1418,612 1321,482"/>
<path d="M761,622 Q998,1084 1235,917"/>
<path d="M761,622 Q996,1126 1231,933"/>
<path d="M872,674 Q1260,1019 1649,729"/>
<path d="M872,674 Q1071,959 1270,764"/>
<path d="M872,674 Q911,739 950,716"/>
<path d="M872,674 Q1210,962 1548,545"/>
<path d="M1302,657 Q1178,1031 1054,921"/>
<path d="M1302,657 Q1339,676 1377,640"/>
<path d="M1072,821 Q972,893 872,674"/>
<path d="M1072,821 Q1458,1114 1845,454"/>
<path d="M1072,821 Q1138,860 1205,820"/>
<path d="M1546,800 Q1494,839 1443,377"/>
<path d="M1546,800 Q1529,811 1513,787"/>
<path d="M1314,380 Q1317,484 1321,482"/>
<path d="M950,716 Q986,743 1022,610"/>
<path d="M950,716 Q975,768 1001,751"/>
<path d="M950,716 Q1179,905 1409,743"/>
<path d="M950,716 Q941,721 932,634"/>
<path d="M950,716 Q1136,967 1323,814"/>
<path d="M950,716 Q970,732 991,625"/>
<path d="M950,716 Q1135,873 1321,482"/>
<path d="M950,716 Q981,765 1013,738"/>
<path d="M950,716 Q973,730 996,529"/>
<path d="M950,716 Q885,874 821,819"/>
<path d="M963,937 Q1186,1135 1409,743"/>
<path d="M963,937 Q1254,1169 1546,800"/>
<path d="M963,937 Q1181,1137 1399,828"/>
<path d="M963,937 Q1351,1146 1740,365"/>
<path d="M963,937 Q1242,1195 1521,687"/>
<path d="M963,937 Q1008,959 1053,933"/>
<path d="M1465,581 Q1445,595 1426,285"/>
<path d="M1465,581 Q1212,873 960,675"/>
<path d="M1465,581 Q1393,641 1321,482"/>
<path d="M1465,581 Q1582,896 1699,788"/>
<path d="M1465,581 Q1283,699 1101,600"/>
<path d="M1465,581 Q1255,781 1046,558"/>
<path d="M1465,581 Q1212,733 959,596"/>
<path d="M1465,581 Q943,1126 421,716"/>
<path d="M1465,581 Q1595,809 1726,689"/>
<path d="M1465,581 Q1449,706 1433,691"/>
<path d="M1465,581 Q1475,802 1485,797"/>
<path d="M1465,581 Q1407,712 1350,676"/>
<path d="M1225,735 Q1273,778 1321,482"/>
<path d="M1225,735 Q1079,843 933,581"/>
<path d="M1225,735 Q1252,754 1279,494"/>
<path d="M1467,722 Q1514,766 1562,741"/>
<path d="M1579,982 Q1626,1009 1673,975"/>
<path d="M897,389 Q992,622 1087,545"/>
<path d="M897,389 Q918,447 940,430"/>
<path d="M1707,827 Q1623,901 1540,620"/>
<path d="M1638,420 Q1615,471 1593,455"/>
<path d="M1482,463 Q1458,814 1435,802"/>
<path d="M1482,463 Q1523,491 1564,394"/>
<path d="M1482,463 Q1514,823 1546,800"/>
<path d="M1482,463 Q1537,507 1593,455"/>
<path d="M1482,463 Q1351,1087 1221,973"/>
<path d="M1482,463 Q1280,1115 1078,982"/>
<path d="M1482,463 Q1343,869 1205,788"/>
<path d="M1436,871 Q1460,893 1485,797"/>
<path d="M1435,802 Q1218,926 1002,569"/>
<path d="M1435,802 Q1244,1067 1053,933"/>
<path d="M1160,581 Q1240,655 1321,482"/>
<path d="M1160,581 Q799,1091 438,740"/>
<path d="M1513,787 Q1610,955 1707,866"/>
<path d="M1513,787 Q1207,1029 901,614"/>
<path d="M1363,803 Q1403,832 1443,377"/>
<path d="M1363,803 Q1420,849 1477,626"/>
<path d="M1363,803 Q1179,945 996,529"/>
<path d="M1363,803 Q1432,899 1502,836"/>
<path d="M1363,803 Q1163,1063 963,937"/>
<path d="M1419,766 Q1466,833 1513,787"/>
<path d="M549,723 Q521,746 494,696"/>
<path d="M549,723 Q840,1110 1131,941"/>
<path d="M549,723 Q949,1005 1350,676"/>
<path d="M1794,790 Q1732,828 1671,538"/>
<path d="M1794,790 Q1671,865 1548,510"/>
<path d="M1794,790 Q1796,792 1799,686"/>
<path d="M1456,570 Q1388,634 1321,482"/>
<path d="M1699,788 Q1713,801 1727,405"/>
<path d="M1699,788 Q1734,877 1769,852"/>
<path d="M1699,788 Q1658,826 1618,792"/>
<path d="M1699,788 Q1658,824 1618,543"/>
<path d="M1699,788 Q1240,1232 782,426"/>
<path d="M1699,788 Q1228,1108 758,674"/>
<path d="M1699,788 Q1594,851 1490,763"/>
<path d="M1699,788 Q1316,1095 933,581"/>
<path d="M1699,788 Q1734,821 1769,765"/>
<path d="M1699,788 Q1345,1030 991,625"/>
<path d="M1699,788 Q1718,805 1738,750"/>
<path d="M1699,788 Q1328,1059 958,559"/>
<path d="M1699,788 Q1746,832 1794,790"/>
<path d="M1699,788 Q1703,830 1707,827"/>
<path d="M1699,788 Q1738,815 1778,779"/>
<path d="M1699,788 Q1390,1048 1082,314"/>
<path d="M1699,788 Q1497,966 1296,738"/>
<path d="M1082,314 Q1437,788 1792,491"/>
<path d="M1082,314 Q1241,870 1400,717"/>
<path d="M1082,314 Q1279,739 1477,626"/>
<path d="M1082,314 Q1158,887 1235,813"/>
<path d="M1485,452 Q1403,551 1321,482"/>
<path d="M1134,406 Q1227,563 1321,482"/>
<path d="M720,484 Q931,987 1143,804"/>
<path d="M1593,779 Q1479,882 1365,269"/>
<path d="M1593,779 Q1553,808 1513,787"/>
<path d="M1742,815 Q1675,877 1609,688"/>
<path d="M1742,815 Q1755,865 1769,852"/>
<path d="M1742,815 Q1627,892 1513,787"/>
<path d="M1742,815 Q1412,1016 1082,314"/>
<path d="M1271,332 Q1532,944 1794,790"/>
<path d="M1271,332 Q1296,498 1321,482"/>
<path d="M1271,332 Q1133,648 996,529"/>
<path d="M1528,379 Q1560,485 1593,455"/>
<path d="M1487,650 Q1317,810 1148,614"/>
<path d="M1487,650 Q1482,653 1477,626"/>
<path d="M1212,702 Q1346,800 1481,543"/>
<path d="M1212,702 Q1362,926 1513,787"/>
<path d="M1031,772 Q990,804 950,716"/>
<path d="M1031,772 Q930,854 829,373"/>
<path d="M1031,772 Q1040,779 1049,363"/>
<path d="M1457,639 Q1592,769 1727,405"/>
<path d="M1457,639 Q1618,787 1779,377"/>
<path d="M1457,639 Q1198,808 940,430"/>
<path d="M1457,639 Q1686,810 1915,386"/>
<path d="M1457,639 Q1417,674 1377,640"/>
<path d="M1791,473 Q1759,500 1727,405"/>
<path d="M1791,473 Q1460,974 1129,775"/>
<path d="M1791,473 Q1821,497 1852,466"/>
<path d="M1791,473 Q1677,565 1564,394"/>
<path d="M1791,473 Q1692,539 1593,455"/>
<path d="M1791,473 Q1506,1251 1221,973"/>
<path d="M1791,473 Q1644,843 1498,698"/>
<path d="M1791,473 Q1548,1076 1305,954"/>
<path d="M1078,982 Q1156,1048 1235,917"/>
<path d="M1078,982 Q1090,1000 1102,992"/>
<path d="M1078,982 Q1164,1091 1250,1024"/>
<path d="M1621,700 Q1520,819 1419,766"/>
<path d="M1621,700 Q1469,807 1318,459"/>
<path d="M1621,700 Q1555,816 1490,763"/>
<path d="M1621,700 Q1207,1080 793,581"/>
<path d="M1621,700 Q1700,749 1779,377"/>
<path d="M1148,614 Q1117,633 1087,545"/>
<path d="M1435,488 Q1378,538 1321,482"/>
<path d="M1532,858 Q1426,956 1321,482"/>
<path d="M1532,858 Q1511,869 1490,763"/>
<path d="M782,426 Q934,656 1087,545"/>
<path d="M782,426 Q802,471 823,458"/>
<path d="M958,953 Q1365,1343 1772,329"/>
<path d="M958,953 Q1005,978 1053,933"/>
<path d="M1468,519 Q1508,541 1548,510"/>
<path d="M1468,519 Q1490,800 1513,787"/>
<path d="M957,372 Q1139,657 1321,482"/>
<path d="M957,372 Q1235,956 1513,787"/>
<path d="M1213,336 Q986,786 759,588"/>
<path d="M1213,336 Q1267,535 1321,482"/>
<path d="M1213,336 Q1222,940 1231,933"/>
<path d="M1023,871 Q1038,947 1053,933"/>
<path d="M1003,454 Q950,534 898,494"/>
<path d="M1003,454 Q1271,884 1540,620"/>
<path d="M1003,454 Q1153,858 1304,753"/>
<path d="M1320,442 Q1320,482 1321,482"/>
<path d="M1129,775 Q1182,966 1235,917"/>
<path d="M1129,775 Q1115,1001 1102,992"/>
<path d="M1129,775 Q1315,1019 1501,912"/>
<path d="M913,473 Q978,514 1044,444"/>
<path d="M1296,738 Q1254,774 1212,702"/>
<path d="M1296,738 Q1307,747 1318,459"/>
<path d="M1296,738 Q1220,809 1145,744"/>
<path d="M1296,738 Q1309,825 1323,814"/>
<path d="M1252,279 Q1082,952 913,810"/>
<path d="M1252,279 Q1548,680 1845,454"/>
<path d="M1252,279 Q1311,355 1371,314"/>
<path d="M1485,797 Q1265,992 1046,558"/>
<path d="M1485,797 Q1154,1089 823,458"/>
<path d="M1093,793 Q1343,1038 1593,455"/>
<path d="M1291,700 Q1367,739 1443,377"/>
<path d="M1291,700 Q1402,854 1513,787"/>
<path d="M1318,621 Q1319,622 1321,482"/>
<path d="M1318,621 Q1415,855 1513,787"/>
<path d="M1540,620 Q1416,912 1292,800"/>
<path d="M1540,620 Q1430,686 1321,482"/>
<path d="M1540,620 Q1247,767 954,409"/>
<path d="M1540,620 Q1548,785 1557,781"/>
<path d="M1540,620 Q1502,652 1464,555"/>
<path d="M617,510 Q649,579 682,560"/>
<path d="M617,510 Q1194,1000 1772,329"/>
<path d="M617,510 Q1246,1140 1876,539"/>
<path d="M617,510 Q991,1128 1365,789"/>
<path d="M617,510 Q644,546 671,520"/>
<path d="M1819,343 Q1691,507 1564,394"/>
<path d="M1819,343 Q1680,670 1542,555"/>
<path d="M1819,343 Q1812,451 1805,447"/>
<path d="M204,468 Q626,764 1049,363"/>
<path d="M852,625 Q830,645 808,594"/>
<path d="M1655,626 Q1663,632 1671,538"/>
<path d="M1655,626 Q1649,631 1644,495"/>
<path d="M1655,626 Q1532,863 1409,743"/>
<path d="M1655,626 Q1615,658 1575,482"/>
<path d="M1655,626 Q1682,648 1709,580"/>
<path d="M1655,626 Q1200,1080 745,453"/>
<path d="M1655,626 Q1636,677 1618,663"/>
<path d="M1655,626 Q1607,678 1560,632"/>
<path d="M1655,626 Q1259,850 863,573"/>
<path d="M1655,626 Q1730,803 1806,733"/>
<path d="M1655,626 Q1618,680 1582,647"/>
<path d="M1655,626 Q1568,678 1481,543"/>
<path d="M1655,626 Q1607,660 1560,608"/>
<path d="M1655,626 Q1231,1006 808,594"/>
<path d="M1655,626 Q1488,763 1321,482"/>
<path d="M1655,626 Q1354,1155 1053,933"/>
<path d="M1655,626 Q1738,677 1822,617"/>
<path d="M1655,626 Q1207,984 759,588"/>
<path d="M1655,626 Q1638,709 1621,700"/>
<path d="M1655,626 Q1597,661 1540,620"/>
<path d="M1655,626 Q1652,731 1649,729"/>
<path d="M1655,626 Q1687,719 1719,703"/>
<path d="M1655,626 Q1708,677 1762,624"/>
<path d="M1655,626 Q1624,648 1594,602"/>
<path d="M1655,626 Q1686,649 1717,597"/>
<path d="M1655,626 Q1489,949 1323,814"/>
<path d="M1655,626 Q1706,662 1758,531"/>
<path d="M1655,626 Q1584,738 1514,675"/>
<path d="M1655,626 Q1697,689 1739,662"/>
<path d="M1655,626 Q1763,715 1871,493"/>
<path d="M1655,626 Q1527,947 1399,828"/>
<path d="M1655,626 Q1624,648 1593,455"/>
<path d="M1655,626 Q1733,684 1812,577"/>
<path d="M1655,626 Q1616,660 1577,619"/>
<path d="M1655,626 Q1624,752 1594,726"/>
<path d="M1655,626 Q1614,655 1574,569"/>
<path d="M1655,626 Q1659,629 1663,561"/>
<path d="M1350,580 Q1335,592 1321,482"/>
<path d="M1323,814 Q1073,976 823,458"/>
<path d="M665,759 Q845,884 1026,405"/>
<path d="M665,759 Q1162,1138 1660,386"/>
<path d="M665,759 Q1037,978 1409,545"/>
<path d="M665,759 Q1134,1047 1603,715"/>
<path d="M665,759 Q712,798 759,588"/>
<path d="M1054,54 Q1265,760 1477,626"/>
<path d="M1054,54 Q1484,638 1915,386"/>
<path d="M1555,470 Q1534,797 1513,787"/>
<path d="M1739,662 Q1759,674 1779,377"/>
<path d="M942,353 Q1227,973 1513,787"/>
<path d="M1214,651 Q1118,744 1022,610"/>
<path d="M1214,651 Q1177,674 1140,261"/>
<path d="M1214,651 Q1240,692 1266,679"/>
<path d="M1214,651 Q1396,1147 1579,982"/>
<path d="M1301,401 Q1311,487 1321,482"/>
<path d="M1564,394 Q1538,801 1513,787"/>
<path d="M858,644 Q942,700 1026,405"/>
<path d="M858,644 Q1259,990 1660,386"/>
<path d="M858,644 Q808,690 759,588"/>
<path d="M858,644 Q960,695 1062,507"/>
<path d="M858,644 Q1216,852 1574,569"/>
<path d="M858,644 Q1324,1036 1791,473"/>
<path d="M858,644 Q1230,921 1603,715"/>
<path d="M1235,917 Q1189,942 1143,804"/>
<path d="M1045,385 Q989,626 933,581"/>
<path d="M1045,385 Q1279,991 1513,787"/>
<path d="M1596,830 Q1181,1045 766,557"/>
<path d="M1596,830 Q1344,964 1093,302"/>
<path d="M1596,830 Q1625,849 1655,626"/>
<path d="M1596,830 Q1458,964 1321,482"/>
<path d="M1596,830 Q1437,931 1279,494"/>
<path d="M1596,830 Q1549,871 1502,836"/>
<path d="M1596,830 Q1541,874 1487,318"/>
<path d="M1735,620 Q1731,623 1727,405"/>
<path d="M1735,620 Q1528,769 1321,482"/>
<path d="M1735,620 Q1695,649 1655,626"/>
<path d="M759,588 Q1243,953 1727,405"/>
<path d="M759,588 Q1084,1050 1409,743"/>
<path d="M759,588 Q1079,965 1400,717"/>
<path d="M759,588 Q995,1091 1231,933"/>
<path d="M759,588 Q1209,1038 1660,386"/>
<path d="M1053,933 Q1299,1178 1546,800"/>
<path d="M1053,933 Q1226,1037 1400,717"/>
<path d="M1644,495 Q1482,603 1321,482"/>
<path d="M1644,495 Q1578,837 1513,787"/>
<path d="M1254,531 Q1287,549 1321,482"/>
<path d="M1254,531 Q1383,891 1513,787"/>
<path d="M890,745 Q1280,1004 1671,538"/>
<path d="M890,745 Q911,756 933,581"/>
<path d="M890,745 Q1145,919 1400,717"/>
<path d="M890,745 Q920,772 950,716"/>
<path d="M1762,624 Q1637,901 1513,787"/>
<path d="M1511,597 Q1327,737 1144,396"/>
<path d="M1511,597 Q1416,655 1321,482"/>
<path d="M1237,593 Q1279,619 1321,482"/>
<path d="M1044,444 Q1157,851 1270,764"/>
<path d="M1044,444 Q1428,843 1812,577"/>
<path d="M1044,444 Q1071,660 1098,642"/>
<path d="M1044,444 Q1094,469 1144,396"/>
<path d="M1044,444 Q993,474 942,353"/>
<path d="M1044,444 Q1026,492 1008,482"/>
<path d="M1044,444 Q1100,482 1156,357"/>
<path d="M1044,444 Q980,556 916,510"/>
<path d="M1044,444 Q958,745 872,674"/>
<path d="M1044,444 Q1123,500 1202,410"/>
<path d="M1044,444 Q1323,937 1603,715"/>
<path d="M1343,419 Q1332,490 1321,482"/>
<path d="M814,544 Q1270,774 1727,405"/>
<path d="M814,544 Q654,816 494,696"/>
<path d="M814,544 Q1211,978 1609,688"/>
<path d="M814,544 Q918,710 1022,610"/>
<path d="M814,544 Q873,637 933,581"/>
<path d="M814,544 Q1068,1037 1323,814"/>
<path d="M814,544 Q838,588 863,573"/>
<path d="M814,544 Q764,602 715,578"/>
<path d="M814,544 Q984,990 1155,825"/>
<path d="M814,544 Q871,584 929,525"/>
<path d="M814,544 Q933,1045 1053,933"/>
<path d="M814,544 Q786,603 759,588"/>
<path d="M814,544 Q824,615 834,606"/>
<path d="M814,544 Q811,595 808,594"/>
<path d="M814,544 Q801,552 788,501"/>
<path d="M814,544 Q905,618 996,529"/>
<path d="M814,544 Q843,698 872,674"/>
<path d="M814,544 Q1009,921 1205,788"/>
<path d="M1263,430 Q1292,508 1321,482"/>
<path d="M1712,490 Q1778,524 1845,454"/>
<path d="M1712,490 Q1458,966 1205,820"/>
<path d="M1712,490 Q1813,582 1915,386"/>
<path d="M1712,490 Q1652,534 1593,455"/>
<path d="M1206,494 Q1359,898 1513,787"/>
<path d="M1527,364 Q1540,371 1553,354"/>
<path d="M1527,364 Q1627,477 1727,405"/>
<path d="M1527,364 Q1161,874 795,568"/>
<path d="M1527,364 Q1616,420 1706,313"/>
<path d="M1101,600 Q1048,642 996,529"/>
<path d="M1101,600 Q1087,773 1073,764"/>
<path d="M1101,600 Q1225,739 1350,676"/>
<path d="M1575,482 Q1544,815 1513,787"/>
<path d="M1551,730 Q1514,760 1477,626"/>
<path d="M1551,730 Q1464,776 1377,640"/>
<path d="M1551,730 Q1302,1110 1053,933"/>
<path d="M1246,319 Q1283,502 1321,482"/>
<path d="M1246,319 Q1379,901 1513,787"/>
<path d="M1026,405 Q1343,682 1660,386"/>
<path d="M1026,405 Q1173,598 1321,482"/>
<path d="M1026,405 Q1128,990 1231,933"/>
<path d="M1065,331 Q999,623 933,581"/>
<path d="M1065,331 Q1003,403 942,353"/>
<path d="M1065,331 Q1295,622 1525,473"/>
<path d="M1065,331 Q1110,390 1156,357"/>
<path d="M1065,331 Q1289,970 1513,787"/>
<path d="M1065,331 Q1150,889 1235,813"/>
<path d="M862,430 Q1228,778 1594,407"/>
<path d="M862,430 Q908,465 954,409"/>
<path d="M862,430 Q910,643 959,596"/>
<path d="M1213,435 Q1267,513 1321,482"/>
<path d="M1915,386 Q1523,1152 1131,941"/>
<path d="M1662,432 Q1627,482 1593,455"/>
<path d="M1482,394 Q1401,560 1321,482"/>
<path d="M1482,394 Q1358,996 1235,917"/>
<path d="M1198,390 Q1259,519 1321,482"/>
<path d="M1562,741 Q1391,1164 1220,1034"/>
<path d="M1562,741 Q1485,784 1409,743"/>
<path d="M1562,741 Q1480,906 1399,828"/>
<path d="M1562,741 Q1441,821 1321,482"/>
<path d="M1562,741 Q1526,783 1490,763"/>
<path d="M1562,741 Q1327,941 1093,302"/>
<path d="M1562,741 Q1314,889 1066,575"/>
<path d="M1365,269 Q1065,739 766,557"/>
<path d="M1700,419 Q1646,482 1593,455"/>
<path d="M1652,334 Q1474,897 1296,738"/>
<path d="M1652,334 Q1689,434 1727,405"/>
<path d="M788,501 Q1257,918 1727,405"/>
<path d="M788,501 Q921,1029 1054,921"/>
<path d="M788,501 Q968,770 1148,614"/>
<path d="M788,501 Q1167,1120 1546,800"/>
<path d="M788,501 Q940,609 1093,302"/>
<path d="M788,501 Q1152,941 1516,723"/>
<path d="M788,501 Q1162,1024 1537,710"/>
<path d="M788,501 Q1196,1150 1605,764"/>
<path d="M788,501 Q1150,1091 1513,787"/>
<path d="M788,501 Q1082,833 1377,640"/>
<path d="M1517,293 Q1254,849 991,625"/>
<path d="M913,810 Q863,852 814,544"/>
<path d="M913,810 Q1063,917 1214,651"/>
<path d="M913,810 Q953,846 993,503"/>
<path d="M913,810 Q868,840 823,458"/>
<path d="M913,810 Q931,820 950,716"/>
<path d="M913,810 Q1213,987 1513,787"/>
<path d="M1131,330 Q1090,402 1049,363"/>
<path d="M1608,476 Q1639,568 1671,538"/>
<path d="M1608,476 Q1552,537 1497,502"/>
<path d="M1608,476 Q1483,655 1359,569"/>
<path d="M1608,476 Q1157,876 706,533"/>
<path d="M1608,476 Q1654,536 1700,505"/>
<path d="M1607,859 Q1330,1162 1053,933"/>
<path d="M1689,462 Q1618,564 1548,510"/>
<path d="M1689,462 Q1445,659 1202,410"/>
<path d="M1263,309 Q1292,508 1321,482"/>
<path d="M1263,309 Q1249,925 1235,917"/>
<path d="M1263,309 Q1534,673 1805,447"/>
<path d="M1073,764 Q1225,913 1377,640"/>
<path d="M1073,764 Q1309,1014 1546,800"/>
<path d="M1073,764 Q1391,1047 1709,580"/>
<path d="M1073,764 Q1195,854 1318,459"/>
<path d="M706,533 Q736,573 766,557"/>
<path d="M706,533 Q899,631 1093,302"/>
<path d="M706,533 Q764,563 823,458"/>
<path d="M706,533 Q1085,812 1464,555"/>
<path d="M1250,1024 Q1005,1204 761,622"/>
<path d="M1647,367 Q1713,421 1779,377"/>
<path d="M1791,551 Q1759,569 1727,405"/>
<path d="M1791,551 Q1600,846 1409,743"/>
<path d="M1791,551 Q1475,796 1160,581"/>
<path d="M1791,551 Q1723,679 1655,626"/>
<path d="M1663,561 Q1211,924 759,588"/>
<path d="M1663,561 Q1482,760 1302,657"/>
<path d="M1663,561 Q1721,594 1779,377"/>
<path d="M1663,561 Q1447,1126 1231,933"/>
<path d="M1133,435 Q1227,538 1321,482"/>
<path d="M1133,435 Q1323,926 1513,787"/>
<path d="M1144,1010 Q1098,1043 1053,933"/>
<path d="M494,696 Q951,1121 1409,743"/>
<path d="M494,696 Q466,759 438,740"/>
<path d="M494,696 Q457,736 421,716"/>
<path d="M494,696 Q1144,1036 1794,602"/>
<path d="M494,696 Q922,1067 1350,676"/>
<path d="M1022,610 Q1054,642 1087,545"/>
<path d="M1022,610 Q922,705 823,458"/>
<path d="M1022,610 Q1249,822 1477,626"/>
<path d="M1022,610 Q981,633 940,430"/>
<path d="M1022,610 Q1156,783 1291,700"/>
<path d="M1022,610 Q1199,757 1377,640"/>
<path d="M1437,475 Q1379,527 1321,482"/>
<path d="M1156,357 Q1177,402 1198,390"/>
<path d="M1156,357 Q1056,452 957,372"/>
<path d="M1156,357 Q1238,533 1321,482"/>
<path d="M1156,357 Q1119,389 1082,314"/>
<path d="M1156,357 Q1055,499 954,409"/>
<path d="M1156,357 Q1100,431 1045,385"/>
<path d="M1156,357 Q992,515 829,241"/>
<path d="M1156,357 Q1117,387 1078,274"/>
<path d="M1156,357 Q1106,492 1056,462"/>
<path d="M1156,357 Q1334,942 1513,787"/>
<path d="M715,578 Q1182,1003 1649,729"/>
<path d="M715,578 Q755,607 795,568"/>
<path d="M715,578 Q935,1013 1155,825"/>
<path d="M715,578 Q1062,970 1409,743"/>
<path d="M715,578 Q1136,1035 1557,781"/>
<path d="M715,578 Q686,669 657,652"/>
<path d="M1469,409 Q1395,533 1321,482"/>
<path d="M1548,510 Q1487,543 1426,285"/>
<path d="M1548,510 Q1588,617 1628,578"/>
<path d="M1548,510 Q1536,520 1525,473"/>
<path d="M1548,510 Q1550,511 1552,414"/>
<path d="M1548,510 Q1584,545 1620,442"/>
<path d="M1548,510 Q1658,824 1769,765"/>
<path d="M1548,510 Q1506,596 1464,555"/>
<path d="M1548,510 Q1380,797 1212,702"/>
<path d="M1548,510 Q1531,687 1514,675"/>
<path d="M1548,510 Q1561,909 1575,898"/>
<path d="M1548,510 Q1551,512 1555,470"/>
<path d="M1548,510 Q1554,611 1560,608"/>
<path d="M1548,510 Q1434,619 1321,482"/>
<path d="M1548,510 Q1550,512 1553,446"/>
<path d="M1548,510 Q1346,679 1144,396"/>
<path d="M1548,510 Q1663,893 1778,779"/>
<path d="M1548,510 Q1628,647 1709,580"/>
<path d="M1548,510 Q1532,524 1517,293"/>
<path d="M1548,510 Q1601,674 1655,626"/>
<path d="M1537,710 Q1269,925 1002,569"/>
<path d="M1537,710 Q1664,811 1792,491"/>
<path d="M1537,710 Q1451,842 1365,789"/>
<path d="M1537,710 Q1559,829 1581,811"/>
<path d="M1537,710 Q1621,773 1705,345"/>
<path d="M1709,379 Q1651,493 1593,455"/>
<path d="M1709,379 Q1777,502 1845,454"/>
<path d="M1709,379 Q1611,868 1513,787"/>
<path d="M1628,286 Q1527,350 1426,285"/>
<path d="M1628,286 Q1610,464 1593,455"/>
<path d="M1628,286 Q1736,560 1845,454"/>
<path d="M1045,585 Q926,670 808,594"/>
<path d="M1433,691 Q1377,731 1321,482"/>
<path d="M1433,691 Q1461,780 1490,763"/>
<path d="M1425,429 Q1590,753 1755,637"/>
<path d="M1425,429 Q1576,543 1727,405"/>
<path d="M1425,429 Q1597,1022 1769,852"/>
<path d="M1425,429 Q1609,785 1794,602"/>
<path d="M1425,429 Q1567,707 1709,580"/>
<path d="M1425,429 Q1292,964 1159,897"/>
<path d="M1425,429 Q1517,760 1609,688"/>
<path d="M1425,429 Q1152,710 879,522"/>
<path d="M1425,429 Q1622,603 1820,392"/>
<path d="M1425,429 Q1481,751 1537,710"/>
<path d="M1425,429 Q1127,618 829,241"/>
<path d="M1425,429 Q1461,527 1497,502"/>
<path d="M1425,429 Q1144,765 863,573"/>
<path d="M1425,429 Q1208,754 991,625"/>
<path d="M1425,429 Q1146,652 867,489"/>
<path d="M1425,429 Q1650,697 1876,539"/>
<path d="M1425,429 Q1582,526 1740,365"/>
<path d="M1425,429 Q1463,862 1502,836"/>
<path d="M1425,429 Q1387,706 1350,676"/>
<path d="M1425,429 Q1311,519 1198,390"/>
<path d="M1425,429 Q1237,592 1049,363"/>
<path d="M1425,429 Q1130,1046 835,756"/>
<path d="M1425,429 Q1395,816 1365,789"/>
<path d="M1425,429 Q1239,1072 1054,921"/>
<path d="M1425,429 Q1070,759 715,578"/>
<path d="M1425,429 Q1373,513 1321,482"/>
<path d="M1425,429 Q1253,519 1082,314"/>
<path d="M1425,429 Q1106,790 788,501"/>
<path d="M1425,429 Q1205,563 985,102"/>
<path d="M1425,429 Q1235,1204 1045,1059"/>
<path d="M1425,429 Q1313,503 1202,410"/>
<path d="M1451,348 Q1462,615 1474,607"/>
<path d="M1451,348 Q1578,424 1705,345"/>
<path d="M1451,348 Q1494,739 1537,710"/>
<path d="M1451,348 Q1387,857 1323,814"/>
<path d="M1451,348 Q1522,521 1593,455"/>
<path d="M1037,1025 Q1404,1324 1772,329"/>
<path d="M1037,1025 Q1045,1030 1053,933"/>
<path d="M1231,933 Q1290,1030 1349,979"/>
<path d="M1231,933 Q1187,961 1143,804"/>
<path d="M1231,933 Q1288,968 1346,918"/>
<path d="M1231,933 Q1095,1062 960,443"/>
<path d="M1779,377 Q1658,779 1537,710"/>
<path d="M1779,377 Q1693,918 1607,859"/>
<path d="M1779,377 Q1686,529 1593,455"/>
<path d="M1779,377 Q1680,875 1581,811"/>
<path d="M1779,377 Q1270,1076 761,622"/>
<path d="M1626,515 Q1587,544 1548,510"/>
<path d="M1400,717 Q1438,752 1477,626"/>
<path d="M1400,717 Q1223,885 1046,558"/>
<path d="M1400,717 Q1478,843 1557,781"/>
<path d="M993,503 Q1007,620 1022,610"/>
<path d="M993,503 Q1216,1073 1440,892"/>
<path d="M993,503 Q1301,965 1609,688"/>
<path d="M993,503 Q1057,995 1122,963"/>
<path d="M993,503 Q875,743 758,674"/>
<path d="M993,503 Q877,737 761,622"/>
<path d="M993,503 Q936,568 879,522"/>
<path d="M993,503 Q869,607 745,453"/>
<path d="M993,503 Q928,612 863,573"/>
<path d="M993,503 Q856,592 720,484"/>
<path d="M993,503 Q976,518 960,443"/>
<path d="M993,503 Q1121,1118 1250,1024"/>
<path d="M993,503 Q903,589 814,544"/>
<path d="M993,503 Q945,529 898,494"/>
<path d="M993,503 Q1131,844 1270,764"/>
<path d="M993,503 Q1019,606 1045,585"/>
<path d="M993,503 Q1068,862 1143,804"/>
<path d="M993,503 Q1112,999 1231,933"/>
<path d="M993,503 Q1047,1038 1102,992"/>
<path d="M993,503 Q1019,581 1046,558"/>
<path d="M993,503 Q913,659 834,606"/>
<path d="M993,503 Q1034,946 1076,905"/>
<path d="M993,503 Q890,603 788,501"/>
<path d="M993,503 Q994,530 996,529"/>
<path d="M1010,795 Q1292,967 1575,482"/>
<path d="M1010,795 Q1172,953 1334,761"/>
<path d="M1010,795 Q1279,975 1548,510"/>
<path d="M1010,795 Q1184,894 1359,569"/>
<path d="M1010,795 Q1027,812 1045,385"/>
<path d="M1010,795 Q1033,810 1056,462"/>
<path d="M1010,795 Q1253,967 1497,502"/>
<path d="M1010,795 Q980,816 950,716"/>
<path d="M1377,640 Q1350,837 1323,814"/>
<path d="M1377,640 Q1431,835 1485,797"/>
<path d="M869,274 Q959,423 1049,363"/>
<path d="M869,274 Q887,322 905,309"/>
<path d="M869,274 Q849,292 829,241"/>
<path d="M869,274 Q838,617 808,594"/>
<path d="M869,274 Q870,675 872,674"/>
<path d="M869,274 Q1093,660 1318,459"/>
<path d="M1700,505 Q1396,793 1093,302"/>
<path d="M1700,505 Q1373,817 1046,558"/>
<path d="M1700,505 Q1348,739 996,529"/>
<path d="M1700,505 Q1203,801 706,533"/>
<path d="M1700,505 Q1588,688 1477,626"/>
<path d="M1358,516 Q1339,526 1321,482"/>
<path d="M1581,811 Q1460,928 1339,740"/>
<path d="M1581,811 Q1187,1121 793,581"/>
<path d="M1581,811 Q1473,898 1365,789"/>
<path d="M954,409 Q1094,906 1235,813"/>
<path d="M954,409 Q943,591 933,581"/>
<path d="M1305,954 Q1153,1060 1002,569"/>
<path d="M1305,954 Q1578,1167 1852,466"/>
<path d="M1305,954 Q1434,1046 1564,394"/>
<path d="M1305,954 Q1311,957 1318,459"/>
<path d="M1305,954 Q1397,1017 1490,763"/>
<path d="M1305,954 Q1032,1182 759,588"/>
<path d="M1305,954 Q1403,1036 1501,912"/>
<path d="M1048,892 Q1050,935 1053,933"/>
<path d="M1048,892 Q1241,1037 1435,802"/>
<path d="M1048,892 Q1446,1203 1845,454"/>
<path d="M1048,892 Q1481,1130 1915,386"/>
<path d="M1048,892 Q1265,1061 1482,463"/>
<path d="M1202,410 Q1314,520 1426,285"/>
<path d="M1202,410 Q1261,512 1321,482"/>
<path d="M1202,410 Q1482,766 1762,624"/>
<path d="M1202,410 Q1078,487 954,409"/>
<path d="M1202,410 Q1240,529 1279,494"/>
<path d="M1594,407 Q1369,567 1144,396"/>
<path d="M1594,407 Q1457,603 1321,482"/>
<path d="M1594,407 Q1678,679 1762,624"/>
<path d="M1140,261 Q1231,898 1323,814"/>
<path d="M1140,261 Q1229,519 1318,459"/>
<path d="M1159,897 Q1182,912 1205,820"/>
<path d="M1159,897 Q1469,1082 1779,377"/>
<path d="M745,453 Q1262,790 1779,377"/>
<path d="M745,453 Q784,486 823,458"/>
<path d="M1241,603 Q1281,625 1321,482"/>
<path d="M1244,578 Q1282,606 1321,482"/>
<path d="M1143,804 Q1094,847 1045,585"/>
<path d="M1143,804 Q1232,862 1321,482"/>
<path d="M1143,804 Q1109,930 1076,905"/>
<path d="M1143,804 Q1132,969 1122,963"/>
<path d="M1143,804 Q1051,883 960,443"/>
<path d="M1249,364 Q1285,507 1321,482"/>
<path d="M1249,364 Q1381,904 1513,787"/>
<path d="M1660,386 Q1693,437 1727,405"/>
<path d="M1660,386 Q1490,573 1321,482"/>
<path d="M1660,386 Q1445,1044 1231,933"/>
<path d="M1440,892 Q1100,1197 761,622"/>
<path d="M1440,892 Q1345,944 1251,832"/>
<path d="M1078,274 Q1016,462 954,409"/>
<path d="M1078,274 Q1062,572 1046,558"/>
<path d="M1078,274 Q1010,402 942,353"/>
<path d="M1078,274 Q1295,996 1513,787"/>
<path d="M1056,462 Q1188,555 1321,482"/>
<path d="M1056,462 Q1284,989 1513,787"/>
<path d="M1645,323 Q1599,398 1553,354"/>
<path d="M1645,323 Q1686,436 1727,405"/>
<path d="M1645,323 Q1675,339 1706,313"/>
<path d="M1645,323 Q1180,888 715,578"/>
<path d="M1080,127 Q1032,166 985,102"/>
<path d="M1189,505 Q1255,570 1321,482"/>
<path d="M1560,632 Q1643,698 1727,405"/>
<path d="M1560,632 Q1440,704 1321,482"/>
<path d="M1560,632 Q1323,809 1087,545"/>
<path d="M1477,626 Q1511,832 1546,800"/>
<path d="M1477,626 Q1400,868 1323,814"/>
<path d="M1477,626 Q1384,784 1291,700"/>
<path d="M905,309 Q1277,1092 1649,729"/>
<path d="M905,309 Q1078,973 1251,832"/>
<path d="M905,309 Q1030,926 1155,825"/>
<path d="M905,309 Q1342,748 1779,377"/>
<path d="M1944,427 Q1786,715 1628,578"/>
<path d="M1944,427 Q1769,727 1594,602"/>
<path d="M1717,355 Q1607,799 1498,698"/>
<path d="M1717,355 Q1511,1087 1305,954"/>
<path d="M1717,355 Q1748,403 1779,377"/>
<path d="M1717,355 Q1599,554 1482,463"/>
<path d="M1421,843 Q1574,995 1727,405"/>
<path d="M1421,843 Q1208,1038 996,529"/>
<path d="M1421,843 Q1393,862 1365,789"/>
<path d="M1421,843 Q1483,890 1546,800"/>
<path d="M1421,843 Q1371,878 1321,482"/>
<path d="M1421,843 Q1347,890 1274,781"/>
<path d="M1421,843 Q1455,876 1490,763"/>
<path d="M1421,843 Q1276,1058 1131,941"/>
<path d="M1421,843 Q1369,884 1318,459"/>
<path d="M1421,843 Q1428,848 1435,802"/>
<path d="M1421,843 Q1461,871 1502,836"/>
<path d="M1757,567 Q1611,684 1465,581"/>
<path d="M1757,567 Q1379,936 1002,569"/>
<path d="M1371,314 Q1482,547 1593,455"/>
<path d="M1371,314 Q1263,927 1155,825"/>
<path d="M1371,314 Q1608,634 1845,454"/>
<path d="M1371,314 Q1296,1011 1221,973"/>
<path d="M1371,314 Q1459,592 1548,545"/>
<path d="M1371,314 Q1288,851 1205,788"/>
<path d="M1371,314 Q1346,501 1321,482"/>
<path d="M1371,314 Q1517,685 1663,561"/>
<path d="M1371,314 Q1496,777 1621,700"/>
<path d="M1030,881 Q1175,982 1321,482"/>
<path d="M1030,881 Q1231,1049 1433,691"/>
<path d="M1030,881 Q1271,1036 1513,787"/>
<path d="M1405,534 Q1363,564 1321,482"/>
<path d="M1098,642 Q1332,893 1566,678"/>
<path d="M1098,642 Q1408,1003 1719,703"/>
<path d="M1098,642 Q994,843 890,745"/>
<path d="M1098,642 Q1249,850 1400,717"/>
<path d="M1098,642 Q1430,862 1762,624"/>
<path d="M1098,642 Q1015,721 932,634"/>
<path d="M1098,642 Q963,725 829,241"/>
<path d="M1098,642 Q1201,843 1304,753"/>
<path d="M1098,642 Q1412,963 1726,689"/>
<path d="M1509,430 Q1415,532 1321,482"/>
<path d="M823,458 Q1307,797 1792,491"/>
<path d="M823,458 Q815,599 808,594"/>
<path d="M829,373 Q1119,969 1409,743"/>
<path d="M829,373 Q939,473 1049,363"/>
<path d="M829,373 Q891,457 954,409"/>
<path d="M829,373 Q516,648 204,468"/>
<path d="M829,373 Q1171,1123 1513,787"/>
<path d="M1479,597 Q1513,620 1548,510"/>
<path d="M1479,597 Q1457,816 1435,802"/>
<path d="M1479,597 Q1677,793 1876,539"/>
<path d="M1479,597 Q1697,738 1915,386"/>
<path d="M1660,475 Q1461,666 1263,309"/>
<path d="M1660,475 Q1756,566 1852,466"/>
<path d="M1660,475 Q1474,841 1288,721"/>
<path d="M1660,475 Q1626,502 1593,455"/>
<path d="M1660,475 Q1555,571 1451,348"/>
<path d="M1660,475 Q1604,593 1548,545"/>
<path d="M1660,475 Q1482,1082 1305,954"/>
<path d="M1660,475 Q1571,526 1482,394"/>
<path d="M933,581 Q1223,1051 1513,787"/>
<path d="M1304,528 Q1224,574 1144,396"/>
<path d="M1304,528 Q1175,635 1046,558"/>
<path d="M1304,528 Q1253,553 1202,410"/>
<path d="M1304,528 Q1408,883 1513,787"/>
<path d="M1304,528 Q1269,845 1235,813"/>
<path d="M1350,676 Q1538,783 1727,405"/>
<path d="M1350,676 Q972,919 594,347"/>
<path d="M1350,676 Q1323,756 1296,738"/>
<path d="M1350,676 Q1375,741 1400,717"/>
<path d="M1350,676 Q1211,853 1073,764"/>
<path d="M1350,676 Q1420,808 1490,763"/>
<path d="M1350,676 Q885,1130 421,716"/>
<path d="M1350,676 Q1611,810 1873,593"/>
<path d="M1350,676 Q1327,772 1304,753"/>
<path d="M1350,676 Q1426,882 1502,836"/>
<path d="M1350,676 Q1571,894 1792,491"/>
<path d="M1350,676 Q1394,703 1439,679"/>
<path d="M1350,676 Q1150,883 950,716"/>
<path d="M1350,676 Q1524,923 1699,788"/>
<path d="M1350,676 Q1324,693 1299,647"/>
<path d="M1350,676 Q1344,744 1339,740"/>
<path d="M1514,675 Q1303,877 1093,302"/>
<path d="M1514,675 Q1525,716 1537,710"/>
<path d="M1245,635 Q1254,639 1263,309"/>
<path d="M1245,635 Q1266,732 1288,721"/>
<path d="M1245,635 Q1283,664 1321,482"/>
<path d="M1245,635 Q1149,1018 1053,933"/>
<path d="M1245,635 Q1169,852 1093,793"/>
<path d="M1245,635 Q1135,694 1026,405"/>
<path d="M1245,635 Q1452,835 1660,386"/>
<path d="M1245,635 Q1255,906 1266,898"/>
<path d="M1245,635 Q1327,689 1409,545"/>
<path d="M1245,635 Q1449,835 1654,676"/>
<path d="M1245,635 Q1508,797 1772,329"/>
<path d="M1245,635 Q975,886 706,533"/>
<path d="M1245,635 Q1424,819 1603,715"/>
<path d="M1245,635 Q1363,751 1482,394"/>
<path d="M1437,779 Q1423,786 1409,743"/>
<path d="M985,102 Q1250,962 1516,723"/>
<path d="M985,102 Q1153,590 1321,482"/>
<path d="M985,102 Q974,945 963,937"/>
<path d="M985,102 Q1019,121 1054,54"/>
<path d="M1487,318 Q1404,545 1321,482"/>
<path d="M1487,318 Q1241,712 996,529"/>
<path d="M960,675 Q1334,915 1709,580"/>
<path d="M960,675 Q955,720 950,716"/>
<path d="M960,675 Q978,688 996,529"/>
<path d="M960,675 Q1139,852 1318,459"/>
<path d="M960,675 Q1225,918 1490,763"/>
<path d="M1525,473 Q1288,674 1052,426"/>
<path d="M1188,546 Q1367,924 1546,800"/>
<path d="M1188,546 Q1377,836 1566,678"/>
<path d="M1188,546 Q1253,586 1318,459"/>
<path d="M1368,556 Q1344,575 1321,482"/>
<path d="M1384,503 Q1352,527 1321,482"/>
<path d="M1502,836 Q1262,1008 1022,610"/>
<path d="M1502,836 Q1554,888 1607,859"/>
<path d="M1502,836 Q1524,848 1546,800"/>
<path d="M1502,836 Q1455,880 1409,743"/>
<path d="M1502,836 Q1410,882 1318,459"/>
<path d="M1502,836 Q1412,883 1323,814"/>
<path d="M1502,836 Q1507,838 1513,787"/>
<path d="M1502,836 Q1538,921 1575,898"/>
<path d="M1502,836 Q1411,888 1321,482"/>
<path d="M1502,836 Q1518,881 1535,871"/>
<path d="M1502,836 Q1493,840 1485,797"/>
<path d="M1502,836 Q1249,994 996,529"/>
<path d="M1502,836 Q1257,1074 1013,738"/>
<path d="M1144,837 Q1189,861 1235,813"/>
<path d="M657,652 Q998,993 1339,740"/>
<path d="M1321,482 Q1183,591 1045,385"/>
<path d="M1321,482 Q1312,759 1304,753"/>
<path d="M1321,482 Q1140,764 959,596"/>
<path d="M1321,482 Q1410,536 1499,331"/>
<path d="M1321,482 Q1469,791 1618,663"/>
<path d="M1321,482 Q1263,550 1206,494"/>
<path d="M1321,482 Q1448,588 1575,482"/>
<path d="M1321,482 Q1343,499 1365,269"/>
<path d="M1321,482 Q1279,544 1237,518"/>
<path d="M1321,482 Q1233,800 1145,744"/>
<path d="M1321,482 Q1417,843 1513,787"/>
<path d="M1321,482 Q1365,770 1409,743"/>
<path d="M1321,482 Q1412,548 1503,420"/>
<path d="M1321,482 Q1306,809 1292,800"/>
<path d="M1321,482 Q1449,729 1577,619"/>
<path d="M1321,482 Q1360,743 1400,717"/>
<path d="M1321,482 Q1075,682 829,241"/>
<path d="M1321,482 Q1286,516 1252,293"/>
<path d="M1321,482 Q1137,636 954,409"/>
<path d="M1321,482 Q1349,662 1377,640"/>
<path d="M1321,482 Q1556,651 1792,491"/>
<path d="M1321,482 Q1185,611 1049,363"/>
<path d="M1321,482 Q1596,737 1871,493"/>
<path d="M1321,482 Q1186,597 1052,426"/>
<path d="M1321,482 Q1131,629 942,353"/>
<path d="M1321,482 Q1064,752 808,594"/>
<path d="M1548,545 Q1434,606 1321,482"/>
<path d="M1548,545 Q1409,837 1270,764"/>
<path d="M1365,789 Q1578,932 1792,491"/>
<path d="M1365,789 Q1209,1070 1053,933"/>
<path d="M1365,789 Q1439,833 1513,787"/>
<path d="M821,819 Q1115,1054 1409,743"/>
<path d="M821,819 Q933,1116 1045,1059"/>
<path d="M821,819 Q1167,1022 1513,787"/>
<path d="M758,674 Q764,680 771,610"/>
<path d="M834,606 Q636,914 438,740"/>
<path d="M834,606 Q1306,924 1779,377"/>
<path d="M1757,518 Q1660,604 1564,394"/>
<path d="M1757,518 Q1675,599 1593,455"/>
<path d="M1757,518 Q1649,639 1542,555"/>
<path d="M1682,876 Q1545,953 1409,743"/>
<path d="M1682,876 Q1592,935 1502,836"/>
<path d="M1002,569 Q905,659 808,594"/>
<path d="M1399,828 Q1563,965 1727,405"/>
<path d="M1399,828 Q1059,1005 720,484"/>
<path d="M1399,828 Q1273,907 1148,614"/>
<path d="M1399,828 Q1444,863 1490,763"/>
<path d="M1399,828 Q1438,863 1477,626"/>
<path d="M1399,828 Q1457,876 1516,723"/>
<path d="M1399,828 Q1350,857 1302,657"/>
<path d="M1399,828 Q1388,836 1377,640"/>
<path d="M1399,828 Q1226,1018 1054,921"/>
<path d="M1399,828 Q1360,855 1321,482"/>
<path d="M1399,828 Q1180,983 961,223"/>
<path d="M1399,828 Q1246,946 1093,302"/>
<path d="M1399,828 Q1468,863 1537,710"/>
<path d="M1474,607 Q1397,662 1321,482"/>
<path d="M1474,607 Q1425,672 1377,640"/>
<path d="M1474,607 Q1133,921 793,581"/>
<path d="M1474,607 Q1482,767 1490,763"/>
<path d="M996,529 Q1271,1073 1546,800"/>
<path d="M996,529 Q1236,758 1477,626"/>
<path d="M996,529 Q1240,936 1485,797"/>
<path d="M996,529 Q1063,990 1131,941"/>
<path d="M996,529 Q1072,656 1148,614"/>
<path d="M996,529 Q1159,960 1323,814"/>
<path d="M996,529 Q999,570 1002,569"/>
<path d="M996,529 Q1265,1121 1535,871"/>
<path d="M996,529 Q1276,1013 1557,781"/>
<path d="M1594,726 Q1732,841 1871,493"/>
<path d="M1594,726 Q1660,772 1727,405"/>
<path d="M1594,726 Q1584,732 1575,482"/>
<path d="M1594,726 Q1323,1175 1053,933"/>
<path d="M1226,472 Q1273,525 1321,482"/>
<path d="M1529,483 Q1561,503 1593,455"/>
<path d="M1241,877 Q1181,1009 1122,963"/>
<path d="M1241,877 Q1325,958 1409,743"/>
<path d="M1241,877 Q1231,981 1221,973"/>
<path d="M1241,877 Q1238,918 1235,917"/>
<path d="M1241,877 Q1371,1035 1501,912"/>
<path d="M1241,877 Q1282,904 1323,814"/>
<path d="M1241,877 Q1293,935 1346,900"/>
<path d="M1241,877 Q1147,983 1053,933"/>
<path d="M1241,877 Q1245,1026 1250,1024"/>
<path d="M1241,877 Q1266,902 1292,800"/>
<path d="M1241,877 Q1255,890 1270,764"/>
<path d="M1241,877 Q1192,920 1143,804"/>
<path d="M1241,877 Q1198,902 1155,825"/>
<path d="M1241,877 Q1236,936 1231,933"/>
<path d="M1241,877 Q1238,878 1235,813"/>
<path d="M1241,877 Q1171,1055 1102,992"/>
<path d="M1241,877 Q1223,890 1205,820"/>
<path d="M1241,877 Q1377,995 1513,787"/>
<path d="M1241,877 Q1340,988 1440,892"/>
<path d="M1241,877 Q1158,960 1076,905"/>
<path d="M1241,877 Q1273,985 1305,954"/>
<path d="M1241,877 Q1118,997 996,529"/>
<path d="M1241,877 Q1223,891 1205,788"/>
<path d="M1501,912 Q1366,1058 1231,933"/>
<path d="M1221,973 Q1269,1000 1318,459"/>
<path d="M1221,973 Q1355,1082 1490,763"/>
<path d="M1221,973 Q1161,1044 1102,992"/>
<path d="M863,573 Q1131,985 1399,828"/>
<path d="M863,573 Q1120,841 1377,640"/>
<path d="M867,489 Q914,530 961,223"/>
<path d="M867,489 Q977,605 1087,545"/>
<path d="M867,489 Q981,751 1095,672"/>
<path d="M867,489 Q845,506 823,458"/>
<path d="M867,489 Q903,519 940,430"/>
<path d="M867,489 Q1190,999 1513,787"/>
<path d="M898,494 Q947,565 996,529"/>
<path d="M898,494 Q1153,932 1409,743"/>
<path d="M898,494 Q928,580 958,559"/>
<path d="M898,494 Q927,520 957,372"/>
<path d="M898,494 Q1225,752 1552,414"/>
<path d="M958,559 Q974,637 991,625"/>
<path d="M958,559 Q1179,864 1400,717"/>
<path d="M1663,528 Q1378,1062 1093,793"/>
<path d="M1663,528 Q1628,556 1593,455"/>
<path d="M1663,528 Q1572,611 1482,463"/>
<path d="M1663,528 Q1549,878 1435,802"/>
<path d="M1663,528 Q1754,575 1845,454"/>
<path d="M1663,528 Q1789,604 1915,386"/>
<path d="M1652,354 Q1715,422 1779,377"/>
<path d="M879,522 Q1000,1024 1122,963"/>
<path d="M879,522 Q1011,931 1143,804"/>
<path d="M879,522 Q818,724 758,674"/>
<path d="M1553,354 Q1323,553 1093,302"/>
<path d="M1553,354 Q1640,455 1727,405"/>
<path d="M1820,392 Q1773,433 1727,405"/>
<path d="M1820,392 Q1614,900 1409,743"/>
<path d="M1820,392 Q1668,503 1517,293"/>
<path d="M1820,392 Q1456,736 1093,302"/>
<path d="M1820,392 Q1666,898 1513,787"/>
<path d="M1691,714 Q1709,725 1727,405"/>
<path d="M1691,714 Q1642,745 1593,455"/>
<path d="M1691,714 Q1586,805 1482,463"/>
<path d="M1691,714 Q1506,826 1321,482"/>
<path d="M1691,714 Q1735,742 1779,377"/>
<path d="M1691,714 Q1673,726 1655,626"/>
<path d="M1758,531 Q1655,584 1553,354"/>
<path d="M1758,531 Q1742,545 1727,405"/>
<path d="M1758,531 Q1732,545 1706,313"/>
<path d="M835,756 Q1122,995 1409,743"/>
<path d="M835,756 Q1069,906 1304,753"/>
<path d="M835,756 Q922,861 1010,795"/>
<path d="M835,756 Q1078,987 1321,482"/>
<path d="M835,756 Q1174,959 1513,787"/>
<path d="M835,756 Q883,800 931,651"/>
<path d="M1292,800 Q1263,840 1235,813"/>
<path d="M1416,581 Q1368,611 1321,482"/>
<path d="M1416,581 Q1440,601 1464,555"/>
<path d="M1416,581 Q1203,809 991,625"/>
<path d="M1416,581 Q1464,833 1513,787"/>
<path d="M1416,581 Q1249,745 1082,314"/>
<path d="M1144,396 Q1050,456 957,372"/>
<path d="M1144,396 Q1232,560 1321,482"/>
<path d="M1144,396 Q1049,482 954,409"/>
<path d="M1144,396 Q1144,744 1145,744"/>
<path d="M1144,396 Q1328,962 1513,787"/>
<path d="M1144,396 Q1094,442 1045,385"/>
<path d="M1013,738 Q1211,845 1409,743"/>
<path d="M1013,738 Q1050,771 1087,545"/>
<path d="M1095,624 Q1265,1030 1436,871"/>
<path d="M1095,624 Q1084,771 1073,764"/>
<path d="M1755,637 Q1582,867 1409,743"/>
<path d="M1755,637 Q1718,912 1682,876"/>
<path d="M1755,637 Q1732,652 1709,580"/>
<path d="M1755,637 Q1373,859 991,625"/>
<path d="M1755,637 Q1727,807 1699,788"/>
<path d="M1076,905 Q1242,999 1409,743"/>
<path d="M1369,329 Q1345,504 1321,482"/>
<path d="M1369,329 Q1137,549 905,309"/>
<path d="M1633,893 Q1582,923 1532,858"/>
<path d="M1633,893 Q1636,896 1640,811"/>
<path d="M1007,548 Q1047,578 1087,545"/>
<path d="M991,625 Q996,628 1002,569"/>
<path d="M991,625 Q962,648 933,581"/>
<path d="M1220,1034 Q970,1176 720,484"/>
<path d="M1220,1034 Q1148,1081 1076,905"/>
<path d="M917,539 Q1381,849 1845,454"/>
<path d="M917,539 Q956,568 996,529"/>
<path d="M1792,491 Q1418,1417 1045,1059"/>
<path d="M1738,750 Q1728,755 1719,703"/>
<path d="M1719,703 Q1695,720 1671,538"/>
<path d="M1719,703 Q1245,1032 771,610"/>
<path d="M1719,703 Q1765,728 1812,577"/>
<path d="M1719,703 Q1577,1001 1436,871"/>
<path d="M1719,703 Q1591,788 1464,555"/>
<path d="M671,520 Q676,562 682,560"/>
<path d="M671,520 Q1221,984 1772,329"/>
<path d="M671,520 Q1092,1103 1513,787"/>
<path d="M851,420 Q891,666 932,634"/>
<path d="M851,420 Q1086,705 1321,482"/>
<path d="M851,420 Q1182,1008 1513,787"/>
<path d="M851,420 Q950,479 1049,363"/>
<path d="M1873,593 Q1233,1035 594,347"/>
<path d="M1873,593 Q1584,893 1296,738"/>
<path d="M1873,593 Q1597,811 1321,482"/>
<path d="M1873,593 Q1434,1011 996,529"/>
<path d="M1726,689 Q1576,790 1426,285"/>
<path d="M1726,689 Q1659,824 1593,779"/>
<path d="M1726,689 Q1637,777 1548,510"/>
<path d="M1726,689 Q1717,694 1709,580"/>
<path d="M1726,689 Q1660,743 1594,602"/>
<path d="M1726,689 Q1611,774 1497,502"/>
<path d="M1726,689 Q1619,891 1513,787"/>
<path d="M1726,689 Q1595,767 1464,555"/>
<path d="M1726,689 Q1523,861 1321,482"/>
<path d="M1726,689 Q1690,733 1654,711"/>
<path d="M1726,689 Q1689,723 1652,334"/>
<path d="M1726,689 Q1369,1002 1013,738"/>
<path d="M1726,689 Q1716,832 1707,827"/>
<path d="M1726,689 Q1690,718 1655,626"/>
<path d="M960,443 Q1180,919 1400,717"/>
<path d="M1052,426 Q1379,1147 1707,866"/>
<path d="M1052,426 Q1282,970 1513,787"/>
<path d="M1840,414 Q1842,456 1845,454"/>
<path d="M1812,577 Q1662,863 1513,787"/>
<path d="M1812,577 Q1532,790 1252,293"/>
<path d="M1155,825 Q1203,859 1251,832"/>
<path d="M1155,825 Q1144,832 1133,435"/>
<path d="M1155,825 Q1236,888 1318,459"/>
<path d="M1155,825 Q1322,990 1490,763"/>
<path d="M1155,825 Q1228,867 1302,657"/>
<path d="M1155,825 Q1297,1004 1440,892"/>
<path d="M1155,825 Q1467,1041 1779,377"/></g><g font-family="Monospace"><text y="543" x="1596" font-size="10" fill="#0000ff">iputils</text>
<text y="597" x="1698" font-size="10" fill="#6a6aa2">libmad</text>
<text y="484" x="1171" font-size="10" fill="#0000ff">xf86-video-savage</text>
<text y="723" x="1510" font-size="10" fill="#6a6aa2">gd</text>
<text y="753" x="1291" font-size="10" fill="#6a6aa2">gdbm</text>
<text y="704" x="1350" font-size="10" fill="#0000ff">python2-docutils</text>
<text y="555" x="1447" font-size="11" fill="#6a6aa2">gpgme</text>
<text y="654" x="712" font-size="10" fill="#0000ff">urxvt-url-select</text>
<text y="979" x="1295" font-size="13" fill="#0000ff">lib32-ati-dri</text>
<text y="456" x="892" font-size="10" fill="#0000ff">pptpclient</text>
<text y="617" x="1803" font-size="10" fill="#6a6aa2">mpg123</text>
<text y="345" x="1686" font-size="10" fill="#6a6aa2">giflib</text>
<text y="820" x="1189" font-size="10" fill="#6a6aa2">libxt</text>
<text y="46" x="0" font-size="55" fill="#0000ff">4982MB</text>
<text y="803" x="1060" font-size="10" fill="#0000ff">junit</text>
<text y="752" x="1582" font-size="10" fill="#0000ff">unzip</text>
<text y="733" x="1764" font-size="10" fill="#6a6aa2">libusb-compat</text>
<text y="721" x="1262" font-size="10" fill="#6a6aa2">libxfont</text>
<text y="459" x="1298" font-size="16" fill="#6a6aa2">gtk2</text>
<text y="763" x="1461" font-size="23" fill="#6a6aa2">gtk3</text>
<text y="602" x="1581" font-size="10" fill="#6a6aa2">jack</text>
<text y="502" x="1478" font-size="10" fill="#6a6aa2">gnutls</text>
<text y="596" x="940" font-size="10" fill="#6a6aa2">dhcpcd</text>
<text y="557" x="1159" font-size="10" fill="#0000ff">xf86-video-ark</text>
<text y="921" x="1001" font-size="15" fill="#6a6aa2">ghostscript</text>
<text y="679" x="1407" font-size="11" fill="#0000ff">mercurial</text>
<text y="491" x="1046" font-size="10" fill="#0000ff">xf86-video-voodoo</text>
<text y="698" x="1456" font-size="10" fill="#6a6aa2">libxcomposite</text>
<text y="532" x="1113" font-size="10" fill="#0000ff">xf86-video-dummy</text>
<text y="454" x="1244" font-size="10" fill="#0000ff">licenses</text>
<text y="780" x="922" font-size="10" fill="#6a6aa2">libxslt</text>
<text y="706" x="1745" font-size="10" fill="#6a6aa2">libspectre</text>
<text y="936" x="1332" font-size="11" fill="#0000ff">xf86-video-vmware</text>
<text y="740" x="368" font-size="12" fill="#6a6aa2">gstreamer0.10-base</text>
<text y="448" x="1648" font-size="10" fill="#0000ff">xorg-x11perf</text>
<text y="437" x="1788" font-size="10" fill="#6a6aa2">libproxy</text>
<text y="303" x="1321" font-size="10" fill="#6a6aa2">libgpg-error</text>
<text y="669" x="1112" font-size="17" fill="#0000ff">wireshark-cli</text>
<text y="569" x="1108" font-size="10" fill="#0000ff">cpufrequtils</text>
<text y="1059" x="1000" font-size="28" fill="#0000ff">boost</text>
<text y="518" x="1224" font-size="10" fill="#0000ff">acpi</text>
<text y="568" x="763" font-size="10" fill="#6a6aa2">libsndfile</text>
<text y="744" x="1132" font-size="10" fill="#6a6aa2">gawk</text>
<text y="569" x="1552" font-size="10" fill="#6a6aa2">libxvmc</text>
<text y="634" x="910" font-size="10" fill="#6a6aa2">libltdl</text>
<text y="922" x="1510" font-size="10" fill="#0000ff">zathura-pdf-poppler</text>
<text y="223" x="818" font-size="21" fill="#6a6aa2">jre7-openjdk-headless</text>
<text y="777" x="1303" font-size="10" fill="#0000ff">python2-feedparser</text>
<text y="367" x="1844" font-size="10" fill="#6a6aa2">xextproto</text>
<text y="743" x="1383" font-size="10" fill="#6a6aa2">gcc-libs</text>
<text y="545" x="1056" font-size="14" fill="#0000ff">firefox</text>
<text y="859" x="1462" font-size="10" fill="#6a6aa2">lcms2</text>
<text y="678" x="1547" font-size="10" fill="#6a6aa2">sqlite</text>
<text y="447" x="1786" font-size="10" fill="#6a6aa2">libxcb</text>
<text y="430" x="898" font-size="12" fill="#0000ff">flashplugin</text>
<text y="1047" x="1283" font-size="10" fill="#6a6aa2">zip</text>
<text y="517" x="963" font-size="10" fill="#0000ff">syslog-ng</text>
<text y="581" x="784" font-size="10" fill="#0000ff">feh</text>
<text y="651" x="911" font-size="16" fill="#6a6aa2">perl</text>
<text y="451" x="1402" font-size="10" fill="#6a6aa2">m4</text>
<text y="580" x="1684" font-size="11" fill="#6a6aa2">libxml2</text>
<text y="788" x="1176" font-size="10" fill="#6a6aa2">libxrandr</text>
<text y="729" x="1623" font-size="10" fill="#6a6aa2">libpulse</text>
<text y="405" x="1660" font-size="19" fill="#0000ff">gomplay-git</text>
<text y="1008" x="1205" font-size="23" fill="#0000ff">libreoffice-sdk</text>
<text y="454" x="1826" font-size="10" fill="#6a6aa2">libxmu</text>
<text y="588" x="1592" font-size="10" fill="#6a6aa2">opencore-amr</text>
<text y="555" x="1510" font-size="10" fill="#0000ff">xorg-utils</text>
<text y="387" x="945" font-size="10" fill="#6a6aa2">flac</text>
<text y="575" x="1034" font-size="10" fill="#6a6aa2">sysfsutils</text>
<text y="507" x="1036" font-size="10" fill="#6a6aa2">xcb-util</text>
<text y="918" x="1298" font-size="10" fill="#0000ff">lib32-intel-dri</text>
<text y="887" x="1503" font-size="11" fill="#0000ff">pstoedit</text>
<text y="716" x="386" font-size="10" fill="#6a6aa2">dbus-python</text>
<text y="953" x="1076" font-size="10" fill="#0000ff">terminus-font</text>
<text y="302" x="1001" font-size="11" fill="#0000ff">gstreamer0.10-good-plugins</text>
<text y="619" x="1561" font-size="10" fill="#6a6aa2">faad2</text>
<text y="740" x="1320" font-size="10" fill="#0000ff">archey</text>
<text y="346" x="1240" font-size="10" fill="#0000ff">xf86-video-sis</text>
<text y="424" x="1131" font-size="10" fill="#0000ff">xf86-video-sisusb</text>
<text y="687" x="1508" font-size="10" fill="#6a6aa2">lcms</text>
<text y="538" x="1658" font-size="10" fill="#6a6aa2">krb5</text>
<text y="578" x="1596" font-size="10" fill="#0000ff">alsa-utils</text>
<text y="963" x="1070" font-size="10" fill="#6a6aa2">lib32-fontconfig</text>
<text y="852" x="1753" font-size="10" fill="#0000ff">links</text>
<text y="520" x="1162" font-size="10" fill="#0000ff">sudo</text>
<text y="871" x="1526" font-size="10" fill="#6a6aa2">atk</text>
<text y="494" x="1250" font-size="10" fill="#0000ff">logrotate</text>
<text y="818" x="1772" font-size="10" fill="#0000ff">socat</text>
<text y="665" x="1406" font-size="10" fill="#6a6aa2">gsettings-desktop-schemas</text>
<text y="676" x="1589" font-size="10" fill="#6a6aa2">xorg-fonts-encodings</text>
<text y="344" x="1488" font-size="10" fill="#0000ff">xorg-xkbutils</text>
<text y="391" x="1316" font-size="10" fill="#0000ff">xf86-video-s3virge</text>
<text y="608" x="1547" font-size="10" fill="#6a6aa2">lame</text>
<text y="957" x="1455" font-size="12" fill="#0000ff">uniconvertor</text>
<text y="594" x="782" font-size="10" fill="#6a6aa2">alsa-lib</text>
<text y="781" x="1252" font-size="10" fill="#6a6aa2">librsvg</text>
<text y="558" x="1017" font-size="10" fill="#6a6aa2">dbus-core</text>
<text y="898" x="1214" font-size="10" fill="#6a6aa2">xorg-fonts-alias</text>
<text y="632" x="747" font-size="10" fill="#0000ff">alsa-oss</text>
<text y="826" x="881" font-size="10" fill="#0000ff">xorg-xkbevd</text>
<text y="761" x="1318" font-size="10" fill="#0000ff">gperf</text>
<text y="494" x="1519" font-size="10" fill="#0000ff">xorg-xcursorgen</text>
<text y="363" x="1026" font-size="24" fill="#6a6aa2">gcc</text>
<text y="729" x="1371" font-size="10" fill="#6a6aa2">polkit</text>
<text y="940" x="1639" font-size="10" fill="#0000ff">aspell-en</text>
<text y="900" x="1332" font-size="11" fill="#6a6aa2">mesa</text>
<text y="800" x="845" font-size="10" fill="#0000ff">zathura-ps</text>
<text y="840" x="920" font-size="10" fill="#0000ff">lib32-mpg123</text>
<text y="493" x="1849" font-size="10" fill="#6a6aa2">fribidi</text>
<text y="455" x="1572" font-size="11" fill="#6a6aa2">libx11</text>
<text y="342" x="1384" font-size="10" fill="#0000ff">powertop</text>
<text y="583" x="1500" font-size="10" fill="#0000ff">fswebcam</text>
<text y="905" x="1613" font-size="10" fill="#6a6aa2">pciutils</text>
<text y="473" x="1073" font-size="10" fill="#0000ff">xf86-video-r128</text>
<text y="333" x="831" font-size="10" fill="#0000ff">xmobar</text>
<text y="544" x="1248" font-size="10" fill="#0000ff">xf86-video-ast</text>
<text y="811" x="1624" font-size="10" fill="#6a6aa2">hwids</text>
<text y="679" x="1257" font-size="10" fill="#0000ff">jna</text>
<text y="442" x="1465" font-size="10" fill="#0000ff">xorg-xkill</text>
<text y="442" x="1607" font-size="10" fill="#0000ff">htop</text>
<text y="765" x="1756" font-size="10" fill="#0000ff">mutt</text>
<text y="462" x="1339" font-size="10" fill="#0000ff">xf86-video-mach64</text>
<text y="560" x="647" font-size="11" fill="#6a6aa2">ttf-dejavu</text>
<text y="313" x="1687" font-size="10" fill="#6a6aa2">libogg</text>
<text y="764" x="1235" font-size="10" fill="#6a6aa2">lib32-libsm</text>
<text y="501" x="716" font-size="10" fill="#0000ff">v4l2ucp</text>
<text y="329" x="1724" font-size="10" fill="#6a6aa2">xorg-font-utils</text>
<text y="764" x="1583" font-size="10" fill="#6a6aa2">libcups</text>
<text y="545" x="1390" font-size="10" fill="#6a6aa2">pixman</text>
<text y="331" x="1486" font-size="10" fill="#0000ff">flex</text>
<text y="567" x="1193" font-size="10" fill="#0000ff">xf86-input-acecad</text>
<text y="688" x="1587" font-size="10" fill="#6a6aa2">libtiff</text>
<text y="449" x="1122" font-size="10" fill="#0000ff">xf86-input-keyboard</text>
<text y="602" x="1757" font-size="19" fill="#6a6aa2">python</text>
<text y="569" x="1340" font-size="10" fill="#6a6aa2">libidn</text>
<text y="648" x="1691" font-size="10" fill="#6a6aa2">xvidcore</text>
<text y="162" x="1017" font-size="11" fill="#0000ff">texlive-publishers</text>
<text y="462" x="1108" font-size="10" fill="#0000ff">xf86-video-xgixp</text>
<text y="365" x="1714" font-size="10" fill="#6a6aa2">openjpeg</text>
<text y="510" x="874" font-size="10" fill="#0000ff">reiserfsprogs</text>
<text y="715" x="1561" font-size="10" fill="#6a6aa2">systemd-tools</text>
<text y="647" x="1563" font-size="10" fill="#6a6aa2">libdca</text>
<text y="672" x="1082" font-size="10" fill="#6a6aa2">nspr</text>
<text y="525" x="916" font-size="10" fill="#6a6aa2">dbus</text>
<text y="379" x="1135" font-size="10" fill="#0000ff">xf86-video-cirrus</text>
<text y="533" x="1471" font-size="10" fill="#0000ff">xf86-video-xgi</text>
<text y="622" x="719" font-size="10" fill="#6a6aa2">lib32-libxext</text>
<text y="674" x="856" font-size="10" fill="#6a6aa2">libsm</text>
<text y="657" x="1283" font-size="10" fill="#6a6aa2">jasper</text>
<text y="821" x="1033" font-size="10" fill="#0000ff">xorg-smproxy</text>
<text y="800" x="1530" font-size="10" fill="#6a6aa2">cairo</text>
<text y="380" x="1249" font-size="10" fill="#0000ff">xf86-video-rendition</text>
<text y="716" x="711" font-size="41" fill="#6a6aa2">libreoffice-common</text>
<text y="937" x="938" font-size="11" fill="#6a6aa2">poppler</text>
<text y="581" x="1452" font-size="10" fill="#0000ff">wicd</text>
<text y="735" x="1196" font-size="10" fill="#6a6aa2">run-parts</text>
<text y="722" x="1425" font-size="10" fill="#0000ff">vloopback-svn</text>
<text y="982" x="1525" font-size="14" fill="#6a6aa2">jdk7-openjdk</text>
<text y="389" x="852" font-size="10" fill="#6a6aa2">mozilla-common</text>
<text y="827" x="1698" font-size="10" fill="#0000ff">ntp</text>
<text y="420" x="1619" font-size="10" fill="#0000ff">wmname</text>
<text y="463" x="1450" font-size="10" fill="#6a6aa2">libxrender</text>
<text y="871" x="1420" font-size="10" fill="#6a6aa2">gconf</text>
<text y="802" x="1416" font-size="10" fill="#6a6aa2">libxft</text>
<text y="581" x="1151" font-size="10" fill="#6a6aa2">orc</text>
<text y="787" x="1500" font-size="10" fill="#6a6aa2">bash</text>
<text y="803" x="1324" font-size="10" fill="#6a6aa2">poppler-glib</text>
<text y="766" x="1403" font-size="10" fill="#0000ff">dmenu</text>
<text y="723" x="494" font-size="10" fill="#6a6aa2">python2-pyparsing</text>
<text y="790" x="1772" font-size="10" fill="#6a6aa2">openssh</text>
<text y="570" x="1398" font-size="10" fill="#0000ff">xf86-video-trident</text>
<text y="788" x="1674" font-size="11" fill="#6a6aa2">openssl</text>
<text y="314" x="1050" font-size="10" fill="#6a6aa2">libarchive</text>
<text y="452" x="1433" font-size="10" fill="#0000ff">xf86-video-tseng</text>
<text y="482" x="982" font-size="10" fill="#0000ff">jfsutils</text>
<text y="406" x="1082" font-size="10" fill="#0000ff">xf86-video-fbdev</text>
<text y="557" x="734" font-size="10" fill="#0000ff">cryptsetup</text>
<text y="484" x="659" font-size="10" fill="#6a6aa2">lib32-libjpeg-turbo</text>
<text y="779" x="1580" font-size="10" fill="#0000ff">lvm2</text>
<text y="815" x="1736" font-size="10" fill="#6a6aa2">xz</text>
<text y="332" x="1255" font-size="10" fill="#0000ff">sshfs</text>
<text y="379" x="1499" font-size="10" fill="#0000ff">xorg-xwud</text>
<text y="650" x="1419" font-size="10" fill="#6a6aa2">gtk-update-icon-cache</text>
<text y="702" x="1203" font-size="10" fill="#6a6aa2">gpm</text>
<text y="772" x="1018" font-size="10" fill="#6a6aa2">mpfr</text>
<text y="639" x="1438" font-size="10" fill="#6a6aa2">libxpm</text>
<text y="473" x="1762" font-size="10" fill="#6a6aa2">libxfixes</text>
<text y="982" x="1026" font-size="10" fill="#6a6aa2">lib32-libxrender</text>
<text y="700" x="1586" font-size="10" fill="#6a6aa2">libxinerama</text>
<text y="347" x="472" font-size="27" fill="#0000ff">clang-analyzer</text>
<text y="614" x="1113" font-size="10" fill="#6a6aa2">gdk-pixbuf2</text>
<text y="488" x="1387" font-size="10" fill="#0000ff">xf86-video-i128</text>
<text y="858" x="1513" font-size="10" fill="#6a6aa2">libusb</text>
<text y="426" x="756" font-size="10" fill="#6a6aa2">libevent</text>
<text y="953" x="892" font-size="12" fill="#0000ff">xorg-fonts-100dpi</text>
<text y="519" x="1442" font-size="10" fill="#0000ff">pm-utils</text>
<text y="372" x="944" font-size="10" fill="#6a6aa2">grep</text>
<text y="336" x="1187" font-size="10" fill="#6a6aa2">libglapi</text>
<text y="871" x="984" font-size="10" fill="#0000ff">ttf-ms-fonts</text>
<text y="454" x="994" font-size="10" fill="#0000ff">zsh</text>
<text y="442" x="1268" font-size="10" fill="#0000ff">xf86-input-mouse</text>
<text y="775" x="1081" font-size="10" fill="#6a6aa2">lib32-libxfixes</text>
<text y="473" x="887" font-size="10" fill="#0000ff">xfsprogs</text>
<text y="738" x="1276" font-size="16" fill="#0000ff">gvim</text>
<text y="279" x="1223" font-size="10" fill="#6a6aa2">xorg-xset</text>
<text y="797" x="1456" font-size="10" fill="#6a6aa2">dbus-glib</text>
<text y="793" x="1061" font-size="10" fill="#6a6aa2">libxkbfile</text>
<text y="700" x="1262" font-size="10" fill="#6a6aa2">djvulibre</text>
<text y="621" x="1302" font-size="10" fill="#0000ff">which</text>
<text y="664" x="991" font-size="10" fill="#0000ff">alsi</text>
<text y="620" x="1521" font-size="10" fill="#6a6aa2">libcap</text>
<text y="510" x="565" font-size="10" fill="#6a6aa2">xorg-mkfontscale</text>
<text y="466" x="1820" font-size="10" fill="#6a6aa2">fixesproto</text>
<text y="343" x="1777" font-size="10" fill="#6a6aa2">xorg-xwininfo</text>
<text y="468" x="107" font-size="100" fill="#0000ff">ghc</text>
<text y="625" x="813" font-size="10" fill="#0000ff">alsa-plugins</text>
<text y="626" x="1610" font-size="20" fill="#0000ff">mplayer</text>
<text y="580" x="1305" font-size="10" fill="#0000ff">xf86-video-apm</text>
<text y="814" x="1265" font-size="10" fill="#6a6aa2">desktop-file-utils</text>
<text y="759" x="606" font-size="13" fill="#0000ff">xf86-video-ati</text>
<text y="54" x="1038" font-size="10" fill="#6a6aa2">t1lib</text>
<text y="470" x="1542" font-size="10" fill="#0000ff">nano</text>
<text y="662" x="1704" font-size="10" fill="#6a6aa2">libxxf86dga</text>
<text y="353" x="916" font-size="10" fill="#0000ff">fakeroot</text>
<text y="651" x="1175" font-size="10" fill="#6a6aa2">jre7-openjdk</text>
<text y="401" x="1223" font-size="10" fill="#0000ff">xf86-video-siliconmotion</text>
<text y="394" x="1529" font-size="10" fill="#0000ff">compton-git</text>
<text y="686" x="1777" font-size="10" fill="#0000ff">autossh</text>
<text y="644" x="806" font-size="10" fill="#0000ff">xf86-video-intel</text>
<text y="917" x="1196" font-size="10" fill="#6a6aa2">lib32-libx11</text>
<text y="385" x="1016" font-size="10" fill="#6a6aa2">findutils</text>
<text y="830" x="1583" font-size="10" fill="#6a6aa2">popt</text>
<text y="620" x="1722" font-size="10" fill="#6a6aa2">x264</text>
<text y="365" x="1325" font-size="15" fill="#0000ff">linux-headers</text>
<text y="588" x="740" font-size="12" fill="#6a6aa2">libgl</text>
<text y="933" x="1021" font-size="10" fill="#6a6aa2">fontconfig</text>
<text y="495" x="1618" font-size="10" fill="#6a6aa2">keyutils</text>
<text y="531" x="1228" font-size="10" fill="#0000ff">iptables</text>
<text y="745" x="877" font-size="10" fill="#6a6aa2">neon</text>
<text y="624" x="1755" font-size="11" fill="#6a6aa2">db</text>
<text y="597" x="1502" font-size="10" fill="#6a6aa2">kbd</text>
<text y="593" x="1195" font-size="10" fill="#0000ff">xf86-video-nv</text>
<text y="444" x="1012" font-size="10" fill="#6a6aa2">util-linux</text>
<text y="419" x="1291" font-size="10" fill="#0000ff">xf86-video-glint</text>
<text y="544" x="801" font-size="21" fill="#6a6aa2">qt</text>
<text y="430" x="1247" font-size="10" fill="#0000ff">patch</text>
<text y="490" x="1670" font-size="10" fill="#0000ff">xorg-xfontsel</text>
<text y="494" x="1190" font-size="10" fill="#0000ff">bison</text>
<text y="364" x="1498" font-size="10" fill="#6a6aa2">libvorbis</text>
<text y="600" x="1049" font-size="10" fill="#6a6aa2">python2-gobject2</text>
<text y="482" x="1562" font-size="10" fill="#6a6aa2">enca</text>
<text y="730" x="1529" font-size="10" fill="#6a6aa2">gsfonts</text>
<text y="319" x="1188" font-size="10" fill="#0000ff">xf86-input-vmmouse</text>
<text y="405" x="987" font-size="10" fill="#6a6aa2">libpciaccess</text>
<text y="331" x="1056" font-size="10" fill="#6a6aa2">sed</text>
<text y="430" x="843" font-size="10" fill="#0000ff">netcfg</text>
<text y="435" x="1197" font-size="10" fill="#0000ff">mdadm</text>
<text y="386" x="1896" font-size="10" fill="#6a6aa2">libxaw</text>
<text y="432" x="1601" font-size="10" fill="#0000ff">mozplugger-chromium</text>
<text y="394" x="1463" font-size="10" fill="#6a6aa2">libxau</text>
<text y="390" x="1185" font-size="10" fill="#6a6aa2">kmod</text>
<text y="741" x="1533" font-size="10" fill="#6a6aa2">v4l-utils</text>
<text y="269" x="1323" font-size="10" fill="#6a6aa2">device-mapper</text>
<text y="419" x="1658" font-size="10" fill="#0000ff">xorg-xlsfonts</text>
<text y="334" x="1643" font-size="10" fill="#6a6aa2">lua</text>
<text y="501" x="769" font-size="10" fill="#6a6aa2">libpng</text>
<text y="293" x="1495" font-size="10" fill="#0000ff">ncmpcpp</text>
<text y="810" x="884" font-size="10" fill="#6a6aa2">xdg-utils</text>
<text y="330" x="1089" font-size="12" fill="#0000ff">gcc-fortran</text>
<text y="476" x="1592" font-size="10" fill="#0000ff">msmtp</text>
<text y="859" x="1568" font-size="11" fill="#6a6aa2">imagemagick</text>
<text y="462" x="1670" font-size="10" fill="#0000ff">screen</text>
<text y="779" x="1765" font-size="10" fill="#0000ff">lynx</text>
<text y="309" x="1237" font-size="10" fill="#6a6aa2">libxdmcp</text>
<text y="764" x="1054" font-size="12" fill="#6a6aa2">pygtk</text>
<text y="533" x="677" font-size="10" fill="#6a6aa2">libgcrypt</text>
<text y="1024" x="1202" font-size="10" fill="#6a6aa2">lib32-libxrandr</text>
<text y="367" x="1618" font-size="10" fill="#0000ff">unclutter</text>
<text y="551" x="1752" font-size="10" fill="#6a6aa2">schroedinger</text>
<text y="561" x="1631" font-size="10" fill="#6a6aa2">libxxf86vm</text>
<text y="435" x="1124" font-size="10" fill="#0000ff">gtk</text>
<text y="1010" x="1122" font-size="10" fill="#0000ff">termsyn</text>
<text y="696" x="337" font-size="27" fill="#0000ff">python2-matplotlib</text>
<text y="610" x="964" font-size="10" fill="#6a6aa2">hicolor-icon-theme</text>
<text y="475" x="1392" font-size="10" fill="#0000ff">xf86-video-mga</text>
<text y="357" x="1122" font-size="21" fill="#0000ff">linux</text>
<text y="578" x="694" font-size="11" fill="#0000ff">mumble</text>
<text y="409" x="1427" font-size="10" fill="#0000ff">xf86-video-s3</text>
<text y="792" x="1573" font-size="10" fill="#0000ff">heirloom-mailx</text>
<text y="510" x="1523" font-size="11" fill="#6a6aa2">ncurses</text>
<text y="710" x="1518" font-size="10" fill="#6a6aa2">imlib2</text>
<text y="379" x="1683" font-size="10" fill="#0000ff">xorg-xpr</text>
<text y="286" x="1596" font-size="10" fill="#0000ff">xorg-xinit</text>
<text y="585" x="1000" font-size="10" fill="#6a6aa2">lib32-alsa-lib</text>
<text y="691" x="1417" font-size="10" fill="#6a6aa2">libnl</text>
<text y="429" x="1412" font-size="10" fill="#6a6aa2">zlib</text>
<text y="348" x="1438" font-size="10" fill="#0000ff">sxiv</text>
<text y="1025" x="980" font-size="11" fill="#0000ff">xorg-fonts-75dpi</text>
<text y="933" x="1189" font-size="12" fill="#6a6aa2">lib32-libgl</text>
<text y="377" x="1757" font-size="10" fill="#6a6aa2">libxext</text>
<text y="781" x="1541" font-size="10" fill="#6a6aa2">avahi</text>
<text y="515" x="1620" font-size="10" fill="#0000ff">vi</text>
<text y="717" x="1384" font-size="10" fill="#6a6aa2">expat</text>
<text y="503" x="963" font-size="19" fill="#0000ff">skype</text>
<text y="795" x="988" font-size="10" fill="#6a6aa2">texinfo</text>
<text y="640" x="1353" font-size="19" fill="#0000ff">gimp</text>
<text y="274" x="834" font-size="22" fill="#0000ff">pdftk</text>
<text y="505" x="1648" font-size="10" fill="#6a6aa2">libgnome-keyring</text>
<text y="516" x="1297" font-size="10" fill="#0000ff">xf86-video-neomagic</text>
<text y="811" x="1562" font-size="10" fill="#6a6aa2">giblib</text>
<text y="409" x="922" font-size="11" fill="#6a6aa2">coreutils</text>
<text y="954" x="1273" font-size="10" fill="#6a6aa2">libxdamage</text>
<text y="892" x="1022" font-size="10" fill="#0000ff">xorg-xfd</text>
<text y="410" x="1193" font-size="10" fill="#6a6aa2">pam</text>
<text y="407" x="1568" font-size="10" fill="#6a6aa2">iproute2</text>
<text y="261" x="1085" font-size="10" fill="#0000ff">icedtea-web-java7</text>
<text y="897" x="1143" font-size="10" fill="#0000ff">xanim</text>
<text y="453" x="726" font-size="10" fill="#6a6aa2">libxss</text>
<text y="603" x="1193" font-size="10" fill="#0000ff">xf86-video-i740</text>
<text y="578" x="1196" font-size="10" fill="#0000ff">xf86-input-void</text>
<text y="804" x="1104" font-size="11" fill="#6a6aa2">lib32-glibc</text>
<text y="364" x="1194" font-size="10" fill="#0000ff">laptop-mode-tools</text>
<text y="386" x="1641" font-size="10" fill="#6a6aa2">libdrm</text>
<text y="892" x="1405" font-size="10" fill="#6a6aa2">lib32-libxi</text>
<text y="274" x="1046" font-size="10" fill="#6a6aa2">filesystem</text>
<text y="462" x="1043" font-size="10" fill="#6a6aa2">gzip</text>
<text y="323" x="1629" font-size="10" fill="#6a6aa2">speex</text>
<text y="127" x="1004" font-size="13" fill="#0000ff">texlive-latexextra</text>
<text y="414" x="1539" font-size="10" fill="#0000ff">less</text>
<text y="505" x="1137" font-size="10" fill="#0000ff">xf86-video-chips</text>
<text y="663" x="1599" font-size="10" fill="#6a6aa2">a52dec</text>
<text y="632" x="1541" font-size="10" fill="#6a6aa2">libvpx</text>
<text y="626" x="1446" font-size="16" fill="#0000ff">evince</text>
<text y="309" x="883" font-size="10" fill="#6a6aa2">libxtst</text>
<text y="241" x="816" font-size="10" fill="#6a6aa2">file</text>
<text y="427" x="1902" font-size="10" fill="#6a6aa2">libsamplerate</text>
<text y="355" x="1691" font-size="10" fill="#0000ff">xcompmgr</text>
<text y="843" x="1405" font-size="10" fill="#6a6aa2">pango</text>
<text y="567" x="1712" font-size="10" fill="#6a6aa2">wireless_tools</text>
<text y="314" x="1316" font-size="10" fill="#0000ff">xorg-server-utils</text>
<text y="543" x="1465" font-size="10" fill="#6a6aa2">aalib</text>
<text y="881" x="1008" font-size="10" fill="#6a6aa2">libpcap</text>
<text y="534" x="1350" font-size="10" fill="#0000ff">xf86-input-aiptek</text>
<text y="642" x="1053" font-size="14" fill="#0000ff">subversion</text>
<text y="992" x="1050" font-size="10" fill="#6a6aa2">lib32-libxcursor</text>
<text y="430" x="1461" font-size="10" fill="#0000ff">xf86-video-tdfx</text>
<text y="458" x="766" font-size="22" fill="#0000ff">chromium</text>
<text y="373" x="820" font-size="10" fill="#6a6aa2">gmp</text>
<text y="941" x="1106" font-size="11" fill="#0000ff">dot2tex</text>
<text y="597" x="1463" font-size="10" fill="#0000ff">xterm</text>
<text y="475" x="1641" font-size="10" fill="#6a6aa2">xproto</text>
<text y="581" x="885" font-size="10" fill="#6a6aa2">ca-certificates</text>
<text y="898" x="1556" font-size="10" fill="#6a6aa2">aspell</text>
<text y="528" x="1285" font-size="10" fill="#6a6aa2">shadow</text>
<text y="676" x="1310" font-size="18" fill="#6a6aa2">python2</text>
<text y="675" x="1492" font-size="10" fill="#6a6aa2">libcaca</text>
<text y="635" x="1203" font-size="12" fill="#0000ff">xorg-server</text>
<text y="779" x="1421" font-size="10" fill="#0000ff">unrar</text>
<text y="647" x="1264" font-size="10" fill="#0000ff">offlineimap</text>
<text y="520" x="1081" font-size="11" fill="#0000ff">man-pages</text>
<text y="102" x="783" font-size="52" fill="#6a6aa2">texlive-core</text>
<text y="318" x="1455" font-size="10" fill="#0000ff">pkg-config</text>
<text y="675" x="908" font-size="10" fill="#6a6aa2">shared-mime-info</text>
<text y="473" x="1512" font-size="10" fill="#0000ff">grub</text>
<text y="546" x="1166" font-size="10" fill="#6a6aa2">zathura</text>
<text y="556" x="1307" font-size="10" fill="#0000ff">xf86-input-joystick</text>
<text y="503" x="1336" font-size="10" fill="#0000ff">xf86-video-vesa</text>
<text y="539" x="1844" font-size="10" fill="#6a6aa2">libfontenc</text>
<text y="836" x="1443" font-size="23" fill="#0000ff">inkscape</text>
<text y="837" x="1128" font-size="10" fill="#0000ff">rsync</text>
<text y="652" x="622" font-size="10" fill="#6a6aa2">lsb-release</text>
<text y="482" x="1297" font-size="15" fill="#6a6aa2">glibc</text>
<text y="293" x="1217" font-size="10" fill="#0000ff">btrfs-progs</text>
<text y="614" x="875" font-size="10" fill="#0000ff">automake</text>
<text y="545" x="1529" font-size="10" fill="#6a6aa2">libice</text>
<text y="553" x="1699" font-size="10" fill="#0000ff">pacgraph</text>
<text y="789" x="1336" font-size="10" fill="#6a6aa2">freetype2</text>
<text y="819" x="809" font-size="13" fill="#6a6aa2">icu</text>
<text y="610" x="729" font-size="10" fill="#0000ff">lib32-libldap</text>
<text y="711" x="1648" font-size="10" fill="#0000ff">bc</text>
<text y="674" x="716" font-size="10" fill="#6a6aa2">lib32-openssl</text>
<text y="606" x="818" font-size="10" fill="#6a6aa2">libxv</text>
<text y="518" x="1725" font-size="10" fill="#6a6aa2">xorg-xprop</text>
<text y="876" x="1653" font-size="10" fill="#6a6aa2">libsigc++</text>
<text y="975" x="1641" font-size="10" fill="#0000ff">apache-ant</text>
<text y="569" x="986" font-size="10" fill="#0000ff">conky</text>
<text y="828" x="1357" font-size="10" fill="#6a6aa2">libjpeg-turbo</text>
<text y="744" x="1617" font-size="10" fill="#0000ff">pcmciautils</text>
<text y="813" x="1226" font-size="10" fill="#6a6aa2">acl</text>
<text y="607" x="1452" font-size="10" fill="#6a6aa2">libexif</text>
<text y="529" x="979" font-size="11" fill="#6a6aa2">glib2</text>
<text y="726" x="1575" font-size="10" fill="#6a6aa2">libass</text>
<text y="472" x="1181" font-size="10" fill="#0000ff">xf86-video-v4l</text>
<text y="483" x="1503" font-size="10" fill="#0000ff">xorg-xwd</text>
<text y="877" x="1095" font-size="45" fill="#0000ff">wine_gecko</text>
<text y="912" x="1449" font-size="10" fill="#6a6aa2">lib32-libxdamage</text>
<text y="973" x="1189" font-size="10" fill="#6a6aa2">libxcursor</text>
<text y="573" x="844" font-size="10" fill="#6a6aa2">libmng</text>
<text y="489" x="858" font-size="10" fill="#6a6aa2">nss</text>
<text y="494" x="885" font-size="10" fill="#6a6aa2">pcre</text>
<text y="559" x="948" font-size="11" fill="#0000ff">git</text>
<text y="599" x="1312" font-size="11" fill="#0000ff">archlinux-wallpaper</text>
<text y="528" x="1628" font-size="10" fill="#0000ff">xorg-xclock</text>
<text y="354" x="1636" font-size="10" fill="#0000ff">slock</text>
<text y="522" x="847" font-size="10" fill="#6a6aa2">lib32-zlib</text>
<text y="354" x="1527" font-size="10" fill="#6a6aa2">libshout</text>
<text y="392" x="1801" font-size="10" fill="#6a6aa2">taglib</text>
<text y="714" x="1682" font-size="10" fill="#6a6aa2">sdl</text>
<text y="531" x="1729" font-size="10" fill="#6a6aa2">libtheora</text>
<text y="420" x="1471" font-size="10" fill="#0000ff">cabextract</text>
<text y="756" x="803" font-size="11" fill="#0000ff">xorg-docs</text>
<text y="800" x="1279" font-size="10" fill="#6a6aa2">attr</text>
<text y="581" x="1397" font-size="10" fill="#0000ff">pacman</text>
<text y="396" x="1109" font-size="10" fill="#0000ff">initscripts</text>
<text y="738" x="987" font-size="10" fill="#6a6aa2">hunspell</text>
<text y="624" x="1053" font-size="10" fill="#0000ff">python2-gconf</text>
<text y="866" x="1681" font-size="10" fill="#0000ff">autoconf</text>
<text y="637" x="1729" font-size="10" fill="#0000ff">rtorrent</text>
<text y="751" x="944" font-size="11" fill="#0000ff">libreoffice-base</text>
<text y="905" x="1031" font-size="10" fill="#6a6aa2">lib32-gcc-libs</text>
<text y="329" x="1304" font-size="10" fill="#0000ff">xf86-input-synaptics</text>
<text y="893" x="1607" font-size="10" fill="#0000ff">usbutils</text>
<text y="548" x="975" font-size="10" fill="#6a6aa2">mime-types</text>
<text y="625" x="978" font-size="10" fill="#6a6aa2">curl</text>
<text y="1034" x="1172" font-size="10" fill="#0000ff">lib32-v4l-utils</text>
<text y="539" x="898" font-size="10" fill="#0000ff">wmctrl</text>
<text y="491" x="1776" font-size="10" fill="#6a6aa2">bzip2</text>
<text y="285" x="1397" font-size="10" fill="#6a6aa2">inetutils</text>
<text y="446" x="1540" font-size="10" fill="#0000ff">ncdu</text>
<text y="750" x="1716" font-size="10" fill="#6a6aa2">libsasl</text>
<text y="377" x="1427" font-size="10" fill="#0000ff">apvlv</text>
<text y="832" x="1219" font-size="10" fill="#6a6aa2">inputproto</text>
<text y="703" x="1697" font-size="10" fill="#6a6aa2">libldap</text>
<text y="520" x="626" font-size="10" fill="#6a6aa2">xorg-mkfontdir</text>
<text y="420" x="829" font-size="10" fill="#0000ff">libtool</text>
<text y="593" x="1854" font-size="10" fill="#6a6aa2">libffi</text>
<text y="689" x="1700" font-size="10" fill="#6a6aa2">readline</text>
<text y="443" x="925" font-size="10" fill="#6a6aa2">lib32-expat</text>
<text y="426" x="1023" font-size="10" fill="#6a6aa2">diffutils</text>
<text y="414" x="1814" font-size="10" fill="#0000ff">xorg-twm</text>
<text y="577" x="1783" font-size="10" fill="#6a6aa2">e2fsprogs</text>
<text y="825" x="1139" font-size="10" fill="#6a6aa2">libxi</text></g></svg>