<?xml version="1.0" encoding="UTF-8" standalone="no"?>
<!DOCTYPE svg PUBLIC "-//W3C//DTD SVG 1.0//EN" "http://www.w3.org/TR/SVG/DTD/svg10.dtd">
<svg width="2237" xmlns="http://www.w3.org/2000/svg" height="1142.0"><rect y="0" x="0" style="fill:#ffffff;" height="1142.0" width="2237"/><g style="stroke:#606060; stroke-opacity:0.15; fill:none;"><path d="M1013,446 Q751,759 490,544"/>
<path d="M1013,446 Q845,704 677,565"/>
<path d="M1013,446 Q1052,482 1092,404"/>
<path d="M1071,375 Q948,527 825,440"/>
<path d="M1071,375 Q891,471 712,344"/>
<path d="M1986,388 Q2058,459 2131,394"/>
<path d="M1986,388 Q1999,480 2012,468"/>
<path d="M1224,321 Q1164,358 1104,294"/>
<path d="M1401,450 Q1602,730 1803,609"/>
<path d="M1401,450 Q1295,599 1190,529"/>
<path d="M1401,450 Q1459,501 1517,291"/>
<path d="M1401,450 Q1056,666 712,344"/>
<path d="M1319,213 Q1148,850 978,748"/>
<path d="M1319,213 Q1070,818 821,638"/>
<path d="M1319,213 Q1228,459 1138,388"/>
<path d="M1319,213 Q1243,413 1168,359"/>
<path d="M1044,512 Q1102,694 1161,659"/>
<path d="M1044,512 Q1117,597 1190,529"/>
<path d="M1044,512 Q1438,739 1833,395"/>
<path d="M1778,617 Q1458,896 1138,388"/>
<path d="M1778,617 Q1743,651 1708,585"/>
<path d="M820,649 Q643,819 467,600"/>
<path d="M820,649 Q1125,864 1430,302"/>
<path d="M820,649 Q1174,966 1529,421"/>
<path d="M820,649 Q820,649 821,638"/>
<path d="M820,649 Q931,708 1043,548"/>
<path d="M820,649 Q869,766 919,741"/>
<path d="M820,649 Q1061,821 1302,198"/>
<path d="M820,649 Q768,676 716,229"/>
<path d="M820,649 Q740,791 660,713"/>
<path d="M1992,335 Q1997,377 2002,374"/>
<path d="M781,363 Q1292,885 1803,609"/>
<path d="M781,363 Q746,392 712,344"/>
<path d="M1364,679 Q1264,729 1164,248"/>
<path d="M1364,679 Q1384,691 1404,229"/>
<path d="M844,614 Q943,706 1043,592"/>
<path d="M844,614 Q916,763 988,717"/>
<path d="M844,614 Q867,628 891,501"/>
<path d="M844,614 Q825,627 807,574"/>
<path d="M844,614 Q974,705 1104,294"/>
<path d="M844,614 Q797,660 750,572"/>
<path d="M844,614 Q809,643 774,597"/>
<path d="M844,614 Q1323,981 1803,609"/>
<path d="M844,614 Q776,669 708,578"/>
<path d="M844,614 Q1315,963 1786,576"/>
<path d="M844,614 Q1017,728 1190,529"/>
<path d="M844,614 Q800,640 756,582"/>
<path d="M844,614 Q760,690 677,565"/>
<path d="M844,614 Q789,661 734,616"/>
<path d="M844,614 Q881,768 919,741"/>
<path d="M844,614 Q778,664 712,344"/>
<path d="M844,614 Q852,663 860,658"/>
<path d="M844,614 Q975,771 1107,682"/>
<path d="M844,614 Q910,756 976,704"/>
<path d="M844,614 Q957,715 1070,527"/>
<path d="M844,614 Q971,800 1098,696"/>
<path d="M844,614 Q883,838 922,801"/>
<path d="M844,614 Q755,721 666,644"/>
<path d="M844,614 Q768,783 692,741"/>
<path d="M844,614 Q1046,797 1249,450"/>
<path d="M844,614 Q895,719 947,683"/>
<path d="M844,614 Q825,625 807,495"/>
<path d="M844,614 Q782,758 721,706"/>
<path d="M844,614 Q942,710 1041,565"/>
<path d="M844,614 Q704,721 564,639"/>
<path d="M844,614 Q839,616 835,514"/>
<path d="M844,614 Q832,647 821,638"/>
<path d="M844,614 Q890,649 937,574"/>
<path d="M844,614 Q891,638 938,599"/>
<path d="M844,614 Q875,718 907,694"/>
<path d="M844,614 Q824,830 805,816"/>
<path d="M1344,527 Q1358,534 1372,473"/>
<path d="M1344,527 Q1436,613 1529,421"/>
<path d="M1344,527 Q1535,660 1726,545"/>
<path d="M1344,527 Q1312,544 1281,285"/>
<path d="M1344,527 Q1118,747 893,536"/>
<path d="M1344,527 Q1345,527 1347,378"/>
<path d="M1344,527 Q1337,533 1331,488"/>
<path d="M934,458 Q1153,586 1372,473"/>
<path d="M934,458 Q852,529 771,407"/>
<path d="M934,458 Q1140,650 1347,378"/>
<path d="M934,458 Q973,495 1013,446"/>
<path d="M934,458 Q968,475 1002,399"/>
<path d="M934,458 Q913,551 893,536"/>
<path d="M934,458 Q823,540 712,344"/>
<path d="M934,458 Q879,502 825,440"/>
<path d="M1352,454 Q1170,893 988,717"/>
<path d="M1352,454 Q995,675 639,450"/>
<path d="M1352,454 Q1271,585 1190,529"/>
<path d="M1336,608 Q1024,857 712,344"/>
<path d="M467,600 Q572,688 677,565"/>
<path d="M467,600 Q478,609 490,544"/>
<path d="M699,500 Q835,900 972,815"/>
<path d="M699,500 Q820,892 942,773"/>
<path d="M699,500 Q1021,732 1344,527"/>
<path d="M699,500 Q816,570 934,458"/>
<path d="M607,498 Q895,746 1183,376"/>
<path d="M692,367 Q731,428 771,407"/>
<path d="M692,367 Q579,705 467,600"/>
<path d="M1623,742 Q1591,770 1559,456"/>
<path d="M744,652 Q892,727 1041,565"/>
<path d="M744,652 Q893,765 1043,548"/>
<path d="M744,652 Q825,764 907,694"/>
<path d="M744,652 Q941,764 1138,388"/>
<path d="M744,652 Q782,687 821,638"/>
<path d="M756,582 Q1031,883 1307,635"/>
<path d="M756,582 Q872,805 988,717"/>
<path d="M1296,663 Q1243,701 1190,529"/>
<path d="M1296,663 Q1234,698 1172,449"/>
<path d="M1296,663 Q1004,881 712,344"/>
<path d="M1296,663 Q1348,693 1401,450"/>
<path d="M1891,420 Q1456,747 1021,528"/>
<path d="M1891,420 Q1862,445 1833,395"/>
<path d="M1891,420 Q1299,1139 708,578"/>
<path d="M1891,420 Q1581,776 1272,610"/>
<path d="M1891,420 Q1621,679 1352,454"/>
<path d="M1891,420 Q1725,607 1559,456"/>
<path d="M1891,420 Q1531,731 1172,449"/>
<path d="M1891,420 Q1301,1007 712,344"/>
<path d="M258,595 Q485,790 712,344"/>
<path d="M786,784 Q881,851 976,704"/>
<path d="M786,784 Q1030,977 1274,599"/>
<path d="M786,784 Q1166,1140 1546,634"/>
<path d="M786,784 Q1286,1210 1786,576"/>
<path d="M1517,291 Q1088,651 659,317"/>
<path d="M1517,291 Q1114,688 712,344"/>
<path d="M796,426 Q643,671 490,544"/>
<path d="M796,426 Q1015,536 1235,159"/>
<path d="M796,426 Q1113,738 1430,302"/>
<path d="M796,426 Q865,499 934,458"/>
<path d="M818,678 Q819,679 821,638"/>
<path d="M1676,358 Q1601,441 1527,385"/>
<path d="M1676,358 Q1492,549 1308,449"/>
<path d="M2012,468 Q2071,506 2131,394"/>
<path d="M2012,468 Q1324,1142 636,617"/>
<path d="M2012,468 Q2007,471 2002,374"/>
<path d="M1060,263 Q1066,421 1072,417"/>
<path d="M1060,263 Q1082,307 1104,294"/>
<path d="M1183,414 Q1112,608 1041,565"/>
<path d="M1183,414 Q1077,875 972,815"/>
<path d="M988,717 Q1128,851 1268,477"/>
<path d="M988,717 Q859,813 730,486"/>
<path d="M988,717 Q826,874 664,410"/>
<path d="M988,717 Q1178,883 1369,289"/>
<path d="M988,717 Q623,988 258,595"/>
<path d="M916,420 Q925,465 934,458"/>
<path d="M916,420 Q1173,561 1430,302"/>
<path d="M916,420 Q843,456 771,407"/>
<path d="M916,420 Q1464,797 2012,468"/>
<path d="M1059,389 Q811,845 564,639"/>
<path d="M1059,389 Q996,514 934,458"/>
<path d="M1059,389 Q1183,755 1307,635"/>
<path d="M1059,389 Q1190,482 1322,358"/>
<path d="M1059,389 Q1265,577 1472,396"/>
<path d="M1059,389 Q1375,969 1691,662"/>
<path d="M1059,389 Q1081,407 1104,294"/>
<path d="M1120,660 Q1095,675 1070,527"/>
<path d="M1120,660 Q1453,856 1786,493"/>
<path d="M807,574 Q814,642 821,638"/>
<path d="M807,574 Q1068,822 1329,318"/>
<path d="M807,574 Q1108,739 1410,519"/>
<path d="M1529,421 Q1193,792 857,577"/>
<path d="M1494,536 Q1383,694 1272,610"/>
<path d="M1494,536 Q1342,646 1190,529"/>
<path d="M1494,536 Q1526,552 1559,456"/>
<path d="M1494,536 Q1215,771 937,574"/>
<path d="M1494,536 Q1505,542 1517,291"/>
<path d="M787,560 Q822,595 857,577"/>
<path d="M1168,359 Q742,1219 316,889"/>
<path d="M1168,359 Q942,510 716,229"/>
<path d="M1168,359 Q1218,511 1268,477"/>
<path d="M1168,359 Q969,518 771,407"/>
<path d="M1168,359 Q1299,480 1430,302"/>
<path d="M1168,359 Q1119,412 1071,375"/>
<path d="M1168,359 Q940,542 712,344"/>
<path d="M1168,359 Q1027,470 886,327"/>
<path d="M1168,359 Q1179,537 1190,529"/>
<path d="M1168,359 Q1052,660 937,574"/>
<path d="M1168,359 Q1202,380 1237,336"/>
<path d="M1168,359 Q1406,598 1645,374"/>
<path d="M1168,359 Q1244,464 1320,417"/>
<path d="M1168,359 Q1171,403 1175,400"/>
<path d="M1142,621 Q1229,679 1316,439"/>
<path d="M1142,621 Q1166,638 1190,529"/>
<path d="M1142,621 Q900,751 659,317"/>
<path d="M1142,621 Q1220,673 1298,465"/>
<path d="M1142,621 Q927,736 712,344"/>
<path d="M1072,417 Q1347,1003 1623,742"/>
<path d="M1072,417 Q1283,568 1495,435"/>
<path d="M1072,417 Q1189,698 1307,635"/>
<path d="M1072,417 Q1108,439 1144,186"/>
<path d="M1072,417 Q1037,435 1002,399"/>
<path d="M1072,417 Q1196,527 1320,417"/>
<path d="M991,484 Q1167,644 1344,527"/>
<path d="M991,484 Q962,503 934,458"/>
<path d="M991,484 Q1016,580 1041,565"/>
<path d="M976,704 Q1079,778 1183,376"/>
<path d="M976,704 Q1124,844 1272,610"/>
<path d="M976,704 Q1083,787 1190,529"/>
<path d="M976,704 Q1141,864 1307,635"/>
<path d="M1043,548 Q1010,610 977,589"/>
<path d="M1043,548 Q1162,666 1281,285"/>
<path d="M1043,548 Q1172,643 1302,198"/>
<path d="M1043,548 Q1042,565 1041,565"/>
<path d="M870,772 Q699,881 529,719"/>
<path d="M870,772 Q802,816 734,616"/>
<path d="M870,772 Q845,795 821,638"/>
<path d="M870,772 Q784,849 699,500"/>
<path d="M870,772 Q750,837 630,701"/>
<path d="M870,772 Q888,783 907,694"/>
<path d="M870,772 Q838,797 807,574"/>
<path d="M870,772 Q955,815 1041,565"/>
<path d="M870,772 Q930,815 991,484"/>
<path d="M870,772 Q1164,1020 1459,243"/>
<path d="M870,772 Q895,792 921,395"/>
<path d="M1501,515 Q1260,876 1019,655"/>
<path d="M1501,515 Q1345,671 1190,529"/>
<path d="M1501,515 Q1030,763 559,488"/>
<path d="M1501,515 Q1500,618 1499,618"/>
<path d="M819,668 Q1069,838 1319,213"/>
<path d="M819,668 Q813,671 807,574"/>
<path d="M1489,186 Q1174,853 860,658"/>
<path d="M1489,186 Q1238,932 988,717"/>
<path d="M1489,186 Q1251,580 1013,446"/>
<path d="M1489,186 Q1459,327 1430,302"/>
<path d="M1489,186 Q1233,774 977,589"/>
<path d="M1307,635 Q1154,713 1002,399"/>
<path d="M1307,635 Q971,955 636,617"/>
<path d="M1307,635 Q1290,648 1274,599"/>
<path d="M1307,635 Q987,829 668,476"/>
<path d="M1307,635 Q978,818 650,256"/>
<path d="M1307,635 Q1555,853 1803,609"/>
<path d="M1307,635 Q1465,844 1623,742"/>
<path d="M1307,635 Q1248,686 1190,529"/>
<path d="M1307,635 Q1329,651 1352,454"/>
<path d="M1307,635 Q1433,756 1559,456"/>
<path d="M1152,320 Q809,857 467,600"/>
<path d="M1152,320 Q1216,354 1281,285"/>
<path d="M1021,528 Q1041,719 1061,708"/>
<path d="M1021,528 Q1105,592 1190,529"/>
<path d="M1021,528 Q1094,577 1167,238"/>
<path d="M1021,528 Q866,605 712,344"/>
<path d="M1435,669 Q1610,827 1786,576"/>
<path d="M1086,544 Q868,720 650,256"/>
<path d="M1086,544 Q1444,912 1803,609"/>
<path d="M1269,488 Q1229,561 1190,529"/>
<path d="M1269,488 Q1235,642 1201,621"/>
<path d="M1136,647 Q1363,778 1590,227"/>
<path d="M1136,647 Q924,800 712,344"/>
<path d="M860,567 Q1166,731 1472,396"/>
<path d="M860,567 Q898,596 937,574"/>
<path d="M668,476 Q719,502 771,407"/>
<path d="M668,476 Q1113,727 1559,456"/>
<path d="M1702,483 Q1115,1010 528,454"/>
<path d="M1702,483 Q1147,1001 592,530"/>
<path d="M1702,483 Q1049,962 396,529"/>
<path d="M1702,483 Q1150,1106 598,573"/>
<path d="M1702,483 Q1714,555 1726,545"/>
<path d="M1702,483 Q1105,1132 508,565"/>
<path d="M1702,483 Q1203,1153 704,766"/>
<path d="M755,737 Q788,765 821,638"/>
<path d="M755,737 Q787,755 820,649"/>
<path d="M755,737 Q866,825 977,589"/>
<path d="M664,410 Q490,1038 316,889"/>
<path d="M1024,79 Q929,587 835,514"/>
<path d="M1024,79 Q1064,327 1104,294"/>
<path d="M1024,79 Q1214,402 1404,229"/>
<path d="M1024,79 Q1088,364 1152,320"/>
<path d="M753,249 Q968,524 1183,376"/>
<path d="M1183,376 Q836,966 490,627"/>
<path d="M1183,376 Q1373,562 1564,375"/>
<path d="M1183,376 Q1414,552 1645,374"/>
<path d="M1183,376 Q947,583 712,344"/>
<path d="M1780,640 Q1783,641 1786,576"/>
<path d="M1524,683 Q1484,706 1445,682"/>
<path d="M910,712 Q949,748 988,717"/>
<path d="M1108,721 Q984,789 860,658"/>
<path d="M1108,721 Q964,856 821,638"/>
<path d="M1108,721 Q1041,774 975,355"/>
<path d="M749,427 Q875,526 1002,399"/>
<path d="M749,427 Q1154,804 1559,456"/>
<path d="M749,427 Q897,512 1046,403"/>
<path d="M749,427 Q975,845 1201,621"/>
<path d="M749,427 Q841,518 934,458"/>
<path d="M858,164 Q1024,648 1190,529"/>
<path d="M858,164 Q821,184 784,118"/>
<path d="M858,164 Q805,291 753,249"/>
<path d="M1378,132 Q1373,292 1369,289"/>
<path d="M808,187 Q796,193 784,118"/>
<path d="M808,187 Q686,729 564,639"/>
<path d="M808,187 Q780,270 753,249"/>
<path d="M808,187 Q1215,1070 1623,742"/>
<path d="M1107,682 Q1255,763 1404,189"/>
<path d="M1107,682 Q1039,860 972,815"/>
<path d="M1107,682 Q1024,844 942,773"/>
<path d="M1107,682 Q964,759 821,638"/>
<path d="M1107,682 Q1041,735 975,355"/>
<path d="M1107,682 Q903,819 699,500"/>
<path d="M1107,682 Q990,790 874,406"/>
<path d="M1235,159 Q1510,792 1786,576"/>
<path d="M1235,159 Q1407,498 1580,343"/>
<path d="M1235,159 Q1282,214 1330,178"/>
<path d="M821,638 Q881,805 942,773"/>
<path d="M821,638 Q1075,878 1329,318"/>
<path d="M821,638 Q1061,770 1302,198"/>
<path d="M821,638 Q797,649 774,543"/>
<path d="M821,638 Q1051,765 1281,285"/>
<path d="M821,638 Q899,791 978,748"/>
<path d="M821,638 Q655,796 490,627"/>
<path d="M821,638 Q1064,789 1307,635"/>
<path d="M1315,620 Q1192,733 1070,527"/>
<path d="M1315,620 Q1046,813 778,352"/>
<path d="M1483,406 Q1235,849 988,717"/>
<path d="M774,440 Q996,627 1218,189"/>
<path d="M774,440 Q706,499 639,450"/>
<path d="M774,440 Q847,512 921,395"/>
<path d="M774,440 Q956,562 1138,388"/>
<path d="M774,440 Q882,541 991,484"/>
<path d="M714,673 Q767,702 821,638"/>
<path d="M714,673 Q878,763 1043,548"/>
<path d="M868,674 Q944,740 1021,528"/>
<path d="M868,674 Q969,739 1071,375"/>
<path d="M868,674 Q1105,827 1343,565"/>
<path d="M868,674 Q1134,884 1401,450"/>
<path d="M868,674 Q898,692 928,480"/>
<path d="M692,741 Q983,988 1274,599"/>
<path d="M692,741 Q941,883 1190,529"/>
<path d="M622,664 Q731,749 840,462"/>
<path d="M622,664 Q593,688 564,639"/>
<path d="M646,607 Q619,623 592,530"/>
<path d="M646,607 Q577,674 508,565"/>
<path d="M646,607 Q587,662 528,454"/>
<path d="M646,607 Q929,790 1212,259"/>
<path d="M646,607 Q1005,898 1364,679"/>
<path d="M646,607 Q745,668 844,614"/>
<path d="M646,607 Q687,634 728,530"/>
<path d="M646,607 Q622,627 598,573"/>
<path d="M980,516 Q1000,541 1021,528"/>
<path d="M980,516 Q723,752 467,600"/>
<path d="M980,516 Q1162,697 1344,527"/>
<path d="M980,516 Q957,537 934,458"/>
<path d="M980,516 Q1166,656 1352,454"/>
<path d="M980,516 Q902,589 825,440"/>
<path d="M1195,465 Q1283,548 1372,473"/>
<path d="M1195,465 Q1192,531 1190,529"/>
<path d="M975,355 Q1159,661 1344,527"/>
<path d="M975,355 Q954,476 934,458"/>
<path d="M1316,439 Q1014,724 712,344"/>
<path d="M1488,597 Q1494,601 1501,515"/>
<path d="M1252,501 Q1221,547 1190,529"/>
<path d="M855,265 Q1329,943 1803,609"/>
<path d="M855,265 Q875,284 896,229"/>
<path d="M855,265 Q836,274 818,206"/>
<path d="M855,265 Q963,454 1071,375"/>
<path d="M855,265 Q950,492 1046,403"/>
<path d="M855,265 Q896,612 937,574"/>
<path d="M855,265 Q804,290 753,249"/>
<path d="M1343,565 Q1266,615 1190,529"/>
<path d="M863,217 Q808,294 753,249"/>
<path d="M807,495 Q707,580 607,498"/>
<path d="M807,495 Q1219,899 1632,326"/>
<path d="M807,495 Q1183,731 1559,456"/>
<path d="M807,495 Q762,518 717,383"/>
<path d="M807,495 Q998,713 1190,529"/>
<path d="M807,495 Q683,597 559,488"/>
<path d="M807,495 Q1130,910 1453,651"/>
<path d="M807,495 Q671,581 535,472"/>
<path d="M807,495 Q1185,837 1564,375"/>
<path d="M807,495 Q932,564 1057,453"/>
<path d="M807,495 Q1057,856 1307,635"/>
<path d="M807,495 Q995,614 1183,376"/>
<path d="M807,495 Q1202,802 1597,291"/>
<path d="M807,495 Q870,552 934,458"/>
<path d="M807,495 Q759,527 712,344"/>
<path d="M490,627 Q657,739 825,440"/>
<path d="M1419,270 Q1374,357 1329,318"/>
<path d="M1419,270 Q1392,290 1366,257"/>
<path d="M660,713 Q818,818 976,704"/>
<path d="M660,713 Q943,876 1226,359"/>
<path d="M1302,198 Q1145,839 988,717"/>
<path d="M1302,198 Q884,863 467,600"/>
<path d="M1302,198 Q1291,292 1281,285"/>
<path d="M798,753 Q729,818 660,713"/>
<path d="M798,753 Q920,824 1043,548"/>
<path d="M798,753 Q809,758 820,649"/>
<path d="M1372,473 Q1351,500 1331,488"/>
<path d="M1372,473 Q1042,798 712,344"/>
<path d="M783,54 Q768,260 753,249"/>
<path d="M666,435 Q827,819 988,717"/>
<path d="M666,435 Q1019,747 1372,473"/>
<path d="M666,435 Q750,576 835,514"/>
<path d="M666,435 Q720,629 774,597"/>
<path d="M666,435 Q909,583 1152,320"/>
<path d="M666,435 Q671,569 677,565"/>
<path d="M1194,293 Q1085,407 976,332"/>
<path d="M1194,293 Q1066,646 938,553"/>
<path d="M1194,293 Q1192,530 1190,529"/>
<path d="M1194,293 Q938,425 683,205"/>
<path d="M1194,293 Q1065,645 937,574"/>
<path d="M1194,293 Q1139,329 1085,232"/>
<path d="M1194,293 Q1188,379 1183,376"/>
<path d="M1194,293 Q1265,666 1336,608"/>
<path d="M1194,293 Q1333,521 1472,396"/>
<path d="M1194,293 Q986,477 778,352"/>
<path d="M1194,293 Q1313,581 1432,479"/>
<path d="M1194,293 Q1149,338 1104,294"/>
<path d="M1385,593 Q1287,663 1190,529"/>
<path d="M1385,593 Q1010,985 636,617"/>
<path d="M1385,593 Q1260,769 1136,647"/>
<path d="M763,455 Q801,488 840,462"/>
<path d="M1009,589 Q1140,706 1272,610"/>
<path d="M907,694 Q1022,777 1138,388"/>
<path d="M907,694 Q924,785 942,773"/>
<path d="M907,694 Q1139,853 1372,473"/>
<path d="M907,694 Q864,717 821,638"/>
<path d="M907,694 Q941,722 975,355"/>
<path d="M907,694 Q949,719 991,484"/>
<path d="M1002,399 Q1217,682 1432,479"/>
<path d="M1138,388 Q1316,563 1495,435"/>
<path d="M1138,388 Q907,745 677,565"/>
<path d="M947,683 Q1068,766 1190,529"/>
<path d="M947,683 Q1285,955 1623,742"/>
<path d="M712,344 Q701,350 691,306"/>
<path d="M712,344 Q974,496 1237,336"/>
<path d="M712,344 Q685,363 659,317"/>
<path d="M1527,385 Q1429,579 1331,488"/>
<path d="M1527,385 Q1149,769 771,407"/>
<path d="M1527,385 Q1543,470 1559,456"/>
<path d="M1527,385 Q1423,489 1320,417"/>
<path d="M1527,385 Q1096,834 666,435"/>
<path d="M636,336 Q674,366 712,344"/>
<path d="M791,78 Q787,120 784,118"/>
<path d="M791,78 Q640,674 490,544"/>
<path d="M791,78 Q947,397 1104,294"/>
<path d="M755,641 Q888,759 1021,528"/>
<path d="M755,641 Q912,779 1070,527"/>
<path d="M755,641 Q716,693 678,656"/>
<path d="M937,574 Q999,767 1061,708"/>
<path d="M937,574 Q1011,620 1086,544"/>
<path d="M937,574 Q978,689 1019,655"/>
<path d="M937,574 Q1361,897 1786,493"/>
<path d="M937,574 Q948,585 960,171"/>
<path d="M937,574 Q935,575 934,458"/>
<path d="M937,574 Q786,741 636,617"/>
<path d="M937,574 Q902,706 868,674"/>
<path d="M937,574 Q897,597 857,577"/>
<path d="M937,574 Q932,577 928,480"/>
<path d="M937,574 Q911,596 886,327"/>
<path d="M937,574 Q846,696 755,641"/>
<path d="M937,574 Q973,617 1009,589"/>
<path d="M937,574 Q884,623 832,550"/>
<path d="M937,574 Q1240,840 1543,324"/>
<path d="M937,574 Q826,650 716,229"/>
<path d="M1543,324 Q1673,680 1803,609"/>
<path d="M1543,324 Q1294,577 1046,403"/>
<path d="M1543,324 Q1157,603 771,407"/>
<path d="M1543,324 Q1553,383 1564,375"/>
<path d="M1323,733 Q859,967 396,529"/>
<path d="M1323,733 Q925,1051 528,454"/>
<path d="M1323,733 Q1013,1032 704,766"/>
<path d="M1024,343 Q1177,478 1330,178"/>
<path d="M803,373 Q705,572 607,498"/>
<path d="M803,373 Q847,527 891,501"/>
<path d="M803,373 Q944,674 1086,544"/>
<path d="M803,373 Q757,406 712,344"/>
<path d="M803,373 Q1173,726 1543,324"/>
<path d="M916,633 Q868,684 821,638"/>
<path d="M893,536 Q935,783 978,748"/>
<path d="M893,536 Q832,586 771,407"/>
<path d="M650,256 Q681,361 712,344"/>
<path d="M919,741 Q980,783 1041,565"/>
<path d="M919,741 Q1224,923 1529,421"/>
<path d="M919,741 Q948,761 977,589"/>
<path d="M919,741 Q1100,831 1281,285"/>
<path d="M1095,603 Q1142,644 1190,529"/>
<path d="M1786,493 Q1756,573 1726,545"/>
<path d="M704,766 Q675,789 646,607"/>
<path d="M704,766 Q690,779 677,565"/>
<path d="M1056,488 Q1063,533 1070,527"/>
<path d="M1056,488 Q884,597 712,344"/>
<path d="M938,599 Q836,715 734,616"/>
<path d="M938,599 Q1064,694 1190,529"/>
<path d="M938,599 Q1152,722 1366,257"/>
<path d="M508,565 Q592,626 677,565"/>
<path d="M1724,236 Q1707,293 1690,279"/>
<path d="M1724,236 Q1498,755 1272,610"/>
<path d="M1724,236 Q1397,606 1071,375"/>
<path d="M1441,324 Q1583,684 1726,545"/>
<path d="M1441,324 Q1085,719 730,486"/>
<path d="M1441,324 Q1106,577 771,407"/>
<path d="M1441,324 Q1485,454 1529,421"/>
<path d="M1441,324 Q1361,371 1281,285"/>
<path d="M1174,174 Q1188,284 1203,272"/>
<path d="M1411,494 Q1535,639 1659,571"/>
<path d="M1411,494 Q1227,728 1043,548"/>
<path d="M1411,494 Q1422,566 1433,556"/>
<path d="M1432,479 Q1307,561 1183,376"/>
<path d="M1432,479 Q1579,642 1726,545"/>
<path d="M1445,682 Q1133,963 821,638"/>
<path d="M730,486 Q1030,694 1331,488"/>
<path d="M730,486 Q721,493 712,344"/>
<path d="M1269,586 Q1229,615 1190,529"/>
<path d="M1269,586 Q990,828 712,344"/>
<path d="M1272,610 Q1252,625 1233,615"/>
<path d="M1272,610 Q1145,758 1019,655"/>
<path d="M1272,610 Q1231,636 1190,529"/>
<path d="M1272,610 Q1458,753 1645,374"/>
<path d="M1272,610 Q1048,815 825,440"/>
<path d="M1272,610 Q1336,644 1401,450"/>
<path d="M1723,450 Q1724,545 1726,545"/>
<path d="M1723,450 Q1184,1097 646,607"/>
<path d="M1723,450 Q1443,676 1164,248"/>
<path d="M1723,450 Q1563,545 1404,229"/>
<path d="M1723,450 Q1725,507 1728,505"/>
<path d="M616,516 Q779,910 942,773"/>
<path d="M616,516 Q743,893 870,772"/>
<path d="M616,516 Q711,654 807,574"/>
<path d="M1851,505 Q1818,595 1786,576"/>
<path d="M1294,307 Q1510,748 1726,545"/>
<path d="M855,798 Q1150,971 1445,682"/>
<path d="M855,798 Q838,812 821,638"/>
<path d="M855,798 Q881,819 907,694"/>
<path d="M855,798 Q996,914 1138,388"/>
<path d="M855,798 Q949,879 1043,548"/>
<path d="M855,798 Q916,852 977,589"/>
<path d="M1360,995 Q1065,1195 771,407"/>
<path d="M1360,995 Q1168,1111 977,589"/>
<path d="M942,616 Q827,686 712,344"/>
<path d="M1228,673 Q970,896 712,344"/>
<path d="M2002,374 Q1721,516 1441,324"/>
<path d="M2002,374 Q1773,624 1545,479"/>
<path d="M2002,374 Q1946,428 1891,314"/>
<path d="M2002,374 Q2026,419 2051,404"/>
<path d="M942,773 Q827,874 712,344"/>
<path d="M1329,318 Q1329,318 1330,178"/>
<path d="M1609,251 Q1122,1067 636,617"/>
<path d="M1609,251 Q1160,625 712,344"/>
<path d="M1361,494 Q1205,603 1049,353"/>
<path d="M1361,494 Q1248,716 1136,647"/>
<path d="M1361,494 Q1275,586 1190,529"/>
<path d="M1361,494 Q1334,652 1307,635"/>
<path d="M1361,494 Q1340,509 1320,417"/>
<path d="M1361,494 Q1394,560 1427,542"/>
<path d="M734,616 Q861,831 988,717"/>
<path d="M734,616 Q890,747 1046,403"/>
<path d="M734,616 Q828,855 922,801"/>
<path d="M734,616 Q1050,792 1366,257"/>
<path d="M734,616 Q1018,784 1302,198"/>
<path d="M677,565 Q1024,848 1372,473"/>
<path d="M677,565 Q861,720 1046,403"/>
<path d="M677,565 Q1201,1011 1726,545"/>
<path d="M1612,465 Q1460,576 1308,449"/>
<path d="M1612,465 Q1152,845 692,367"/>
<path d="M1268,477 Q990,628 712,344"/>
<path d="M1203,272 Q1126,402 1049,353"/>
<path d="M1203,272 Q1400,474 1597,291"/>
<path d="M1203,272 Q1185,289 1167,238"/>
<path d="M1203,272 Q1062,475 922,373"/>
<path d="M1203,272 Q1130,493 1057,453"/>
<path d="M1203,272 Q1215,684 1228,673"/>
<path d="M1203,272 Q1235,301 1268,246"/>
<path d="M1203,272 Q1262,389 1322,358"/>
<path d="M1203,272 Q1145,380 1087,328"/>
<path d="M1203,272 Q931,967 660,713"/>
<path d="M1203,272 Q1202,621 1201,621"/>
<path d="M1203,272 Q1005,648 807,495"/>
<path d="M1404,229 Q1603,762 1803,609"/>
<path d="M1404,229 Q1040,917 677,565"/>
<path d="M1404,229 Q1058,669 712,344"/>
<path d="M1207,437 Q1198,536 1190,529"/>
<path d="M1207,437 Q959,610 712,344"/>
<path d="M1041,565 Q1182,711 1323,594"/>
<path d="M1041,565 Q1235,694 1430,302"/>
<path d="M1041,565 Q931,733 821,638"/>
<path d="M1041,565 Q1280,746 1519,234"/>
<path d="M1041,565 Q1230,745 1419,270"/>
<path d="M564,639 Q727,783 891,501"/>
<path d="M564,639 Q1002,934 1441,324"/>
<path d="M564,639 Q600,669 636,617"/>
<path d="M564,639 Q929,971 1294,307"/>
<path d="M564,639 Q525,687 487,653"/>
<path d="M564,639 Q591,695 618,679"/>
<path d="M564,639 Q710,774 857,452"/>
<path d="M564,639 Q527,666 490,627"/>
<path d="M564,639 Q620,695 677,565"/>
<path d="M564,639 Q649,711 734,616"/>
<path d="M564,639 Q546,735 529,719"/>
<path d="M564,639 Q1175,1044 1786,576"/>
<path d="M564,639 Q712,749 860,658"/>
<path d="M564,639 Q1061,1068 1559,456"/>
<path d="M564,639 Q612,760 660,713"/>
<path d="M564,639 Q777,803 991,484"/>
<path d="M771,407 Q1071,694 1372,473"/>
<path d="M771,407 Q1032,569 1294,307"/>
<path d="M771,407 Q750,504 730,486"/>
<path d="M1225,563 Q1207,576 1190,529"/>
<path d="M672,629 Q857,750 1043,548"/>
<path d="M672,629 Q746,697 820,649"/>
<path d="M672,629 Q824,756 977,589"/>
<path d="M672,629 Q746,695 821,638"/>
<path d="M1298,465 Q1005,712 712,344"/>
<path d="M805,816 Q951,946 1098,696"/>
<path d="M805,816 Q795,822 786,784"/>
<path d="M805,816 Q748,863 692,741"/>
<path d="M1085,232 Q1322,674 1559,456"/>
<path d="M1085,232 Q1142,263 1199,145"/>
<path d="M1085,232 Q1094,300 1104,294"/>
<path d="M1337,550 Q1179,702 1021,528"/>
<path d="M1337,550 Q1344,556 1352,454"/>
<path d="M1337,550 Q1340,567 1343,565"/>
<path d="M1337,550 Q1254,606 1172,449"/>
<path d="M1337,550 Q1029,755 722,510"/>
<path d="M1212,259 Q991,624 771,407"/>
<path d="M1212,259 Q1246,315 1281,285"/>
<path d="M1212,259 Q944,780 677,565"/>
<path d="M1130,439 Q1160,552 1190,529"/>
<path d="M1130,439 Q921,647 712,344"/>
<path d="M1493,575 Q1341,696 1190,529"/>
<path d="M1493,575 Q1207,960 922,801"/>
<path d="M1493,575 Q1429,630 1366,257"/>
<path d="M711,440 Q673,645 636,617"/>
<path d="M711,440 Q969,842 1228,673"/>
<path d="M711,440 Q974,813 1237,602"/>
<path d="M711,440 Q711,440 712,344"/>
<path d="M711,440 Q1137,727 1564,375"/>
<path d="M1725,374 Q1443,892 1161,659"/>
<path d="M1725,374 Q1685,410 1645,374"/>
<path d="M1725,374 Q1530,708 1336,608"/>
<path d="M1116,518 Q1153,551 1190,529"/>
<path d="M977,589 Q733,727 490,544"/>
<path d="M811,702 Q816,705 821,638"/>
<path d="M1410,519 Q1300,625 1190,529"/>
<path d="M1410,519 Q1369,541 1329,318"/>
<path d="M1632,326 Q1411,646 1190,529"/>
<path d="M840,462 Q1265,766 1690,420"/>
<path d="M840,462 Q914,775 988,717"/>
<path d="M840,462 Q837,516 835,514"/>
<path d="M840,462 Q1015,631 1190,529"/>
<path d="M840,462 Q887,503 934,458"/>
<path d="M840,462 Q1073,863 1307,635"/>
<path d="M840,462 Q1170,731 1501,515"/>
<path d="M1206,489 Q1198,535 1190,529"/>
<path d="M1206,489 Q959,619 712,344"/>
<path d="M1453,651 Q1251,764 1049,353"/>
<path d="M926,665 Q873,704 821,638"/>
<path d="M708,578 Q712,581 716,229"/>
<path d="M860,658 Q663,831 467,600"/>
<path d="M860,658 Q919,785 978,748"/>
<path d="M860,658 Q1116,838 1372,473"/>
<path d="M860,658 Q1083,837 1307,635"/>
<path d="M860,658 Q936,697 1013,446"/>
<path d="M860,658 Q1091,833 1323,594"/>
<path d="M860,658 Q920,693 980,516"/>
<path d="M860,658 Q786,721 712,344"/>
<path d="M860,658 Q1070,863 1281,285"/>
<path d="M1250,527 Q1053,750 857,577"/>
<path d="M1659,571 Q1111,1145 564,639"/>
<path d="M1659,571 Q1830,685 2002,374"/>
<path d="M1659,571 Q1490,685 1322,358"/>
<path d="M1659,571 Q1692,589 1726,545"/>
<path d="M1659,571 Q1185,1008 712,344"/>
<path d="M571,546 Q617,575 664,410"/>
<path d="M1430,302 Q1494,498 1559,456"/>
<path d="M1430,302 Q1053,813 677,565"/>
<path d="M870,526 Q970,600 1070,527"/>
<path d="M870,526 Q1035,757 1201,621"/>
<path d="M1104,143 Q1053,434 1002,399"/>
<path d="M1104,143 Q1151,174 1199,145"/>
<path d="M1459,459 Q1324,648 1190,529"/>
<path d="M1459,459 Q1394,519 1329,318"/>
<path d="M1459,459 Q1133,885 807,574"/>
<path d="M1199,145 Q1285,535 1372,473"/>
<path d="M1199,145 Q1135,473 1072,417"/>
<path d="M1199,145 Q1240,320 1281,285"/>
<path d="M1199,145 Q1271,566 1344,527"/>
<path d="M1172,449 Q1110,503 1049,353"/>
<path d="M1172,449 Q1239,697 1307,635"/>
<path d="M1172,449 Q1449,687 1726,545"/>
<path d="M1172,449 Q1246,516 1320,417"/>
<path d="M1172,449 Q1286,533 1401,450"/>
<path d="M1039,668 Q1040,668 1041,565"/>
<path d="M1117,484 Q1153,550 1190,529"/>
<path d="M1459,243 Q1096,910 734,616"/>
<path d="M1459,243 Q1380,320 1302,198"/>
<path d="M1459,243 Q1250,747 1041,565"/>
<path d="M1459,243 Q1412,289 1366,257"/>
<path d="M1100,502 Q1145,563 1190,529"/>
<path d="M784,118 Q886,775 988,717"/>
<path d="M784,118 Q733,253 683,205"/>
<path d="M784,118 Q783,118 783,54"/>
<path d="M784,118 Q944,407 1104,294"/>
<path d="M1404,189 Q1366,350 1329,318"/>
<path d="M1404,189 Q1385,270 1366,257"/>
<path d="M1597,291 Q1614,337 1632,326"/>
<path d="M1597,291 Q1393,718 1190,529"/>
<path d="M1597,291 Q1154,589 712,344"/>
<path d="M1597,291 Q1557,315 1517,291"/>
<path d="M1597,291 Q1570,349 1543,324"/>
<path d="M1597,291 Q1621,392 1645,374"/>
<path d="M1597,291 Q1603,295 1609,251"/>
<path d="M1597,291 Q1617,301 1637,232"/>
<path d="M1597,291 Q1560,327 1523,247"/>
<path d="M1597,291 Q1593,294 1590,227"/>
<path d="M618,679 Q797,868 976,704"/>
<path d="M618,679 Q702,867 786,784"/>
<path d="M618,679 Q737,750 857,452"/>
<path d="M618,679 Q803,888 988,717"/>
<path d="M618,679 Q721,751 825,440"/>
<path d="M618,679 Q570,712 523,664"/>
<path d="M716,229 Q683,279 650,256"/>
<path d="M716,229 Q1030,725 1344,527"/>
<path d="M716,229 Q1116,540 1517,291"/>
<path d="M716,229 Q1005,564 1294,307"/>
<path d="M683,205 Q773,275 863,217"/>
<path d="M683,205 Q933,561 1183,376"/>
<path d="M683,205 Q893,428 1104,294"/>
<path d="M1070,527 Q1023,573 976,332"/>
<path d="M1070,527 Q1252,826 1435,669"/>
<path d="M1070,527 Q1153,644 1237,602"/>
<path d="M1070,527 Q1079,569 1088,565"/>
<path d="M1070,527 Q1071,527 1072,417"/>
<path d="M1070,527 Q1091,541 1112,345"/>
<path d="M1070,527 Q1091,545 1112,449"/>
<path d="M1070,527 Q969,742 868,674"/>
<path d="M1070,527 Q1235,669 1401,450"/>
<path d="M1070,527 Q860,638 650,256"/>
<path d="M1070,527 Q1219,632 1369,289"/>
<path d="M1070,527 Q1006,649 942,616"/>
<path d="M1070,527 Q1130,575 1190,529"/>
<path d="M1070,527 Q1112,618 1155,579"/>
<path d="M1070,527 Q1063,532 1057,453"/>
<path d="M1070,527 Q1188,731 1307,635"/>
<path d="M1070,527 Q951,636 832,550"/>
<path d="M1070,527 Q1160,602 1250,527"/>
<path d="M857,452 Q1155,710 1454,363"/>
<path d="M857,452 Q1032,550 1207,437"/>
<path d="M857,452 Q1100,685 1344,527"/>
<path d="M857,452 Q895,480 934,458"/>
<path d="M857,452 Q1079,630 1302,198"/>
<path d="M857,452 Q949,644 1041,565"/>
<path d="M534,519 Q658,615 783,469"/>
<path d="M534,519 Q534,519 535,472"/>
<path d="M1323,594 Q1409,656 1495,435"/>
<path d="M1323,594 Q1563,836 1803,609"/>
<path d="M1323,594 Q1363,630 1404,229"/>
<path d="M1323,594 Q1421,691 1519,234"/>
<path d="M1323,594 Q1048,738 774,543"/>
<path d="M1323,594 Q1315,641 1307,635"/>
<path d="M826,733 Q823,734 821,638"/>
<path d="M826,733 Q934,834 1043,548"/>
<path d="M826,733 Q769,768 712,344"/>
<path d="M619,584 Q797,673 976,332"/>
<path d="M619,584 Q720,696 821,638"/>
<path d="M619,584 Q831,723 1043,548"/>
<path d="M1580,343 Q1683,655 1786,576"/>
<path d="M778,352 Q984,719 1190,529"/>
<path d="M778,352 Q856,503 934,458"/>
<path d="M1192,702 Q1075,813 958,264"/>
<path d="M1192,702 Q1139,738 1086,544"/>
<path d="M1192,702 Q1023,863 855,265"/>
<path d="M1192,702 Q1132,743 1072,417"/>
<path d="M1192,702 Q1018,830 844,614"/>
<path d="M1192,702 Q1041,840 891,501"/>
<path d="M1192,702 Q1403,842 1614,398"/>
<path d="M1192,702 Q929,930 666,644"/>
<path d="M1192,702 Q1257,761 1323,594"/>
<path d="M1192,702 Q1414,889 1637,232"/>
<path d="M1192,702 Q1272,750 1352,454"/>
<path d="M1192,702 Q839,1045 487,653"/>
<path d="M1192,702 Q1024,799 857,577"/>
<path d="M1192,702 Q1441,908 1691,662"/>
<path d="M1192,702 Q1178,715 1164,248"/>
<path d="M1192,702 Q983,870 774,597"/>
<path d="M1192,702 Q1256,759 1320,417"/>
<path d="M1192,702 Q1148,729 1104,294"/>
<path d="M1192,702 Q1412,838 1632,326"/>
<path d="M1192,702 Q928,935 664,410"/>
<path d="M1192,702 Q1086,795 980,309"/>
<path d="M1192,702 Q1298,795 1404,229"/>
<path d="M1192,702 Q829,962 467,600"/>
<path d="M1192,702 Q905,957 618,679"/>
<path d="M1192,702 Q1191,702 1190,529"/>
<path d="M1192,702 Q1367,853 1543,324"/>
<path d="M1192,702 Q1196,705 1201,621"/>
<path d="M1192,702 Q1026,814 860,658"/>
<path d="M1192,702 Q1229,982 1266,954"/>
<path d="M1192,702 Q725,1113 258,595"/>
<path d="M1192,702 Q1045,795 899,653"/>
<path d="M913,614 Q958,658 1003,388"/>
<path d="M913,614 Q843,667 774,543"/>
<path d="M913,614 Q1118,732 1323,594"/>
<path d="M913,614 Q1103,786 1294,307"/>
<path d="M913,614 Q867,676 821,638"/>
<path d="M396,529 Q521,710 646,607"/>
<path d="M396,529 Q536,680 677,565"/>
<path d="M1366,257 Q1420,308 1475,208"/>
<path d="M1366,257 Q1348,271 1330,178"/>
<path d="M1366,257 Q1417,331 1469,284"/>
<path d="M1366,257 Q1312,293 1258,235"/>
<path d="M692,546 Q1063,965 1435,669"/>
<path d="M692,546 Q941,690 1190,529"/>
<path d="M692,546 Q613,614 534,519"/>
<path d="M692,546 Q613,608 535,472"/>
<path d="M692,546 Q813,625 934,458"/>
<path d="M1018,500 Q1044,549 1070,527"/>
<path d="M1046,403 Q1114,445 1183,376"/>
<path d="M1046,403 Q935,534 825,440"/>
<path d="M1322,358 Q1381,407 1441,324"/>
<path d="M1322,358 Q1106,680 891,501"/>
<path d="M1322,358 Q1173,456 1024,343"/>
<path d="M1322,358 Q1148,491 975,355"/>
<path d="M1322,358 Q1325,361 1329,318"/>
<path d="M1322,358 Q904,971 487,653"/>
<path d="M1322,358 Q1506,470 1690,279"/>
<path d="M1322,358 Q1562,781 1803,609"/>
<path d="M1322,358 Q1089,570 857,452"/>
<path d="M1322,358 Q999,862 677,565"/>
<path d="M1322,358 Q1274,404 1226,359"/>
<path d="M1322,358 Q1252,440 1183,376"/>
<path d="M1322,358 Q925,1113 529,719"/>
<path d="M1322,358 Q1091,846 860,658"/>
<path d="M1322,358 Q1156,645 991,484"/>
<path d="M1322,358 Q943,872 564,639"/>
<path d="M1322,358 Q1388,411 1454,363"/>
<path d="M1322,358 Q1141,514 960,171"/>
<path d="M1322,358 Q1468,530 1614,398"/>
<path d="M1322,358 Q1515,694 1708,585"/>
<path d="M1322,358 Q1395,403 1469,284"/>
<path d="M1322,358 Q1363,397 1404,189"/>
<path d="M1322,358 Q1363,398 1404,229"/>
<path d="M1322,358 Q1451,432 1580,343"/>
<path d="M1322,358 Q1326,361 1330,178"/>
<path d="M1322,358 Q1344,370 1366,257"/>
<path d="M1322,358 Q1114,827 907,694"/>
<path d="M1322,358 Q1402,455 1483,406"/>
<path d="M1322,358 Q1370,401 1419,270"/>
<path d="M1322,358 Q1440,530 1559,456"/>
<path d="M1322,358 Q991,999 660,713"/>
<path d="M750,572 Q830,760 910,712"/>
<path d="M750,572 Q910,661 1070,527"/>
<path d="M750,572 Q1046,751 1343,565"/>
<path d="M750,572 Q1179,804 1609,251"/>
<path d="M750,572 Q1170,826 1590,227"/>
<path d="M750,572 Q1051,832 1352,454"/>
<path d="M1281,285 Q1287,311 1294,307"/>
<path d="M1281,285 Q1356,549 1432,479"/>
<path d="M534,699 Q599,742 664,410"/>
<path d="M534,699 Q582,733 630,701"/>
<path d="M534,699 Q1085,1100 1637,232"/>
<path d="M534,699 Q1160,1306 1786,576"/>
<path d="M534,699 Q597,773 660,713"/>
<path d="M534,699 Q1168,1037 1803,609"/>
<path d="M534,699 Q939,1034 1344,527"/>
<path d="M722,510 Q746,525 771,407"/>
<path d="M722,510 Q952,711 1183,376"/>
<path d="M722,510 Q1014,815 1307,635"/>
<path d="M722,510 Q1140,777 1559,456"/>
<path d="M722,510 Q947,639 1172,449"/>
<path d="M1121,552 Q1155,576 1190,529"/>
<path d="M1121,552 Q916,709 712,344"/>
<path d="M1519,234 Q1318,488 1118,376"/>
<path d="M1519,234 Q1153,859 787,560"/>
<path d="M1519,234 Q1461,283 1404,229"/>
<path d="M1645,374 Q1604,399 1564,375"/>
<path d="M1645,374 Q1140,990 636,617"/>
<path d="M874,406 Q1184,704 1495,435"/>
<path d="M874,406 Q923,842 972,815"/>
<path d="M874,406 Q908,798 942,773"/>
<path d="M874,406 Q1109,723 1344,527"/>
<path d="M874,406 Q904,480 934,458"/>
<path d="M874,406 Q804,657 734,616"/>
<path d="M874,406 Q1120,567 1366,257"/>
<path d="M590,596 Q633,637 677,565"/>
<path d="M590,596 Q864,863 1138,388"/>
<path d="M590,596 Q816,724 1043,548"/>
<path d="M590,596 Q783,771 977,589"/>
<path d="M590,596 Q748,824 907,694"/>
<path d="M1201,621 Q1088,714 976,332"/>
<path d="M1201,621 Q1195,626 1190,529"/>
<path d="M1201,621 Q1234,642 1268,477"/>
<path d="M1201,621 Q1423,776 1645,374"/>
<path d="M1201,621 Q1168,675 1136,647"/>
<path d="M1201,621 Q1192,628 1183,376"/>
<path d="M1161,659 Q1109,685 1057,453"/>
<path d="M1161,659 Q1175,668 1190,529"/>
<path d="M1161,659 Q1214,696 1268,477"/>
<path d="M1545,479 Q1419,543 1294,307"/>
<path d="M1545,479 Q1444,620 1344,527"/>
<path d="M899,653 Q859,675 820,649"/>
<path d="M899,653 Q970,689 1041,565"/>
<path d="M1708,585 Q1374,803 1041,565"/>
<path d="M1708,585 Q1717,593 1726,545"/>
<path d="M1158,567 Q1174,575 1190,529"/>
<path d="M1230,470 Q992,762 755,641"/>
<path d="M1230,470 Q1210,540 1190,529"/>
<path d="M1230,470 Q1394,630 1559,456"/>
<path d="M1330,178 Q1455,425 1580,343"/>
<path d="M1330,178 Q1260,572 1190,529"/>
<path d="M1330,178 Q1406,451 1483,406"/>
<path d="M1330,178 Q1399,348 1469,284"/>
<path d="M793,339 Q752,379 712,344"/>
<path d="M636,617 Q674,642 712,344"/>
<path d="M1190,855 Q1228,983 1266,954"/>
<path d="M1523,247 Q1584,419 1645,374"/>
<path d="M1523,247 Q1353,528 1183,376"/>
<path d="M1523,247 Q1375,776 1228,673"/>
<path d="M1523,247 Q1117,649 712,344"/>
<path d="M1590,227 Q1390,661 1190,529"/>
<path d="M1590,227 Q1151,577 712,344"/>
<path d="M1043,592 Q1070,710 1098,696"/>
<path d="M1043,592 Q830,890 618,679"/>
<path d="M1043,592 Q867,911 692,741"/>
<path d="M1439,1014 Q1352,1057 1266,954"/>
<path d="M1112,345 Q1079,421 1046,403"/>
<path d="M630,701 Q803,805 976,704"/>
<path d="M630,701 Q1042,1087 1454,363"/>
<path d="M630,701 Q743,772 857,452"/>
<path d="M630,701 Q835,806 1041,565"/>
<path d="M1144,186 Q817,712 490,544"/>
<path d="M1144,186 Q1061,814 978,748"/>
<path d="M1144,186 Q1351,579 1559,456"/>
<path d="M1144,186 Q1212,345 1281,285"/>
<path d="M1546,634 Q1490,724 1435,669"/>
<path d="M1546,634 Q1426,723 1307,635"/>
<path d="M972,501 Q835,580 699,500"/>
<path d="M972,501 Q923,532 874,406"/>
<path d="M972,501 Q1006,588 1041,565"/>
<path d="M972,501 Q939,718 907,694"/>
<path d="M1249,450 Q1404,543 1559,456"/>
<path d="M1249,450 Q1326,522 1404,229"/>
<path d="M1249,450 Q1310,508 1372,473"/>
<path d="M1249,450 Q1219,547 1190,529"/>
<path d="M1249,450 Q1196,478 1144,186"/>
<path d="M1249,450 Q1091,612 934,458"/>
<path d="M1249,450 Q869,918 490,544"/>
<path d="M1249,450 Q1296,560 1344,527"/>
<path d="M1249,450 Q1193,498 1138,388"/>
<path d="M1249,450 Q1284,475 1320,417"/>
<path d="M1218,189 Q1206,303 1194,293"/>
<path d="M1218,189 Q1356,505 1495,435"/>
<path d="M1433,556 Q1127,861 821,638"/>
<path d="M1433,556 Q1145,841 857,452"/>
<path d="M1433,556 Q1238,702 1043,548"/>
<path d="M1433,556 Q1204,727 975,355"/>
<path d="M1433,556 Q1329,620 1226,359"/>
<path d="M1433,556 Q1212,681 991,484"/>
<path d="M1433,556 Q1311,621 1190,529"/>
<path d="M1433,556 Q1446,565 1459,243"/>
<path d="M1433,556 Q1177,769 921,395"/>
<path d="M1833,395 Q1511,697 1190,529"/>
<path d="M1833,395 Q1305,728 778,352"/>
<path d="M1833,395 Q1272,818 712,344"/>
<path d="M592,530 Q634,599 677,565"/>
<path d="M1262,574 Q1226,592 1190,529"/>
<path d="M922,373 Q971,566 1021,528"/>
<path d="M922,373 Q990,427 1059,389"/>
<path d="M922,373 Q893,394 865,303"/>
<path d="M922,373 Q984,441 1046,403"/>
<path d="M922,373 Q1095,579 1268,477"/>
<path d="M922,373 Q779,757 636,617"/>
<path d="M922,373 Q859,477 796,426"/>
<path d="M922,373 Q1279,647 1637,232"/>
<path d="M922,373 Q996,446 1071,375"/>
<path d="M922,373 Q1197,620 1472,396"/>
<path d="M1726,545 Q1764,631 1803,609"/>
<path d="M1726,545 Q1756,592 1786,576"/>
<path d="M639,450 Q813,887 988,717"/>
<path d="M639,450 Q1142,714 1645,374"/>
<path d="M639,450 Q651,456 664,410"/>
<path d="M639,450 Q675,478 712,344"/>
<path d="M1139,428 Q1104,561 1070,527"/>
<path d="M1139,428 Q1138,428 1138,388"/>
<path d="M1139,428 Q1151,438 1164,248"/>
<path d="M1139,428 Q1058,639 977,589"/>
<path d="M874,730 Q1166,967 1459,459"/>
<path d="M874,730 Q923,840 972,815"/>
<path d="M874,730 Q1119,889 1364,679"/>
<path d="M874,730 Q847,744 821,638"/>
<path d="M874,730 Q893,743 913,614"/>
<path d="M874,730 Q1050,847 1226,359"/>
<path d="M874,730 Q874,730 874,406"/>
<path d="M874,730 Q1142,995 1410,519"/>
<path d="M922,801 Q1144,931 1366,257"/>
<path d="M922,801 Q1056,899 1190,529"/>
<path d="M728,530 Q702,583 677,565"/>
<path d="M598,573 Q637,592 677,565"/>
<path d="M1104,294 Q710,1170 316,889"/>
<path d="M1104,294 Q910,479 716,229"/>
<path d="M1104,294 Q1075,425 1046,403"/>
<path d="M1104,294 Q1151,340 1199,145"/>
<path d="M1104,294 Q1019,537 934,458"/>
<path d="M1104,294 Q1111,381 1118,376"/>
<path d="M1104,294 Q1108,348 1112,345"/>
<path d="M1104,294 Q961,412 818,206"/>
<path d="M1104,294 Q1087,387 1071,375"/>
<path d="M1104,294 Q1212,492 1320,417"/>
<path d="M1104,294 Q1453,843 1803,609"/>
<path d="M1104,294 Q1079,315 1055,247"/>
<path d="M1104,294 Q1020,644 937,574"/>
<path d="M1104,294 Q1139,315 1174,208"/>
<path d="M1104,294 Q1085,312 1067,217"/>
<path d="M1275,649 Q1367,728 1459,459"/>
<path d="M1275,649 Q1319,717 1364,679"/>
<path d="M1275,649 Q1232,683 1190,529"/>
<path d="M1275,649 Q976,859 677,565"/>
<path d="M1275,649 Q1360,750 1445,682"/>
<path d="M1275,649 Q1384,726 1493,575"/>
<path d="M1275,649 Q1098,891 922,801"/>
<path d="M1275,649 Q1299,747 1323,733"/>
<path d="M1275,649 Q1235,687 1195,465"/>
<path d="M1275,649 Q1488,777 1702,483"/>
<path d="M1275,649 Q960,884 646,607"/>
<path d="M1275,649 Q1223,686 1172,449"/>
<path d="M1275,649 Q1041,866 807,495"/>
<path d="M1275,649 Q1342,696 1410,519"/>
<path d="M988,676 Q988,717 988,717"/>
<path d="M1266,954 Q1139,1042 1013,446"/>
<path d="M1266,954 Q1228,976 1190,529"/>
<path d="M1266,954 Q966,1234 666,435"/>
<path d="M1266,954 Q1313,1040 1360,995"/>
<path d="M1427,542 Q1308,626 1190,529"/>
<path d="M1427,542 Q1493,607 1559,456"/>
<path d="M938,553 Q1005,603 1072,417"/>
<path d="M938,553 Q1248,852 1559,456"/>
<path d="M938,553 Q1141,657 1344,527"/>
<path d="M938,553 Q936,554 934,458"/>
<path d="M1237,602 Q1401,755 1565,437"/>
<path d="M1308,449 Q1340,493 1372,473"/>
<path d="M1308,449 Q1183,529 1059,389"/>
<path d="M1308,449 Q1326,543 1344,527"/>
<path d="M1178,592 Q1184,595 1190,529"/>
<path d="M1320,417 Q1380,454 1441,324"/>
<path d="M1320,417 Q1375,454 1430,302"/>
<path d="M1320,417 Q1154,869 988,717"/>
<path d="M1320,417 Q1332,536 1344,527"/>
<path d="M1320,417 Q1307,428 1294,307"/>
<path d="M1320,417 Q1016,657 712,344"/>
<path d="M1320,417 Q1344,431 1369,289"/>
<path d="M1320,417 Q1255,562 1190,529"/>
<path d="M1320,417 Q1333,424 1347,378"/>
<path d="M1320,417 Q1376,531 1432,479"/>
<path d="M1320,417 Q1346,492 1372,473"/>
<path d="M1320,417 Q1439,549 1559,456"/>
<path d="M1173,424 Q1170,426 1168,359"/>
<path d="M523,664 Q820,864 1118,376"/>
<path d="M1190,529 Q1089,806 988,717"/>
<path d="M1190,529 Q1399,686 1609,251"/>
<path d="M1190,529 Q1130,577 1071,375"/>
<path d="M1190,529 Q1227,555 1265,512"/>
<path d="M1190,529 Q1253,583 1316,439"/>
<path d="M1190,529 Q1118,600 1046,403"/>
<path d="M1190,529 Q1263,670 1336,608"/>
<path d="M1190,529 Q1211,627 1233,615"/>
<path d="M1190,529 Q1236,594 1283,550"/>
<path d="M1190,529 Q1244,557 1298,465"/>
<path d="M1190,529 Q1234,725 1279,694"/>
<path d="M1190,529 Q1377,662 1565,437"/>
<path d="M1190,529 Q1235,566 1281,285"/>
<path d="M1190,529 Q1413,697 1637,232"/>
<path d="M1190,529 Q1496,814 1803,609"/>
<path d="M1190,529 Q1488,740 1786,576"/>
<path d="M1190,529 Q1321,769 1453,651"/>
<path d="M1190,529 Q1417,734 1645,374"/>
<path d="M1190,529 Q927,716 664,410"/>
<path d="M1190,529 Q1353,636 1517,291"/>
<path d="M1190,529 Q951,730 712,344"/>
<path d="M1190,529 Q1209,685 1228,673"/>
<path d="M1226,359 Q1208,544 1190,529"/>
<path d="M960,171 Q979,219 998,206"/>
<path d="M529,719 Q1076,1286 1623,742"/>
<path d="M529,719 Q785,937 1041,565"/>
<path d="M798,719 Q870,838 942,773"/>
<path d="M798,719 Q809,725 821,638"/>
<path d="M798,719 Q834,804 870,772"/>
<path d="M1477,352 Q1232,849 988,717"/>
<path d="M1477,352 Q1398,488 1320,417"/>
<path d="M1285,529 Q1237,560 1190,529"/>
<path d="M1285,529 Q1111,679 937,574"/>
<path d="M1495,435 Q1640,661 1786,576"/>
<path d="M528,454 Q602,636 677,565"/>
<path d="M835,514 Q929,582 1024,343"/>
<path d="M835,514 Q906,816 978,748"/>
<path d="M835,514 Q884,542 934,458"/>
<path d="M835,514 Q803,531 771,407"/>
<path d="M835,514 Q924,602 1013,446"/>
<path d="M835,514 Q1068,677 1302,198"/>
<path d="M835,514 Q1058,671 1281,285"/>
<path d="M835,514 Q651,748 467,600"/>
<path d="M835,514 Q1012,646 1190,529"/>
<path d="M835,514 Q1423,1037 2012,468"/>
<path d="M835,514 Q1071,773 1307,635"/>
<path d="M835,514 Q1079,754 1323,594"/>
<path d="M1003,388 Q1096,586 1190,529"/>
<path d="M1003,388 Q1142,476 1281,285"/>
<path d="M1003,388 Q895,642 787,560"/>
<path d="M1003,388 Q968,477 934,458"/>
<path d="M1559,456 Q1465,541 1372,473"/>
<path d="M1559,456 Q1165,654 771,407"/>
<path d="M1559,456 Q1581,476 1603,313"/>
<path d="M1559,456 Q1495,523 1432,479"/>
<path d="M1559,456 Q1024,960 490,544"/>
<path d="M1559,456 Q1268,904 978,748"/>
<path d="M1559,456 Q1426,535 1294,307"/>
<path d="M1559,456 Q1527,473 1495,435"/>
<path d="M1559,456 Q1453,523 1347,378"/>
<path d="M1559,456 Q1192,673 825,440"/>
<path d="M746,628 Q783,665 821,638"/>
<path d="M891,501 Q679,766 467,600"/>
<path d="M891,501 Q903,512 916,420"/>
<path d="M891,501 Q934,779 978,748"/>
<path d="M891,501 Q863,534 835,514"/>
<path d="M891,501 Q912,514 934,458"/>
<path d="M891,501 Q831,541 771,407"/>
<path d="M891,501 Q1107,751 1323,594"/>
<path d="M891,501 Q810,572 730,486"/>
<path d="M891,501 Q935,559 980,516"/>
<path d="M891,501 Q1021,628 1152,320"/>
<path d="M487,653 Q661,772 835,514"/>
<path d="M487,653 Q884,1012 1281,285"/>
<path d="M1691,662 Q1851,786 2012,468"/>
<path d="M1691,662 Q1610,726 1529,421"/>
<path d="M1691,662 Q1440,845 1190,529"/>
<path d="M1691,662 Q1708,674 1726,545"/>
<path d="M1691,662 Q1201,970 712,344"/>
<path d="M1690,279 Q1643,334 1597,291"/>
<path d="M1690,279 Q1624,500 1559,456"/>
<path d="M1690,279 Q1339,1044 988,717"/>
<path d="M1690,279 Q1288,579 886,327"/>
<path d="M1690,279 Q1389,748 1088,565"/>
<path d="M886,327 Q871,589 857,577"/>
<path d="M886,327 Q966,472 1046,403"/>
<path d="M921,395 Q778,535 636,336"/>
<path d="M921,395 Q854,606 787,560"/>
<path d="M921,395 Q927,461 934,458"/>
<path d="M921,395 Q1132,684 1344,527"/>
<path d="M921,395 Q981,610 1041,565"/>
<path d="M1032,605 Q1036,607 1041,565"/>
<path d="M1614,398 Q1472,517 1330,178"/>
<path d="M1614,398 Q1287,700 960,171"/>
<path d="M1098,696 Q1202,773 1307,635"/>
<path d="M666,644 Q827,813 988,717"/>
<path d="M666,644 Q958,926 1250,527"/>
<path d="M666,644 Q986,875 1307,635"/>
<path d="M666,644 Q689,665 712,344"/>
<path d="M721,706 Q909,837 1098,696"/>
<path d="M721,706 Q706,755 692,741"/>
<path d="M980,309 Q984,719 988,717"/>
<path d="M980,309 Q1025,405 1071,375"/>
<path d="M980,309 Q865,657 750,572"/>
<path d="M980,309 Q1085,617 1190,529"/>
<path d="M980,309 Q846,444 712,344"/>
<path d="M980,309 Q1074,412 1168,359"/>
<path d="M1233,615 Q1398,697 1564,375"/>
<path d="M1019,575 Q1104,653 1190,529"/>
<path d="M1019,575 Q1210,728 1401,450"/>
<path d="M1019,575 Q938,621 857,577"/>
<path d="M1019,575 Q865,717 712,344"/>
<path d="M1019,575 Q1281,807 1543,324"/>
<path d="M717,383 Q1085,1010 1453,651"/>
<path d="M717,383 Q714,384 712,344"/>
<path d="M1057,453 Q1123,585 1190,529"/>
<path d="M1057,453 Q1287,666 1517,291"/>
<path d="M1057,453 Q1351,661 1645,374"/>
<path d="M1057,453 Q884,607 712,344"/>
<path d="M1057,453 Q1333,623 1609,251"/>
<path d="M783,469 Q986,698 1190,529"/>
<path d="M783,469 Q1308,885 1833,395"/>
<path d="M783,469 Q858,533 934,458"/>
<path d="M1398,504 Q1294,626 1190,529"/>
<path d="M1398,504 Q1014,963 630,701"/>
<path d="M958,264 Q973,725 988,717"/>
<path d="M958,264 Q1217,595 1477,352"/>
<path d="M958,264 Q1015,465 1072,417"/>
<path d="M958,264 Q907,624 857,577"/>
<path d="M958,264 Q947,582 937,574"/>
<path d="M1167,238 Q939,483 712,344"/>
<path d="M1167,238 Q1223,726 1279,694"/>
<path d="M857,577 Q1176,878 1495,435"/>
<path d="M857,577 Q746,684 636,617"/>
<path d="M1690,420 Q1357,652 1024,343"/>
<path d="M1690,420 Q1586,484 1483,406"/>
<path d="M1516,493 Q1279,690 1043,548"/>
<path d="M1516,493 Q1537,506 1559,456"/>
<path d="M1803,609 Q1030,1307 258,595"/>
<path d="M1603,313 Q1295,892 988,717"/>
<path d="M1603,313 Q1157,701 712,344"/>
<path d="M1603,313 Q1583,385 1564,375"/>
<path d="M928,480 Q896,505 865,303"/>
<path d="M865,303 Q943,571 1021,528"/>
<path d="M865,303 Q931,355 998,206"/>
<path d="M865,303 Q933,460 1002,399"/>
<path d="M865,303 Q1133,623 1401,450"/>
<path d="M865,303 Q1016,446 1167,238"/>
<path d="M621,306 Q696,454 771,407"/>
<path d="M621,306 Q833,550 1046,403"/>
<path d="M621,306 Q644,318 667,271"/>
<path d="M621,306 Q894,590 1168,359"/>
<path d="M1728,505 Q1187,1045 646,607"/>
<path d="M1728,505 Q1727,545 1726,545"/>
<path d="M1728,505 Q1220,852 712,344"/>
<path d="M586,424 Q691,523 796,426"/>
<path d="M586,424 Q888,793 1190,529"/>
<path d="M586,424 Q649,485 712,344"/>
<path d="M586,424 Q625,454 664,410"/>
<path d="M818,206 Q567,1127 316,889"/>
<path d="M818,206 Q767,260 716,229"/>
<path d="M818,206 Q1004,663 1190,529"/>
<path d="M818,206 Q1188,825 1559,456"/>
<path d="M1472,396 Q1224,533 976,332"/>
<path d="M1472,396 Q1444,422 1416,370"/>
<path d="M1472,396 Q1271,640 1070,527"/>
<path d="M1472,396 Q1272,551 1072,417"/>
<path d="M1472,396 Q1412,505 1352,454"/>
<path d="M1472,396 Q1396,456 1320,417"/>
<path d="M1472,396 Q1436,483 1401,450"/>
<path d="M1472,396 Q1092,661 712,344"/>
<path d="M1472,396 Q1331,643 1190,529"/>
<path d="M1472,396 Q1094,624 717,383"/>
<path d="M1472,396 Q1090,940 708,578"/>
<path d="M1472,396 Q1389,682 1307,635"/>
<path d="M1472,396 Q1240,758 1009,589"/>
<path d="M1469,284 Q1257,534 1046,403"/>
<path d="M1565,437 Q1112,864 659,317"/>
<path d="M1565,437 Q1138,842 712,344"/>
<path d="M872,477 Q957,615 1043,548"/>
<path d="M645,725 Q1069,944 1493,575"/>
<path d="M645,725 Q783,873 922,801"/>
<path d="M645,725 Q587,778 529,719"/>
<path d="M645,725 Q689,748 734,616"/>
<path d="M645,725 Q732,780 819,668"/>
<path d="M645,725 Q876,842 1107,682"/>
<path d="M645,725 Q726,782 807,495"/></g><g font-family="Monospace"><text y="655" x="997" font-size="10" fill="#0000ff">iputils</text>
<text y="446" x="1007" font-size="10" fill="#6a6aa2">gd</text>
<text y="375" x="1058" font-size="10" fill="#6a6aa2">gdbm</text>
<text y="388" x="1970" font-size="10" fill="#0000ff">rhino</text>
<text y="321" x="1167" font-size="11" fill="#0000ff">python2-docutils</text>
<text y="450" x="1382" font-size="12" fill="#6a6aa2">gpgme</text>
<text y="213" x="1267" font-size="10" fill="#0000ff">urxvt-url-select</text>
<text y="208" x="1404" font-size="17" fill="#0000ff">lib32-ati-dri</text>
<text y="512" x="1012" font-size="10" fill="#0000ff">pptpclient</text>
<text y="543" x="755" font-size="10" fill="#6a6aa2">giflib</text>
<text y="617" x="1771" font-size="12" fill="#0000ff">tk</text>
<text y="649" x="804" font-size="10" fill="#6a6aa2">libxt</text>
<text y="335" x="1976" font-size="10" fill="#0000ff">junit</text>
<text y="232" x="1624" font-size="10" fill="#6a6aa2">file</text>
<text y="363" x="765" font-size="10" fill="#0000ff">unzip</text>
<text y="679" x="1338" font-size="10" fill="#6a6aa2">libxfont</text>
<text y="614" x="807" font-size="38" fill="#0000ff">vlc</text>
<text y="527" x="1313" font-size="24" fill="#6a6aa2">gtk2</text>
<text y="458" x="884" font-size="39" fill="#6a6aa2">gtk3</text>
<text y="454" x="1331" font-size="11" fill="#6a6aa2">gnutls</text>
<text y="608" x="1317" font-size="10" fill="#6a6aa2">dhcpcd</text>
<text y="600" x="389" font-size="22" fill="#6a6aa2">ghostscript</text>
<text y="247" x="1017" font-size="13" fill="#0000ff">mercurial</text>
<text y="500" x="657" font-size="10" fill="#6a6aa2">libxcomposite</text>
<text y="498" x="575" font-size="10" fill="#6a6aa2">libsystemd</text>
<text y="609" x="1132" font-size="10" fill="#0000ff">licenses</text>
<text y="367" x="660" font-size="10" fill="#6a6aa2">libspectre</text>
<text y="742" x="1530" font-size="16" fill="#6a6aa2">gstreamer0.10-base</text>
<text y="652" x="705" font-size="10" fill="#0000ff">xorg-x11perf</text>
<text y="582" x="730" font-size="10" fill="#6a6aa2">libproxy</text>
<text y="663" x="1257" font-size="10" fill="#6a6aa2">libgpg-error</text>
<text y="420" x="1773" font-size="28" fill="#0000ff">wireshark-cli</text>
<text y="618" x="1460" font-size="10" fill="#0000ff">cpufrequtils</text>
<text y="595" x="167" font-size="56" fill="#0000ff">boost</text>
<text y="550" x="1270" font-size="10" fill="#0000ff">acpi</text>
<text y="784" x="754" font-size="10" fill="#6a6aa2">libsndfile</text>
<text y="291" x="1504" font-size="10" fill="#6a6aa2">gawk</text>
<text y="426" x="774" font-size="10" fill="#6a6aa2">libltdl</text>
<text y="678" x="799" font-size="10" fill="#0000ff">wmname</text>
<text y="358" x="1615" font-size="10" fill="#0000ff">zathura-pdf-poppler</text>
<text y="468" x="1787" font-size="33" fill="#6a6aa2">jre7-openjdk-headless</text>
<text y="263" x="1002" font-size="10" fill="#0000ff">python2-feedparser</text>
<text y="414" x="1154" font-size="10" fill="#6a6aa2">xextproto</text>
<text y="717" x="962" font-size="10" fill="#6a6aa2">gcc-libs</text>
<text y="420" x="900" font-size="10" fill="#6a6aa2">lcms2</text>
<text y="389" x="1040" font-size="10" fill="#6a6aa2">sqlite</text>
<text y="660" x="1107" font-size="10" fill="#0000ff">tmux</text>
<text y="574" x="786" font-size="11" fill="#6a6aa2">libxcb</text>
<text y="421" x="1476" font-size="15" fill="#0000ff">flashplugin</text>
<text y="536" x="1465" font-size="10" fill="#0000ff">syslog-ng</text>
<text y="560" x="778" font-size="10" fill="#0000ff">feh</text>
<text y="359" x="1137" font-size="24" fill="#6a6aa2">perl</text>
<text y="621" x="1136" font-size="10" fill="#6a6aa2">m4</text>
<text y="417" x="1043" font-size="13" fill="#6a6aa2">libxml2</text>
<text y="484" x="962" font-size="10" fill="#6a6aa2">libxrandr</text>
<text y="704" x="950" font-size="10" fill="#6a6aa2">libpulse</text>
<text y="548" x="1024" font-size="10" fill="#6a6aa2">libxmu</text>
<text y="772" x="838" font-size="10" fill="#0000ff">xorg-utils</text>
<text y="599" x="1261" font-size="10" fill="#6a6aa2">flac</text>
<text y="515" x="1469" font-size="10" fill="#6a6aa2">sysfsutils</text>
<text y="668" x="793" font-size="10" fill="#6a6aa2">xcb-util</text>
<text y="235" x="1210" font-size="10" fill="#0000ff">lib32-intel-dri</text>
<text y="186" x="1458" font-size="12" fill="#0000ff">pstoedit</text>
<text y="635" x="1189" font-size="14" fill="#0000ff">gstreamer0.10-good-plugins</text>
<text y="376" x="1099" font-size="10" fill="#0000ff">archey</text>
<text y="320" x="1139" font-size="10" fill="#6a6aa2">lcms</text>
<text y="528" x="1007" font-size="11" fill="#6a6aa2">krb5</text>
<text y="669" x="1400" font-size="11" fill="#0000ff">alsa-utils</text>
<text y="544" x="1069" font-size="11" fill="#0000ff">links</text>
<text y="488" x="1256" font-size="10" fill="#0000ff">sudo</text>
<text y="378" x="1338" font-size="10" fill="#6a6aa2">atk</text>
<text y="647" x="1107" font-size="10" fill="#0000ff">logrotate</text>
<text y="567" x="844" font-size="10" fill="#0000ff">socat</text>
<text y="476" x="587" font-size="10" fill="#6a6aa2">gsettings-desktop-schemas</text>
<text y="483" x="1637" font-size="10" fill="#6a6aa2">xorg-fonts-encodings</text>
<text y="375" x="1555" font-size="10" fill="#6a6aa2">acl</text>
<text y="737" x="713" font-size="10" fill="#0000ff">xorg-xkbutils</text>
<text y="410" x="625" font-size="41" fill="#6a6aa2">gcc</text>
<text y="79" x="970" font-size="14" fill="#0000ff">uniconvertor</text>
<text y="576" x="1760" font-size="10" fill="#6a6aa2">alsa-lib</text>
<text y="249" x="735" font-size="14" fill="#0000ff">pyqt</text>
<text y="376" x="1151" font-size="11" fill="#6a6aa2">dbus-core</text>
<text y="640" x="1754" font-size="10" fill="#0000ff">alsa-oss</text>
<text y="683" x="1489" font-size="10" fill="#0000ff">xorg-xkbevd</text>
<text y="712" x="894" font-size="10" fill="#0000ff">gperf</text>
<text y="721" x="1060" font-size="10" fill="#0000ff">xorg-xcursorgen</text>
<text y="427" x="730" font-size="10" fill="#6a6aa2">polkit</text>
<text y="164" x="849" font-size="10" fill="#6a6aa2">sip</text>
<text y="132" x="1346" font-size="11" fill="#0000ff">aspell-en</text>
<text y="187" x="764" font-size="17" fill="#6a6aa2">qtwebkit</text>
<text y="682" x="1078" font-size="10" fill="#6a6aa2">libxfixes</text>
<text y="159" x="1196" font-size="10" fill="#0000ff">lib32-mpg123</text>
<text y="638" x="794" font-size="14" fill="#6a6aa2">libx11</text>
<text y="620" x="1289" font-size="10" fill="#0000ff">powertop</text>
<text y="217" x="1038" font-size="10" fill="#0000ff">cx_freeze</text>
<text y="404" x="1066" font-size="10" fill="#0000ff">fswebcam</text>
<text y="406" x="1438" font-size="10" fill="#6a6aa2">lib32-gcc-libs</text>
<text y="440" x="755" font-size="10" fill="#0000ff">xmobar</text>
<text y="306" x="675" font-size="10" fill="#0000ff">acpid</text>
<text y="404" x="2042" font-size="10" fill="#0000ff">jna</text>
<text y="673" x="682" font-size="10" fill="#0000ff">xorg-xkill</text>
<text y="449" x="1099" font-size="10" fill="#0000ff">htop</text>
<text y="674" x="854" font-size="11" fill="#0000ff">mutt</text>
<text y="741" x="673" font-size="10" fill="#6a6aa2">libogg</text>
<text y="664" x="600" font-size="10" fill="#0000ff">v4l2ucp</text>
<text y="607" x="598" font-size="10" fill="#6a6aa2">xorg-font-utils</text>
<text y="516" x="958" font-size="10" fill="#6a6aa2">libcups</text>
<text y="465" x="1176" font-size="10" fill="#6a6aa2">pixman</text>
<text y="355" x="943" font-size="10" fill="#6a6aa2">libxcursor</text>
<text y="439" x="1303" font-size="10" fill="#0000ff">flex</text>
<text y="597" x="1433" font-size="10" fill="#0000ff">xf86-input-acecad</text>
<text y="501" x="1191" font-size="10" fill="#0000ff">xf86-input-keyboard</text>
<text y="265" x="797" font-size="30" fill="#6a6aa2">python</text>
<text y="565" x="1324" font-size="10" fill="#6a6aa2">libidn</text>
<text y="217" x="805" font-size="10" fill="#6a6aa2">python-dbus-common</text>
<text y="597" x="748" font-size="10" fill="#6a6aa2">openjpeg</text>
<text y="328" x="1045" font-size="10" fill="#0000ff">reiserfsprogs</text>
<text y="495" x="761" font-size="11" fill="#6a6aa2">systemd-tools</text>
<text y="289" x="1350" font-size="10" fill="#6a6aa2">aspell</text>
<text y="627" x="477" font-size="10" fill="#6a6aa2">dbus</text>
<text y="270" x="1377" font-size="10" fill="#6a6aa2">lib32-libxext</text>
<text y="713" x="644" font-size="10" fill="#6a6aa2">libsm</text>
<text y="198" x="1277" font-size="13" fill="#6a6aa2">jasper</text>
<text y="753" x="759" font-size="10" fill="#0000ff">xorg-smproxy</text>
<text y="473" x="1356" font-size="10" fill="#6a6aa2">cairo</text>
<text y="54" x="748" font-size="10" fill="#6a6aa2">pyqt-common</text>
<text y="435" x="635" font-size="14" fill="#6a6aa2">poppler</text>
<text y="293" x="1180" font-size="11" fill="#0000ff">wicd</text>
<text y="593" x="1356" font-size="10" fill="#6a6aa2">run-parts</text>
<text y="455" x="721" font-size="10" fill="#0000ff">vloopback-svn</text>
<text y="589" x="1000" font-size="10" fill="#0000ff">ntp</text>
<text y="694" x="875" font-size="10" fill="#6a6aa2">libxrender</text>
<text y="399" x="985" font-size="11" fill="#6a6aa2">gconf</text>
<text y="388" x="1119" font-size="10" fill="#6a6aa2">libxft</text>
<text y="683" x="938" font-size="10" fill="#6a6aa2">orc</text>
<text y="344" x="699" font-size="10" fill="#6a6aa2">bash</text>
<text y="385" x="1488" font-size="10" fill="#6a6aa2">poppler-glib</text>
<text y="336" x="620" font-size="10" fill="#0000ff">dmenu</text>
<text y="78" x="736" font-size="10" fill="#6a6aa2">python2-pyparsing</text>
<text y="641" x="730" font-size="11" fill="#6a6aa2">openssh</text>
<text y="574" x="908" font-size="13" fill="#6a6aa2">openssl</text>
<text y="324" x="1511" font-size="10" fill="#6a6aa2">libarchive</text>
<text y="733" x="1271" font-size="10" fill="#6a6aa2">xorg-fonts-alias</text>
<text y="246" x="1242" font-size="10" fill="#0000ff">jfsutils</text>
<text y="353" x="1017" font-size="10" fill="#0000ff">cryptsetup</text>
<text y="343" x="963" font-size="10" fill="#6a6aa2">lib32-libjpeg-turbo</text>
<text y="373" x="797" font-size="10" fill="#6a6aa2">xz</text>
<text y="633" x="887" font-size="10" fill="#0000ff">xorg-xwud</text>
<text y="536" x="825" font-size="10" fill="#6a6aa2">gtk-update-icon-cache</text>
<text y="256" x="641" font-size="10" fill="#6a6aa2">gpm</text>
<text y="741" x="900" font-size="10" fill="#6a6aa2">libxpm</text>
<text y="889" x="107" font-size="46" fill="#0000ff">clang-analyzer</text>
<text y="748" x="939" font-size="11" fill="#6a6aa2">gdk-pixbuf2</text>
<text y="603" x="1076" font-size="10" fill="#0000ff">hdparm</text>
<text y="493" x="1760" font-size="10" fill="#6a6aa2">libevent</text>
<text y="633" x="957" font-size="21" fill="#0000ff">linux-headers</text>
<text y="766" x="627" font-size="14" fill="#0000ff">xorg-fonts-100dpi</text>
<text y="488" x="1030" font-size="10" fill="#0000ff">pm-utils</text>
<text y="599" x="912" font-size="10" fill="#6a6aa2">libglapi</text>
<text y="565" x="466" font-size="11" fill="#0000ff">ttf-ms-fonts</text>
<text y="236" x="1714" font-size="11" fill="#0000ff">zsh</text>
<text y="324" x="1383" font-size="10" fill="#6a6aa2">hicolor-icon-theme</text>
<text y="174" x="1148" font-size="10" fill="#0000ff">xfsprogs</text>
<text y="494" x="1382" font-size="10" fill="#6a6aa2">xorg-xset</text>
<text y="479" x="1403" font-size="10" fill="#6a6aa2">dbus-glib</text>
<text y="682" x="1413" font-size="10" fill="#6a6aa2">libxkbfile</text>
<text y="486" x="701" font-size="10" fill="#6a6aa2">djvulibre</text>
<text y="586" x="1253" font-size="10" fill="#0000ff">which</text>
<text y="400" x="1162" font-size="10" fill="#0000ff">alsi</text>
<text y="610" x="1253" font-size="10" fill="#6a6aa2">libcap</text>
<text y="450" x="1671" font-size="10" fill="#6a6aa2">xorg-mkfontscale</text>
<text y="815" x="940" font-size="10" fill="#6a6aa2">fixesproto</text>
<text y="516" x="574" font-size="10" fill="#6a6aa2">xorg-xwininfo</text>
<text y="505" x="1812" font-size="10" fill="#0000ff">alsa-plugins</text>
<text y="307" x="1236" font-size="10" fill="#6a6aa2">desktop-file-utils</text>
<text y="798" x="820" font-size="10" fill="#0000ff">xorg-xclock</text>
<text y="995" x="1344" font-size="10" fill="#6a6aa2">t1lib</text>
<text y="616" x="929" font-size="10" fill="#0000ff">nano</text>
<text y="673" x="1202" font-size="10" fill="#0000ff">fakeroot</text>
<text y="374" x="1963" font-size="10" fill="#6a6aa2">jre7-openjdk</text>
<text y="773" x="907" font-size="10" fill="#0000ff">compton-git</text>
<text y="656" x="656" font-size="10" fill="#0000ff">autossh</text>
<text y="318" x="1290" font-size="10" fill="#6a6aa2">lib32-libx11</text>
<text y="251" x="1580" font-size="10" fill="#6a6aa2">findutils</text>
<text y="494" x="1348" font-size="10" fill="#6a6aa2">popt</text>
<text y="616" x="712" font-size="14" fill="#6a6aa2">libgl</text>
<text y="565" x="645" font-size="10" fill="#6a6aa2">fontconfig</text>
<text y="465" x="1580" font-size="10" fill="#0000ff">zathura-ps</text>
<text y="477" x="1259" font-size="14" fill="#6a6aa2">db</text>
<text y="472" x="519" font-size="10" fill="#6a6aa2">hwids</text>
<text y="272" x="1168" font-size="11" fill="#6a6aa2">util-linux</text>
<text y="229" x="1375" font-size="10" fill="#6a6aa2">freetype2</text>
<text y="437" x="1197" font-size="11" fill="#0000ff">gtk</text>
<text y="565" x="1019" font-size="10" fill="#6a6aa2">libxext</text>
<text y="639" x="543" font-size="33" fill="#6a6aa2">qt</text>
<text y="407" x="725" font-size="24" fill="#0000ff">evince</text>
<text y="563" x="1209" font-size="10" fill="#0000ff">patch</text>
<text y="629" x="630" font-size="10" fill="#0000ff">xorg-xfontsel</text>
<text y="465" x="1282" font-size="10" fill="#0000ff">bison</text>
<text y="816" x="773" font-size="11" fill="#6a6aa2">libvorbis</text>
<text y="232" x="1033" font-size="10" fill="#6a6aa2">python2-gobject2</text>
<text y="550" x="1321" font-size="10" fill="#0000ff">msmtp</text>
<text y="259" x="1187" font-size="11" fill="#6a6aa2">gsfonts</text>
<text y="439" x="1072" font-size="10" fill="#0000ff">xf86-input-vmmouse</text>
<text y="575" x="1454" font-size="10" fill="#6a6aa2">libpciaccess</text>
<text y="440" x="702" font-size="10" fill="#6a6aa2">sed</text>
<text y="374" x="1706" font-size="10" fill="#0000ff">netcfg</text>
<text y="518" x="1100" font-size="10" fill="#0000ff">mdadm</text>
<text y="589" x="958" font-size="10" fill="#6a6aa2">libxaw</text>
<text y="702" x="750" font-size="10" fill="#0000ff">mozplugger-chromium</text>
<text y="519" x="1391" font-size="10" fill="#6a6aa2">libxau</text>
<text y="326" x="1619" font-size="10" fill="#6a6aa2">kmod</text>
<text y="462" x="811" font-size="10" fill="#6a6aa2">v4l-utils</text>
<text y="489" x="1180" font-size="10" fill="#0000ff">iptables</text>
<text y="651" x="1411" font-size="10" fill="#6a6aa2">device-mapper</text>
<text y="665" x="884" font-size="10" fill="#0000ff">xorg-xlsfonts</text>
<text y="578" x="699" font-size="10" fill="#6a6aa2">lua</text>
<text y="658" x="841" font-size="10" fill="#6a6aa2">libpng</text>
<text y="527" x="1228" font-size="10" fill="#0000ff">ncmpcpp</text>
<text y="571" x="1630" font-size="10" fill="#6a6aa2">xdg-utils</text>
<text y="546" x="521" font-size="14" fill="#0000ff">gcc-fortran</text>
<text y="302" x="1388" font-size="12" fill="#6a6aa2">imagemagick</text>
<text y="526" x="851" font-size="10" fill="#0000ff">screen</text>
<text y="143" x="1062" font-size="10" fill="#0000ff">python2-gconf</text>
<text y="459" x="1433" font-size="10" fill="#6a6aa2">libxdmcp</text>
<text y="145" x="1177" font-size="14" fill="#6a6aa2">pygtk</text>
<text y="449" x="1143" font-size="10" fill="#6a6aa2">libgcrypt</text>
<text y="668" x="1010" font-size="10" fill="#0000ff">unclutter</text>
<text y="484" x="1104" font-size="10" fill="#0000ff">lsof</text>
<text y="243" x="1427" font-size="10" fill="#6a6aa2">libxxf86vm</text>
<text y="512" x="1233" font-size="10" fill="#0000ff">cabextract</text>
<text y="502" x="1048" font-size="10" fill="#0000ff">xf86-input-mouse</text>
<text y="118" x="580" font-size="35" fill="#0000ff">python2-matplotlib</text>
<text y="189" x="1356" font-size="10" fill="#6a6aa2">lib32-libxfixes</text>
<text y="291" x="1539" font-size="36" fill="#0000ff">linux</text>
<text y="679" x="595" font-size="12" fill="#0000ff">mumble</text>
<text y="229" x="688" font-size="22" fill="#0000ff">gvim</text>
<text y="708" x="1016" font-size="10" fill="#0000ff">heirloom-mailx</text>
<text y="205" x="644" font-size="10" fill="#6a6aa2">python2-dbus</text>
<text y="527" x="1043" font-size="12" fill="#6a6aa2">ncurses</text>
<text y="452" x="841" font-size="10" fill="#6a6aa2">libxi</text>
<text y="519" x="518" font-size="10" fill="#0000ff">lshwd</text>
<text y="594" x="1304" font-size="10" fill="#6a6aa2">imlib2</text>
<text y="733" x="800" font-size="10" fill="#0000ff">xorg-xpr</text>
<text y="584" x="587" font-size="10" fill="#0000ff">xorg-xinit</text>
<text y="343" x="1535" font-size="10" fill="#6a6aa2">lib32-alsa-lib</text>
<text y="352" x="762" font-size="10" fill="#6a6aa2">libnl</text>
<text y="702" x="1179" font-size="10" fill="#6a6aa2">zlib</text>
<text y="614" x="900" font-size="10" fill="#0000ff">sxiv</text>
<text y="529" x="324" font-size="14" fill="#0000ff">xorg-fonts-75dpi</text>
<text y="257" x="1313" font-size="15" fill="#6a6aa2">lib32-libgl</text>
<text y="440" x="809" font-size="10" fill="#6a6aa2">avahi</text>
<text y="546" x="666" font-size="10" fill="#6a6aa2">pciutils</text>
<text y="500" x="1012" font-size="10" fill="#0000ff">vi</text>
<text y="403" x="1030" font-size="10" fill="#6a6aa2">expat</text>
<text y="358" x="1272" font-size="31" fill="#0000ff">skype</text>
<text y="572" x="728" font-size="10" fill="#6a6aa2">texinfo</text>
<text y="285" x="1244" font-size="29" fill="#0000ff">gimp</text>
<text y="699" x="478" font-size="35" fill="#0000ff">pdftk</text>
<text y="510" x="670" font-size="10" fill="#6a6aa2">libgnome-keyring</text>
<text y="552" x="1108" font-size="10" fill="#0000ff">make</text>
<text y="234" x="1500" font-size="10" fill="#6a6aa2">giblib</text>
<text y="374" x="1607" font-size="13" fill="#6a6aa2">coreutils</text>
<text y="406" x="842" font-size="10" fill="#6a6aa2">libxdamage</text>
<text y="596" x="564" font-size="10" fill="#0000ff">xorg-xfd</text>
<text y="621" x="1191" font-size="11" fill="#6a6aa2">pam</text>
<text y="659" x="1135" font-size="10" fill="#6a6aa2">iproute2</text>
<text y="479" x="1490" font-size="10" fill="#0000ff">icedtea-web-java7</text>
<text y="653" x="883" font-size="10" fill="#0000ff">xanim</text>
<text y="585" x="1689" font-size="10" fill="#6a6aa2">libxss</text>
<text y="567" x="1110" font-size="10" fill="#0000ff">xf86-input-void</text>
<text y="470" x="1214" font-size="10" fill="#0000ff">sshfs</text>
<text y="394" x="2099" font-size="10" fill="#6a6aa2">java-rhino</text>
<text y="178" x="1284" font-size="13" fill="#6a6aa2">lib32-glibc</text>
<text y="339" x="738" font-size="10" fill="#0000ff">laptop-mode-tools</text>
<text y="617" x="588" font-size="10" fill="#6a6aa2">ca-certificates</text>
<text y="855" x="1114" font-size="13" fill="#0000ff">texlive-publishers</text>
<text y="247" x="1491" font-size="10" fill="#6a6aa2">filesystem</text>
<text y="227" x="1577" font-size="10" fill="#6a6aa2">gzip</text>
<text y="592" x="1027" font-size="10" fill="#6a6aa2">speex</text>
<text y="1014" x="1340" font-size="17" fill="#0000ff">texlive-latexextra</text>
<text y="565" x="1075" font-size="10" fill="#0000ff">less</text>
<text y="345" x="1101" font-size="12" fill="#0000ff">gdb</text>
<text y="701" x="608" font-size="10" fill="#6a6aa2">libxtst</text>
<text y="186" x="1122" font-size="10" fill="#6a6aa2">librsvg</text>
<text y="634" x="1504" font-size="10" fill="#6a6aa2">libsamplerate</text>
<text y="501" x="946" font-size="10" fill="#0000ff">xcompmgr</text>
<text y="450" x="1232" font-size="11" fill="#6a6aa2">pango</text>
<text y="189" x="1173" font-size="10" fill="#6a6aa2">wireless_tools</text>
<text y="556" x="1378" font-size="10" fill="#0000ff">xorg-server-utils</text>
<text y="395" x="1811" font-size="10" fill="#6a6aa2">libpcap</text>
<text y="530" x="570" font-size="10" fill="#0000ff">termsyn</text>
<text y="574" x="1207" font-size="10" fill="#0000ff">xf86-input-aiptek</text>
<text y="373" x="861" font-size="19" fill="#0000ff">subversion</text>
<text y="545" x="1628" font-size="38" fill="#0000ff">chromium</text>
<text y="450" x="630" font-size="10" fill="#6a6aa2">gmp</text>
<text y="544" x="461" font-size="13" fill="#0000ff">dot2tex</text>
<text y="428" x="1123" font-size="10" fill="#0000ff">xterm</text>
<text y="730" x="855" font-size="10" fill="#6a6aa2">xproto</text>
<text y="801" x="903" font-size="10" fill="#6a6aa2">libdrm</text>
<text y="530" x="680" font-size="10" fill="#0000ff">ttf-inconsolata</text>
<text y="573" x="563" font-size="10" fill="#0000ff">tamsyn-font</text>
<text y="294" x="1041" font-size="28" fill="#6a6aa2">python2</text>
<text y="649" x="1225" font-size="14" fill="#0000ff">xorg-server</text>
<text y="676" x="972" font-size="10" fill="#0000ff">unrar</text>
<text y="581" x="1040" font-size="13" fill="#0000ff">man-pages</text>
<text y="954" x="876" font-size="100" fill="#6a6aa2">texlive-core</text>
<text y="542" x="1395" font-size="10" fill="#0000ff">pkg-config</text>
<text y="553" x="886" font-size="10" fill="#6a6aa2">shared-mime-info</text>
<text y="602" x="1224" font-size="10" fill="#0000ff">grub</text>
<text y="449" x="1286" font-size="10" fill="#6a6aa2">zathura</text>
<text y="592" x="1117" font-size="10" fill="#0000ff">xf86-input-joystick</text>
<text y="248" x="1132" font-size="10" fill="#6a6aa2">libfontenc</text>
<text y="417" x="1216" font-size="40" fill="#0000ff">inkscape</text>
<text y="424" x="1157" font-size="10" fill="#0000ff">rsync</text>
<text y="271" x="641" font-size="10" fill="#0000ff">intltool</text>
<text y="664" x="488" font-size="10" fill="#6a6aa2">lsb-release</text>
<text y="529" x="1155" font-size="22" fill="#6a6aa2">glibc</text>
<text y="694" x="1244" font-size="10" fill="#0000ff">btrfs-progs</text>
<text y="336" x="1211" font-size="10" fill="#0000ff">automake</text>
<text y="359" x="1207" font-size="10" fill="#6a6aa2">libice</text>
<text y="229" x="870" font-size="10" fill="#0000ff">pacgraph</text>
<text y="206" x="956" font-size="10" fill="#0000ff">lib32-libldap</text>
<text y="370" x="1410" font-size="10" fill="#0000ff">bc</text>
<text y="171" x="914" font-size="11" fill="#6a6aa2">lib32-openssl</text>
<text y="719" x="513" font-size="10" fill="#6a6aa2">libxv</text>
<text y="719" x="766" font-size="10" fill="#6a6aa2">xorg-xprop</text>
<text y="352" x="1448" font-size="10" fill="#6a6aa2">libsigc++</text>
<text y="314" x="1823" font-size="21" fill="#0000ff">apache-ant</text>
<text y="529" x="1272" font-size="10" fill="#0000ff">wget</text>
<text y="435" x="1479" font-size="10" fill="#0000ff">conky</text>
<text y="454" x="486" font-size="10" fill="#0000ff">terminus-font</text>
<text y="514" x="793" font-size="10" fill="#6a6aa2">libjpeg-turbo</text>
<text y="488" x="524" font-size="10" fill="#0000ff">pcmciautils</text>
<text y="388" x="981" font-size="10" fill="#6a6aa2">libexif</text>
<text y="456" x="1538" font-size="13" fill="#6a6aa2">glib2</text>
<text y="628" x="720" font-size="10" fill="#0000ff">xorg-xwd</text>
<text y="501" x="869" font-size="10" fill="#6a6aa2">libtiff</text>
<text y="653" x="468" font-size="10" fill="#6a6aa2">libmng</text>
<text y="662" x="1681" font-size="11" fill="#6a6aa2">nss</text>
<text y="279" x="1677" font-size="10" fill="#6a6aa2">pcre</text>
<text y="327" x="873" font-size="14" fill="#0000ff">git</text>
<text y="466" x="986" font-size="13" fill="#0000ff">archlinux-wallpaper</text>
<text y="395" x="886" font-size="10" fill="#6a6aa2">libxinerama</text>
<text y="605" x="1016" font-size="10" fill="#0000ff">slock</text>
<text y="398" x="1582" font-size="10" fill="#6a6aa2">lib32-zlib</text>
<text y="696" x="1072" font-size="10" fill="#6a6aa2">libshout</text>
<text y="644" x="647" font-size="10" fill="#6a6aa2">taglib</text>
<text y="706" x="692" font-size="10" fill="#6a6aa2">libtheora</text>
<text y="46" x="0" font-size="55" fill="#0000ff">3514MB</text>
<text y="309" x="945" font-size="12" fill="#0000ff">xorg-docs</text>
<text y="615" x="1220" font-size="10" fill="#6a6aa2">attr</text>
<text y="575" x="1000" font-size="10" fill="#0000ff">pacman</text>
<text y="383" x="704" font-size="10" fill="#0000ff">lvm2</text>
<text y="453" x="1022" font-size="10" fill="#0000ff">initscripts</text>
<text y="550" x="818" font-size="11" fill="#0000ff">lynx</text>
<text y="317" x="633" font-size="10" fill="#0000ff">autoconf</text>
<text y="469" x="761" font-size="10" fill="#6a6aa2">libusbx</text>
<text y="504" x="1333" font-size="10" fill="#0000ff">xf86-input-synaptics</text>
<text y="264" x="930" font-size="11" fill="#0000ff">rtorrent</text>
<text y="238" x="1138" font-size="10" fill="#6a6aa2">e2fsprogs</text>
<text y="577" x="844" font-size="10" fill="#6a6aa2">curl</text>
<text y="420" x="1642" font-size="10" fill="#0000ff">lib32-v4l-utils</text>
<text y="493" x="1497" font-size="10" fill="#0000ff">wmctrl</text>
<text y="609" x="1787" font-size="10" fill="#6a6aa2">bzip2</text>
<text y="332" x="947" font-size="10" fill="#6a6aa2">inetutils</text>
<text y="579" x="1142" font-size="10" fill="#0000ff">ncdu</text>
<text y="313" x="1574" font-size="13" fill="#0000ff">gettext</text>
<text y="480" x="906" font-size="10" fill="#6a6aa2">libsasl</text>
<text y="488" x="1315" font-size="10" fill="#0000ff">apvlv</text>
<text y="363" x="1422" font-size="10" fill="#6a6aa2">inputproto</text>
<text y="303" x="843" font-size="10" fill="#6a6aa2">libldap</text>
<text y="306" x="573" font-size="10" fill="#6a6aa2">perl-xml-parser</text>
<text y="505" x="1683" font-size="10" fill="#6a6aa2">xorg-mkfontdir</text>
<text y="424" x="564" font-size="10" fill="#0000ff">libtool</text>
<text y="206" x="799" font-size="10" fill="#6a6aa2">libffi</text>
<text y="396" x="1446" font-size="10" fill="#6a6aa2">readline</text>
<text y="284" x="1434" font-size="10" fill="#6a6aa2">lib32-expat</text>
<text y="437" x="1536" font-size="10" fill="#6a6aa2">diffutils</text>
<text y="477" x="846" font-size="10" fill="#0000ff">xorg-twm</text>
<text y="725" x="580" font-size="10" fill="#0000ff">xf86-video-intel-uxa</text>
<text y="208" x="1139" font-size="10" fill="#0000ff">offlineimap</text></g></svg>