<?xml version="1.0" encoding="UTF-8" standalone="no"?>
<!DOCTYPE svg PUBLIC "-//W3C//DTD SVG 1.0//EN" "http://www.w3.org/TR/SVG/DTD/svg10.dtd">
<svg width="1964" xmlns="http://www.w3.org/2000/svg" height="1563.0"><rect y="0" x="0" style="fill:#ffffff;" height="1563.0" width="1964"/><g style="stroke:#606060; stroke-opacity:0.15; fill:none;"><path d="M1447,961 Q1360,1025 1273,871"/>
<path d="M731,1122 Q1113,1440 1495,595"/>
<path d="M731,1122 Q1214,1404 1698,809"/>
<path d="M731,1122 Q770,1162 809,1129"/>
<path d="M777,1261 Q659,1352 541,1220"/>
<path d="M777,1261 Q709,1321 642,964"/>
<path d="M724,524 Q711,530 699,453"/>
<path d="M724,524 Q677,568 630,501"/>
<path d="M568,1280 Q617,1315 666,1245"/>
<path d="M1380,985 Q1121,1140 862,743"/>
<path d="M1380,985 Q1326,1015 1273,871"/>
<path d="M1380,985 Q1382,1173 1385,1171"/>
<path d="M1380,985 Q1011,1277 642,964"/>
<path d="M978,1214 Q890,1263 803,960"/>
<path d="M978,1214 Q975,1216 972,1059"/>
<path d="M978,1214 Q779,1359 581,998"/>
<path d="M978,1214 Q881,1306 784,1176"/>
<path d="M1037,806 Q1088,1072 1140,1037"/>
<path d="M1037,806 Q1155,953 1273,871"/>
<path d="M1037,806 Q1004,825 972,507"/>
<path d="M913,961 Q1226,1129 1540,643"/>
<path d="M913,961 Q904,1031 895,1023"/>
<path d="M913,961 Q1278,1316 1644,1120"/>
<path d="M913,961 Q1318,1212 1724,1003"/>
<path d="M913,961 Q1279,1154 1646,850"/>
<path d="M913,961 Q854,1126 795,1080"/>
<path d="M913,961 Q939,1071 966,1045"/>
<path d="M913,961 Q890,1327 867,1312"/>
<path d="M913,961 Q906,1256 900,1253"/>
<path d="M913,961 Q1204,1216 1495,683"/>
<path d="M480,444 Q520,469 560,438"/>
<path d="M704,986 Q783,1054 862,743"/>
<path d="M704,986 Q673,1012 642,964"/>
<path d="M1098,896 Q1309,1097 1520,828"/>
<path d="M1098,896 Q980,994 863,901"/>
<path d="M1576,955 Q1542,1069 1508,1042"/>
<path d="M1576,955 Q1584,979 1593,975"/>
<path d="M1576,955 Q1150,1528 725,1136"/>
<path d="M1576,955 Q1579,1019 1583,1018"/>
<path d="M1576,955 Q1493,1054 1411,998"/>
<path d="M1576,955 Q1121,1476 666,1245"/>
<path d="M1576,955 Q1530,985 1485,927"/>
<path d="M1576,955 Q1612,998 1649,967"/>
<path d="M1576,955 Q1219,1304 862,743"/>
<path d="M1576,955 Q1555,1026 1535,1014"/>
<path d="M1576,955 Q1262,1144 949,745"/>
<path d="M1576,955 Q1424,1088 1273,871"/>
<path d="M1576,955 Q1585,997 1594,993"/>
<path d="M1576,955 Q1637,1009 1698,809"/>
<path d="M1576,955 Q1525,1000 1474,729"/>
<path d="M1576,955 Q1611,979 1646,850"/>
<path d="M1576,955 Q1572,957 1569,687"/>
<path d="M1576,955 Q1591,962 1606,915"/>
<path d="M1576,955 Q1572,958 1568,860"/>
<path d="M1576,955 Q1435,1105 1295,997"/>
<path d="M1576,955 Q1550,974 1524,899"/>
<path d="M1576,955 Q1672,1048 1768,836"/>
<path d="M1576,955 Q1584,961 1593,891"/>
<path d="M1576,955 Q1659,1037 1742,887"/>
<path d="M1576,955 Q1258,1351 940,1098"/>
<path d="M1576,955 Q1615,981 1654,941"/>
<path d="M1576,955 Q1109,1217 642,964"/>
<path d="M1576,955 Q1629,992 1682,917"/>
<path d="M1576,955 Q1656,1070 1736,1016"/>
<path d="M1576,955 Q1580,957 1584,731"/>
<path d="M1576,955 Q1022,1419 469,1121"/>
<path d="M1576,955 Q1610,1150 1644,1120"/>
<path d="M1576,955 Q1211,1283 846,1060"/>
<path d="M1576,955 Q1546,1011 1516,992"/>
<path d="M1576,955 Q1573,956 1570,758"/>
<path d="M1004,952 Q949,1056 895,1023"/>
<path d="M1004,952 Q1042,1228 1081,1203"/>
<path d="M1004,952 Q985,1062 966,1045"/>
<path d="M1004,952 Q965,976 927,701"/>
<path d="M1004,952 Q901,1094 798,1025"/>
<path d="M1004,952 Q774,1296 544,1150"/>
<path d="M1004,952 Q1000,1103 996,1101"/>
<path d="M1004,952 Q1030,1005 1057,980"/>
<path d="M636,1131 Q858,1374 1081,1203"/>
<path d="M636,1131 Q544,1246 453,1181"/>
<path d="M636,1131 Q816,1295 996,1101"/>
<path d="M636,1131 Q683,1175 731,1122"/>
<path d="M636,1131 Q563,1203 490,1042"/>
<path d="M636,1131 Q590,1185 544,1150"/>
<path d="M636,1131 Q639,1132 642,964"/>
<path d="M636,1131 Q588,1253 541,1220"/>
<path d="M1195,1011 Q1394,1182 1593,975"/>
<path d="M1195,1011 Q1179,1021 1164,449"/>
<path d="M1195,1011 Q1234,1032 1273,871"/>
<path d="M1046,705 Q844,1072 642,964"/>
<path d="M1540,643 Q1619,861 1698,809"/>
<path d="M1540,643 Q1517,656 1495,595"/>
<path d="M621,1261 Q1226,1586 1831,1023"/>
<path d="M621,1261 Q1094,1659 1568,1164"/>
<path d="M621,1261 Q812,1420 1004,952"/>
<path d="M621,1261 Q628,1267 636,1131"/>
<path d="M379,1248 Q416,1274 453,1181"/>
<path d="M379,1248 Q959,1718 1540,643"/>
<path d="M1822,64 Q1504,1018 1186,775"/>
<path d="M1740,1068 Q1738,1069 1736,1016"/>
<path d="M1740,1068 Q1732,1075 1724,1003"/>
<path d="M1740,1068 Q1628,1174 1516,992"/>
<path d="M1740,1068 Q1356,1393 972,1059"/>
<path d="M1740,1068 Q1692,1144 1644,1120"/>
<path d="M1594,993 Q1491,1136 1388,1066"/>
<path d="M1594,993 Q1593,993 1593,975"/>
<path d="M1395,741 Q1415,809 1435,799"/>
<path d="M1395,741 Q1581,934 1768,836"/>
<path d="M1395,741 Q1451,814 1508,776"/>
<path d="M1395,741 Q1434,764 1474,729"/>
<path d="M1395,741 Q1385,1126 1376,1119"/>
<path d="M1395,741 Q1500,991 1606,915"/>
<path d="M1395,741 Q1051,1399 707,1071"/>
<path d="M1265,983 Q1269,986 1273,871"/>
<path d="M1265,983 Q1123,1387 981,1247"/>
<path d="M1265,983 Q953,1221 642,964"/>
<path d="M1265,983 Q1322,1042 1380,985"/>
<path d="M1057,542 Q1166,820 1275,755"/>
<path d="M1057,542 Q1014,573 972,507"/>
<path d="M1057,542 Q1296,1136 1535,1014"/>
<path d="M1057,542 Q1192,848 1328,763"/>
<path d="M1057,542 Q1126,1061 1195,1011"/>
<path d="M1057,542 Q1121,816 1186,775"/>
<path d="M1057,542 Q1019,1275 981,1247"/>
<path d="M1057,542 Q849,1068 642,964"/>
<path d="M198,906 Q420,1078 642,964"/>
<path d="M1678,822 Q1623,913 1568,860"/>
<path d="M1678,822 Q1572,1059 1466,982"/>
<path d="M1678,822 Q1613,1279 1548,1224"/>
<path d="M1678,822 Q1313,1144 949,745"/>
<path d="M1385,1171 Q1004,1533 624,925"/>
<path d="M1385,1171 Q1013,1447 642,964"/>
<path d="M455,1140 Q975,1548 1495,595"/>
<path d="M455,1140 Q816,1406 1177,717"/>
<path d="M455,1140 Q677,1405 900,1253"/>
<path d="M455,1140 Q545,1212 636,1131"/>
<path d="M1553,1144 Q1598,1181 1644,1120"/>
<path d="M1168,1163 Q1160,1167 1152,1082"/>
<path d="M1168,1163 Q1133,1197 1098,974"/>
<path d="M630,501 Q664,529 699,453"/>
<path d="M630,501 Q1145,1138 1661,717"/>
<path d="M630,501 Q595,526 560,438"/>
<path d="M667,1327 Q862,1480 1058,1088"/>
<path d="M667,1327 Q666,1327 666,1245"/>
<path d="M1771,935 Q1753,1026 1736,1016"/>
<path d="M1771,935 Q1801,1052 1831,1023"/>
<path d="M1593,975 Q1186,1614 779,1289"/>
<path d="M1593,975 Q1048,1519 503,1237"/>
<path d="M1593,975 Q1340,1158 1088,466"/>
<path d="M1593,975 Q1278,1540 964,1269"/>
<path d="M1593,975 Q895,1369 198,906"/>
<path d="M895,1023 Q922,1045 949,745"/>
<path d="M895,1023 Q990,1298 1086,1248"/>
<path d="M895,1023 Q917,1215 939,1200"/>
<path d="M460,1111 Q548,1177 636,1131"/>
<path d="M460,1111 Q680,1467 900,1253"/>
<path d="M460,1111 Q456,1182 453,1181"/>
<path d="M460,1111 Q545,1155 630,501"/>
<path d="M1242,1178 Q1095,1311 949,745"/>
<path d="M558,1234 Q726,1345 895,1023"/>
<path d="M558,1234 Q1071,1744 1584,731"/>
<path d="M558,1234 Q597,1263 636,1131"/>
<path d="M558,1234 Q973,1477 1388,1066"/>
<path d="M558,1234 Q740,1385 923,872"/>
<path d="M558,1234 Q972,1597 1386,958"/>
<path d="M558,1234 Q749,1367 940,609"/>
<path d="M558,1234 Q612,1277 666,1245"/>
<path d="M1411,998 Q1527,1198 1644,1120"/>
<path d="M1411,998 Q1109,1255 808,888"/>
<path d="M1411,998 Q1308,1080 1206,853"/>
<path d="M966,1045 Q915,1194 864,1160"/>
<path d="M1221,973 Q1274,1001 1328,763"/>
<path d="M1221,973 Q1247,992 1273,871"/>
<path d="M1221,973 Q1203,989 1186,775"/>
<path d="M1221,973 Q1033,1213 846,1060"/>
<path d="M1221,973 Q1303,1226 1385,1171"/>
<path d="M581,998 Q1112,1536 1644,1120"/>
<path d="M581,998 Q738,1175 895,1023"/>
<path d="M962,1109 Q913,1199 864,1160"/>
<path d="M784,1176 Q719,1225 655,85"/>
<path d="M784,1176 Q825,1340 867,1312"/>
<path d="M784,1176 Q781,1290 779,1289"/>
<path d="M784,1176 Q618,1303 453,1181"/>
<path d="M784,1176 Q842,1294 900,1253"/>
<path d="M784,1176 Q780,1263 777,1261"/>
<path d="M784,1176 Q713,1241 642,964"/>
<path d="M784,1176 Q750,1204 716,1060"/>
<path d="M784,1176 Q1028,1372 1273,871"/>
<path d="M784,1176 Q815,1204 846,1060"/>
<path d="M784,1176 Q765,1223 746,1213"/>
<path d="M784,1176 Q1088,1371 1393,1155"/>
<path d="M784,1176 Q884,1275 984,1165"/>
<path d="M784,1176 Q744,1205 704,1176"/>
<path d="M1288,808 Q1337,857 1387,782"/>
<path d="M1288,808 Q1280,877 1273,871"/>
<path d="M1288,808 Q956,1155 624,925"/>
<path d="M1288,808 Q1288,910 1288,910"/>
<path d="M1288,808 Q965,1250 642,964"/>
<path d="M1058,1088 Q1440,1454 1822,64"/>
<path d="M1058,1088 Q1067,1095 1076,758"/>
<path d="M1058,1088 Q1223,1207 1388,1066"/>
<path d="M1058,1088 Q889,1205 721,1017"/>
<path d="M1058,1088 Q774,1247 490,1042"/>
<path d="M1058,1088 Q1021,1184 984,1165"/>
<path d="M739,1087 Q871,1218 1004,952"/>
<path d="M739,1087 Q687,1163 636,1131"/>
<path d="M739,1087 Q1237,1418 1736,1016"/>
<path d="M1568,860 Q1281,1103 994,918"/>
<path d="M1568,860 Q1448,964 1328,763"/>
<path d="M1568,860 Q1420,982 1273,871"/>
<path d="M1568,860 Q1478,1117 1388,1066"/>
<path d="M1724,1003 Q1763,1033 1803,967"/>
<path d="M1724,1003 Q1261,1472 798,1025"/>
<path d="M1724,1003 Q1259,1467 795,1080"/>
<path d="M1724,1003 Q1730,1021 1736,1016"/>
<path d="M1710,1167 Q1609,1227 1508,776"/>
<path d="M1710,1167 Q1592,1275 1474,729"/>
<path d="M1710,1167 Q1677,1183 1644,1120"/>
<path d="M1710,1167 Q1165,1695 621,1261"/>
<path d="M1710,1167 Q1544,1326 1379,381"/>
<path d="M1710,1167 Q1613,1243 1516,992"/>
<path d="M1710,1167 Q1560,1277 1411,998"/>
<path d="M1710,1167 Q1723,1178 1736,1016"/>
<path d="M1710,1167 Q1224,1451 739,1087"/>
<path d="M1710,1167 Q1404,1383 1099,775"/>
<path d="M1710,1167 Q1189,1461 668,1166"/>
<path d="M1593,59 Q1293,1194 994,918"/>
<path d="M1161,950 Q1304,1048 1447,961"/>
<path d="M1161,950 Q1217,989 1273,871"/>
<path d="M1161,950 Q887,1217 614,1029"/>
<path d="M1161,950 Q1137,964 1114,845"/>
<path d="M1376,1119 Q1393,1134 1411,998"/>
<path d="M1376,1119 Q978,1483 581,998"/>
<path d="M814,1193 Q1191,1433 1569,687"/>
<path d="M814,1193 Q1203,1438 1593,975"/>
<path d="M814,1193 Q772,1224 731,1122"/>
<path d="M814,1193 Q857,1289 900,1253"/>
<path d="M814,1193 Q1308,1529 1803,967"/>
<path d="M1774,852 Q1736,882 1698,809"/>
<path d="M1388,1066 Q939,1435 490,1042"/>
<path d="M1388,1066 Q1524,1172 1661,717"/>
<path d="M1388,1066 Q1427,1091 1466,982"/>
<path d="M1388,1066 Q967,1602 547,1204"/>
<path d="M1388,1066 Q1095,1463 802,1291"/>
<path d="M1388,1066 Q1125,1200 862,743"/>
<path d="M1388,1066 Q1605,1187 1822,64"/>
<path d="M1388,1066 Q1330,1115 1273,871"/>
<path d="M1388,1066 Q1291,1144 1195,1011"/>
<path d="M1388,1066 Q1287,1118 1186,775"/>
<path d="M767,926 Q1153,1160 1540,643"/>
<path d="M767,926 Q782,1037 798,1025"/>
<path d="M1275,755 Q1004,1253 734,997"/>
<path d="M1275,755 Q1274,871 1273,871"/>
<path d="M1275,755 Q1384,1199 1493,1101"/>
<path d="M1275,755 Q958,1253 642,964"/>
<path d="M1402,885 Q1337,941 1273,871"/>
<path d="M1402,885 Q1022,1169 642,964"/>
<path d="M765,1136 Q783,1305 802,1291"/>
<path d="M765,1136 Q813,1173 862,743"/>
<path d="M1191,804 Q1232,903 1273,871"/>
<path d="M1191,804 Q1168,881 1145,864"/>
<path d="M1080,1015 Q1189,1293 1299,1223"/>
<path d="M1080,1015 Q861,1206 642,964"/>
<path d="M772,1105 Q1079,1403 1386,958"/>
<path d="M772,1105 Q809,1124 846,1060"/>
<path d="M547,1204 Q500,1249 453,1181"/>
<path d="M547,1204 Q866,1468 1186,775"/>
<path d="M817,638 Q1295,1148 1774,852"/>
<path d="M817,638 Q1215,978 1613,773"/>
<path d="M817,638 Q1272,927 1727,677"/>
<path d="M817,638 Q1211,1054 1605,786"/>
<path d="M817,638 Q872,749 927,701"/>
<path d="M817,638 Q1203,1102 1590,807"/>
<path d="M817,638 Q1254,1227 1691,866"/>
<path d="M1584,1040 Q1614,1139 1644,1120"/>
<path d="M1584,1040 Q1248,1213 913,961"/>
<path d="M1584,1040 Q1693,1118 1803,967"/>
<path d="M1088,466 Q871,668 655,85"/>
<path d="M739,1358 Q604,1448 469,1121"/>
<path d="M739,1358 Q702,1381 666,1245"/>
<path d="M739,1358 Q801,1407 863,901"/>
<path d="M739,1358 Q753,1365 767,926"/>
<path d="M994,918 Q1322,1238 1650,706"/>
<path d="M994,918 Q1193,1312 1393,1155"/>
<path d="M1060,792 Q1004,839 949,745"/>
<path d="M1043,1059 Q976,1115 910,1082"/>
<path d="M1624,1010 Q1608,1023 1593,975"/>
<path d="M1689,1042 Q1629,1079 1569,687"/>
<path d="M1689,1042 Q1666,1132 1644,1120"/>
<path d="M1689,1042 Q1068,1546 447,1085"/>
<path d="M560,1060 Q525,1080 490,1042"/>
<path d="M560,1060 Q873,1286 1186,775"/>
<path d="M560,1060 Q663,1339 767,1243"/>
<path d="M560,1060 Q852,1349 1145,864"/>
<path d="M560,1060 Q598,1163 636,1131"/>
<path d="M883,1217 Q923,1292 964,1269"/>
<path d="M1175,1131 Q1136,1164 1098,974"/>
<path d="M1175,1131 Q777,1625 379,1248"/>
<path d="M1177,717 Q1063,803 949,745"/>
<path d="M1177,717 Q870,1125 563,942"/>
<path d="M1177,717 Q1078,875 980,822"/>
<path d="M1644,1120 Q1606,1201 1568,1164"/>
<path d="M1644,1120 Q1226,1445 808,888"/>
<path d="M1644,1120 Q1219,1500 795,1080"/>
<path d="M1644,1120 Q1221,1387 798,1025"/>
<path d="M1644,1120 Q1604,1163 1564,1129"/>
<path d="M1644,1120 Q1223,1335 803,960"/>
<path d="M1644,1120 Q1647,1121 1650,706"/>
<path d="M1644,1120 Q1516,1194 1388,1066"/>
<path d="M1574,1080 Q1434,1173 1295,997"/>
<path d="M1574,1080 Q1093,1538 612,1068"/>
<path d="M836,1042 Q1039,1293 1242,1178"/>
<path d="M836,1042 Q1054,1160 1273,871"/>
<path d="M836,1042 Q818,1104 800,1094"/>
<path d="M836,1042 Q736,1201 636,1131"/>
<path d="M1079,398 Q988,1313 898,1232"/>
<path d="M1079,398 Q1121,491 1164,449"/>
<path d="M1079,398 Q873,1362 668,1166"/>
<path d="M1079,398 Q1025,1097 972,1059"/>
<path d="M1079,398 Q909,1254 739,1087"/>
<path d="M1568,1109 Q1606,1149 1644,1120"/>
<path d="M1568,1109 Q1646,1160 1724,1003"/>
<path d="M984,979 Q1129,1078 1275,755"/>
<path d="M984,979 Q1034,1013 1085,943"/>
<path d="M984,979 Q850,1242 716,1148"/>
<path d="M984,979 Q980,1022 976,1019"/>
<path d="M984,979 Q880,1342 777,1261"/>
<path d="M984,979 Q1182,1138 1380,985"/>
<path d="M1742,887 Q1604,1087 1466,982"/>
<path d="M1742,887 Q1507,1100 1273,871"/>
<path d="M1336,948 Q1304,966 1273,871"/>
<path d="M1336,948 Q1072,1117 808,888"/>
<path d="M1336,948 Q1373,1025 1411,998"/>
<path d="M1679,746 Q1143,1562 608,1094"/>
<path d="M1679,746 Q1631,775 1584,731"/>
<path d="M1489,916 Q1539,954 1590,807"/>
<path d="M1489,916 Q1631,1036 1774,852"/>
<path d="M1489,916 Q1551,972 1613,773"/>
<path d="M1489,916 Q1293,1020 1098,896"/>
<path d="M1489,916 Q1532,980 1576,955"/>
<path d="M1489,916 Q1611,1033 1734,772"/>
<path d="M1489,916 Q1547,956 1605,786"/>
<path d="M1489,916 Q1180,1253 871,994"/>
<path d="M547,1101 Q911,1379 1275,755"/>
<path d="M547,1101 Q1043,1576 1540,643"/>
<path d="M547,1101 Q775,1270 1004,952"/>
<path d="M547,1101 Q591,1166 636,1131"/>
<path d="M547,1101 Q871,1378 1195,1011"/>
<path d="M547,1101 Q544,1221 541,1220"/>
<path d="M1198,888 Q1139,1243 1081,1203"/>
<path d="M1198,888 Q1235,917 1273,871"/>
<path d="M1387,782 Q1014,1199 642,964"/>
<path d="M1149,1113 Q1155,1116 1161,950"/>
<path d="M1388,856 Q1330,912 1273,871"/>
<path d="M493,1025 Q677,1190 862,743"/>
<path d="M493,1025 Q468,1080 443,1059"/>
<path d="M493,1025 Q453,1049 414,1024"/>
<path d="M493,1025 Q635,1358 777,1261"/>
<path d="M493,1025 Q630,1363 767,1243"/>
<path d="M493,1025 Q669,1189 846,1060"/>
<path d="M1085,943 Q1179,1020 1273,871"/>
<path d="M1031,337 Q1002,361 974,217"/>
<path d="M707,1071 Q985,1266 1263,1040"/>
<path d="M707,1071 Q946,1282 1186,775"/>
<path d="M707,1071 Q637,1109 567,981"/>
<path d="M707,1071 Q990,1353 1273,871"/>
<path d="M707,1071 Q660,1117 614,1029"/>
<path d="M707,1071 Q753,1119 800,1094"/>
<path d="M707,1071 Q1015,1478 1323,1178"/>
<path d="M707,1071 Q888,1247 1070,916"/>
<path d="M707,1071 Q1047,1281 1388,1066"/>
<path d="M707,1071 Q939,1220 1172,820"/>
<path d="M707,1071 Q994,1249 1281,1103"/>
<path d="M707,1071 Q671,1150 636,1131"/>
<path d="M707,1071 Q674,1087 642,964"/>
<path d="M707,1071 Q945,1218 1184,898"/>
<path d="M1650,706 Q1095,1554 541,1220"/>
<path d="M965,836 Q886,932 808,888"/>
<path d="M965,836 Q1007,925 1049,884"/>
<path d="M1495,683 Q1531,879 1568,860"/>
<path d="M1495,683 Q1254,1040 1014,847"/>
<path d="M795,1080 Q1194,1362 1593,975"/>
<path d="M795,1080 Q1167,1291 1540,643"/>
<path d="M795,1080 Q796,1081 798,1025"/>
<path d="M698,936 Q1096,1233 1495,683"/>
<path d="M698,936 Q1211,1514 1724,1003"/>
<path d="M698,936 Q805,1030 913,961"/>
<path d="M1081,1203 Q1069,1213 1057,980"/>
<path d="M1081,1203 Q861,1411 642,964"/>
<path d="M1829,813 Q1711,1071 1593,975"/>
<path d="M1829,813 Q1455,1539 1081,1203"/>
<path d="M1829,813 Q1149,1622 469,1121"/>
<path d="M1829,813 Q1739,1052 1649,967"/>
<path d="M1829,813 Q1298,1399 767,926"/>
<path d="M1829,813 Q1763,864 1698,809"/>
<path d="M783,1225 Q963,1389 1144,1008"/>
<path d="M783,1225 Q682,1280 581,1163"/>
<path d="M783,1225 Q1028,1432 1273,871"/>
<path d="M783,1225 Q814,1255 846,1060"/>
<path d="M783,1225 Q694,1280 605,1193"/>
<path d="M783,1225 Q888,1280 994,918"/>
<path d="M783,1225 Q914,1291 1046,705"/>
<path d="M783,1225 Q1188,1506 1593,59"/>
<path d="M783,1225 Q1084,1492 1386,958"/>
<path d="M783,1225 Q697,1289 612,1068"/>
<path d="M783,1225 Q861,1265 939,1200"/>
<path d="M783,1225 Q724,1284 666,1245"/>
<path d="M1196,936 Q1234,974 1273,871"/>
<path d="M1196,936 Q1428,1074 1661,717"/>
<path d="M1196,936 Q1138,1046 1080,1015"/>
<path d="M534,1083 Q571,1115 608,1094"/>
<path d="M962,997 Q928,1049 895,1023"/>
<path d="M962,997 Q964,1046 966,1045"/>
<path d="M768,1056 Q1048,1262 1328,763"/>
<path d="M1516,992 Q1244,1314 972,1059"/>
<path d="M1516,992 Q1542,1182 1568,1164"/>
<path d="M1516,992 Q1298,1317 1081,1203"/>
<path d="M1516,992 Q1580,1181 1644,1120"/>
<path d="M1516,992 Q981,1381 447,1085"/>
<path d="M1516,992 Q1127,1305 739,1087"/>
<path d="M490,1042 Q714,1385 939,1200"/>
<path d="M972,1059 Q1024,1108 1076,758"/>
<path d="M972,1059 Q1335,1266 1698,809"/>
<path d="M1654,941 Q1463,1042 1273,871"/>
<path d="M1654,941 Q1738,989 1822,64"/>
<path d="M642,964 Q682,997 722,953"/>
<path d="M642,964 Q633,969 624,925"/>
<path d="M642,964 Q694,1262 746,1213"/>
<path d="M1152,1082 Q1104,1126 1057,980"/>
<path d="M1152,1082 Q802,1503 453,1181"/>
<path d="M1152,1082 Q1169,1098 1186,775"/>
<path d="M1152,1082 Q1068,1244 984,1165"/>
<path d="M1152,1082 Q1490,1351 1829,813"/>
<path d="M717,975 Q679,1010 642,964"/>
<path d="M1630,153 Q1657,169 1684,120"/>
<path d="M1630,153 Q1562,654 1495,595"/>
<path d="M1630,153 Q1148,1602 666,1245"/>
<path d="M579,1010 Q927,1247 1275,755"/>
<path d="M579,1010 Q937,1353 1295,997"/>
<path d="M579,1010 Q587,1055 595,1048"/>
<path d="M846,1060 Q790,1090 734,997"/>
<path d="M846,1060 Q805,1170 765,1136"/>
<path d="M846,1060 Q1146,1330 1447,961"/>
<path d="M846,1060 Q850,1062 854,722"/>
<path d="M846,1060 Q842,1063 839,804"/>
<path d="M846,1060 Q741,1203 636,1131"/>
<path d="M846,1060 Q1253,1362 1661,717"/>
<path d="M846,1060 Q915,1126 984,979"/>
<path d="M846,1060 Q855,1167 864,1160"/>
<path d="M846,1060 Q781,1210 716,1148"/>
<path d="M846,1060 Q781,1121 716,1060"/>
<path d="M846,1060 Q712,1141 579,1010"/>
<path d="M846,1060 Q807,1083 768,1056"/>
<path d="M846,1060 Q860,1109 874,1102"/>
<path d="M846,1060 Q1128,1259 1411,1039"/>
<path d="M846,1060 Q856,1319 867,1312"/>
<path d="M1411,1039 Q1136,1278 862,743"/>
<path d="M1411,1039 Q1089,1472 767,1243"/>
<path d="M1411,1039 Q932,1560 453,1181"/>
<path d="M1411,1039 Q1367,1208 1323,1178"/>
<path d="M907,945 Q1317,1329 1727,677"/>
<path d="M907,945 Q1340,1301 1774,852"/>
<path d="M907,945 Q1299,1226 1691,866"/>
<path d="M622,905 Q801,1014 980,822"/>
<path d="M567,981 Q818,1149 1070,916"/>
<path d="M567,981 Q604,1015 642,964"/>
<path d="M682,1081 Q703,1148 725,1136"/>
<path d="M682,1081 Q723,1161 765,1136"/>
<path d="M682,1081 Q662,1095 642,964"/>
<path d="M682,1081 Q1046,1287 1411,1039"/>
<path d="M1671,1156 Q1657,1168 1644,1120"/>
<path d="M544,1150 Q673,1265 803,960"/>
<path d="M544,1150 Q498,1222 453,1181"/>
<path d="M802,1291 Q722,1351 642,964"/>
<path d="M1646,850 Q1691,1048 1736,1016"/>
<path d="M1646,850 Q1306,1328 966,1045"/>
<path d="M1646,850 Q1724,1039 1803,967"/>
<path d="M1646,850 Q1222,1295 798,1025"/>
<path d="M1606,915 Q1304,1193 1003,929"/>
<path d="M1606,915 Q1718,1109 1831,1023"/>
<path d="M1606,915 Q1587,1179 1568,1164"/>
<path d="M1606,915 Q1625,1134 1644,1120"/>
<path d="M1606,915 Q1026,1498 447,1085"/>
<path d="M1606,915 Q1113,1599 621,1261"/>
<path d="M1606,915 Q1140,1500 675,1093"/>
<path d="M803,960 Q849,1060 895,1023"/>
<path d="M854,722 Q874,1041 895,1023"/>
<path d="M854,722 Q890,750 927,701"/>
<path d="M1691,866 Q1590,992 1489,916"/>
<path d="M1691,866 Q1694,868 1698,809"/>
<path d="M1238,1028 Q1266,1048 1295,997"/>
<path d="M1238,1028 Q940,1239 642,964"/>
<path d="M1360,1197 Q1316,1229 1273,871"/>
<path d="M1360,1197 Q1001,1465 642,964"/>
<path d="M1330,924 Q1402,993 1474,729"/>
<path d="M1330,924 Q1301,950 1273,871"/>
<path d="M1330,924 Q1189,1002 1049,884"/>
<path d="M1590,807 Q1644,860 1698,809"/>
<path d="M918,897 Q968,933 1018,865"/>
<path d="M918,897 Q1123,1040 1328,763"/>
<path d="M918,897 Q847,1318 777,1261"/>
<path d="M1283,831 Q1278,873 1273,871"/>
<path d="M1003,929 Q905,1008 808,888"/>
<path d="M1003,929 Q1026,948 1049,884"/>
<path d="M1395,1129 Q1396,1129 1398,1089"/>
<path d="M1264,1010 Q1138,1073 1012,607"/>
<path d="M1264,1010 Q1494,1201 1724,1003"/>
<path d="M1264,1010 Q1263,1051 1263,1051"/>
<path d="M939,1200 Q966,1214 994,918"/>
<path d="M939,1200 Q933,1204 927,701"/>
<path d="M910,1082 Q1277,1453 1644,1120"/>
<path d="M503,1237 Q780,1451 1057,980"/>
<path d="M503,1237 Q572,1291 642,964"/>
<path d="M1263,953 Q1268,956 1273,871"/>
<path d="M1263,953 Q952,1183 642,964"/>
<path d="M1328,763 Q1288,958 1248,933"/>
<path d="M1328,763 Q1300,894 1273,871"/>
<path d="M1328,763 Q1360,1182 1393,1155"/>
<path d="M1328,763 Q934,1542 541,1220"/>
<path d="M1328,763 Q1354,1004 1380,985"/>
<path d="M1017,731 Q972,757 927,701"/>
<path d="M1017,731 Q1253,1121 1489,916"/>
<path d="M1017,731 Q1268,1052 1520,828"/>
<path d="M1017,731 Q940,967 863,901"/>
<path d="M1017,731 Q1005,774 994,768"/>
<path d="M1493,1178 Q1530,1208 1568,1164"/>
<path d="M1493,1178 Q1601,1270 1710,1167"/>
<path d="M1493,1178 Q1452,1207 1411,998"/>
<path d="M1299,1223 Q1286,1231 1273,871"/>
<path d="M1299,1223 Q970,1421 642,964"/>
<path d="M1086,1248 Q1006,1321 927,701"/>
<path d="M1558,1067 Q1234,1264 910,1082"/>
<path d="M1558,1067 Q1601,1142 1644,1120"/>
<path d="M1558,1067 Q1537,1080 1516,992"/>
<path d="M1558,1067 Q1265,1291 972,1059"/>
<path d="M1558,1067 Q1641,1147 1724,1003"/>
<path d="M1558,1067 Q1680,1148 1803,967"/>
<path d="M1131,272 Q792,1479 453,1181"/>
<path d="M1131,272 Q1467,1239 1803,967"/>
<path d="M1357,1048 Q999,1265 642,964"/>
<path d="M1193,832 Q917,1143 642,964"/>
<path d="M560,438 Q732,1274 904,1125"/>
<path d="M560,438 Q725,1127 891,975"/>
<path d="M560,438 Q565,442 571,425"/>
<path d="M560,438 Q607,498 655,458"/>
<path d="M1568,1164 Q1105,1416 642,964"/>
<path d="M808,888 Q894,964 980,822"/>
<path d="M1414,1103 Q1537,1221 1661,717"/>
<path d="M1414,1103 Q1028,1301 642,964"/>
<path d="M894,1191 Q913,1293 932,1281"/>
<path d="M894,1191 Q987,1270 1080,1015"/>
<path d="M894,1191 Q1083,1375 1273,871"/>
<path d="M894,1191 Q1141,1432 1388,1066"/>
<path d="M894,1191 Q939,1226 984,1165"/>
<path d="M894,1191 Q1009,1274 1124,809"/>
<path d="M1474,729 Q1533,1026 1593,975"/>
<path d="M1474,729 Q1120,1502 767,1243"/>
<path d="M1474,729 Q1261,1012 1049,884"/>
<path d="M1474,729 Q1621,970 1768,836"/>
<path d="M1474,729 Q1134,1256 795,1080"/>
<path d="M1698,809 Q1389,1409 1081,1203"/>
<path d="M1698,809 Q1232,1627 767,1243"/>
<path d="M1698,809 Q1312,1089 927,701"/>
<path d="M779,1289 Q710,1347 642,964"/>
<path d="M1172,820 Q1178,902 1184,898"/>
<path d="M1172,820 Q1222,897 1273,871"/>
<path d="M1398,1089 Q1339,1132 1281,1103"/>
<path d="M1398,1089 Q1445,1140 1493,1101"/>
<path d="M1398,1089 Q1450,1119 1503,884"/>
<path d="M1398,1089 Q1291,1190 1184,898"/>
<path d="M1398,1089 Q1295,1183 1193,832"/>
<path d="M1398,1089 Q1444,1151 1490,1112"/>
<path d="M1398,1089 Q1160,1308 923,872"/>
<path d="M1398,1089 Q1438,1113 1478,1084"/>
<path d="M1398,1089 Q1446,1114 1495,683"/>
<path d="M1398,1089 Q1271,1153 1145,864"/>
<path d="M1398,1089 Q1052,1350 707,1071"/>
<path d="M863,901 Q862,901 862,743"/>
<path d="M863,901 Q1280,1167 1698,809"/>
<path d="M863,901 Q752,1065 642,964"/>
<path d="M1584,731 Q1634,771 1684,120"/>
<path d="M1584,731 Q1154,1492 725,1136"/>
<path d="M1584,731 Q1244,1435 904,1125"/>
<path d="M1584,731 Q1622,764 1661,717"/>
<path d="M1584,731 Q1335,1471 1086,1248"/>
<path d="M1584,731 Q1550,789 1516,757"/>
<path d="M1584,731 Q1584,835 1585,835"/>
<path d="M1584,731 Q1070,1597 556,1135"/>
<path d="M1584,731 Q1617,760 1650,706"/>
<path d="M1584,731 Q1641,842 1698,809"/>
<path d="M1584,731 Q1529,769 1474,729"/>
<path d="M1584,731 Q1546,799 1508,776"/>
<path d="M1584,731 Q1266,926 949,745"/>
<path d="M1584,731 Q1576,734 1569,687"/>
<path d="M1584,731 Q1385,930 1186,775"/>
<path d="M1584,731 Q1539,759 1495,683"/>
<path d="M1584,731 Q1161,1380 739,1087"/>
<path d="M1248,910 Q1260,916 1273,871"/>
<path d="M1677,1081 Q1700,1100 1724,1003"/>
<path d="M1677,1081 Q1295,1332 913,961"/>
<path d="M1677,1081 Q1740,1136 1803,967"/>
<path d="M1677,1081 Q1660,1128 1644,1120"/>
<path d="M1288,910 Q965,1274 642,964"/>
<path d="M1570,758 Q1547,910 1524,899"/>
<path d="M1570,758 Q1624,853 1678,822"/>
<path d="M1570,758 Q1656,930 1742,887"/>
<path d="M605,1193 Q895,1458 1186,775"/>
<path d="M605,1193 Q699,1263 794,911"/>
<path d="M605,1193 Q635,1265 666,1245"/>
<path d="M871,994 Q662,1287 453,1181"/>
<path d="M871,994 Q834,1060 798,1025"/>
<path d="M871,994 Q1284,1398 1698,809"/>
<path d="M1451,842 Q1362,930 1273,871"/>
<path d="M1451,842 Q1046,1236 642,964"/>
<path d="M1435,799 Q1354,915 1273,871"/>
<path d="M1435,799 Q1601,980 1768,836"/>
<path d="M1435,799 Q1242,1024 1049,884"/>
<path d="M1220,1132 Q1440,1311 1661,717"/>
<path d="M1220,1132 Q1206,1142 1193,832"/>
<path d="M1220,1132 Q1297,1185 1374,998"/>
<path d="M1220,1132 Q1250,1150 1281,1103"/>
<path d="M1220,1132 Q931,1335 642,964"/>
<path d="M1220,1132 Q1271,1208 1323,1178"/>
<path d="M1434,1118 Q1287,1192 1140,1037"/>
<path d="M1434,1118 Q1413,1173 1393,1155"/>
<path d="M1434,1118 Q1240,1223 1046,705"/>
<path d="M1178,871 Q1225,897 1273,871"/>
<path d="M1803,967 Q1649,1113 1495,595"/>
<path d="M1715,1134 Q1679,1166 1644,1120"/>
<path d="M1206,853 Q1239,901 1273,871"/>
<path d="M1206,853 Q1007,1046 808,888"/>
<path d="M1263,1040 Q1268,1043 1273,871"/>
<path d="M608,1094 Q645,1128 683,851"/>
<path d="M608,1094 Q1100,1402 1593,975"/>
<path d="M608,1094 Q538,1159 469,1121"/>
<path d="M608,1094 Q940,1348 1273,871"/>
<path d="M608,1094 Q622,1139 636,1131"/>
<path d="M608,1094 Q998,1341 1388,1066"/>
<path d="M608,1094 Q884,1356 1161,950"/>
<path d="M1070,916 Q1001,1335 932,1281"/>
<path d="M1614,1182 Q1629,1189 1644,1120"/>
<path d="M1535,1014 Q1201,1549 867,1312"/>
<path d="M1569,687 Q1554,699 1540,643"/>
<path d="M1569,687 Q1186,1325 803,960"/>
<path d="M1569,687 Q1325,1417 1081,1203"/>
<path d="M1569,687 Q1478,1150 1388,1066"/>
<path d="M1569,687 Q1150,1458 731,1122"/>
<path d="M1569,687 Q1461,1074 1353,968"/>
<path d="M1569,687 Q1058,1563 547,1101"/>
<path d="M1569,687 Q1105,1279 642,964"/>
<path d="M1569,687 Q1183,1271 798,1025"/>
<path d="M1258,1126 Q1061,1267 864,1160"/>
<path d="M1012,607 Q1298,925 1584,731"/>
<path d="M1012,607 Q786,775 560,438"/>
<path d="M1012,607 Q967,913 923,872"/>
<path d="M1012,607 Q969,733 927,701"/>
<path d="M1012,607 Q827,1093 642,964"/>
<path d="M1162,505 Q1125,528 1088,466"/>
<path d="M1308,1020 Q1291,1029 1275,755"/>
<path d="M1308,1020 Q1251,1063 1195,1011"/>
<path d="M1308,1020 Q1196,1120 1085,943"/>
<path d="M1308,1020 Q1144,1402 981,1247"/>
<path d="M1308,1020 Q877,1388 446,1098"/>
<path d="M900,1253 Q1299,1524 1698,809"/>
<path d="M1210,962 Q1252,1037 1295,997"/>
<path d="M1210,962 Q1177,982 1145,864"/>
<path d="M794,911 Q796,1026 798,1025"/>
<path d="M794,911 Q937,1295 1081,1203"/>
<path d="M794,911 Q926,1183 1058,1088"/>
<path d="M794,911 Q899,1026 1004,952"/>
<path d="M981,1247 Q956,1302 932,1281"/>
<path d="M981,1247 Q1184,1434 1388,1066"/>
<path d="M981,1247 Q954,1272 927,701"/>
<path d="M981,1247 Q982,1247 984,1165"/>
<path d="M981,1247 Q1180,1407 1380,985"/>
<path d="M1665,1000 Q1700,1045 1736,1016"/>
<path d="M1099,775 Q1286,885 1474,729"/>
<path d="M1099,775 Q947,1185 795,1080"/>
<path d="M1099,775 Q1417,1193 1736,1016"/>
<path d="M1099,775 Q1074,904 1049,884"/>
<path d="M1322,906 Q1297,929 1273,871"/>
<path d="M1322,906 Q982,1157 642,964"/>
<path d="M1613,773 Q1655,834 1698,809"/>
<path d="M1684,120 Q1638,1005 1593,975"/>
<path d="M1684,120 Q1753,176 1822,64"/>
<path d="M1684,120 Q1638,164 1593,59"/>
<path d="M1684,120 Q1088,1507 493,1025"/>
<path d="M1684,120 Q1175,1503 666,1245"/>
<path d="M904,1125 Q899,1128 895,1023"/>
<path d="M904,1125 Q915,1131 927,701"/>
<path d="M904,1125 Q678,1317 453,1181"/>
<path d="M904,1125 Q935,1141 966,1045"/>
<path d="M904,1125 Q703,1409 503,1237"/>
<path d="M904,1125 Q851,1170 798,1025"/>
<path d="M1281,1103 Q961,1360 642,964"/>
<path d="M1281,1103 Q1272,1109 1263,1040"/>
<path d="M1281,1103 Q1320,1223 1360,1197"/>
<path d="M1281,1103 Q1277,1106 1273,871"/>
<path d="M1281,1103 Q1333,1202 1385,1171"/>
<path d="M1281,1103 Q1346,1151 1411,1039"/>
<path d="M1281,1103 Q1337,1183 1393,1155"/>
<path d="M1281,1103 Q1347,1165 1414,1103"/>
<path d="M1281,1103 Q1349,1143 1418,386"/>
<path d="M1281,1103 Q1251,1211 1221,1192"/>
<path d="M1281,1103 Q1290,1229 1299,1223"/>
<path d="M1585,835 Q1576,865 1568,860"/>
<path d="M1585,835 Q1631,872 1678,822"/>
<path d="M1585,835 Q1070,1517 556,1135"/>
<path d="M1585,835 Q1589,978 1593,975"/>
<path d="M1585,835 Q1063,1609 541,1220"/>
<path d="M1585,835 Q1614,849 1643,761"/>
<path d="M867,1312 Q834,1340 802,1291"/>
<path d="M867,1312 Q935,1365 1004,952"/>
<path d="M867,1312 Q1126,1491 1385,1171"/>
<path d="M867,1312 Q976,1403 1086,1248"/>
<path d="M1295,997 Q1219,1046 1144,1008"/>
<path d="M1295,997 Q1268,1200 1242,1178"/>
<path d="M1295,997 Q1334,1036 1374,998"/>
<path d="M1295,997 Q1340,1030 1385,971"/>
<path d="M1295,997 Q1293,997 1292,956"/>
<path d="M1295,997 Q1139,1094 984,979"/>
<path d="M1295,997 Q1337,1028 1380,985"/>
<path d="M1295,997 Q1048,1431 802,1291"/>
<path d="M1295,997 Q1129,1374 964,1269"/>
<path d="M1295,997 Q1326,1073 1357,1048"/>
<path d="M1295,997 Q1284,1004 1273,871"/>
<path d="M1295,997 Q1260,1090 1225,1066"/>
<path d="M1295,997 Q1239,1024 1184,898"/>
<path d="M1295,997 Q1341,1089 1388,1066"/>
<path d="M1295,997 Q1084,1290 874,1102"/>
<path d="M1295,997 Q1176,1197 1058,1088"/>
<path d="M1295,997 Q1276,1137 1258,1126"/>
<path d="M556,1135 Q667,1228 778,937"/>
<path d="M556,1135 Q939,1367 1322,906"/>
<path d="M556,1135 Q780,1249 1004,952"/>
<path d="M556,1135 Q596,1164 636,1131"/>
<path d="M556,1135 Q675,1233 795,1080"/>
<path d="M556,1135 Q1146,1623 1736,1016"/>
<path d="M1353,968 Q1214,1059 1076,758"/>
<path d="M1353,968 Q1107,1162 862,743"/>
<path d="M1353,968 Q1108,1208 863,901"/>
<path d="M1353,968 Q1156,1150 959,904"/>
<path d="M1353,968 Q1458,1209 1564,1129"/>
<path d="M1353,968 Q1370,1075 1388,1066"/>
<path d="M1620,1057 Q1632,1129 1644,1120"/>
<path d="M1620,1057 Q1672,1100 1724,1003"/>
<path d="M1620,1057 Q1131,1515 642,964"/>
<path d="M1656,1201 Q1400,1444 1144,1008"/>
<path d="M1656,1201 Q1650,1205 1644,1120"/>
<path d="M1656,1201 Q1690,1228 1724,1003"/>
<path d="M563,942 Q756,1105 949,745"/>
<path d="M612,1068 Q942,1292 1273,871"/>
<path d="M612,1068 Q624,1139 636,1131"/>
<path d="M1864,985 Q1501,1412 1139,1062"/>
<path d="M1864,985 Q1314,1473 765,1136"/>
<path d="M1864,985 Q1178,1660 493,1025"/>
<path d="M1864,985 Q1461,1408 1058,1088"/>
<path d="M1864,985 Q1720,1058 1576,955"/>
<path d="M1864,985 Q1294,1670 725,1136"/>
<path d="M1864,985 Q1380,1308 896,934"/>
<path d="M1864,985 Q1728,1069 1593,891"/>
<path d="M1864,985 Q1608,1193 1353,968"/>
<path d="M1864,985 Q1641,1132 1418,386"/>
<path d="M1864,985 Q1529,1337 1195,1011"/>
<path d="M1864,985 Q1690,1093 1516,757"/>
<path d="M1864,985 Q1364,1578 864,1160"/>
<path d="M1864,985 Q1402,1425 940,609"/>
<path d="M1864,985 Q1692,1103 1520,828"/>
<path d="M1864,985 Q1756,1084 1649,967"/>
<path d="M1864,985 Q1424,1500 984,1165"/>
<path d="M1864,985 Q1265,1725 666,1245"/>
<path d="M1864,985 Q1563,1237 1263,1040"/>
<path d="M1864,985 Q1476,1350 1088,466"/>
<path d="M1864,985 Q1390,1328 916,1070"/>
<path d="M1864,985 Q1363,1398 863,901"/>
<path d="M1864,985 Q1702,1117 1540,643"/>
<path d="M1864,985 Q1724,1124 1585,835"/>
<path d="M1864,985 Q1568,1247 1273,871"/>
<path d="M1864,985 Q1637,1260 1411,1039"/>
<path d="M1864,985 Q1504,1283 1145,864"/>
<path d="M1864,985 Q1716,1113 1569,687"/>
<path d="M1864,985 Q1419,1283 974,217"/>
<path d="M1864,985 Q1031,1541 198,906"/>
<path d="M1864,985 Q1379,1404 895,922"/>
<path d="M1690,1026 Q1192,1491 694,1029"/>
<path d="M1690,1026 Q1627,1160 1564,1129"/>
<path d="M1690,1026 Q1521,1139 1353,968"/>
<path d="M1690,1026 Q1388,1436 1086,1248"/>
<path d="M1690,1026 Q1667,1139 1644,1120"/>
<path d="M1727,677 Q1608,989 1489,916"/>
<path d="M1727,677 Q1712,819 1698,809"/>
<path d="M1049,884 Q1001,911 953,790"/>
<path d="M1049,884 Q1014,913 980,822"/>
<path d="M1049,884 Q1031,915 1014,899"/>
<path d="M1049,884 Q1083,953 1117,932"/>
<path d="M1736,1016 Q1544,1123 1353,968"/>
<path d="M1736,1016 Q1318,1501 900,1253"/>
<path d="M1736,1016 Q1690,1151 1644,1120"/>
<path d="M1736,1016 Q1347,1234 959,904"/>
<path d="M1736,1016 Q1350,1324 965,836"/>
<path d="M1216,993 Q1255,1033 1295,997"/>
<path d="M767,1243 Q610,1393 453,1181"/>
<path d="M767,1243 Q880,1322 994,918"/>
<path d="M767,1243 Q654,1318 541,1220"/>
<path d="M923,872 Q913,1131 904,1125"/>
<path d="M923,872 Q824,1205 725,1136"/>
<path d="M923,872 Q772,983 622,905"/>
<path d="M923,872 Q685,1247 447,1085"/>
<path d="M923,872 Q865,917 808,888"/>
<path d="M923,872 Q1219,1063 1516,757"/>
<path d="M923,872 Q970,917 1018,865"/>
<path d="M923,872 Q892,887 862,743"/>
<path d="M923,872 Q739,1290 556,1135"/>
<path d="M923,872 Q1310,1075 1698,809"/>
<path d="M923,872 Q968,915 1014,847"/>
<path d="M923,872 Q958,949 994,918"/>
<path d="M923,872 Q1215,1057 1508,776"/>
<path d="M923,872 Q1246,1158 1569,687"/>
<path d="M923,872 Q831,1161 739,1087"/>
<path d="M923,872 Q1253,1084 1584,731"/>
<path d="M923,872 Q850,984 778,937"/>
<path d="M923,872 Q881,902 839,804"/>
<path d="M923,872 Q909,940 896,934"/>
<path d="M923,872 Q885,903 848,661"/>
<path d="M923,872 Q968,924 1014,899"/>
<path d="M923,872 Q963,954 1003,929"/>
<path d="M923,872 Q951,889 980,822"/>
<path d="M923,872 Q743,1094 563,942"/>
<path d="M923,872 Q893,925 863,901"/>
<path d="M923,872 Q986,938 1049,884"/>
<path d="M923,872 Q1219,1263 1516,992"/>
<path d="M923,872 Q823,941 724,814"/>
<path d="M923,872 Q944,883 965,836"/>
<path d="M923,872 Q1054,991 1186,775"/>
<path d="M923,872 Q1209,1090 1495,683"/>
<path d="M1485,927 Q1554,1073 1624,1010"/>
<path d="M1485,927 Q1390,1064 1295,997"/>
<path d="M1485,927 Q1285,1093 1085,943"/>
<path d="M1485,927 Q1449,1127 1414,1103"/>
<path d="M1485,927 Q1392,1296 1299,1223"/>
<path d="M1485,927 Q1340,1130 1195,1011"/>
<path d="M798,1025 Q942,1390 1086,1248"/>
<path d="M798,1025 Q868,1265 939,1200"/>
<path d="M1372,421 Q1230,539 1088,466"/>
<path d="M1372,421 Q1375,423 1379,381"/>
<path d="M1372,421 Q1395,434 1418,386"/>
<path d="M1372,421 Q1160,908 949,745"/>
<path d="M1372,421 Q1433,742 1495,683"/>
<path d="M1372,421 Q1117,889 862,743"/>
<path d="M1372,421 Q1188,1051 1004,952"/>
<path d="M446,1098 Q917,1486 1388,1066"/>
<path d="M446,1098 Q720,1314 994,918"/>
<path d="M446,1098 Q816,1398 1186,775"/>
<path d="M446,1098 Q713,1393 981,1247"/>
<path d="M446,1098 Q449,1183 453,1181"/>
<path d="M1341,888 Q1307,914 1273,871"/>
<path d="M1341,888 Q991,1209 642,964"/>
<path d="M959,904 Q906,1312 853,1273"/>
<path d="M959,904 Q960,1110 962,1109"/>
<path d="M959,904 Q911,949 863,901"/>
<path d="M1393,1155 Q1358,1198 1323,1178"/>
<path d="M1393,1155 Q1527,1234 1661,717"/>
<path d="M675,1093 Q875,1196 1076,758"/>
<path d="M675,1093 Q1253,1580 1831,1023"/>
<path d="M675,1093 Q1121,1410 1568,1164"/>
<path d="M675,1093 Q839,1183 1004,952"/>
<path d="M675,1093 Q655,1145 636,1131"/>
<path d="M675,1093 Q1074,1440 1474,729"/>
<path d="M675,1093 Q862,1193 1049,884"/>
<path d="M1697,850 Q1697,850 1698,809"/>
<path d="M1697,850 Q1334,1357 972,1059"/>
<path d="M1697,850 Q1710,1015 1724,1003"/>
<path d="M1697,850 Q1750,1001 1803,967"/>
<path d="M1697,850 Q1606,1043 1516,992"/>
<path d="M1145,864 Q1144,1008 1144,1008"/>
<path d="M1145,864 Q1209,913 1273,871"/>
<path d="M1145,864 Q962,1383 779,1289"/>
<path d="M1145,864 Q1269,1278 1393,1155"/>
<path d="M1145,864 Q1112,1047 1080,1015"/>
<path d="M1140,1037 Q1162,1050 1184,898"/>
<path d="M1140,1037 Q1206,1085 1273,871"/>
<path d="M1140,1037 Q959,1468 779,1289"/>
<path d="M891,975 Q988,1341 1086,1248"/>
<path d="M891,975 Q947,1005 1004,952"/>
<path d="M895,922 Q904,966 913,961"/>
<path d="M895,922 Q1315,1246 1736,1016"/>
<path d="M848,661 Q1292,1366 1736,1016"/>
<path d="M848,661 Q887,731 927,701"/>
<path d="M1225,842 Q1249,883 1273,871"/>
<path d="M1095,954 Q837,1141 579,1010"/>
<path d="M1095,954 Q1184,1014 1273,871"/>
<path d="M1095,954 Q1140,989 1186,775"/>
<path d="M980,822 Q771,1089 563,942"/>
<path d="M980,822 Q1126,950 1273,871"/>
<path d="M980,822 Q852,908 724,814"/>
<path d="M980,822 Q997,914 1014,899"/>
<path d="M1290,775 Q1281,877 1273,871"/>
<path d="M1290,775 Q966,1132 642,964"/>
<path d="M1768,836 Q1520,1056 1273,871"/>
<path d="M1768,836 Q1408,1201 1049,884"/>
<path d="M1221,1192 Q1307,1238 1393,1155"/>
<path d="M1221,1192 Q1107,1300 994,918"/>
<path d="M1221,1192 Q1207,1199 1193,832"/>
<path d="M1221,1192 Q931,1455 642,964"/>
<path d="M1045,747 Q997,781 949,745"/>
<path d="M1508,1042 Q1516,1047 1524,899"/>
<path d="M1508,1042 Q1546,1065 1585,835"/>
<path d="M1508,1042 Q1625,1131 1742,887"/>
<path d="M1085,306 Q1029,340 974,217"/>
<path d="M1583,1018 Q1428,1100 1273,871"/>
<path d="M1583,1018 Q1239,1213 895,1023"/>
<path d="M453,1181 Q767,1452 1081,1203"/>
<path d="M453,1181 Q769,1553 1086,1248"/>
<path d="M453,1181 Q478,1249 503,1237"/>
<path d="M1379,381 Q1473,933 1568,860"/>
<path d="M1379,381 Q1078,1087 778,937"/>
<path d="M1379,381 Q967,1407 556,1135"/>
<path d="M1379,381 Q1557,1152 1736,1016"/>
<path d="M721,1017 Q1108,1312 1495,595"/>
<path d="M721,1017 Q762,1045 803,960"/>
<path d="M721,1017 Q953,1182 1186,775"/>
<path d="M721,1017 Q759,1049 798,1025"/>
<path d="M1548,1224 Q1395,1361 1242,1178"/>
<path d="M1548,1224 Q1468,1297 1388,1066"/>
<path d="M1703,937 Q1162,1745 621,1261"/>
<path d="M1703,937 Q1189,1551 675,1093"/>
<path d="M1703,937 Q1719,1030 1736,1016"/>
<path d="M1703,937 Q1609,1081 1516,992"/>
<path d="M940,1098 Q1063,1204 1186,775"/>
<path d="M940,1098 Q901,1135 863,901"/>
<path d="M940,1098 Q1010,1250 1081,1203"/>
<path d="M940,1098 Q1106,1225 1273,871"/>
<path d="M940,1098 Q830,1161 721,1017"/>
<path d="M940,1098 Q788,1231 636,1131"/>
<path d="M940,1098 Q1217,1272 1495,595"/>
<path d="M940,1098 Q972,1114 1004,952"/>
<path d="M940,1098 Q956,1106 972,1059"/>
<path d="M940,1098 Q962,1177 984,1165"/>
<path d="M898,1232 Q840,1285 783,1225"/>
<path d="M898,1232 Q987,1297 1076,758"/>
<path d="M1263,1051 Q1453,1308 1644,1120"/>
<path d="M1263,1051 Q909,1475 556,1135"/>
<path d="M1263,1051 Q1493,1215 1724,1003"/>
<path d="M1263,1051 Q855,1437 447,1085"/>
<path d="M1263,1051 Q1138,1170 1014,847"/>
<path d="M1263,1051 Q1001,1289 739,1087"/>
<path d="M1263,1051 Q1268,1054 1273,871"/>
<path d="M1263,1051 Q1181,1098 1099,775"/>
<path d="M1263,1051 Q965,1334 668,1166"/>
<path d="M972,507 Q1122,975 1273,871"/>
<path d="M972,507 Q792,1168 612,1068"/>
<path d="M972,507 Q807,1048 642,964"/>
<path d="M1386,813 Q1329,902 1273,871"/>
<path d="M1503,884 Q1389,942 1275,755"/>
<path d="M1503,884 Q1030,1471 558,1234"/>
<path d="M1503,884 Q1511,954 1519,947"/>
<path d="M1503,884 Q1135,1527 767,1243"/>
<path d="M1503,884 Q1141,1575 779,1289"/>
<path d="M1503,884 Q1582,931 1661,717"/>
<path d="M1503,884 Q979,1534 455,1140"/>
<path d="M1503,884 Q1460,918 1418,386"/>
<path d="M1503,884 Q1140,1503 777,1261"/>
<path d="M1503,884 Q1444,999 1386,958"/>
<path d="M927,701 Q894,759 862,743"/>
<path d="M927,701 Q938,754 949,745"/>
<path d="M1164,449 Q1378,1171 1593,975"/>
<path d="M1164,449 Q1278,1254 1393,1155"/>
<path d="M1164,449 Q1126,499 1088,466"/>
<path d="M1164,449 Q903,1203 642,964"/>
<path d="M1428,980 Q1361,1031 1295,997"/>
<path d="M1428,980 Q1200,1198 972,1059"/>
<path d="M1428,980 Q1474,1018 1520,828"/>
<path d="M1428,980 Q1615,1121 1803,967"/>
<path d="M1724,1116 Q1530,1257 1336,948"/>
<path d="M1724,1116 Q1777,1147 1831,1023"/>
<path d="M1724,1116 Q1411,1366 1098,896"/>
<path d="M1724,1116 Q1684,1142 1644,1120"/>
<path d="M1724,1116 Q1707,1130 1690,1026"/>
<path d="M1724,1116 Q1369,1321 1014,847"/>
<path d="M1724,1116 Q1199,1487 675,1093"/>
<path d="M1724,1116 Q1465,1283 1206,853"/>
<path d="M1661,717 Q1151,1446 642,964"/>
<path d="M1734,772 Q1716,818 1698,809"/>
<path d="M1605,786 Q1651,846 1698,809"/>
<path d="M1123,821 Q1153,913 1184,898"/>
<path d="M1123,821 Q1058,964 994,918"/>
<path d="M1123,821 Q1134,872 1145,864"/>
<path d="M1123,821 Q882,1121 642,964"/>
<path d="M1123,821 Q1223,1238 1323,1178"/>
<path d="M666,1245 Q660,1250 655,85"/>
<path d="M666,1245 Q766,1402 867,1312"/>
<path d="M666,1245 Q716,1280 767,1243"/>
<path d="M666,1245 Q730,1301 794,911"/>
<path d="M666,1245 Q651,1259 636,1131"/>
<path d="M666,1245 Q1129,1588 1593,59"/>
<path d="M666,1245 Q540,1364 414,1024"/>
<path d="M666,1245 Q721,1315 777,1261"/>
<path d="M666,1245 Q825,1376 984,1165"/>
<path d="M666,1245 Q764,1325 862,743"/>
<path d="M666,1245 Q692,1308 719,1291"/>
<path d="M666,1245 Q756,1326 846,1060"/>
<path d="M666,1245 Q674,1250 683,1204"/>
<path d="M666,1245 Q759,1346 853,1273"/>
<path d="M1083,993 Q1209,1106 1336,948"/>
<path d="M1083,993 Q1090,999 1098,896"/>
<path d="M1083,993 Q1178,1040 1273,871"/>
<path d="M1083,993 Q1390,1275 1698,809"/>
<path d="M1083,993 Q996,1158 910,1082"/>
<path d="M1083,993 Q1259,1098 1435,799"/>
<path d="M1083,993 Q1425,1314 1768,836"/>
<path d="M1083,993 Q995,1052 907,945"/>
<path d="M1083,993 Q1140,1025 1198,888"/>
<path d="M1083,993 Q950,1120 817,638"/>
<path d="M1083,993 Q1286,1105 1489,916"/>
<path d="M1083,993 Q1032,1288 981,1247"/>
<path d="M1083,993 Q895,1203 707,1071"/>
<path d="M1083,993 Q1144,1033 1206,853"/>
<path d="M1668,957 Q1630,995 1593,975"/>
<path d="M974,217 Q852,1234 731,1122"/>
<path d="M974,217 Q1123,1004 1273,871"/>
<path d="M974,217 Q1401,1047 1829,813"/>
<path d="M974,217 Q1052,331 1131,272"/>
<path d="M1124,809 Q1198,942 1273,871"/>
<path d="M1124,809 Q1155,839 1186,775"/>
<path d="M581,1163 Q819,1312 1058,1088"/>
<path d="M581,1163 Q883,1394 1186,775"/>
<path d="M581,1163 Q792,1277 1004,952"/>
<path d="M581,1163 Q608,1189 636,1131"/>
<path d="M1374,998 Q1356,1015 1338,845"/>
<path d="M1098,974 Q1089,1209 1081,1203"/>
<path d="M1098,974 Q828,1378 558,1234"/>
<path d="M1098,974 Q1051,1010 1004,952"/>
<path d="M1213,793 Q1243,894 1273,871"/>
<path d="M984,1165 Q944,1192 904,1125"/>
<path d="M984,1165 Q942,1276 900,1253"/>
<path d="M984,1165 Q1288,1461 1593,975"/>
<path d="M984,1165 Q994,1173 1004,952"/>
<path d="M984,1165 Q1035,1289 1086,1248"/>
<path d="M984,1165 Q813,1322 642,964"/>
<path d="M984,1165 Q974,1275 964,1269"/>
<path d="M984,1165 Q1128,1273 1273,871"/>
<path d="M984,1165 Q990,1168 996,1101"/>
<path d="M984,1165 Q961,1220 939,1200"/>
<path d="M984,1165 Q1032,1237 1081,1203"/>
<path d="M984,1165 Q1085,1221 1186,775"/>
<path d="M984,1165 Q1026,1248 1068,1218"/>
<path d="M832,1206 Q808,1226 784,1176"/>
<path d="M1643,761 Q1248,1477 853,1273"/>
<path d="M1273,871 Q1433,1065 1593,975"/>
<path d="M1273,871 Q1343,1143 1414,1103"/>
<path d="M1273,871 Q1025,1409 777,1261"/>
<path d="M1273,871 Q1335,936 1398,895"/>
<path d="M1273,871 Q1330,922 1387,782"/>
<path d="M1273,871 Q1020,1402 767,1243"/>
<path d="M1273,871 Q1035,1160 798,1025"/>
<path d="M1273,871 Q1159,972 1046,705"/>
<path d="M1273,871 Q1260,941 1248,933"/>
<path d="M1273,871 Q1320,911 1367,866"/>
<path d="M1273,871 Q1280,915 1288,910"/>
<path d="M1273,871 Q1174,954 1075,678"/>
<path d="M1273,871 Q1305,893 1338,845"/>
<path d="M1273,871 Q1345,929 1418,386"/>
<path d="M1273,871 Q1067,1002 862,743"/>
<path d="M1273,871 Q1111,1014 949,745"/>
<path d="M1273,871 Q1171,981 1070,916"/>
<path d="M1273,871 Q1333,1205 1393,1155"/>
<path d="M1273,871 Q1180,944 1088,466"/>
<path d="M1273,871 Q1329,1211 1385,1171"/>
<path d="M1273,871 Q957,1260 642,964"/>
<path d="M1273,871 Q1233,901 1193,832"/>
<path d="M1014,847 Q1143,957 1273,871"/>
<path d="M839,804 Q819,818 799,772"/>
<path d="M1508,776 Q1665,902 1822,64"/>
<path d="M1508,776 Q1622,1104 1736,1016"/>
<path d="M1736,1196 Q1652,1261 1568,1164"/>
<path d="M1736,1196 Q1690,1221 1644,1120"/>
<path d="M1736,1196 Q1723,1204 1710,1167"/>
<path d="M1050,1114 Q1321,1272 1593,975"/>
<path d="M1050,1114 Q1017,1195 984,1165"/>
<path d="M1372,905 Q1322,945 1273,871"/>
<path d="M1372,905 Q1109,1231 846,1060"/>
<path d="M1076,758 Q1012,794 949,745"/>
<path d="M469,1121 Q545,1191 622,905"/>
<path d="M469,1121 Q636,1249 803,960"/>
<path d="M469,1121 Q552,1180 636,1131"/>
<path d="M469,1121 Q461,1186 453,1181"/>
<path d="M469,1121 Q600,1203 731,1122"/>
<path d="M469,1121 Q632,1211 795,1080"/>
<path d="M469,1121 Q633,1213 798,1025"/>
<path d="M469,1121 Q1004,1574 1540,643"/>
<path d="M469,1121 Q871,1323 1273,871"/>
<path d="M469,1121 Q549,1194 630,501"/>
<path d="M469,1121 Q928,1467 1388,1066"/>
<path d="M469,1121 Q911,1346 1353,968"/>
<path d="M694,1029 Q983,1249 1273,871"/>
<path d="M694,1029 Q746,1073 798,1025"/>
<path d="M694,1029 Q828,1226 962,1109"/>
<path d="M694,1029 Q665,1147 636,1131"/>
<path d="M1186,775 Q1340,908 1495,595"/>
<path d="M1186,775 Q994,1093 803,960"/>
<path d="M1186,775 Q1133,1247 1081,1203"/>
<path d="M1186,775 Q819,1418 453,1181"/>
<path d="M1186,775 Q1121,811 1057,694"/>
<path d="M1186,775 Q1062,1295 939,1200"/>
<path d="M1186,775 Q1131,806 1076,758"/>
<path d="M1186,775 Q1091,1171 996,1101"/>
<path d="M1186,775 Q1136,1276 1086,1248"/>
<path d="M1186,775 Q863,1400 541,1220"/>
<path d="M1590,1092 Q1617,1141 1644,1120"/>
<path d="M725,1136 Q1132,1383 1540,643"/>
<path d="M725,1136 Q592,1208 460,1111"/>
<path d="M725,1136 Q764,1159 803,960"/>
<path d="M725,1136 Q597,1211 469,1121"/>
<path d="M725,1136 Q680,1178 636,1131"/>
<path d="M725,1136 Q589,1261 453,1181"/>
<path d="M725,1136 Q1039,1390 1353,968"/>
<path d="M725,1136 Q614,1292 503,1237"/>
<path d="M725,1136 Q636,1221 547,1101"/>
<path d="M725,1136 Q746,1151 767,926"/>
<path d="M447,1085 Q725,1356 1004,952"/>
<path d="M447,1085 Q541,1218 636,1131"/>
<path d="M1516,757 Q992,1445 469,1121"/>
<path d="M1516,757 Q1157,1313 798,1025"/>
<path d="M940,609 Q785,699 630,501"/>
<path d="M940,609 Q917,1044 895,1023"/>
<path d="M940,609 Q933,705 927,701"/>
<path d="M940,609 Q1106,972 1273,871"/>
<path d="M940,609 Q953,1055 966,1045"/>
<path d="M940,609 Q791,1050 642,964"/>
<path d="M1018,865 Q1102,920 1186,775"/>
<path d="M1018,865 Q1305,1174 1593,975"/>
<path d="M1018,865 Q867,1187 716,1060"/>
<path d="M1018,865 Q1189,1343 1360,1197"/>
<path d="M1018,865 Q1201,1069 1385,971"/>
<path d="M716,1060 Q790,1233 864,1160"/>
<path d="M716,1060 Q741,1266 767,1243"/>
<path d="M668,1166 Q692,1180 717,975"/>
<path d="M668,1166 Q815,1242 962,1109"/>
<path d="M668,1166 Q652,1179 636,1131"/>
<path d="M668,1166 Q836,1275 1004,952"/>
<path d="M668,1166 Q1202,1599 1736,1016"/>
<path d="M1721,1056 Q1728,1062 1736,1016"/>
<path d="M896,934 Q938,964 980,822"/>
<path d="M896,934 Q867,955 839,804"/>
<path d="M1524,899 Q1456,1100 1388,1066"/>
<path d="M1593,891 Q1593,975 1593,975"/>
<path d="M1593,891 Q1425,1259 1258,1126"/>
<path d="M1593,891 Q1490,1140 1388,1066"/>
<path d="M1593,891 Q1117,1298 642,964"/>
<path d="M1682,917 Q1603,979 1524,899"/>
<path d="M1682,917 Q1712,944 1742,887"/>
<path d="M916,1070 Q1254,1339 1593,975"/>
<path d="M916,1070 Q846,1311 777,1261"/>
<path d="M916,1070 Q1200,1245 1485,927"/>
<path d="M916,1070 Q1094,1228 1273,871"/>
<path d="M916,1070 Q779,1185 642,964"/>
<path d="M916,1070 Q850,1226 784,1176"/>
<path d="M1248,933 Q1285,1208 1323,1178"/>
<path d="M1160,961 Q1216,998 1273,871"/>
<path d="M1160,961 Q1270,1050 1380,985"/>
<path d="M1160,961 Q1012,1239 864,1160"/>
<path d="M1160,961 Q901,1192 642,964"/>
<path d="M1160,961 Q1285,1158 1411,1039"/>
<path d="M1184,898 Q1272,1272 1360,1197"/>
<path d="M1184,898 Q1228,941 1273,871"/>
<path d="M1184,898 Q1288,1245 1393,1155"/>
<path d="M1184,898 Q1284,1247 1385,1171"/>
<path d="M1184,898 Q913,1208 642,964"/>
<path d="M1184,898 Q1299,1214 1414,1103"/>
<path d="M1068,1218 Q1330,1378 1593,975"/>
<path d="M1068,1218 Q981,1269 895,1023"/>
<path d="M797,847 Q643,1125 490,1042"/>
<path d="M797,847 Q795,912 794,911"/>
<path d="M445,1214 Q859,1545 1273,871"/>
<path d="M445,1214 Q540,1267 636,1131"/>
<path d="M724,814 Q1158,1220 1593,975"/>
<path d="M1418,831 Q1345,928 1273,871"/>
<path d="M1418,831 Q1398,842 1379,381"/>
<path d="M1040,1071 Q742,1427 445,1214"/>
<path d="M1040,1071 Q920,1159 800,1094"/>
<path d="M1139,1062 Q1366,1213 1593,975"/>
<path d="M1139,1062 Q1094,1152 1050,1114"/>
<path d="M1139,1062 Q1098,1128 1058,1088"/>
<path d="M1139,1062 Q1001,1257 864,1160"/>
<path d="M1139,1062 Q992,1163 846,1060"/>
<path d="M976,1019 Q935,1052 895,1023"/>
<path d="M864,1160 Q970,1223 1076,758"/>
<path d="M864,1160 Q1262,1552 1661,717"/>
<path d="M683,851 Q652,933 622,905"/>
<path d="M683,851 Q703,867 724,814"/>
<path d="M1089,864 Q1406,1212 1724,1003"/>
<path d="M1089,864 Q1137,888 1186,775"/>
<path d="M862,743 Q530,1203 198,906"/>
<path d="M1057,694 Q1325,1120 1593,975"/>
<path d="M1057,694 Q849,1105 642,964"/>
<path d="M1057,694 Q1190,1289 1323,1178"/>
<path d="M716,1148 Q1117,1467 1519,947"/>
<path d="M1519,947 Q1397,1025 1275,755"/>
<path d="M1519,947 Q1159,1140 799,772"/>
<path d="M1519,947 Q1004,1504 490,1042"/>
<path d="M1519,947 Q1449,1027 1380,985"/>
<path d="M1519,947 Q1506,1111 1493,1101"/>
<path d="M994,768 Q1241,1050 1489,916"/>
<path d="M994,768 Q960,784 927,701"/>
<path d="M994,768 Q818,1079 642,964"/>
<path d="M1167,470 Q811,1381 455,1140"/>
<path d="M1167,470 Q1220,912 1273,871"/>
<path d="M1167,470 Q904,1223 642,964"/>
<path d="M1167,470 Q1127,491 1088,466"/>
<path d="M414,1024 Q534,1111 655,85"/>
<path d="M414,1024 Q640,1461 867,1312"/>
<path d="M414,1024 Q843,1315 1273,871"/>
<path d="M414,1024 Q800,1257 1186,775"/>
<path d="M1386,958 Q1265,1106 1144,1008"/>
<path d="M1386,958 Q976,1383 567,981"/>
<path d="M1386,958 Q1340,1041 1295,997"/>
<path d="M1386,958 Q1222,1235 1058,1088"/>
<path d="M1386,958 Q1290,1074 1195,1011"/>
<path d="M1386,958 Q1014,1258 642,964"/>
<path d="M1386,958 Q1383,986 1380,985"/>
<path d="M1386,958 Q1329,1002 1273,871"/>
<path d="M1386,958 Q1433,989 1481,959"/>
<path d="M1386,958 Q1460,1067 1535,1014"/>
<path d="M1386,958 Q1387,1066 1388,1066"/>
<path d="M1386,958 Q1077,1347 768,1056"/>
<path d="M1386,958 Q1227,1344 1068,1218"/>
<path d="M1014,899 Q890,1304 767,1243"/>
<path d="M1338,845 Q981,1117 624,925"/>
<path d="M1338,845 Q990,1190 642,964"/>
<path d="M1654,986 Q1689,1023 1724,1003"/>
<path d="M1493,1101 Q1067,1383 642,964"/>
<path d="M1493,1101 Q1284,1279 1075,678"/></g><g font-family="Monospace"><text y="982" x="1453" font-size="10" fill="#6a6aa2">flac</text>
<text y="961" x="1425" font-size="10" fill="#0000ff">iputils</text>
<text y="1122" x="725" font-size="10" fill="#6a6aa2">gd</text>
<text y="1261" x="764" font-size="10" fill="#6a6aa2">gdbm</text>
<text y="524" x="708" font-size="10" fill="#0000ff">rhino</text>
<text y="1280" x="511" font-size="11" fill="#0000ff">python2-docutils</text>
<text y="985" x="1361" font-size="12" fill="#6a6aa2">gpgme</text>
<text y="1214" x="926" font-size="10" fill="#0000ff">urxvt-url-select</text>
<text y="790" x="882" font-size="17" fill="#0000ff">lib32-ati-dri</text>
<text y="806" x="1005" font-size="10" fill="#0000ff">pptpclient</text>
<text y="1129" x="1545" font-size="10" fill="#6a6aa2">giflib</text>
<text y="961" x="897" font-size="10" fill="#6a6aa2">libxt</text>
<text y="444" x="464" font-size="10" fill="#0000ff">junit</text>
<text y="386" x="1405" font-size="10" fill="#6a6aa2">file</text>
<text y="986" x="688" font-size="10" fill="#0000ff">unzip</text>
<text y="896" x="1072" font-size="10" fill="#6a6aa2">libxfont</text>
<text y="955" x="1544" font-size="33" fill="#0000ff">vlc</text>
<text y="952" x="973" font-size="24" fill="#6a6aa2">gtk2</text>
<text y="1131" x="586" font-size="39" fill="#6a6aa2">gtk3</text>
<text y="1011" x="1174" font-size="11" fill="#6a6aa2">gnutls</text>
<text y="705" x="1027" font-size="10" fill="#6a6aa2">dhcpcd</text>
<text y="643" x="1462" font-size="22" fill="#6a6aa2">ghostscript</text>
<text y="1291" x="681" font-size="13" fill="#0000ff">mercurial</text>
<text y="1261" x="579" font-size="10" fill="#6a6aa2">libxcomposite</text>
<text y="810" x="1221" font-size="10" fill="#0000ff">licenses</text>
<text y="1248" x="347" font-size="10" fill="#6a6aa2">libspectre</text>
<text y="64" x="1729" font-size="16" fill="#6a6aa2">gstreamer0.10-base</text>
<text y="1068" x="1701" font-size="10" fill="#0000ff">xorg-x11perf</text>
<text y="993" x="1568" font-size="10" fill="#6a6aa2">libproxy</text>
<text y="741" x="1343" font-size="10" fill="#0000ff">xf86-video-intel</text>
<text y="983" x="1226" font-size="10" fill="#6a6aa2">libgpg-error</text>
<text y="542" x="948" font-size="26" fill="#0000ff">wireshark-cli</text>
<text y="845" x="1075" font-size="10" fill="#0000ff">cpufrequtils</text>
<text y="906" x="107" font-size="56" fill="#0000ff">boost</text>
<text y="866" x="1354" font-size="10" fill="#0000ff">acpi</text>
<text y="822" x="1646" font-size="10" fill="#6a6aa2">libsndfile</text>
<text y="1171" x="1372" font-size="10" fill="#6a6aa2">gawk</text>
<text y="1273" x="834" font-size="10" fill="#0000ff">archey</text>
<text y="1140" x="433" font-size="10" fill="#6a6aa2">libltdl</text>
<text y="1144" x="1534" font-size="10" fill="#0000ff">wmname</text>
<text y="1163" x="1107" font-size="10" fill="#0000ff">zathura-pdf-poppler</text>
<text y="501" x="405" font-size="33" fill="#6a6aa2">jre7-openjdk-headless</text>
<text y="1327" x="609" font-size="10" fill="#0000ff">python2-feedparser</text>
<text y="935" x="1742" font-size="10" fill="#6a6aa2">xextproto</text>
<text y="975" x="1567" font-size="10" fill="#6a6aa2">gcc-libs</text>
<text y="1023" x="850" font-size="20" fill="#0000ff">firefox</text>
<text y="1111" x="444" font-size="10" fill="#6a6aa2">lcms2</text>
<text y="1178" x="1207" font-size="11" fill="#0000ff">alsa-utils</text>
<text y="1234" x="539" font-size="10" fill="#6a6aa2">sqlite</text>
<text y="998" x="1390" font-size="11" fill="#6a6aa2">libxcb</text>
<text y="1045" x="913" font-size="15" fill="#0000ff">flashplugin</text>
<text y="973" x="1192" font-size="10" fill="#0000ff">syslog-ng</text>
<text y="998" x="516" font-size="10" fill="#6a6aa2">startup-notification</text>
<text y="1109" x="953" font-size="10" fill="#0000ff">feh</text>
<text y="1176" x="753" font-size="24" fill="#6a6aa2">perl</text>
<text y="808" x="1282" font-size="10" fill="#6a6aa2">m4</text>
<text y="1088" x="1029" font-size="13" fill="#6a6aa2">libxml2</text>
<text y="1087" x="710" font-size="10" fill="#6a6aa2">libxrandr</text>
<text y="860" x="1542" font-size="10" fill="#6a6aa2">libpulse</text>
<text y="1003" x="1705" font-size="10" fill="#6a6aa2">libxmu</text>
<text y="1167" x="1678" font-size="10" fill="#0000ff">xorg-utils</text>
<text y="59" x="1558" font-size="10" fill="#6a6aa2">dbus-python</text>
<text y="950" x="1129" font-size="10" fill="#6a6aa2">sysfsutils</text>
<text y="1119" x="1350" font-size="10" fill="#6a6aa2">xcb-util</text>
<text y="932" x="1069" font-size="10" fill="#0000ff">lib32-intel-dri</text>
<text y="1193" x="783" font-size="12" fill="#0000ff">pstoedit</text>
<text y="852" x="1732" font-size="10" fill="#0000ff">terminus-font</text>
<text y="1066" x="1270" font-size="14" fill="#0000ff">gstreamer0.10-good-plugins</text>
<text y="926" x="754" font-size="10" fill="#6a6aa2">lcms</text>
<text y="755" x="1261" font-size="11" fill="#6a6aa2">krb5</text>
<text y="885" x="1376" font-size="10" fill="#0000ff">iptables</text>
<text y="1136" x="748" font-size="11" fill="#0000ff">links</text>
<text y="804" x="1178" font-size="10" fill="#0000ff">sudo</text>
<text y="1101" x="987" font-size="10" fill="#6a6aa2">atk</text>
<text y="1015" x="1051" font-size="10" fill="#0000ff">logrotate</text>
<text y="1105" x="756" font-size="10" fill="#0000ff">socat</text>
<text y="1204" x="466" font-size="10" fill="#6a6aa2">gsettings-desktop-schemas</text>
<text y="638" x="752" font-size="10" fill="#6a6aa2">xorg-fonts-encodings</text>
<text y="1040" x="1542" font-size="10" fill="#0000ff">xorg-xkbutils</text>
<text y="466" x="1049" font-size="41" fill="#6a6aa2">gcc</text>
<text y="1358" x="685" font-size="14" fill="#0000ff">uniconvertor</text>
<text y="745" x="923" font-size="10" fill="#6a6aa2">alsa-lib</text>
<text y="918" x="965" font-size="10" fill="#6a6aa2">dbus-core</text>
<text y="792" x="1034" font-size="10" fill="#0000ff">alsa-oss</text>
<text y="1059" x="1008" font-size="10" fill="#0000ff">xorg-xkbevd</text>
<text y="1010" x="1608" font-size="10" fill="#0000ff">gperf</text>
<text y="1042" x="1641" font-size="10" fill="#0000ff">xorg-xcursorgen</text>
<text y="1060" x="541" font-size="10" fill="#6a6aa2">polkit</text>
<text y="1217" x="851" font-size="11" fill="#0000ff">aspell-en</text>
<text y="1131" x="1143" font-size="10" fill="#0000ff">zathura-ps</text>
<text y="717" x="1138" font-size="10" fill="#0000ff">lib32-mpg123</text>
<text y="1120" x="1617" font-size="14" fill="#6a6aa2">libx11</text>
<text y="1080" x="1548" font-size="10" fill="#0000ff">powertop</text>
<text y="1129" x="783" font-size="10" fill="#0000ff">fswebcam</text>
<text y="1042" x="810" font-size="10" fill="#6a6aa2">pciutils</text>
<text y="398" x="1060" font-size="10" fill="#0000ff">xmobar</text>
<text y="953" x="706" font-size="10" fill="#0000ff">acpid</text>
<text y="1094" x="784" font-size="10" fill="#6a6aa2">hwids</text>
<text y="458" x="646" font-size="10" fill="#0000ff">jna</text>
<text y="1109" x="1536" font-size="10" fill="#0000ff">xorg-xkill</text>
<text y="956" x="1279" font-size="10" fill="#0000ff">htop</text>
<text y="979" x="970" font-size="11" fill="#0000ff">mutt</text>
<text y="887" x="1723" font-size="10" fill="#6a6aa2">libogg</text>
<text y="948" x="1310" font-size="10" fill="#6a6aa2">libxdmcp</text>
<text y="746" x="1657" font-size="10" fill="#0000ff">v4l2ucp</text>
<text y="916" x="1441" font-size="10" fill="#6a6aa2">xorg-font-utils</text>
<text y="1101" x="525" font-size="10" fill="#6a6aa2">libcups</text>
<text y="888" x="1179" font-size="10" fill="#6a6aa2">pixman</text>
<text y="782" x="1374" font-size="10" fill="#0000ff">flex</text>
<text y="1113" x="1094" font-size="10" fill="#0000ff">xf86-input-acecad</text>
<text y="856" x="1327" font-size="10" fill="#0000ff">xf86-input-keyboard</text>
<text y="1025" x="435" font-size="30" fill="#6a6aa2">python</text>
<text y="943" x="1066" font-size="10" fill="#6a6aa2">libidn</text>
<text y="337" x="955" font-size="13" fill="#0000ff">texlive-publishers</text>
<text y="967" x="1623" font-size="10" fill="#6a6aa2">openjpeg</text>
<text y="1084" x="1436" font-size="10" fill="#0000ff">reiserfsprogs</text>
<text y="1071" x="665" font-size="10" fill="#6a6aa2">systemd-tools</text>
<text y="1269" x="945" font-size="10" fill="#6a6aa2">aspell</text>
<text y="706" x="1637" font-size="10" fill="#6a6aa2">dbus</text>
<text y="836" x="923" font-size="10" fill="#6a6aa2">lib32-libxext</text>
<text y="683" x="1479" font-size="10" fill="#6a6aa2">libsm</text>
<text y="1080" x="770" font-size="13" fill="#6a6aa2">jasper</text>
<text y="936" x="659" font-size="10" fill="#0000ff">xorg-smproxy</text>
<text y="1203" x="1065" font-size="10" fill="#6a6aa2">cairo</text>
<text y="813" x="1798" font-size="14" fill="#6a6aa2">poppler</text>
<text y="1225" x="769" font-size="11" fill="#0000ff">wicd</text>
<text y="936" x="1167" font-size="10" fill="#6a6aa2">run-parts</text>
<text y="1083" x="492" font-size="10" fill="#0000ff">vloopback-svn</text>
<text y="997" x="917" font-size="10" fill="#6a6aa2">mozilla-common</text>
<text y="1056" x="759" font-size="10" fill="#0000ff">ntp</text>
<text y="992" x="1484" font-size="10" fill="#6a6aa2">libxrender</text>
<text y="1042" x="473" font-size="11" fill="#6a6aa2">gconf</text>
<text y="1059" x="953" font-size="10" fill="#6a6aa2">libxft</text>
<text y="941" x="1645" font-size="10" fill="#6a6aa2">orc</text>
<text y="964" x="629" font-size="10" fill="#6a6aa2">bash</text>
<text y="1082" x="1113" font-size="10" fill="#6a6aa2">poppler-glib</text>
<text y="975" x="701" font-size="10" fill="#0000ff">dmenu</text>
<text y="153" x="1575" font-size="10" fill="#6a6aa2">python2-pyparsing</text>
<text y="1010" x="554" font-size="11" fill="#6a6aa2">openssh</text>
<text y="1060" x="817" font-size="13" fill="#6a6aa2">openssl</text>
<text y="1039" x="1379" font-size="10" fill="#6a6aa2">libarchive</text>
<text y="945" x="855" font-size="10" fill="#6a6aa2">xorg-fonts-alias</text>
<text y="1112" x="1464" font-size="10" fill="#0000ff">jfsutils</text>
<text y="1281" x="900" font-size="10" fill="#0000ff">cryptsetup</text>
<text y="905" x="561" font-size="10" fill="#6a6aa2">lib32-libjpeg-turbo</text>
<text y="981" x="554" font-size="10" fill="#0000ff">lvm2</text>
<text y="1081" x="676" font-size="10" fill="#6a6aa2">xz</text>
<text y="1156" x="1642" font-size="10" fill="#0000ff">xorg-xwud</text>
<text y="1150" x="476" font-size="10" fill="#6a6aa2">gtk-update-icon-cache</text>
<text y="1291" x="793" font-size="10" fill="#6a6aa2">gpm</text>
<text y="453" x="667" font-size="10" fill="#6a6aa2">java-rhino</text>
<text y="850" x="1627" font-size="10" fill="#6a6aa2">libxpm</text>
<text y="915" x="1577" font-size="10" fill="#6a6aa2">libxfixes</text>
<text y="85" x="446" font-size="46" fill="#0000ff">clang-analyzer</text>
<text y="960" x="764" font-size="11" fill="#6a6aa2">gdk-pixbuf2</text>
<text y="722" x="828" font-size="10" fill="#6a6aa2">libevent</text>
<text y="1026" x="1336" font-size="21" fill="#0000ff">linux-headers</text>
<text y="866" x="1614" font-size="14" fill="#0000ff">xorg-fonts-100dpi</text>
<text y="1028" x="1212" font-size="10" fill="#0000ff">pm-utils</text>
<text y="1197" x="1347" font-size="10" fill="#6a6aa2">grep</text>
<text y="924" x="1304" font-size="10" fill="#6a6aa2">libglapi</text>
<text y="807" x="1548" font-size="11" fill="#0000ff">ttf-ms-fonts</text>
<text y="897" x="908" font-size="11" fill="#0000ff">zsh</text>
<text y="831" x="1231" font-size="10" fill="#0000ff">xf86-input-mouse</text>
<text y="929" x="955" font-size="10" fill="#6a6aa2">lib32-libxfixes</text>
<text y="1129" x="1369" font-size="10" fill="#0000ff">xfsprogs</text>
<text y="1010" x="1235" font-size="10" fill="#6a6aa2">xorg-xset</text>
<text y="1200" x="910" font-size="10" fill="#6a6aa2">dbus-glib</text>
<text y="1082" x="878" font-size="10" fill="#6a6aa2">libxkbfile</text>
<text y="1237" x="474" font-size="10" fill="#6a6aa2">djvulibre</text>
<text y="953" x="1247" font-size="10" fill="#0000ff">which</text>
<text y="1176" x="691" font-size="10" fill="#0000ff">alsi</text>
<text y="763" x="1309" font-size="10" fill="#6a6aa2">libcap</text>
<text y="731" x="965" font-size="10" fill="#6a6aa2">xorg-mkfontscale</text>
<text y="1023" x="1799" font-size="10" fill="#6a6aa2">fixesproto</text>
<text y="1178" x="1451" font-size="10" fill="#6a6aa2">xorg-xwininfo</text>
<text y="1223" x="1286" font-size="10" fill="#6a6aa2">gzip</text>
<text y="1248" x="1028" font-size="10" fill="#6a6aa2">desktop-file-utils</text>
<text y="1067" x="1523" font-size="10" fill="#0000ff">xorg-xclock</text>
<text y="272" x="1115" font-size="10" fill="#6a6aa2">t1lib</text>
<text y="1048" x="1344" font-size="10" fill="#0000ff">nano</text>
<text y="832" x="1167" font-size="10" fill="#0000ff">fakeroot</text>
<text y="438" x="521" font-size="10" fill="#6a6aa2">jre7-openjdk</text>
<text y="1164" x="1533" font-size="10" fill="#0000ff">compton-git</text>
<text y="1048" x="573" font-size="10" fill="#0000ff">autossh</text>
<text y="888" x="769" font-size="10" fill="#6a6aa2">lib32-libx11</text>
<text y="1103" x="1385" font-size="10" fill="#6a6aa2">findutils</text>
<text y="1191" x="881" font-size="10" fill="#6a6aa2">popt</text>
<text y="729" x="1452" font-size="14" fill="#6a6aa2">libgl</text>
<text y="809" x="1666" font-size="10" fill="#6a6aa2">fontconfig</text>
<text y="1289" x="770" font-size="14" fill="#6a6aa2">db</text>
<text y="820" x="1162" font-size="11" fill="#6a6aa2">kbd</text>
<text y="1089" x="1363" font-size="11" fill="#6a6aa2">util-linux</text>
<text y="901" x="834" font-size="10" fill="#6a6aa2">freetype2</text>
<text y="731" x="1563" font-size="33" fill="#6a6aa2">qt</text>
<text y="910" x="1232" font-size="10" fill="#0000ff">patch</text>
<text y="1081" x="1635" font-size="10" fill="#0000ff">xorg-xfontsel</text>
<text y="910" x="1272" font-size="10" fill="#0000ff">bison</text>
<text y="758" x="1538" font-size="11" fill="#6a6aa2">libvorbis</text>
<text y="1193" x="553" font-size="10" fill="#6a6aa2">python2-gobject2</text>
<text y="994" x="846" font-size="11" fill="#6a6aa2">gsfonts</text>
<text y="842" x="1393" font-size="10" fill="#0000ff">xf86-input-vmmouse</text>
<text y="799" x="1396" font-size="10" fill="#6a6aa2">libpciaccess</text>
<text y="1132" x="1211" font-size="10" fill="#6a6aa2">sed</text>
<text y="1118" x="1415" font-size="10" fill="#0000ff">netcfg</text>
<text y="871" x="1162" font-size="10" fill="#0000ff">mdadm</text>
<text y="967" x="1784" font-size="10" fill="#6a6aa2">libxaw</text>
<text y="1134" x="1654" font-size="10" fill="#0000ff">mozplugger-chromium</text>
<text y="853" x="1187" font-size="10" fill="#6a6aa2">libxau</text>
<text y="1040" x="1250" font-size="10" fill="#6a6aa2">kmod</text>
<text y="1094" x="579" font-size="10" fill="#6a6aa2">v4l-utils</text>
<text y="916" x="1028" font-size="10" fill="#6a6aa2">device-mapper</text>
<text y="1182" x="1572" font-size="10" fill="#0000ff">xorg-xlsfonts</text>
<text y="1014" x="1526" font-size="10" fill="#6a6aa2">lua</text>
<text y="687" x="1550" font-size="10" fill="#6a6aa2">libpng</text>
<text y="1126" x="1236" font-size="10" fill="#0000ff">ncmpcpp</text>
<text y="607" x="983" font-size="10" fill="#6a6aa2">xdg-utils</text>
<text y="505" x="1112" font-size="14" fill="#0000ff">gcc-fortran</text>
<text y="1020" x="1292" font-size="10" fill="#0000ff">msmtp</text>
<text y="1253" x="858" font-size="12" fill="#6a6aa2">imagemagick</text>
<text y="962" x="1191" font-size="10" fill="#0000ff">screen</text>
<text y="1102" x="860" font-size="11" fill="#0000ff">lynx</text>
<text y="911" x="772" font-size="14" fill="#6a6aa2">pygtk</text>
<text y="1247" x="952" font-size="10" fill="#6a6aa2">libgcrypt</text>
<text y="1000" x="1636" font-size="10" fill="#0000ff">unclutter</text>
<text y="775" x="1067" font-size="10" fill="#6a6aa2">libxxf86vm</text>
<text y="906" x="1312" font-size="11" fill="#0000ff">gtk</text>
<text y="773" x="1591" font-size="10" fill="#0000ff">termsyn</text>
<text y="120" x="1404" font-size="48" fill="#0000ff">python2-matplotlib</text>
<text y="1125" x="846" font-size="10" fill="#6a6aa2">hicolor-icon-theme</text>
<text y="1103" x="1225" font-size="35" fill="#0000ff">linux</text>
<text y="835" x="1562" font-size="12" fill="#0000ff">mumble</text>
<text y="1312" x="839" font-size="22" fill="#0000ff">gvim</text>
<text y="997" x="689" font-size="10" fill="#0000ff">heirloom-mailx</text>
<text y="997" x="1268" font-size="12" fill="#6a6aa2">ncurses</text>
<text y="1135" x="540" font-size="10" fill="#6a6aa2">libxi</text>
<text y="968" x="1334" font-size="10" fill="#6a6aa2">imlib2</text>
<text y="1057" x="1594" font-size="10" fill="#0000ff">xorg-xpr</text>
<text y="1201" x="1624" font-size="10" fill="#0000ff">xorg-xinit</text>
<text y="942" x="518" font-size="10" fill="#6a6aa2">lib32-alsa-lib</text>
<text y="1068" x="596" font-size="10" fill="#6a6aa2">libnl</text>
<text y="985" x="1851" font-size="10" fill="#6a6aa2">zlib</text>
<text y="1026" x="1677" font-size="10" fill="#0000ff">sxiv</text>
<text y="677" x="1655" font-size="14" fill="#0000ff">xorg-fonts-75dpi</text>
<text y="884" x="996" font-size="15" fill="#6a6aa2">lib32-libgl</text>
<text y="1016" x="1714" font-size="10" fill="#6a6aa2">libxext</text>
<text y="1220" x="525" font-size="10" fill="#6a6aa2">avahi</text>
<text y="993" x="1210" font-size="10" fill="#0000ff">vi</text>
<text y="1243" x="751" font-size="10" fill="#6a6aa2">expat</text>
<text y="872" x="875" font-size="30" fill="#0000ff">skype</text>
<text y="927" x="1463" font-size="10" fill="#6a6aa2">texinfo</text>
<text y="1025" x="761" font-size="29" fill="#0000ff">gimp</text>
<text y="421" x="1316" font-size="35" fill="#0000ff">pdftk</text>
<text y="1098" x="394" font-size="10" fill="#6a6aa2">libgnome-keyring</text>
<text y="888" x="1328" font-size="10" fill="#0000ff">make</text>
<text y="904" x="940" font-size="10" fill="#6a6aa2">giblib</text>
<text y="1155" x="1355" font-size="13" fill="#6a6aa2">coreutils</text>
<text y="1093" x="643" font-size="10" fill="#6a6aa2">libxdamage</text>
<text y="850" x="1671" font-size="10" fill="#0000ff">xorg-xfd</text>
<text y="864" x="1135" font-size="11" fill="#6a6aa2">pam</text>
<text y="1037" x="1114" font-size="10" fill="#6a6aa2">iproute2</text>
<text y="975" x="836" font-size="10" fill="#0000ff">icedtea-web-java7</text>
<text y="922" x="879" font-size="10" fill="#0000ff">xanim</text>
<text y="661" x="829" font-size="10" fill="#6a6aa2">libxss</text>
<text y="842" x="1177" font-size="10" fill="#0000ff">xf86-input-void</text>
<text y="954" x="1079" font-size="10" fill="#0000ff">sshfs</text>
<text y="822" x="934" font-size="13" fill="#6a6aa2">lib32-glibc</text>
<text y="775" x="1235" font-size="10" fill="#0000ff">laptop-mode-tools</text>
<text y="836" x="1749" font-size="10" fill="#6a6aa2">libdrm</text>
<text y="1192" x="1189" font-size="10" fill="#6a6aa2">filesystem</text>
<text y="747" x="1006" font-size="10" fill="#0000ff">alsa-plugins</text>
<text y="1042" x="1492" font-size="10" fill="#6a6aa2">speex</text>
<text y="306" x="986" font-size="17" fill="#0000ff">texlive-latexextra</text>
<text y="971" x="1372" font-size="10" fill="#0000ff">less</text>
<text y="1018" x="1564" font-size="10" fill="#6a6aa2">libvpx</text>
<text y="1181" x="407" font-size="24" fill="#0000ff">evince</text>
<text y="381" x="1357" font-size="10" fill="#6a6aa2">libxtst</text>
<text y="1017" x="699" font-size="10" fill="#6a6aa2">librsvg</text>
<text y="1224" x="1506" font-size="10" fill="#6a6aa2">libsamplerate</text>
<text y="937" x="1677" font-size="10" fill="#0000ff">xcompmgr</text>
<text y="1098" x="923" font-size="11" fill="#6a6aa2">pango</text>
<text y="1232" x="853" font-size="10" fill="#6a6aa2">wireless_tools</text>
<text y="1051" x="1208" font-size="10" fill="#0000ff">xorg-server-utils</text>
<text y="507" x="950" font-size="10" fill="#6a6aa2">libpcap</text>
<text y="813" x="1331" font-size="10" fill="#0000ff">xf86-input-aiptek</text>
<text y="884" x="1442" font-size="19" fill="#0000ff">subversion</text>
<text y="701" x="829" font-size="38" fill="#0000ff">chromium</text>
<text y="449" x="1155" font-size="10" fill="#6a6aa2">gmp</text>
<text y="595" x="1466" font-size="13" fill="#0000ff">dot2tex</text>
<text y="980" x="1412" font-size="10" fill="#0000ff">xterm</text>
<text y="1116" x="1705" font-size="10" fill="#6a6aa2">xproto</text>
<text y="717" x="1613" font-size="10" fill="#6a6aa2">ca-certificates</text>
<text y="772" x="1686" font-size="10" fill="#0000ff">ttf-inconsolata</text>
<text y="786" x="1570" font-size="10" fill="#0000ff">tamsyn-font</text>
<text y="821" x="1102" font-size="11" fill="#6a6aa2">shadow</text>
<text y="1245" x="603" font-size="28" fill="#6a6aa2">python2</text>
<text y="993" x="1033" font-size="14" fill="#0000ff">xorg-server</text>
<text y="957" x="1652" font-size="10" fill="#0000ff">unrar</text>
<text y="789" x="1291" font-size="13" fill="#0000ff">man-pages</text>
<text y="217" x="584" font-size="100" fill="#6a6aa2">texlive-core</text>
<text y="809" x="1092" font-size="10" fill="#0000ff">pkg-config</text>
<text y="46" x="0" font-size="55" fill="#0000ff">3486MB</text>
<text y="1163" x="529" font-size="10" fill="#6a6aa2">shared-mime-info</text>
<text y="998" x="1361" font-size="10" fill="#0000ff">grub</text>
<text y="974" x="1076" font-size="10" fill="#6a6aa2">zathura</text>
<text y="793" x="1152" font-size="10" fill="#0000ff">xf86-input-joystick</text>
<text y="828" x="1488" font-size="10" fill="#6a6aa2">libfontenc</text>
<text y="1165" x="880" font-size="40" fill="#0000ff">inkscape</text>
<text y="1206" x="816" font-size="10" fill="#0000ff">rsync</text>
<text y="761" x="1608" font-size="10" fill="#6a6aa2">lsb-release</text>
<text y="871" x="1238" font-size="22" fill="#6a6aa2">glibc</text>
<text y="678" x="1040" font-size="10" fill="#0000ff">btrfs-progs</text>
<text y="1213" x="720" font-size="10" fill="#0000ff">automake</text>
<text y="847" x="995" font-size="10" fill="#6a6aa2">libice</text>
<text y="1059" x="417" font-size="10" fill="#0000ff">pacgraph</text>
<text y="772" x="757" font-size="10" fill="#0000ff">lib32-libldap</text>
<text y="959" x="1475" font-size="10" fill="#0000ff">bc</text>
<text y="804" x="793" font-size="11" fill="#6a6aa2">lib32-openssl</text>
<text y="776" x="1492" font-size="10" fill="#6a6aa2">libxv</text>
<text y="1196" x="1704" font-size="10" fill="#6a6aa2">xorg-xprop</text>
<text y="1114" x="1021" font-size="10" fill="#6a6aa2">libsigc++</text>
<text y="425" x="503" font-size="21" fill="#0000ff">apache-ant</text>
<text y="905" x="1359" font-size="10" fill="#0000ff">wget</text>
<text y="758" x="1060" font-size="10" fill="#0000ff">conky</text>
<text y="1121" x="427" font-size="10" fill="#6a6aa2">libjpeg-turbo</text>
<text y="1029" x="579" font-size="10" fill="#0000ff">pcmciautils</text>
<text y="1178" x="1314" font-size="10" fill="#6a6aa2">acl</text>
<text y="1029" x="672" font-size="10" fill="#6a6aa2">libexif</text>
<text y="775" x="1165" font-size="13" fill="#6a6aa2">glib2</text>
<text y="1092" x="1564" font-size="10" fill="#0000ff">xorg-xwd</text>
<text y="1136" x="703" font-size="10" fill="#6a6aa2">libtiff</text>
<text y="1085" x="415" font-size="10" fill="#6a6aa2">libxcursor</text>
<text y="757" x="1497" font-size="10" fill="#6a6aa2">libmng</text>
<text y="609" x="930" font-size="11" fill="#6a6aa2">nss</text>
<text y="865" x="1005" font-size="10" fill="#6a6aa2">pcre</text>
<text y="1060" x="703" font-size="14" fill="#0000ff">git</text>
<text y="937" x="1286" font-size="13" fill="#0000ff">archlinux-wallpaper</text>
<text y="1166" x="633" font-size="10" fill="#6a6aa2">libxinerama</text>
<text y="1056" x="1705" font-size="10" fill="#0000ff">slock</text>
<text y="934" x="864" font-size="10" fill="#6a6aa2">lib32-zlib</text>
<text y="899" x="1498" font-size="10" fill="#6a6aa2">libshout</text>
<text y="891" x="1574" font-size="10" fill="#6a6aa2">taglib</text>
<text y="917" x="1653" font-size="10" fill="#6a6aa2">libtheora</text>
<text y="895" x="1366" font-size="10" fill="#0000ff">cabextract</text>
<text y="1070" x="881" font-size="12" fill="#0000ff">xorg-docs</text>
<text y="933" x="1235" font-size="10" fill="#6a6aa2">attr</text>
<text y="961" x="1141" font-size="10" fill="#0000ff">pacman</text>
<text y="898" x="1149" font-size="10" fill="#0000ff">initscripts</text>
<text y="1218" x="1042" font-size="10" fill="#6a6aa2">hunspell</text>
<text y="847" x="755" font-size="10" fill="#0000ff">python2-gconf</text>
<text y="925" x="598" font-size="10" fill="#0000ff">autoconf</text>
<text y="1214" x="423" font-size="10" fill="#6a6aa2">libusbx</text>
<text y="814" x="679" font-size="10" fill="#6a6aa2">lib32-gcc-libs</text>
<text y="831" x="1353" font-size="10" fill="#0000ff">xf86-input-synaptics</text>
<text y="1071" x="1014" font-size="10" fill="#0000ff">usbutils</text>
<text y="1062" x="1111" font-size="11" fill="#0000ff">rtorrent</text>
<text y="1019" x="944" font-size="10" fill="#6a6aa2">mime-types</text>
<text y="1160" x="851" font-size="10" fill="#6a6aa2">curl</text>
<text y="851" x="635" font-size="10" fill="#0000ff">lib32-v4l-utils</text>
<text y="864" x="1070" font-size="10" fill="#0000ff">wmctrl</text>
<text y="743" x="846" font-size="10" fill="#6a6aa2">bzip2</text>
<text y="1008" x="1115" font-size="10" fill="#6a6aa2">inetutils</text>
<text y="1066" x="1212" font-size="10" fill="#0000ff">ncdu</text>
<text y="694" x="1028" font-size="13" fill="#0000ff">gettext</text>
<text y="1148" x="694" font-size="10" fill="#6a6aa2">libsasl</text>
<text y="980" x="1041" font-size="10" fill="#0000ff">apvlv</text>
<text y="937" x="746" font-size="10" fill="#6a6aa2">inputproto</text>
<text y="947" x="1497" font-size="10" fill="#6a6aa2">libldap</text>
<text y="768" x="949" font-size="10" fill="#6a6aa2">xorg-mkfontdir</text>
<text y="470" x="1145" font-size="10" fill="#0000ff">libtool</text>
<text y="1024" x="395" font-size="10" fill="#6a6aa2">libffi</text>
<text y="958" x="1360" font-size="10" fill="#6a6aa2">readline</text>
<text y="899" x="979" font-size="10" fill="#6a6aa2">lib32-expat</text>
<text y="845" x="1309" font-size="10" fill="#6a6aa2">diffutils</text>
<text y="986" x="1628" font-size="10" fill="#0000ff">xorg-twm</text>
<text y="1101" x="1464" font-size="10" fill="#6a6aa2">e2fsprogs</text>
<text y="1204" x="648" font-size="10" fill="#0000ff">offlineimap</text></g></svg>