<?xml version="1.0" encoding="UTF-8" standalone="no"?>
<!DOCTYPE svg PUBLIC "-//W3C//DTD SVG 1.0//EN" "http://www.w3.org/TR/SVG/DTD/svg10.dtd">
<svg width="2056" xmlns="http://www.w3.org/2000/svg" height="1479.0"><rect y="0" x="0" style="fill:#ffffff;" height="1479.0" width="2056"/><g style="stroke:#606060; stroke-opacity:0.15; fill:none;"><path d="M885,976 Q1004,1080 1124,823"/>
<path d="M1115,1092 Q800,1313 486,697"/>
<path d="M1115,1092 Q916,1204 717,612"/>
<path d="M1115,1092 Q1154,1204 1193,1175"/>
<path d="M1232,1092 Q1078,1207 924,1013"/>
<path d="M1232,1092 Q1186,1127 1140,884"/>
<path d="M1527,516 Q1517,524 1507,443"/>
<path d="M1527,516 Q1488,544 1450,474"/>
<path d="M1104,1069 Q1140,1146 1177,1125"/>
<path d="M1009,793 Q1248,987 1488,847"/>
<path d="M1009,793 Q1066,862 1124,823"/>
<path d="M1009,793 Q1040,816 1072,640"/>
<path d="M1009,793 Q1074,947 1140,884"/>
<path d="M1410,615 Q1118,930 827,777"/>
<path d="M1410,615 Q1216,840 1023,693"/>
<path d="M1410,615 Q1485,705 1560,651"/>
<path d="M1410,615 Q1392,721 1374,709"/>
<path d="M1276,766 Q1317,916 1359,889"/>
<path d="M1276,766 Q1200,888 1124,823"/>
<path d="M1276,766 Q1559,1206 1842,947"/>
<path d="M936,656 Q719,816 503,609"/>
<path d="M936,656 Q1304,1009 1673,689"/>
<path d="M936,656 Q1406,1225 1877,794"/>
<path d="M936,656 Q979,715 1023,693"/>
<path d="M936,656 Q1019,710 1103,525"/>
<path d="M936,656 Q833,798 731,717"/>
<path d="M936,656 Q1218,888 1501,579"/>
<path d="M936,656 Q927,1118 919,1114"/>
<path d="M936,656 Q733,869 531,698"/>
<path d="M1597,514 Q1550,567 1504,529"/>
<path d="M1157,947 Q1322,1045 1488,847"/>
<path d="M1157,947 Q1148,952 1140,884"/>
<path d="M1344,957 Q947,1167 550,527"/>
<path d="M1344,957 Q1150,1090 957,594"/>
<path d="M1014,660 Q999,779 985,765"/>
<path d="M1014,660 Q926,717 838,572"/>
<path d="M1014,660 Q1047,1030 1081,1007"/>
<path d="M1014,660 Q965,810 917,774"/>
<path d="M1014,660 Q1095,1180 1177,1125"/>
<path d="M1014,660 Q979,710 944,684"/>
<path d="M1014,660 Q939,726 864,682"/>
<path d="M1014,660 Q1251,995 1488,847"/>
<path d="M1014,660 Q945,765 876,713"/>
<path d="M1014,660 Q1230,1022 1446,859"/>
<path d="M1014,660 Q1069,875 1124,823"/>
<path d="M1014,660 Q967,714 921,674"/>
<path d="M1014,660 Q865,777 717,612"/>
<path d="M1014,660 Q765,912 516,678"/>
<path d="M1014,660 Q872,838 731,717"/>
<path d="M1014,660 Q766,897 519,712"/>
<path d="M1014,660 Q983,678 953,582"/>
<path d="M1014,660 Q958,707 902,617"/>
<path d="M1014,660 Q896,776 778,629"/>
<path d="M1014,660 Q1022,667 1030,538"/>
<path d="M1014,660 Q1014,660 1015,596"/>
<path d="M1014,660 Q940,733 866,582"/>
<path d="M1014,660 Q1066,832 1118,796"/>
<path d="M1014,660 Q1259,888 1504,682"/>
<path d="M1014,660 Q1054,693 1094,565"/>
<path d="M1014,660 Q1077,926 1140,884"/>
<path d="M1014,660 Q1084,728 1154,580"/>
<path d="M1014,660 Q1102,712 1191,594"/>
<path d="M1014,660 Q811,882 609,703"/>
<path d="M1014,660 Q1087,1076 1161,1023"/>
<path d="M1014,660 Q1018,696 1023,693"/>
<path d="M1014,660 Q1160,1099 1307,1021"/>
<path d="M1014,660 Q1055,711 1097,675"/>
<path d="M1014,660 Q949,771 885,725"/>
<path d="M1734,782 Q1671,862 1608,819"/>
<path d="M1734,782 Q1805,860 1877,794"/>
<path d="M1734,782 Q1610,1017 1487,898"/>
<path d="M1734,782 Q1651,826 1569,620"/>
<path d="M1734,782 Q1307,1435 881,1169"/>
<path d="M1734,782 Q1641,839 1548,736"/>
<path d="M1734,782 Q1740,828 1747,822"/>
<path d="M1024,1046 Q1316,1290 1608,819"/>
<path d="M1024,1046 Q1035,1215 1046,1205"/>
<path d="M1024,1046 Q1286,1200 1548,736"/>
<path d="M1024,1046 Q1069,1133 1115,1092"/>
<path d="M1024,1046 Q957,1206 891,1144"/>
<path d="M1024,1046 Q952,1238 881,1169"/>
<path d="M1024,1046 Q1082,1102 1140,884"/>
<path d="M1024,1046 Q974,1090 924,1013"/>
<path d="M948,896 Q893,931 838,572"/>
<path d="M948,896 Q1287,1103 1626,896"/>
<path d="M948,896 Q1036,978 1124,823"/>
<path d="M1417,935 Q1278,1006 1140,884"/>
<path d="M503,609 Q610,707 717,612"/>
<path d="M503,609 Q494,702 486,697"/>
<path d="M1050,1145 Q1113,1203 1177,562"/>
<path d="M1050,1145 Q998,1185 947,536"/>
<path d="M1050,1145 Q1392,1467 1734,782"/>
<path d="M1050,1145 Q1037,1157 1024,1046"/>
<path d="M1035,1268 Q1040,1271 1046,1205"/>
<path d="M1035,1268 Q769,1443 503,609"/>
<path d="M262,1150 Q768,1631 1274,784"/>
<path d="M904,745 Q1047,842 1191,594"/>
<path d="M904,745 Q1003,838 1103,525"/>
<path d="M904,745 Q1000,827 1097,675"/>
<path d="M904,745 Q1232,1027 1560,651"/>
<path d="M904,745 Q963,793 1023,693"/>
<path d="M921,674 Q868,866 815,829"/>
<path d="M921,674 Q879,701 838,572"/>
<path d="M509,638 Q906,1191 1303,907"/>
<path d="M509,638 Q762,857 1015,596"/>
<path d="M509,638 Q563,704 617,663"/>
<path d="M509,638 Q512,681 516,678"/>
<path d="M509,638 Q691,772 873,658"/>
<path d="M509,638 Q731,758 953,582"/>
<path d="M509,638 Q702,1208 895,1060"/>
<path d="M1331,933 Q1227,1001 1124,823"/>
<path d="M1331,933 Q1411,1001 1492,712"/>
<path d="M1331,933 Q1235,987 1140,884"/>
<path d="M1331,933 Q1170,1062 1009,793"/>
<path d="M1748,930 Q1388,1131 1028,928"/>
<path d="M1748,930 Q1795,973 1842,947"/>
<path d="M1748,930 Q1312,1307 876,713"/>
<path d="M1748,930 Q1319,1238 890,756"/>
<path d="M1748,930 Q1348,1293 948,896"/>
<path d="M1748,930 Q1511,1132 1274,784"/>
<path d="M1748,930 Q1620,998 1492,712"/>
<path d="M1748,930 Q1444,1216 1140,884"/>
<path d="M704,1279 Q922,1485 1140,884"/>
<path d="M637,720 Q769,812 902,617"/>
<path d="M637,720 Q744,984 851,926"/>
<path d="M637,720 Q674,939 711,913"/>
<path d="M637,720 Q1041,1236 1446,859"/>
<path d="M1072,640 Q1146,949 1220,878"/>
<path d="M1072,640 Q1106,913 1140,884"/>
<path d="M976,1103 Q731,1235 486,697"/>
<path d="M976,1103 Q830,1207 685,659"/>
<path d="M976,1103 Q1324,1304 1673,689"/>
<path d="M976,1103 Q1000,1118 1024,1046"/>
<path d="M1078,661 Q1050,708 1023,693"/>
<path d="M1773,611 Q1746,682 1720,666"/>
<path d="M1773,611 Q1713,831 1654,782"/>
<path d="M1450,474 Q1478,492 1507,443"/>
<path d="M1450,474 Q1077,964 705,701"/>
<path d="M1450,474 Q1477,544 1504,529"/>
<path d="M1044,1126 Q1248,1262 1452,696"/>
<path d="M1044,1126 Q1110,1187 1177,1125"/>
<path d="M1097,535 Q1144,620 1191,594"/>
<path d="M1097,535 Q1137,600 1177,562"/>
<path d="M838,572 Q1079,795 1320,561"/>
<path d="M838,572 Q981,1290 1125,1206"/>
<path d="M838,572 Q1183,1204 1528,993"/>
<path d="M838,572 Q1218,1030 1598,736"/>
<path d="M838,572 Q771,1322 704,1279"/>
<path d="M945,1043 Q984,1078 1024,1046"/>
<path d="M945,1043 Q1309,1333 1673,689"/>
<path d="M945,1043 Q995,1237 1046,1205"/>
<path d="M945,1043 Q1197,1264 1450,474"/>
<path d="M888,468 Q1167,1027 1446,859"/>
<path d="M1022,1110 Q815,1308 609,703"/>
<path d="M1022,1110 Q1023,1110 1024,1046"/>
<path d="M1022,1110 Q918,1189 815,829"/>
<path d="M1022,1110 Q1087,1155 1152,645"/>
<path d="M1022,1110 Q1274,1245 1527,1117"/>
<path d="M1022,1110 Q1314,1261 1606,722"/>
<path d="M1022,1110 Q1248,1322 1475,806"/>
<path d="M1022,1110 Q1099,1169 1177,1125"/>
<path d="M700,625 Q739,656 778,629"/>
<path d="M700,625 Q1155,1285 1611,854"/>
<path d="M917,774 Q970,826 1023,693"/>
<path d="M917,774 Q1002,843 1087,596"/>
<path d="M917,774 Q1102,971 1287,838"/>
<path d="M1877,794 Q1552,1325 1227,1017"/>
<path d="M1267,756 Q1078,870 890,756"/>
<path d="M1267,756 Q1195,865 1124,823"/>
<path d="M1267,756 Q1270,786 1274,784"/>
<path d="M1267,756 Q1287,1034 1307,1021"/>
<path d="M1267,756 Q1169,805 1072,640"/>
<path d="M1243,1055 Q1235,1061 1227,1017"/>
<path d="M1374,709 Q1610,1431 1847,1234"/>
<path d="M1374,709 Q1146,1293 919,1114"/>
<path d="M1374,709 Q1347,728 1320,561"/>
<path d="M1374,709 Q1210,1317 1046,1205"/>
<path d="M1374,709 Q1523,790 1673,689"/>
<path d="M1374,709 Q1303,1140 1232,1092"/>
<path d="M1374,709 Q1257,950 1140,884"/>
<path d="M1374,709 Q1367,771 1360,766"/>
<path d="M1374,709 Q1249,933 1124,823"/>
<path d="M1374,709 Q1340,1053 1307,1021"/>
<path d="M1374,709 Q1342,759 1311,738"/>
<path d="M1374,709 Q1345,725 1317,543"/>
<path d="M1374,709 Q1445,841 1516,774"/>
<path d="M1374,709 Q1380,714 1387,669"/>
<path d="M1225,930 Q1153,973 1081,792"/>
<path d="M1225,930 Q1174,972 1124,823"/>
<path d="M1225,930 Q1222,931 1220,878"/>
<path d="M1225,930 Q1176,956 1127,727"/>
<path d="M1225,930 Q1182,954 1140,884"/>
<path d="M1452,696 Q857,1585 262,1150"/>
<path d="M1452,696 Q1319,811 1187,734"/>
<path d="M1452,696 Q1133,993 815,829"/>
<path d="M1452,696 Q1471,706 1491,635"/>
<path d="M1452,696 Q1171,1390 891,1144"/>
<path d="M1452,696 Q1484,795 1516,774"/>
<path d="M1119,1037 Q1426,1221 1734,782"/>
<path d="M1119,1037 Q1071,1093 1024,1046"/>
<path d="M1119,1037 Q1155,1067 1191,594"/>
<path d="M902,617 Q980,671 1058,628"/>
<path d="M902,617 Q896,760 890,756"/>
<path d="M902,617 Q1013,896 1124,823"/>
<path d="M902,617 Q858,863 815,829"/>
<path d="M1103,525 Q1132,547 1162,482"/>
<path d="M1103,525 Q1336,743 1569,620"/>
<path d="M1103,525 Q1302,731 1501,579"/>
<path d="M1103,525 Q1147,619 1191,594"/>
<path d="M883,854 Q750,927 617,663"/>
<path d="M883,854 Q699,988 516,678"/>
<path d="M883,854 Q953,923 1023,693"/>
<path d="M883,854 Q966,1224 1050,1145"/>
<path d="M883,854 Q1340,1297 1798,981"/>
<path d="M883,854 Q990,918 1097,675"/>
<path d="M883,854 Q900,869 917,774"/>
<path d="M883,854 Q1037,991 1191,594"/>
<path d="M883,854 Q1001,1132 1119,1037"/>
<path d="M883,854 Q832,896 782,761"/>
<path d="M883,854 Q947,1211 1011,1158"/>
<path d="M481,1241 Q769,1522 1058,628"/>
<path d="M958,846 Q921,1001 885,976"/>
<path d="M958,846 Q1041,923 1124,823"/>
<path d="M958,846 Q888,1090 819,1050"/>
<path d="M958,846 Q935,945 913,923"/>
<path d="M873,658 Q1141,836 1410,615"/>
<path d="M873,658 Q895,785 917,774"/>
<path d="M1773,681 Q1146,1164 519,712"/>
<path d="M1773,681 Q1305,975 838,572"/>
<path d="M1773,681 Q1444,1274 1115,1092"/>
<path d="M1773,681 Q1723,731 1673,689"/>
<path d="M1773,681 Q1467,964 1162,482"/>
<path d="M706,549 Q711,617 717,612"/>
<path d="M815,829 Q853,1164 891,1144"/>
<path d="M815,829 Q760,880 705,701"/>
<path d="M815,829 Q833,943 851,926"/>
<path d="M815,829 Q954,1361 1094,1235"/>
<path d="M815,829 Q891,1244 968,1198"/>
<path d="M815,829 Q1151,1037 1488,847"/>
<path d="M815,829 Q538,1346 262,1150"/>
<path d="M815,829 Q969,964 1124,823"/>
<path d="M815,829 Q881,942 948,896"/>
<path d="M815,829 Q1044,1040 1274,784"/>
<path d="M1476,560 Q989,911 503,609"/>
<path d="M1476,560 Q1522,651 1569,620"/>
<path d="M1028,928 Q1140,1024 1252,966"/>
<path d="M1028,928 Q1076,974 1124,823"/>
<path d="M1028,928 Q1187,1073 1346,529"/>
<path d="M1028,928 Q1084,983 1140,884"/>
<path d="M1203,863 Q1163,885 1124,823"/>
<path d="M1203,863 Q1171,902 1140,884"/>
<path d="M1178,1044 Q1073,1288 968,1198"/>
<path d="M1178,1044 Q1333,1144 1488,847"/>
<path d="M1017,774 Q1070,857 1124,823"/>
<path d="M1017,774 Q1023,866 1029,862"/>
<path d="M976,834 Q1145,995 1315,673"/>
<path d="M976,834 Q1058,959 1140,884"/>
<path d="M1245,998 Q1425,1089 1606,722"/>
<path d="M1245,998 Q1276,1045 1307,1021"/>
<path d="M1094,1235 Q1070,1247 1046,1205"/>
<path d="M1094,1235 Q1184,1317 1274,784"/>
<path d="M1564,940 Q1135,1318 706,549"/>
<path d="M1564,940 Q1110,1293 657,560"/>
<path d="M1564,940 Q1121,1207 678,503"/>
<path d="M1564,940 Q1165,1255 767,642"/>
<path d="M1564,940 Q1525,961 1487,898"/>
<path d="M1564,940 Q1103,1178 642,641"/>
<path d="M1564,940 Q1136,1293 709,472"/>
<path d="M910,604 Q966,734 1023,693"/>
<path d="M910,604 Q923,668 936,656"/>
<path d="M910,604 Q1036,721 1162,482"/>
<path d="M1528,993 Q1687,1355 1847,1234"/>
<path d="M1222,1248 Q1191,1265 1161,1023"/>
<path d="M1222,1248 Q1199,1268 1177,1125"/>
<path d="M1222,1248 Q1089,1377 957,594"/>
<path d="M1222,1248 Q1349,1327 1476,560"/>
<path d="M1058,628 Q798,966 538,726"/>
<path d="M1058,628 Q1187,717 1317,543"/>
<path d="M1414,823 Q1430,872 1446,859"/>
<path d="M1554,952 Q1538,960 1523,917"/>
<path d="M741,535 Q789,608 838,572"/>
<path d="M805,722 Q662,809 519,712"/>
<path d="M805,722 Q914,801 1023,693"/>
<path d="M805,722 Q911,1058 1017,1005"/>
<path d="M947,1088 Q919,1158 891,1144"/>
<path d="M947,1088 Q1110,1193 1274,784"/>
<path d="M947,1088 Q1070,1324 1194,1204"/>
<path d="M947,1088 Q988,1119 1029,862"/>
<path d="M947,1088 Q985,1124 1024,1046"/>
<path d="M1729,651 Q1663,794 1598,736"/>
<path d="M1658,823 Q1656,824 1654,782"/>
<path d="M1658,823 Q1346,1491 1035,1268"/>
<path d="M685,659 Q1065,1071 1446,859"/>
<path d="M685,659 Q816,725 947,491"/>
<path d="M685,659 Q829,774 974,625"/>
<path d="M1023,693 Q985,717 947,536"/>
<path d="M1023,693 Q1055,712 1087,596"/>
<path d="M1023,693 Q1262,888 1501,579"/>
<path d="M1023,693 Q1296,953 1569,620"/>
<path d="M1023,693 Q981,732 940,513"/>
<path d="M1023,693 Q925,863 827,777"/>
<path d="M1023,693 Q780,915 538,726"/>
<path d="M1023,693 Q919,913 815,829"/>
<path d="M716,578 Q747,649 778,629"/>
<path d="M716,578 Q807,1152 899,1089"/>
<path d="M1177,963 Q1032,1080 888,468"/>
<path d="M1177,963 Q1150,978 1124,823"/>
<path d="M1177,963 Q1052,1261 928,1138"/>
<path d="M1177,963 Q1100,1121 1024,1046"/>
<path d="M1671,860 Q1467,1362 1264,1194"/>
<path d="M1671,860 Q1648,911 1626,896"/>
<path d="M1671,860 Q1341,1414 1011,1158"/>
<path d="M1671,860 Q1615,907 1560,651"/>
<path d="M1671,860 Q1395,1201 1119,1037"/>
<path d="M1108,774 Q1065,795 1023,693"/>
<path d="M1108,774 Q1105,775 1103,525"/>
<path d="M1332,975 Q1180,1115 1028,928"/>
<path d="M1332,975 Q1282,1129 1232,1092"/>
<path d="M1332,975 Q1168,1089 1004,908"/>
<path d="M1332,975 Q1170,1078 1009,793"/>
<path d="M1332,975 Q1280,1070 1229,1035"/>
<path d="M1118,796 Q984,1050 851,926"/>
<path d="M1118,796 Q1121,825 1124,823"/>
<path d="M1032,898 Q1078,937 1124,823"/>
<path d="M1032,898 Q1059,916 1087,596"/>
<path d="M1032,898 Q974,949 917,774"/>
<path d="M691,742 Q810,1122 929,1031"/>
<path d="M691,742 Q650,780 609,703"/>
<path d="M1056,716 Q849,895 642,641"/>
<path d="M1056,716 Q881,873 706,549"/>
<path d="M1056,716 Q856,898 657,560"/>
<path d="M1056,716 Q1200,1042 1344,957"/>
<path d="M1056,716 Q1035,734 1014,660"/>
<path d="M1056,716 Q927,822 798,610"/>
<path d="M1056,716 Q911,810 767,642"/>
<path d="M1056,716 Q1332,870 1609,578"/>
<path d="M1053,964 Q1040,972 1028,928"/>
<path d="M1053,964 Q778,1183 503,609"/>
<path d="M1053,964 Q1393,1175 1734,782"/>
<path d="M1053,964 Q1038,1057 1024,1046"/>
<path d="M1053,964 Q1000,1006 948,896"/>
<path d="M1053,964 Q988,1074 924,1013"/>
<path d="M997,862 Q1302,1062 1608,819"/>
<path d="M997,862 Q1060,918 1124,823"/>
<path d="M1081,792 Q1110,899 1140,884"/>
<path d="M863,841 Q910,882 958,846"/>
<path d="M1174,852 Q1149,867 1124,823"/>
<path d="M1427,1126 Q1477,1155 1527,1117"/>
<path d="M1427,1126 Q1457,1155 1488,847"/>
<path d="M1427,1126 Q1410,1173 1394,1164"/>
<path d="M1427,1126 Q1433,1168 1439,1165"/>
<path d="M1427,1126 Q1329,1199 1232,1092"/>
<path d="M1427,1126 Q1310,1312 1194,1204"/>
<path d="M1427,1126 Q1367,1182 1307,1021"/>
<path d="M1004,908 Q1064,965 1124,823"/>
<path d="M1245,193 Q1284,213 1323,149"/>
<path d="M895,1060 Q1093,1213 1292,708"/>
<path d="M895,1060 Q1084,1217 1274,784"/>
<path d="M895,1060 Q994,1158 1093,853"/>
<path d="M895,1060 Q1009,1161 1124,823"/>
<path d="M895,1060 Q857,1092 819,1050"/>
<path d="M895,1060 Q911,1147 928,1138"/>
<path d="M895,1060 Q1153,1230 1412,545"/>
<path d="M895,1060 Q851,1099 808,915"/>
<path d="M895,1060 Q855,1085 815,829"/>
<path d="M895,1060 Q969,1131 1044,772"/>
<path d="M895,1060 Q1065,1180 1236,682"/>
<path d="M895,1060 Q959,1101 1024,1046"/>
<path d="M895,1060 Q1017,1127 1140,884"/>
<path d="M895,1060 Q1116,1250 1337,778"/>
<path d="M538,726 Q731,1188 924,1013"/>
<path d="M1025,565 Q1056,616 1087,596"/>
<path d="M1025,565 Q1018,746 1011,742"/>
<path d="M531,698 Q716,860 902,617"/>
<path d="M531,698 Q777,880 1023,679"/>
<path d="M1501,579 Q1169,760 838,572"/>
<path d="M1501,579 Q1002,917 503,609"/>
<path d="M1501,579 Q1535,637 1569,620"/>
<path d="M716,731 Q623,818 531,698"/>
<path d="M716,731 Q909,835 1103,525"/>
<path d="M716,731 Q826,830 936,656"/>
<path d="M1608,819 Q1677,861 1747,822"/>
<path d="M1608,819 Q1374,1054 1140,884"/>
<path d="M633,581 Q735,669 838,572"/>
<path d="M633,581 Q1120,1185 1608,819"/>
<path d="M633,581 Q897,1239 1161,1023"/>
<path d="M633,581 Q748,747 864,682"/>
<path d="M633,581 Q1054,819 1476,560"/>
<path d="M633,581 Q675,640 717,612"/>
<path d="M1251,1155 Q1040,1338 829,553"/>
<path d="M1251,1155 Q1146,1219 1041,1084"/>
<path d="M1251,1155 Q1187,1205 1124,823"/>
<path d="M1251,1155 Q1279,1172 1307,1021"/>
<path d="M1251,1155 Q1165,1295 1079,1221"/>
<path d="M1251,1155 Q1154,1206 1058,628"/>
<path d="M1251,1155 Q1334,1222 1417,935"/>
<path d="M1251,1155 Q866,1504 481,1241"/>
<path d="M1251,1155 Q1428,1296 1606,722"/>
<path d="M1251,1155 Q1075,1274 899,1089"/>
<path d="M1251,1155 Q1295,1189 1340,827"/>
<path d="M1251,1155 Q1214,1177 1177,1125"/>
<path d="M1139,615 Q1131,826 1124,823"/>
<path d="M1139,615 Q922,906 705,701"/>
<path d="M1139,615 Q1057,885 976,834"/>
<path d="M944,1070 Q936,1075 929,1031"/>
<path d="M1281,983 Q1085,1157 890,756"/>
<path d="M1097,675 Q1328,835 1560,651"/>
<path d="M1097,675 Q1022,739 947,536"/>
<path d="M1097,675 Q1352,993 1608,819"/>
<path d="M1097,675 Q1060,720 1023,693"/>
<path d="M1097,675 Q1057,1043 1017,1005"/>
<path d="M1097,675 Q1108,1044 1119,1037"/>
<path d="M891,1144 Q1115,1265 1340,827"/>
<path d="M1560,651 Q1373,838 1187,734"/>
<path d="M1560,651 Q1138,944 717,612"/>
<path d="M1094,565 Q1109,830 1124,823"/>
<path d="M1094,565 Q678,1537 262,1150"/>
<path d="M1140,884 Q1189,927 1238,813"/>
<path d="M1140,884 Q1180,918 1220,878"/>
<path d="M1140,884 Q1225,964 1311,738"/>
<path d="M1720,666 Q1733,829 1747,822"/>
<path d="M1720,666 Q1383,1423 1046,1205"/>
<path d="M1720,666 Q1497,991 1274,784"/>
<path d="M1720,666 Q1618,832 1516,774"/>
<path d="M1720,666 Q1176,991 633,581"/>
<path d="M1065,874 Q1102,904 1140,884"/>
<path d="M329,1166 Q358,1244 387,1219"/>
<path d="M329,1166 Q407,1213 486,697"/>
<path d="M329,1166 Q753,1437 1177,1125"/>
<path d="M1203,991 Q1115,1063 1028,928"/>
<path d="M1203,991 Q990,1130 778,629"/>
<path d="M1203,991 Q1295,1097 1388,1021"/>
<path d="M1307,1021 Q1279,1040 1252,966"/>
<path d="M1307,1021 Q1242,1078 1178,1044"/>
<path d="M1307,1021 Q1096,1211 885,976"/>
<path d="M1307,1021 Q1459,1110 1611,854"/>
<path d="M1307,1021 Q1045,1199 784,488"/>
<path d="M1307,1021 Q1165,1138 1024,1046"/>
<path d="M1307,1021 Q1006,1257 705,701"/>
<path d="M1307,1021 Q1319,1029 1332,975"/>
<path d="M1307,1021 Q1267,1050 1227,1017"/>
<path d="M1307,1021 Q1268,1067 1229,1035"/>
<path d="M1307,1021 Q1333,1039 1360,766"/>
<path d="M1307,1021 Q1255,1049 1203,991"/>
<path d="M1307,1021 Q1294,1031 1281,983"/>
<path d="M1307,1021 Q1303,1068 1299,1066"/>
<path d="M1307,1021 Q1213,1101 1120,545"/>
<path d="M1307,1021 Q1113,1228 919,1114"/>
<path d="M1120,545 Q1304,951 1488,847"/>
<path d="M1120,545 Q1157,1232 1194,1204"/>
<path d="M1120,545 Q1083,1231 1046,1205"/>
<path d="M1120,545 Q1266,626 1412,545"/>
<path d="M1503,929 Q1090,1256 678,503"/>
<path d="M1503,929 Q1104,1302 706,549"/>
<path d="M1503,929 Q1106,1172 709,472"/>
<path d="M1322,495 Q1148,783 974,625"/>
<path d="M1093,853 Q950,1005 808,915"/>
<path d="M1093,853 Q1116,902 1140,884"/>
<path d="M1138,1081 Q1109,1099 1081,1007"/>
<path d="M1138,1081 Q1158,1091 1178,1044"/>
<path d="M1138,1081 Q1139,1081 1140,884"/>
<path d="M1138,1081 Q1129,1086 1120,545"/>
<path d="M1103,696 Q1063,719 1023,693"/>
<path d="M881,1169 Q854,1190 827,777"/>
<path d="M881,1169 Q963,1254 1046,1205"/>
<path d="M968,1198 Q1054,1256 1140,884"/>
<path d="M731,717 Q961,920 1191,594"/>
<path d="M731,717 Q1304,1107 1877,794"/>
<path d="M731,717 Q946,893 1162,482"/>
<path d="M731,717 Q1150,1079 1569,620"/>
<path d="M953,582 Q1060,832 1168,746"/>
<path d="M953,582 Q1065,654 1177,562"/>
<path d="M953,582 Q950,584 947,536"/>
<path d="M953,582 Q988,714 1023,693"/>
<path d="M953,582 Q985,1025 1017,1005"/>
<path d="M953,582 Q1001,1171 1050,1145"/>
<path d="M953,582 Q986,1005 1019,981"/>
<path d="M1611,854 Q1549,950 1487,898"/>
<path d="M709,472 Q882,859 1056,716"/>
<path d="M709,472 Q713,614 717,612"/>
<path d="M810,691 Q794,706 778,629"/>
<path d="M810,691 Q975,1011 1140,884"/>
<path d="M1352,680 Q1238,894 1124,823"/>
<path d="M1352,680 Q1246,949 1140,884"/>
<path d="M1180,926 Q848,1111 516,678"/>
<path d="M1180,926 Q1152,948 1124,823"/>
<path d="M1180,926 Q1095,998 1011,742"/>
<path d="M642,641 Q679,672 717,612"/>
<path d="M1128,562 Q1139,612 1151,605"/>
<path d="M1128,562 Q1009,819 890,756"/>
<path d="M1128,562 Q1180,1125 1232,1092"/>
<path d="M1159,785 Q1141,839 1124,823"/>
<path d="M1168,746 Q1127,781 1087,596"/>
<path d="M1168,746 Q1089,814 1011,742"/>
<path d="M1190,605 Q1235,676 1280,635"/>
<path d="M903,959 Q1162,1119 1422,847"/>
<path d="M903,959 Q1003,1049 1103,525"/>
<path d="M903,959 Q914,967 926,878"/>
<path d="M1340,827 Q1199,963 1058,628"/>
<path d="M1340,827 Q1413,938 1487,898"/>
<path d="M1523,917 Q1273,1114 1023,693"/>
<path d="M1125,1206 Q1436,1367 1747,822"/>
<path d="M1125,1206 Q1132,1210 1140,884"/>
<path d="M1062,923 Q1093,943 1124,823"/>
<path d="M1062,923 Q1101,955 1140,884"/>
<path d="M890,756 Q1072,914 1254,744"/>
<path d="M890,756 Q1007,898 1124,823"/>
<path d="M890,756 Q1103,920 1317,543"/>
<path d="M890,756 Q907,1022 924,1013"/>
<path d="M890,756 Q949,846 1009,793"/>
<path d="M1330,814 Q1408,956 1487,898"/>
<path d="M1330,814 Q1193,894 1056,716"/>
<path d="M1330,814 Q940,1023 550,527"/>
<path d="M1330,814 Q1143,944 957,594"/>
<path d="M1330,814 Q1362,937 1394,917"/>
<path d="M751,800 Q849,864 947,536"/>
<path d="M751,800 Q817,911 883,854"/>
<path d="M751,800 Q834,842 917,774"/>
<path d="M1315,673 Q1219,904 1124,823"/>
<path d="M1315,673 Q1227,930 1140,884"/>
<path d="M1573,844 Q1530,920 1487,898"/>
<path d="M948,712 Q1235,1136 1523,917"/>
<path d="M948,712 Q985,741 1023,693"/>
<path d="M948,712 Q1022,767 1097,675"/>
<path d="M948,712 Q1254,905 1560,651"/>
<path d="M948,712 Q1025,783 1103,525"/>
<path d="M948,712 Q1055,782 1162,482"/>
<path d="M1322,54 Q1184,1278 1046,1205"/>
<path d="M1322,54 Q1242,549 1162,482"/>
<path d="M738,667 Q939,985 1140,884"/>
<path d="M1021,706 Q1080,931 1140,884"/>
<path d="M1504,529 Q1561,853 1618,804"/>
<path d="M1504,529 Q1637,830 1771,745"/>
<path d="M1504,529 Q1402,627 1300,514"/>
<path d="M1504,529 Q1539,562 1574,545"/>
<path d="M947,536 Q1043,948 1140,884"/>
<path d="M1087,596 Q1030,679 974,625"/>
<path d="M1284,648 Q994,961 705,701"/>
<path d="M1284,648 Q1212,944 1140,884"/>
<path d="M1524,734 Q1604,799 1684,702"/>
<path d="M1524,734 Q1250,1091 976,834"/>
<path d="M1524,734 Q1324,964 1124,823"/>
<path d="M1524,734 Q1169,1124 815,829"/>
<path d="M1524,734 Q1520,777 1516,774"/>
<path d="M1524,734 Q1214,1208 904,997"/>
<path d="M516,678 Q677,784 838,572"/>
<path d="M516,678 Q855,1489 1194,1204"/>
<path d="M516,678 Q763,908 1011,742"/>
<path d="M516,678 Q765,914 1015,596"/>
<path d="M516,678 Q1008,1091 1501,579"/>
<path d="M717,612 Q1162,1123 1608,819"/>
<path d="M717,612 Q955,1394 1194,1204"/>
<path d="M717,612 Q1102,1190 1487,898"/>
<path d="M1320,561 Q1230,931 1140,884"/>
<path d="M1044,772 Q1190,906 1337,778"/>
<path d="M1044,772 Q1084,859 1124,823"/>
<path d="M1280,635 Q1258,700 1236,682"/>
<path d="M1280,635 Q1313,664 1346,529"/>
<path d="M1280,635 Q1354,698 1429,598"/>
<path d="M1280,635 Q1308,803 1337,778"/>
<path d="M1280,635 Q1150,816 1021,706"/>
<path d="M1280,635 Q1246,667 1213,616"/>
<path d="M1280,635 Q1216,681 1152,645"/>
<path d="M1280,635 Q1265,645 1251,556"/>
<path d="M1280,635 Q905,1007 531,698"/>
<path d="M1280,635 Q1154,931 1029,862"/>
<path d="M1280,635 Q1087,1229 895,1060"/>
<path d="M957,594 Q1222,1056 1488,847"/>
<path d="M957,594 Q837,699 717,612"/>
<path d="M957,594 Q1048,949 1140,884"/>
<path d="M609,703 Q498,1328 387,1219"/>
<path d="M609,703 Q845,1216 1081,1007"/>
<path d="M609,703 Q1113,1110 1618,804"/>
<path d="M609,703 Q657,729 705,701"/>
<path d="M609,703 Q1091,1133 1573,844"/>
<path d="M609,703 Q648,725 688,691"/>
<path d="M609,703 Q560,747 512,652"/>
<path d="M609,703 Q864,1286 1120,1048"/>
<path d="M609,703 Q573,756 538,726"/>
<path d="M609,703 Q663,745 717,612"/>
<path d="M609,703 Q562,732 516,678"/>
<path d="M609,703 Q613,706 617,663"/>
<path d="M609,703 Q1027,1167 1446,859"/>
<path d="M609,703 Q564,737 519,712"/>
<path d="M609,703 Q941,1010 1274,784"/>
<path d="M609,703 Q570,735 531,698"/>
<path d="M609,703 Q864,1171 1119,1037"/>
<path d="M1103,863 Q1113,872 1124,823"/>
<path d="M1030,581 Q1066,603 1103,525"/>
<path d="M1030,581 Q983,699 936,656"/>
<path d="M1030,581 Q1096,627 1162,482"/>
<path d="M1030,581 Q1026,695 1023,693"/>
<path d="M1127,727 Q1133,887 1140,884"/>
<path d="M885,725 Q957,772 1030,538"/>
<path d="M885,725 Q761,793 637,720"/>
<path d="M885,725 Q1001,869 1118,796"/>
<path d="M1079,1221 Q1176,1288 1274,784"/>
<path d="M1079,1221 Q1341,1463 1604,534"/>
<path d="M1079,1221 Q1128,1253 1177,1125"/>
<path d="M1609,578 Q1327,1446 1046,1205"/>
<path d="M1609,578 Q1589,638 1569,620"/>
<path d="M1609,578 Q1163,981 717,612"/>
<path d="M1040,884 Q1082,921 1124,823"/>
<path d="M1040,884 Q1090,916 1140,884"/>
<path d="M1303,907 Q1213,986 1124,823"/>
<path d="M1303,907 Q1159,1026 1015,596"/>
<path d="M1303,907 Q1157,993 1011,742"/>
<path d="M1255,721 Q980,905 705,701"/>
<path d="M1255,721 Q1138,798 1021,706"/>
<path d="M1255,721 Q1074,855 894,633"/>
<path d="M1255,721 Q1245,729 1236,682"/>
<path d="M1255,721 Q1197,933 1140,884"/>
<path d="M1255,721 Q1333,763 1412,545"/>
<path d="M1389,558 Q1374,903 1359,889"/>
<path d="M1389,558 Q1353,591 1317,543"/>
<path d="M1389,558 Q1403,942 1417,935"/>
<path d="M1200,807 Q1162,850 1124,823"/>
<path d="M1162,482 Q824,1015 486,697"/>
<path d="M929,699 Q976,739 1023,693"/>
<path d="M1287,838 Q1205,884 1124,823"/>
<path d="M1287,838 Q1187,913 1087,596"/>
<path d="M1292,708 Q1208,873 1124,823"/>
<path d="M929,1031 Q969,1068 1010,481"/>
<path d="M929,1031 Q883,1072 838,572"/>
<path d="M929,1031 Q1045,1109 1161,1023"/>
<path d="M929,1031 Q1026,1080 1124,823"/>
<path d="M929,1031 Q976,1087 1024,1046"/>
<path d="M929,1031 Q872,1068 815,829"/>
<path d="M929,1031 Q943,1040 958,846"/>
<path d="M808,915 Q1246,1193 1684,702"/>
<path d="M966,725 Q994,743 1023,693"/>
<path d="M876,713 Q897,1131 919,1114"/>
<path d="M519,712 Q511,717 503,609"/>
<path d="M519,712 Q673,899 827,777"/>
<path d="M519,712 Q1063,1152 1608,819"/>
<path d="M519,712 Q667,932 815,829"/>
<path d="M519,712 Q817,1332 1115,1092"/>
<path d="M519,712 Q713,978 908,811"/>
<path d="M519,712 Q786,1171 1053,964"/>
<path d="M519,712 Q829,1097 1140,884"/>
<path d="M519,712 Q1044,1050 1569,620"/>
<path d="M774,589 Q1000,1183 1227,1017"/>
<path d="M1422,847 Q1015,1121 609,703"/>
<path d="M1422,847 Q1463,886 1504,529"/>
<path d="M1422,847 Q1287,922 1152,645"/>
<path d="M1422,847 Q1454,926 1487,898"/>
<path d="M1422,847 Q1281,999 1140,884"/>
<path d="M1417,993 Q1472,1032 1528,993"/>
<path d="M782,1034 Q905,1145 1028,928"/>
<path d="M782,1034 Q865,1087 948,896"/>
<path d="M782,1034 Q893,1139 1004,908"/>
<path d="M782,1034 Q1137,1223 1492,712"/>
<path d="M782,1034 Q892,1270 1002,1173"/>
<path d="M1673,689 Q1195,987 717,612"/>
<path d="M702,673 Q740,695 778,629"/>
<path d="M702,673 Q865,1022 1029,862"/>
<path d="M1604,534 Q1586,631 1569,620"/>
<path d="M1604,534 Q1606,820 1608,819"/>
<path d="M1604,534 Q1528,767 1452,696"/>
<path d="M1604,534 Q1669,840 1734,782"/>
<path d="M1492,712 Q1588,794 1684,702"/>
<path d="M1492,712 Q1153,1065 815,829"/>
<path d="M1492,712 Q1489,899 1487,898"/>
<path d="M1492,712 Q1504,785 1516,774"/>
<path d="M1492,712 Q1250,1011 1009,793"/>
<path d="M1261,571 Q1226,625 1191,594"/>
<path d="M1219,828 Q1171,856 1124,823"/>
<path d="M782,761 Q649,884 516,678"/>
<path d="M782,761 Q1141,1000 1501,579"/>
<path d="M782,761 Q986,954 1191,594"/>
<path d="M782,761 Q896,833 1011,742"/>
<path d="M1065,860 Q1094,878 1124,823"/>
<path d="M1065,860 Q1102,916 1140,884"/>
<path d="M657,560 Q687,638 717,612"/>
<path d="M387,1219 Q612,1387 838,572"/>
<path d="M387,1219 Q324,1256 262,1150"/>
<path d="M387,1219 Q434,1279 481,1241"/>
<path d="M387,1219 Q907,1649 1427,1126"/>
<path d="M387,1219 Q782,1496 1177,1125"/>
<path d="M1618,804 Q1552,941 1487,898"/>
<path d="M1618,804 Q1371,1354 1125,1206"/>
<path d="M1618,804 Q1332,1366 1046,1205"/>
<path d="M1618,804 Q1747,905 1877,794"/>
<path d="M1618,804 Q1593,827 1569,620"/>
<path d="M1236,682 Q1188,913 1140,884"/>
<path d="M1236,682 Q1264,727 1292,708"/>
<path d="M1236,682 Q1294,712 1352,680"/>
<path d="M1236,682 Q1180,876 1124,823"/>
<path d="M1236,682 Q1154,755 1072,640"/>
<path d="M1236,682 Q1178,714 1120,545"/>
<path d="M1236,682 Q1276,715 1317,543"/>
<path d="M1236,682 Q1260,705 1284,648"/>
<path d="M1236,682 Q1526,1236 1817,1061"/>
<path d="M1236,682 Q1238,684 1241,543"/>
<path d="M1236,682 Q1275,709 1315,673"/>
<path d="M512,652 Q707,791 902,617"/>
<path d="M512,652 Q574,761 637,720"/>
<path d="M512,652 Q816,1231 1120,1048"/>
<path d="M512,652 Q675,806 838,572"/>
<path d="M512,652 Q718,1209 924,1013"/>
<path d="M512,652 Q519,658 526,570"/>
<path d="M919,1114 Q943,1217 968,1198"/>
<path d="M919,1114 Q1326,1506 1734,782"/>
<path d="M919,1114 Q995,1190 1072,640"/>
<path d="M919,1114 Q1246,1379 1573,844"/>
<path d="M778,629 Q803,654 829,553"/>
<path d="M778,629 Q833,672 888,468"/>
<path d="M778,629 Q836,665 894,633"/>
<path d="M778,629 Q714,667 651,608"/>
<path d="M778,629 Q788,678 799,668"/>
<path d="M778,629 Q1055,1249 1332,975"/>
<path d="M778,629 Q893,863 1009,793"/>
<path d="M778,629 Q873,1269 968,1198"/>
<path d="M778,629 Q1188,1122 1598,736"/>
<path d="M778,629 Q758,683 738,667"/>
<path d="M778,629 Q951,977 1124,823"/>
<path d="M778,629 Q818,652 858,621"/>
<path d="M778,629 Q1057,1012 1337,778"/>
<path d="M778,629 Q796,844 815,829"/>
<path d="M778,629 Q1038,1263 1299,1066"/>
<path d="M778,629 Q1115,1003 1452,696"/>
<path d="M778,629 Q776,630 774,589"/>
<path d="M1120,1048 Q1089,1065 1058,507"/>
<path d="M1120,1048 Q1092,1066 1065,860"/>
<path d="M1120,1048 Q1427,1311 1734,782"/>
<path d="M1120,1048 Q1072,1080 1024,1046"/>
<path d="M1120,1048 Q1310,1150 1501,579"/>
<path d="M1120,1048 Q1155,1072 1191,594"/>
<path d="M908,811 Q1047,939 1187,734"/>
<path d="M908,811 Q1198,1047 1488,847"/>
<path d="M908,811 Q932,832 957,594"/>
<path d="M908,811 Q911,813 915,562"/>
<path d="M908,811 Q924,819 940,513"/>
<path d="M908,811 Q861,868 815,829"/>
<path d="M940,640 Q981,728 1023,693"/>
<path d="M940,640 Q1021,685 1103,525"/>
<path d="M940,640 Q1040,937 1140,884"/>
<path d="M855,525 Q842,563 829,553"/>
<path d="M855,525 Q939,744 1023,693"/>
<path d="M855,525 Q979,620 1103,525"/>
<path d="M947,491 Q1196,1090 1446,859"/>
<path d="M899,1089 Q1011,1177 1124,823"/>
<path d="M899,1089 Q961,1137 1024,1046"/>
<path d="M1220,761 Q1342,862 1465,651"/>
<path d="M1220,761 Q1199,1055 1178,1044"/>
<path d="M1220,761 Q1323,1191 1427,1126"/>
<path d="M1220,761 Q1336,870 1452,696"/>
<path d="M1220,761 Q1117,818 1014,660"/>
<path d="M1220,761 Q1150,1050 1081,1007"/>
<path d="M1220,761 Q1319,832 1419,629"/>
<path d="M1220,761 Q1043,927 866,582"/>
<path d="M1220,761 Q1064,910 908,811"/>
<path d="M1220,761 Q1518,1304 1817,1061"/>
<path d="M1220,761 Q1084,972 948,896"/>
<path d="M1220,761 Q954,991 688,691"/>
<path d="M1220,761 Q1223,1019 1227,1017"/>
<path d="M1220,761 Q1347,870 1475,806"/>
<path d="M1220,761 Q885,1085 550,527"/>
<path d="M1220,761 Q1042,857 864,682"/>
<path d="M1220,761 Q1368,850 1516,774"/>
<path d="M1220,761 Q1198,1144 1177,1125"/>
<path d="M1220,761 Q1256,794 1292,708"/>
<path d="M1220,761 Q1374,1115 1528,993"/>
<path d="M1220,761 Q1285,896 1351,839"/>
<path d="M1220,761 Q1088,876 957,594"/>
<path d="M1220,761 Q861,1113 503,609"/>
<path d="M1220,761 Q866,1008 512,652"/>
<path d="M1220,761 Q1172,856 1124,823"/>
<path d="M1220,761 Q1170,803 1120,545"/>
<path d="M1220,761 Q1124,925 1029,862"/>
<path d="M1220,761 Q869,1031 519,712"/>
<path d="M1220,761 Q1271,804 1323,149"/>
<path d="M1220,761 Q962,1487 704,1279"/>
<path d="M1220,761 Q1064,847 908,547"/>
<path d="M1095,579 Q981,1173 868,1112"/>
<path d="M1095,579 Q1017,640 940,513"/>
<path d="M1095,579 Q1001,878 908,811"/>
<path d="M1095,579 Q1334,1072 1573,844"/>
<path d="M1095,579 Q1059,722 1023,693"/>
<path d="M678,503 Q867,845 1056,716"/>
<path d="M678,503 Q697,627 717,612"/>
<path d="M1011,742 Q932,963 853,902"/>
<path d="M1011,742 Q992,757 974,625"/>
<path d="M1011,742 Q1070,798 1130,686"/>
<path d="M1011,742 Q932,864 854,792"/>
<path d="M1191,594 Q1049,948 908,811"/>
<path d="M1191,594 Q1432,843 1673,689"/>
<path d="M1191,594 Q1107,746 1023,693"/>
<path d="M1191,594 Q1053,713 915,562"/>
<path d="M1191,594 Q1108,648 1025,565"/>
<path d="M828,659 Q803,681 778,629"/>
<path d="M1194,1204 Q1120,1274 1046,1205"/>
<path d="M1194,1204 Q1126,1240 1058,628"/>
<path d="M1194,1204 Q1059,1332 924,1013"/>
<path d="M1152,645 Q1385,1028 1618,804"/>
<path d="M1152,645 Q1116,1035 1081,1007"/>
<path d="M1152,645 Q1237,716 1322,495"/>
<path d="M1152,645 Q1084,1048 1017,1005"/>
<path d="M1152,645 Q1119,664 1087,596"/>
<path d="M1152,645 Q920,920 688,691"/>
<path d="M1152,645 Q1151,645 1151,605"/>
<path d="M1152,645 Q1320,951 1488,847"/>
<path d="M1152,645 Q1136,1060 1120,1048"/>
<path d="M1152,645 Q934,815 717,612"/>
<path d="M1152,645 Q1087,738 1023,679"/>
<path d="M1152,645 Q1105,668 1058,628"/>
<path d="M1152,645 Q884,814 617,663"/>
<path d="M1152,645 Q835,948 519,712"/>
<path d="M1152,645 Q1135,1052 1119,1037"/>
<path d="M1152,645 Q880,840 609,703"/>
<path d="M1152,645 Q1105,680 1058,507"/>
<path d="M1152,645 Q968,740 784,488"/>
<path d="M1152,645 Q1285,758 1419,629"/>
<path d="M1152,645 Q1281,946 1410,837"/>
<path d="M1152,645 Q1141,694 1130,686"/>
<path d="M1152,645 Q1160,750 1168,746"/>
<path d="M1152,645 Q1063,717 974,625"/>
<path d="M1152,645 Q1049,708 947,491"/>
<path d="M1152,645 Q1054,714 957,594"/>
<path d="M1152,645 Q1081,796 1011,742"/>
<path d="M1152,645 Q1124,689 1097,675"/>
<path d="M1152,645 Q1115,665 1079,457"/>
<path d="M1152,645 Q1088,703 1025,565"/>
<path d="M1152,645 Q1213,830 1274,784"/>
<path d="M1152,645 Q841,987 531,698"/>
<path d="M944,684 Q842,750 741,535"/>
<path d="M944,684 Q861,750 778,629"/>
<path d="M944,684 Q974,925 1004,908"/>
<path d="M944,684 Q1114,800 1284,648"/>
<path d="M944,684 Q1129,802 1315,673"/>
<path d="M944,684 Q946,897 948,896"/>
<path d="M1569,620 Q1571,845 1573,844"/>
<path d="M1569,620 Q1454,916 1340,827"/>
<path d="M1806,1022 Q1667,1097 1528,993"/>
<path d="M1806,1022 Q1802,1025 1798,981"/>
<path d="M1806,1022 Q1811,1064 1817,1061"/>
<path d="M1806,1022 Q1626,1184 1446,859"/>
<path d="M1806,1022 Q1168,1584 531,698"/>
<path d="M1806,1022 Q1647,1136 1488,847"/>
<path d="M1806,1022 Q1770,1057 1734,782"/>
<path d="M1002,1173 Q908,1252 815,829"/>
<path d="M1002,1173 Q1030,1194 1058,628"/>
<path d="M1002,1173 Q1138,1263 1274,784"/>
<path d="M1002,1173 Q1247,1334 1492,712"/>
<path d="M1002,1173 Q1024,1224 1046,1205"/>
<path d="M1094,733 Q1109,835 1124,823"/>
<path d="M1094,733 Q1117,902 1140,884"/>
<path d="M915,562 Q992,1159 1069,1105"/>
<path d="M915,562 Q1079,1190 1243,1055"/>
<path d="M915,562 Q936,612 957,594"/>
<path d="M1317,543 Q1364,583 1412,545"/>
<path d="M1317,543 Q1011,982 705,701"/>
<path d="M1019,981 Q1103,1036 1187,734"/>
<path d="M1019,981 Q1098,1027 1177,562"/>
<path d="M1019,981 Q983,1005 947,536"/>
<path d="M1019,981 Q1376,1194 1734,782"/>
<path d="M1019,981 Q1021,1048 1024,1046"/>
<path d="M1019,981 Q767,1120 516,678"/>
<path d="M1019,981 Q1015,984 1011,742"/>
<path d="M648,596 Q682,643 717,612"/>
<path d="M648,596 Q1104,1099 1560,651"/>
<path d="M648,596 Q875,712 1103,525"/>
<path d="M648,596 Q905,808 1162,482"/>
<path d="M648,596 Q872,832 1097,675"/>
<path d="M1029,862 Q929,920 829,553"/>
<path d="M1029,862 Q1076,898 1124,823"/>
<path d="M1029,862 Q1174,964 1320,561"/>
<path d="M1029,862 Q1173,1000 1317,543"/>
<path d="M1029,862 Q1002,882 976,834"/>
<path d="M1359,889 Q1348,896 1337,778"/>
<path d="M1359,889 Q1241,983 1124,823"/>
<path d="M1359,889 Q1339,901 1320,561"/>
<path d="M1771,745 Q1672,941 1573,844"/>
<path d="M1771,745 Q1752,795 1734,782"/>
<path d="M908,547 Q922,663 936,656"/>
<path d="M908,547 Q1049,728 1191,594"/>
<path d="M1410,837 Q1300,930 1191,594"/>
<path d="M1410,837 Q1448,925 1487,898"/>
<path d="M1213,795 Q1168,846 1124,823"/>
<path d="M1247,918 Q1225,1005 1203,991"/>
<path d="M1247,918 Q1185,968 1124,823"/>
<path d="M1247,918 Q1260,930 1274,784"/>
<path d="M974,625 Q960,632 947,491"/>
<path d="M974,625 Q1049,883 1124,823"/>
<path d="M974,625 Q1026,673 1079,457"/>
<path d="M974,625 Q1052,756 1130,686"/>
<path d="M1193,840 Q1158,858 1124,823"/>
<path d="M1193,840 Q1166,900 1140,884"/>
<path d="M1015,596 Q1069,861 1124,823"/>
<path d="M1015,596 Q1013,743 1011,742"/>
<path d="M1241,543 Q1279,566 1317,543"/>
<path d="M1241,543 Q1149,714 1058,628"/>
<path d="M1241,543 Q1131,813 1021,706"/>
<path d="M1241,543 Q1190,927 1140,884"/>
<path d="M1506,829 Q1476,878 1446,859"/>
<path d="M985,765 Q1007,776 1030,538"/>
<path d="M985,765 Q748,945 512,652"/>
<path d="M985,765 Q1051,835 1118,796"/>
<path d="M1478,203 Q1400,275 1323,149"/>
<path d="M1046,1205 Q1327,1460 1608,819"/>
<path d="M1046,1205 Q1309,1369 1573,844"/>
<path d="M1046,1205 Q1085,1238 1125,1206"/>
<path d="M1798,981 Q1350,1363 902,617"/>
<path d="M1798,981 Q1428,1207 1058,507"/>
<path d="M1798,981 Q1459,1344 1120,1048"/>
<path d="M1798,981 Q1494,1270 1191,594"/>
<path d="M1491,635 Q988,988 486,697"/>
<path d="M1491,635 Q1159,983 827,777"/>
<path d="M1491,635 Q1382,874 1274,784"/>
<path d="M1491,635 Q1530,657 1569,620"/>
<path d="M711,913 Q799,992 888,468"/>
<path d="M711,913 Q763,953 815,829"/>
<path d="M992,607 Q1021,1162 1050,1145"/>
<path d="M992,607 Q1005,994 1019,981"/>
<path d="M992,607 Q1091,690 1191,594"/>
<path d="M992,607 Q1044,715 1097,675"/>
<path d="M1504,682 Q1389,852 1274,784"/>
<path d="M1504,682 Q1230,933 957,594"/>
<path d="M1504,682 Q1556,862 1608,819"/>
<path d="M1504,682 Q1314,1007 1124,823"/>
<path d="M1504,682 Q1497,686 1491,635"/>
<path d="M1504,682 Q1264,1184 1024,1046"/>
<path d="M1504,682 Q995,1115 486,697"/>
<path d="M1504,682 Q1619,890 1734,782"/>
<path d="M1504,682 Q1532,706 1560,651"/>
<path d="M1504,682 Q1510,777 1516,774"/>
<path d="M1264,1194 Q1257,1200 1251,1155"/>
<path d="M1264,1194 Q1225,1229 1187,734"/>
<path d="M926,878 Q974,926 1023,693"/>
<path d="M926,878 Q1023,1123 1120,1048"/>
<path d="M926,878 Q1014,950 1103,525"/>
<path d="M926,878 Q971,1042 1017,1005"/>
<path d="M926,878 Q974,912 1023,679"/>
<path d="M926,878 Q1022,1103 1119,1037"/>
<path d="M926,878 Q1025,972 1124,823"/>
<path d="M926,878 Q854,941 782,761"/>
<path d="M926,878 Q968,1180 1011,1158"/>
<path d="M1842,947 Q1483,1134 1124,823"/>
<path d="M1842,947 Q1370,1340 899,1089"/>
<path d="M1842,947 Q1491,1124 1140,884"/>
<path d="M1056,758 Q1090,853 1124,823"/>
<path d="M1429,598 Q1228,1030 1028,928"/>
<path d="M1429,598 Q1225,1211 1022,1110"/>
<path d="M1429,598 Q1431,599 1434,558"/>
<path d="M1429,598 Q1311,1295 1194,1204"/>
<path d="M1429,598 Q1374,652 1320,561"/>
<path d="M1429,598 Q1067,932 705,701"/>
<path d="M1429,598 Q1202,1300 976,1103"/>
<path d="M1429,598 Q1623,1212 1817,1061"/>
<path d="M1429,598 Q1330,1150 1232,1092"/>
<path d="M1429,598 Q1517,796 1606,722"/>
<path d="M1487,898 Q1487,898 1488,847"/>
<path d="M1487,898 Q1466,913 1446,859"/>
<path d="M1626,896 Q1232,1096 838,572"/>
<path d="M1626,896 Q1471,1043 1317,543"/>
<path d="M1626,896 Q1577,1032 1528,993"/>
<path d="M1626,896 Q1383,1092 1140,884"/>
<path d="M596,558 Q687,695 778,629"/>
<path d="M596,558 Q1078,1083 1560,651"/>
<path d="M596,558 Q573,575 550,527"/>
<path d="M596,558 Q879,817 1162,482"/>
<path d="M1058,728 Q1045,910 1032,898"/>
<path d="M1058,728 Q1117,768 1177,562"/>
<path d="M1058,728 Q1201,1093 1344,957"/>
<path d="M1058,728 Q1040,739 1023,693"/>
<path d="M1058,728 Q1076,743 1095,579"/>
<path d="M1058,728 Q1040,739 1023,679"/>
<path d="M1058,728 Q1038,999 1019,981"/>
<path d="M1058,728 Q1172,925 1287,838"/>
<path d="M705,701 Q922,1067 1140,884"/>
<path d="M798,610 Q757,634 717,612"/>
<path d="M767,642 Q742,666 717,612"/>
<path d="M1082,991 Q1209,1061 1337,778"/>
<path d="M1082,991 Q1070,998 1058,628"/>
<path d="M1082,991 Q1055,1008 1029,862"/>
<path d="M1082,991 Q1111,1006 1140,884"/>
<path d="M1082,991 Q1247,1147 1412,545"/>
<path d="M1177,1125 Q1512,1417 1847,1234"/>
<path d="M1177,1125 Q1048,1245 919,1114"/>
<path d="M1177,1125 Q1185,1210 1194,1204"/>
<path d="M1177,1125 Q1390,1242 1604,534"/>
<path d="M1177,1125 Q1100,1186 1024,1046"/>
<path d="M1177,1125 Q829,1449 481,1241"/>
<path d="M1177,1125 Q1308,1291 1439,1165"/>
<path d="M1177,1125 Q1204,1152 1232,1092"/>
<path d="M1177,1125 Q1346,1211 1516,774"/>
<path d="M1177,1125 Q1332,1262 1488,847"/>
<path d="M1177,1125 Q1188,1135 1200,1069"/>
<path d="M1177,1125 Q1242,1177 1307,1021"/>
<path d="M1177,1125 Q1148,1179 1120,1156"/>
<path d="M1177,1125 Q1123,1163 1069,1105"/>
<path d="M1312,860 Q1172,985 1032,898"/>
<path d="M1312,860 Q1328,968 1344,957"/>
<path d="M1312,860 Q1218,936 1124,823"/>
<path d="M1312,860 Q1014,1152 717,612"/>
<path d="M1312,860 Q1417,1011 1523,917"/>
<path d="M1312,860 Q1307,910 1303,907"/>
<path d="M1312,860 Q1163,1002 1015,596"/>
<path d="M1312,860 Q1407,990 1503,929"/>
<path d="M1312,860 Q1154,950 997,862"/>
<path d="M1312,860 Q1438,1062 1564,940"/>
<path d="M1312,860 Q1184,975 1056,716"/>
<path d="M1312,860 Q1402,938 1492,712"/>
<path d="M1312,860 Q1103,1194 895,1060"/>
<path d="M1312,860 Q1299,868 1287,838"/>
<path d="M759,569 Q798,603 838,572"/>
<path d="M1323,149 Q1219,1184 1115,1092"/>
<path d="M1323,149 Q1223,892 1124,823"/>
<path d="M1323,149 Q978,767 633,581"/>
<path d="M1323,149 Q1322,149 1322,54"/>
<path d="M904,997 Q1014,1078 1124,823"/>
<path d="M904,997 Q1089,1101 1274,784"/>
<path d="M1041,1084 Q1246,1225 1452,696"/>
<path d="M1041,1084 Q1157,1147 1274,784"/>
<path d="M1041,1084 Q1387,1357 1734,782"/>
<path d="M1041,1084 Q1032,1090 1024,1046"/>
<path d="M894,633 Q1015,1084 1137,1008"/>
<path d="M1654,782 Q1631,837 1608,819"/>
<path d="M1654,782 Q1338,1413 1022,1110"/>
<path d="M1654,782 Q1694,807 1734,782"/>
<path d="M1229,890 Q1176,924 1124,823"/>
<path d="M1516,774 Q1567,848 1618,804"/>
<path d="M1516,774 Q1594,833 1673,689"/>
<path d="M1516,774 Q1177,954 838,572"/>
<path d="M1516,774 Q1625,887 1734,782"/>
<path d="M1516,774 Q1544,865 1573,844"/>
<path d="M1516,774 Q1328,986 1140,884"/>
<path d="M1516,774 Q1557,811 1598,736"/>
<path d="M1516,774 Q1320,939 1124,823"/>
<path d="M1516,774 Q1532,785 1548,736"/>
<path d="M1516,774 Q1428,894 1340,827"/>
<path d="M1516,774 Q1562,852 1608,819"/>
<path d="M1516,774 Q1395,844 1274,784"/>
<path d="M1444,726 Q1409,759 1374,709"/>
<path d="M526,570 Q797,1265 1069,1105"/>
<path d="M1124,823 Q981,947 838,572"/>
<path d="M1124,823 Q1204,878 1284,648"/>
<path d="M1124,823 Q1178,1135 1232,1092"/>
<path d="M1124,823 Q1087,861 1050,842"/>
<path d="M1124,823 Q1102,842 1081,792"/>
<path d="M1124,823 Q1159,1234 1194,1204"/>
<path d="M1124,823 Q1346,974 1569,620"/>
<path d="M1124,823 Q1270,1036 1417,935"/>
<path d="M1124,823 Q1189,875 1254,744"/>
<path d="M1124,823 Q1091,855 1058,804"/>
<path d="M1124,823 Q1125,824 1127,727"/>
<path d="M1124,823 Q1238,916 1352,800"/>
<path d="M1124,823 Q1130,1014 1137,1008"/>
<path d="M1124,823 Q1470,1391 1817,1061"/>
<path d="M1124,823 Q1306,978 1488,847"/>
<path d="M1124,823 Q1285,995 1446,859"/>
<path d="M1124,823 Q966,1017 808,915"/>
<path d="M1124,823 Q1220,899 1317,543"/>
<path d="M1124,823 Q1326,1188 1528,993"/>
<path d="M1124,823 Q1098,838 1072,640"/>
<path d="M1124,823 Q1132,888 1140,884"/>
<path d="M1124,823 Q1072,857 1021,706"/>
<path d="M1023,679 Q1073,866 1124,823"/>
<path d="M784,488 Q757,512 731,434"/>
<path d="M617,663 Q439,1261 262,1150"/>
<path d="M617,663 Q904,908 1191,594"/>
<path d="M1223,701 Q1085,772 947,536"/>
<path d="M1223,701 Q1123,759 1023,693"/>
<path d="M1223,701 Q1053,981 883,854"/>
<path d="M1695,629 Q1266,915 838,572"/>
<path d="M1695,629 Q1605,821 1516,774"/>
<path d="M1179,722 Q1151,843 1124,823"/>
<path d="M1179,722 Q1243,1082 1307,1021"/>
<path d="M1187,734 Q1316,930 1446,859"/>
<path d="M1161,1023 Q1241,1098 1322,495"/>
<path d="M1161,1023 Q994,1142 827,777"/>
<path d="M1161,1023 Q1092,1090 1024,1046"/>
<path d="M1161,1023 Q1103,1261 1046,1205"/>
<path d="M1161,1023 Q1138,1106 1115,1092"/>
<path d="M1161,1023 Q1331,1133 1501,579"/>
<path d="M1161,1023 Q1365,1213 1569,620"/>
<path d="M1161,1023 Q832,1263 503,609"/>
<path d="M1161,1023 Q1142,1036 1124,823"/>
<path d="M1161,1023 Q1305,1108 1450,474"/>
<path d="M1161,1023 Q988,1157 815,829"/>
<path d="M1161,1023 Q1034,1106 908,811"/>
<path d="M868,1112 Q996,1210 1124,823"/>
<path d="M868,1112 Q1218,1354 1569,620"/>
<path d="M868,1112 Q1055,1289 1243,1055"/>
<path d="M868,1112 Q946,1156 1024,1046"/>
<path d="M1274,784 Q880,994 486,697"/>
<path d="M1274,784 Q1050,972 827,777"/>
<path d="M1274,784 Q1441,928 1608,819"/>
<path d="M1274,784 Q1160,1302 1046,1205"/>
<path d="M1274,784 Q1331,837 1388,644"/>
<path d="M1274,784 Q1307,853 1340,827"/>
<path d="M1274,784 Q1230,812 1187,734"/>
<path d="M1274,784 Q1411,891 1548,736"/>
<path d="M1274,784 Q1423,967 1573,844"/>
<path d="M1274,784 Q1099,1185 924,1013"/>
<path d="M1059,613 Q1041,703 1023,693"/>
<path d="M1081,1007 Q792,1247 503,609"/>
<path d="M1081,1007 Q1013,1097 945,1043"/>
<path d="M1081,1007 Q954,1100 827,777"/>
<path d="M1081,1007 Q1121,1048 1161,1023"/>
<path d="M1081,1007 Q1052,1065 1024,1046"/>
<path d="M1081,1007 Q1063,1219 1046,1205"/>
<path d="M1081,1007 Q994,1061 908,811"/>
<path d="M1081,1007 Q1103,1227 1125,1206"/>
<path d="M1081,1007 Q1067,1015 1053,964"/>
<path d="M1081,1007 Q1278,1129 1476,560"/>
<path d="M1017,1005 Q1375,1252 1734,782"/>
<path d="M1017,1005 Q1020,1048 1024,1046"/>
<path d="M688,691 Q924,1243 1161,1023"/>
<path d="M688,691 Q1128,954 1569,620"/>
<path d="M1475,806 Q1462,817 1450,474"/>
<path d="M1475,806 Q1676,1005 1877,794"/>
<path d="M1475,806 Q1299,933 1124,823"/>
<path d="M1475,806 Q1481,902 1487,898"/>
<path d="M1475,806 Q1307,973 1140,884"/>
<path d="M1151,605 Q1212,820 1274,784"/>
<path d="M1151,605 Q994,708 838,572"/>
<path d="M1151,605 Q1255,828 1360,766"/>
<path d="M1151,605 Q1251,758 1352,680"/>
<path d="M1151,605 Q901,791 651,608"/>
<path d="M1360,766 Q1293,1080 1227,1017"/>
<path d="M1360,766 Q1277,1258 1194,1204"/>
<path d="M1011,1158 Q1038,1182 1065,874"/>
<path d="M1011,1158 Q1127,1247 1243,1055"/>
<path d="M1011,1158 Q1017,1162 1024,1046"/>
<path d="M1011,1158 Q1372,1493 1734,782"/>
<path d="M1011,1158 Q1101,1240 1191,594"/>
<path d="M1269,600 Q1230,635 1191,594"/>
<path d="M1419,629 Q1196,740 974,625"/>
<path d="M1419,629 Q1101,829 784,488"/>
<path d="M1030,538 Q922,890 815,829"/>
<path d="M866,582 Q852,594 838,572"/>
<path d="M866,582 Q820,618 774,589"/>
<path d="M866,582 Q840,849 815,829"/>
<path d="M866,582 Q1003,1019 1140,884"/>
<path d="M1154,580 Q1092,619 1030,538"/>
<path d="M1154,580 Q1136,813 1118,796"/>
<path d="M1351,839 Q1094,967 838,572"/>
<path d="M1351,839 Q1291,1150 1232,1092"/>
<path d="M1351,839 Q1147,969 944,684"/>
<path d="M1351,839 Q1237,899 1124,823"/>
<path d="M1351,839 Q1245,984 1140,884"/>
<path d="M1351,839 Q1362,846 1374,709"/>
<path d="M1254,744 Q1333,808 1412,545"/>
<path d="M1156,712 Q1140,834 1124,823"/>
<path d="M1156,712 Q1082,833 1009,793"/>
<path d="M1156,712 Q1191,1045 1227,1017"/>
<path d="M1156,712 Q1148,890 1140,884"/>
<path d="M1156,712 Q1138,721 1120,545"/>
<path d="M1337,778 Q1344,785 1352,680"/>
<path d="M1337,778 Q1230,905 1124,823"/>
<path d="M1337,778 Q1327,785 1317,543"/>
<path d="M1337,778 Q1204,864 1072,640"/>
<path d="M1337,778 Q1238,974 1140,884"/>
<path d="M1337,778 Q1310,792 1284,648"/>
<path d="M1487,543 Q1189,1422 891,1144"/>
<path d="M1487,543 Q1545,596 1604,534"/>
<path d="M1255,1081 Q1189,1120 1124,823"/>
<path d="M1255,1081 Q1139,1181 1024,1046"/>
<path d="M1079,457 Q958,635 838,572"/>
<path d="M1387,946 Q1255,1065 1124,823"/>
<path d="M1387,946 Q1592,1111 1798,981"/>
<path d="M918,1202 Q1086,1301 1255,1081"/>
<path d="M918,1202 Q923,1204 928,1138"/>
<path d="M1465,651 Q1151,920 838,572"/>
<path d="M1465,651 Q1580,713 1695,629"/>
<path d="M1465,651 Q1458,699 1452,696"/>
<path d="M1465,651 Q1346,1080 1227,1017"/>
<path d="M1465,651 Q1386,1061 1307,1021"/>
<path d="M1227,1017 Q1207,1036 1187,734"/>
<path d="M1227,1017 Q966,1267 705,701"/>
<path d="M1010,481 Q1166,573 1322,495"/>
<path d="M1010,481 Q1044,512 1079,457"/>
<path d="M1179,765 Q1141,796 1103,525"/>
<path d="M1179,765 Q1226,818 1274,784"/>
<path d="M1488,847 Q1096,1492 704,1279"/>
<path d="M1388,644 Q1113,852 838,572"/>
<path d="M1388,644 Q1264,998 1140,884"/>
<path d="M1388,644 Q1400,652 1412,545"/>
<path d="M1229,1035 Q1331,1117 1434,558"/>
<path d="M1434,558 Q1231,1040 1028,928"/>
<path d="M1434,558 Q1082,900 731,434"/>
<path d="M1434,558 Q1162,1317 891,1144"/>
<path d="M1434,558 Q1221,975 1009,793"/>
<path d="M1434,558 Q1390,597 1346,529"/>
<path d="M1394,917 Q1225,1040 1056,716"/>
<path d="M1394,917 Q1440,942 1487,898"/>
<path d="M1394,917 Q1267,1012 1140,884"/>
<path d="M1466,1022 Q1221,1252 976,1103"/>
<path d="M1466,1022 Q1295,1179 1124,823"/>
<path d="M1466,1022 Q1303,1119 1140,884"/>
<path d="M1466,1022 Q1497,1050 1528,993"/>
<path d="M1439,1165 Q1643,1350 1847,1234"/>
<path d="M1439,1165 Q1179,1372 919,1114"/>
<path d="M1439,1165 Q1281,1252 1124,823"/>
<path d="M1439,1165 Q1356,1208 1274,784"/>
<path d="M1606,722 Q1217,1041 829,553"/>
<path d="M1606,722 Q1349,1058 1093,853"/>
<path d="M1606,722 Q1192,1032 778,629"/>
<path d="M1606,722 Q1529,762 1452,696"/>
<path d="M1606,722 Q1277,1143 948,896"/>
<path d="M1606,722 Q1561,805 1516,774"/>
<path d="M1606,722 Q1307,1068 1009,793"/>
<path d="M1606,722 Q1373,1066 1140,884"/>
<path d="M1606,722 Q1365,1025 1124,823"/>
<path d="M1606,722 Q1645,757 1684,728"/>
<path d="M1606,722 Q1241,1060 876,713"/>
<path d="M1606,722 Q1210,1079 815,829"/>
<path d="M1606,722 Q1443,1113 1281,983"/>
<path d="M1130,686 Q1162,1226 1194,1204"/>
<path d="M1137,1008 Q1178,1043 1220,878"/>
<path d="M1137,1008 Q1138,1009 1140,884"/>
<path d="M1116,485 Q1109,529 1103,525"/>
<path d="M1346,529 Q1243,975 1140,884"/>
<path d="M1346,529 Q1349,802 1352,800"/></g><g font-family="Monospace"><text y="926" x="838" font-size="10" fill="#6a6aa2">flac</text>
<text y="976" x="863" font-size="10" fill="#0000ff">iputils</text>
<text y="1092" x="1109" font-size="10" fill="#6a6aa2">gd</text>
<text y="1092" x="1219" font-size="10" fill="#6a6aa2">gdbm</text>
<text y="516" x="1511" font-size="10" fill="#0000ff">rhino</text>
<text y="1069" x="1047" font-size="11" fill="#0000ff">python2-docutils</text>
<text y="793" x="990" font-size="12" fill="#6a6aa2">gpgme</text>
<text y="615" x="1358" font-size="10" fill="#0000ff">urxvt-url-select</text>
<text y="902" x="782" font-size="17" fill="#0000ff">lib32-ati-dri</text>
<text y="766" x="1244" font-size="10" fill="#0000ff">pptpclient</text>
<text y="513" x="921" font-size="10" fill="#6a6aa2">giflib</text>
<text y="656" x="920" font-size="10" fill="#6a6aa2">libxt</text>
<text y="514" x="1581" font-size="10" fill="#0000ff">junit</text>
<text y="1061" x="1804" font-size="10" fill="#6a6aa2">file</text>
<text y="947" x="1141" font-size="10" fill="#0000ff">unzip</text>
<text y="957" x="1318" font-size="10" fill="#6a6aa2">libxfont</text>
<text y="660" x="982" font-size="33" fill="#0000ff">vlc</text>
<text y="782" x="1703" font-size="24" fill="#6a6aa2">gtk2</text>
<text y="1046" x="974" font-size="39" fill="#6a6aa2">gtk3</text>
<text y="896" x="927" font-size="11" fill="#6a6aa2">gnutls</text>
<text y="935" x="1398" font-size="10" fill="#6a6aa2">dhcpcd</text>
<text y="609" x="425" font-size="22" fill="#6a6aa2">ghostscript</text>
<text y="1069" x="1162" font-size="13" fill="#0000ff">mercurial</text>
<text y="1145" x="1008" font-size="10" fill="#6a6aa2">libxcomposite</text>
<text y="807" x="988" font-size="10" fill="#0000ff">licenses</text>
<text y="1268" x="1003" font-size="10" fill="#6a6aa2">libspectre</text>
<text y="1150" x="169" font-size="16" fill="#6a6aa2">gstreamer0.10-base</text>
<text y="745" x="865" font-size="10" fill="#0000ff">xorg-x11perf</text>
<text y="674" x="895" font-size="10" fill="#6a6aa2">libproxy</text>
<text y="638" x="457" font-size="10" fill="#0000ff">xf86-video-intel</text>
<text y="933" x="1292" font-size="10" fill="#6a6aa2">libgpg-error</text>
<text y="930" x="1639" font-size="26" fill="#0000ff">wireshark-cli</text>
<text y="923" x="874" font-size="10" fill="#0000ff">cpufrequtils</text>
<text y="1279" x="613" font-size="56" fill="#0000ff">boost</text>
<text y="804" x="1045" font-size="10" fill="#0000ff">acpi</text>
<text y="720" x="605" font-size="10" fill="#6a6aa2">libsndfile</text>
<text y="640" x="1059" font-size="10" fill="#6a6aa2">gawk</text>
<text y="1105" x="1050" font-size="10" fill="#0000ff">archey</text>
<text y="1103" x="954" font-size="10" fill="#6a6aa2">libltdl</text>
<text y="661" x="1059" font-size="10" fill="#0000ff">wmname</text>
<text y="611" x="1712" font-size="10" fill="#0000ff">zathura-pdf-poppler</text>
<text y="474" x="1225" font-size="33" fill="#6a6aa2">jre7-openjdk-headless</text>
<text y="1126" x="986" font-size="10" fill="#0000ff">python2-feedparser</text>
<text y="535" x="1068" font-size="10" fill="#6a6aa2">xextproto</text>
<text y="572" x="812" font-size="10" fill="#6a6aa2">gcc-libs</text>
<text y="1043" x="929" font-size="10" fill="#6a6aa2">lcms2</text>
<text y="468" x="853" font-size="11" fill="#0000ff">alsa-utils</text>
<text y="1110" x="1003" font-size="10" fill="#6a6aa2">sqlite</text>
<text y="625" x="687" font-size="10" fill="#0000ff">tmux</text>
<text y="774" x="896" font-size="11" fill="#6a6aa2">libxcb</text>
<text y="794" x="1824" font-size="15" fill="#0000ff">flashplugin</text>
<text y="756" x="1238" font-size="10" fill="#0000ff">syslog-ng</text>
<text y="1055" x="1234" font-size="10" fill="#0000ff">feh</text>
<text y="709" x="1343" font-size="24" fill="#6a6aa2">perl</text>
<text y="930" x="1219" font-size="10" fill="#6a6aa2">m4</text>
<text y="696" x="1423" font-size="13" fill="#6a6aa2">libxml2</text>
<text y="1037" x="1090" font-size="10" fill="#6a6aa2">libxrandr</text>
<text y="617" x="876" font-size="10" fill="#6a6aa2">libpulse</text>
<text y="525" x="1084" font-size="10" fill="#6a6aa2">libxmu</text>
<text y="854" x="851" font-size="10" fill="#0000ff">xorg-utils</text>
<text y="1241" x="446" font-size="10" fill="#6a6aa2">dbus-python</text>
<text y="846" x="926" font-size="10" fill="#6a6aa2">sysfsutils</text>
<text y="658" x="847" font-size="10" fill="#6a6aa2">xcb-util</text>
<text y="792" x="806" font-size="10" fill="#0000ff">lib32-intel-dri</text>
<text y="681" x="1742" font-size="12" fill="#0000ff">pstoedit</text>
<text y="549" x="664" font-size="10" fill="#0000ff">terminus-font</text>
<text y="829" x="697" font-size="14" fill="#0000ff">gstreamer0.10-good-plugins</text>
<text y="560" x="1463" font-size="10" fill="#6a6aa2">lcms</text>
<text y="928" x="1014" font-size="11" fill="#6a6aa2">krb5</text>
<text y="863" x="1177" font-size="10" fill="#0000ff">iptables</text>
<text y="1044" x="1161" font-size="11" fill="#0000ff">links</text>
<text y="774" x="1004" font-size="10" fill="#0000ff">sudo</text>
<text y="736" x="1539" font-size="10" fill="#6a6aa2">atk</text>
<text y="834" x="947" font-size="10" fill="#0000ff">logrotate</text>
<text y="998" x="1229" font-size="10" fill="#0000ff">socat</text>
<text y="1235" x="1013" font-size="10" fill="#6a6aa2">gsettings-desktop-schemas</text>
<text y="940" x="1499" font-size="10" fill="#6a6aa2">xorg-fonts-encodings</text>
<text y="604" x="868" font-size="10" fill="#0000ff">xorg-xkbutils</text>
<text y="993" x="1489" font-size="41" fill="#6a6aa2">gcc</text>
<text y="1248" x="1168" font-size="14" fill="#0000ff">uniconvertor</text>
<text y="859" x="1420" font-size="10" fill="#6a6aa2">alsa-lib</text>
<text y="628" x="1029" font-size="10" fill="#6a6aa2">dbus-core</text>
<text y="823" x="1388" font-size="10" fill="#0000ff">alsa-oss</text>
<text y="952" x="1519" font-size="10" fill="#0000ff">xorg-xkbevd</text>
<text y="535" x="725" font-size="10" fill="#0000ff">gperf</text>
<text y="722" x="757" font-size="10" fill="#0000ff">xorg-xcursorgen</text>
<text y="1088" x="928" font-size="10" fill="#6a6aa2">polkit</text>
<text y="651" x="1697" font-size="11" fill="#0000ff">aspell-en</text>
<text y="823" x="1626" font-size="10" fill="#0000ff">zathura-ps</text>
<text y="659" x="646" font-size="10" fill="#0000ff">lib32-mpg123</text>
<text y="693" x="996" font-size="14" fill="#6a6aa2">libx11</text>
<text y="578" x="690" font-size="10" fill="#0000ff">powertop</text>
<text y="1175" x="1167" font-size="10" fill="#0000ff">fswebcam</text>
<text y="963" x="1151" font-size="10" fill="#6a6aa2">pciutils</text>
<text y="860" x="1652" font-size="10" fill="#0000ff">xmobar</text>
<text y="813" x="1222" font-size="10" fill="#0000ff">acpid</text>
<text y="1138" x="912" font-size="10" fill="#6a6aa2">hwids</text>
<text y="545" x="1565" font-size="10" fill="#0000ff">jna</text>
<text y="774" x="1076" font-size="10" fill="#0000ff">xorg-xkill</text>
<text y="668" x="786" font-size="10" fill="#0000ff">htop</text>
<text y="975" x="1318" font-size="11" fill="#0000ff">mutt</text>
<text y="796" x="1099" font-size="10" fill="#6a6aa2">libogg</text>
<text y="898" x="1006" font-size="10" fill="#6a6aa2">libxdmcp</text>
<text y="742" x="669" font-size="10" fill="#0000ff">v4l2ucp</text>
<text y="716" x="1008" font-size="10" fill="#6a6aa2">xorg-font-utils</text>
<text y="964" x="1031" font-size="10" fill="#6a6aa2">libcups</text>
<text y="862" x="978" font-size="10" fill="#6a6aa2">pixman</text>
<text y="792" x="1068" font-size="10" fill="#0000ff">flex</text>
<text y="841" x="808" font-size="10" fill="#0000ff">xf86-input-acecad</text>
<text y="852" x="1113" font-size="10" fill="#0000ff">xf86-input-keyboard</text>
<text y="1126" x="1369" font-size="30" fill="#6a6aa2">python</text>
<text y="908" x="985" font-size="10" fill="#6a6aa2">libidn</text>
<text y="193" x="1169" font-size="13" fill="#0000ff">texlive-publishers</text>
<text y="682" x="838" font-size="10" fill="#6a6aa2">openjpeg</text>
<text y="556" x="1209" font-size="10" fill="#0000ff">reiserfsprogs</text>
<text y="1060" x="853" font-size="10" fill="#6a6aa2">systemd-tools</text>
<text y="736" x="1579" font-size="10" fill="#6a6aa2">aspell</text>
<text y="726" x="525" font-size="10" fill="#6a6aa2">dbus</text>
<text y="565" x="983" font-size="10" fill="#6a6aa2">lib32-libxext</text>
<text y="698" x="515" font-size="10" fill="#6a6aa2">libsm</text>
<text y="579" x="1476" font-size="13" fill="#6a6aa2">jasper</text>
<text y="731" x="677" font-size="10" fill="#0000ff">xorg-smproxy</text>
<text y="819" x="1592" font-size="10" fill="#6a6aa2">cairo</text>
<text y="581" x="602" font-size="14" fill="#6a6aa2">poppler</text>
<text y="1155" x="1237" font-size="11" fill="#0000ff">wicd</text>
<text y="615" x="1110" font-size="10" fill="#6a6aa2">run-parts</text>
<text y="1070" x="902" font-size="10" fill="#0000ff">vloopback-svn</text>
<text y="983" x="1272" font-size="10" fill="#0000ff">ntp</text>
<text y="675" x="1065" font-size="10" fill="#6a6aa2">libxrender</text>
<text y="1144" x="874" font-size="11" fill="#6a6aa2">gconf</text>
<text y="651" x="1541" font-size="10" fill="#6a6aa2">libxft</text>
<text y="565" x="1085" font-size="10" fill="#6a6aa2">orc</text>
<text y="884" x="1127" font-size="10" fill="#6a6aa2">bash</text>
<text y="666" x="1681" font-size="10" fill="#6a6aa2">poppler-glib</text>
<text y="874" x="1049" font-size="10" fill="#0000ff">dmenu</text>
<text y="1166" x="274" font-size="10" fill="#6a6aa2">python2-pyparsing</text>
<text y="46" x="0" font-size="55" fill="#0000ff">3458MB</text>
<text y="991" x="1178" font-size="11" fill="#6a6aa2">openssh</text>
<text y="1021" x="1278" font-size="13" fill="#6a6aa2">openssl</text>
<text y="545" x="1088" font-size="10" fill="#6a6aa2">libarchive</text>
<text y="929" x="1451" font-size="10" fill="#6a6aa2">xorg-fonts-alias</text>
<text y="616" x="1187" font-size="10" fill="#0000ff">jfsutils</text>
<text y="702" x="1652" font-size="10" fill="#0000ff">cryptsetup</text>
<text y="495" x="1261" font-size="10" fill="#6a6aa2">lib32-libjpeg-turbo</text>
<text y="853" x="1080" font-size="10" fill="#0000ff">lvm2</text>
<text y="1081" x="1132" font-size="10" fill="#6a6aa2">xz</text>
<text y="696" x="1074" font-size="10" fill="#0000ff">xorg-xwud</text>
<text y="1169" x="813" font-size="10" fill="#6a6aa2">gtk-update-icon-cache</text>
<text y="1198" x="959" font-size="10" fill="#6a6aa2">gpm</text>
<text y="443" x="1475" font-size="10" fill="#6a6aa2">java-rhino</text>
<text y="717" x="712" font-size="10" fill="#6a6aa2">libxpm</text>
<text y="582" x="924" font-size="10" fill="#6a6aa2">libxfixes</text>
<text y="1234" x="1638" font-size="46" fill="#0000ff">clang-analyzer</text>
<text y="777" x="788" font-size="11" fill="#6a6aa2">gdk-pixbuf2</text>
<text y="854" x="1585" font-size="10" fill="#6a6aa2">libevent</text>
<text y="950" x="953" font-size="21" fill="#0000ff">linux-headers</text>
<text y="472" x="632" font-size="14" fill="#0000ff">xorg-fonts-100dpi</text>
<text y="691" x="784" font-size="10" fill="#0000ff">pm-utils</text>
<text y="680" x="1339" font-size="10" fill="#6a6aa2">grep</text>
<text y="926" x="1154" font-size="10" fill="#6a6aa2">libglapi</text>
<text y="641" x="600" font-size="11" fill="#0000ff">ttf-ms-fonts</text>
<text y="562" x="1118" font-size="11" fill="#0000ff">zsh</text>
<text y="785" x="1107" font-size="10" fill="#0000ff">xf86-input-mouse</text>
<text y="746" x="1120" font-size="10" fill="#6a6aa2">lib32-libxfixes</text>
<text y="605" x="1164" font-size="10" fill="#0000ff">xfsprogs</text>
<text y="959" x="874" font-size="10" fill="#6a6aa2">xorg-xset</text>
<text y="827" x="1311" font-size="10" fill="#6a6aa2">dbus-glib</text>
<text y="917" x="1491" font-size="10" fill="#6a6aa2">libxkbfile</text>
<text y="1206" x="1096" font-size="10" fill="#6a6aa2">djvulibre</text>
<text y="923" x="1046" font-size="10" fill="#0000ff">which</text>
<text y="669" x="1374" font-size="10" fill="#0000ff">alsi</text>
<text y="756" x="871" font-size="10" fill="#6a6aa2">libcap</text>
<text y="814" x="1278" font-size="10" fill="#6a6aa2">xorg-mkfontscale</text>
<text y="562" x="1145" font-size="10" fill="#6a6aa2">fixesproto</text>
<text y="800" x="709" font-size="10" fill="#6a6aa2">xorg-xwininfo</text>
<text y="673" x="1302" font-size="10" fill="#6a6aa2">gzip</text>
<text y="844" x="1515" font-size="10" fill="#6a6aa2">desktop-file-utils</text>
<text y="712" x="913" font-size="10" fill="#0000ff">xorg-xclock</text>
<text y="54" x="1306" font-size="10" fill="#6a6aa2">t1lib</text>
<text y="667" x="725" font-size="10" fill="#0000ff">nano</text>
<text y="706" x="995" font-size="10" fill="#0000ff">fakeroot</text>
<text y="529" x="1465" font-size="10" fill="#6a6aa2">jre7-openjdk</text>
<text y="536" x="912" font-size="10" fill="#0000ff">compton-git</text>
<text y="1021" x="1366" font-size="10" fill="#0000ff">autossh</text>
<text y="596" x="1048" font-size="10" fill="#6a6aa2">lib32-libx11</text>
<text y="648" x="1255" font-size="10" fill="#6a6aa2">findutils</text>
<text y="734" x="1511" font-size="10" fill="#6a6aa2">popt</text>
<text y="678" x="494" font-size="14" fill="#6a6aa2">libgl</text>
<text y="612" x="685" font-size="10" fill="#6a6aa2">fontconfig</text>
<text y="561" x="1311" font-size="14" fill="#6a6aa2">db</text>
<text y="772" x="1034" font-size="11" fill="#6a6aa2">kbd</text>
<text y="635" x="1245" font-size="11" fill="#6a6aa2">util-linux</text>
<text y="594" x="928" font-size="10" fill="#6a6aa2">freetype2</text>
<text y="703" x="588" font-size="33" fill="#6a6aa2">qt</text>
<text y="863" x="1087" font-size="10" fill="#0000ff">patch</text>
<text y="581" x="988" font-size="10" fill="#0000ff">xorg-xfontsel</text>
<text y="727" x="1111" font-size="10" fill="#0000ff">bison</text>
<text y="725" x="853" font-size="11" fill="#6a6aa2">libvorbis</text>
<text y="1221" x="1027" font-size="10" fill="#6a6aa2">python2-gobject2</text>
<text y="578" x="1584" font-size="11" fill="#6a6aa2">gsfonts</text>
<text y="884" x="982" font-size="10" fill="#0000ff">xf86-input-vmmouse</text>
<text y="907" x="1264" font-size="10" fill="#6a6aa2">libpciaccess</text>
<text y="721" x="1246" font-size="10" fill="#6a6aa2">sed</text>
<text y="558" x="1370" font-size="10" fill="#0000ff">netcfg</text>
<text y="807" x="1184" font-size="10" fill="#0000ff">mdadm</text>
<text y="482" x="1143" font-size="10" fill="#6a6aa2">libxaw</text>
<text y="699" x="868" font-size="10" fill="#0000ff">mozplugger-chromium</text>
<text y="838" x="1268" font-size="10" fill="#6a6aa2">libxau</text>
<text y="708" x="1279" font-size="10" fill="#6a6aa2">kmod</text>
<text y="1031" x="900" font-size="10" fill="#6a6aa2">v4l-utils</text>
<text y="915" x="766" font-size="10" fill="#6a6aa2">device-mapper</text>
<text y="725" x="924" font-size="10" fill="#0000ff">xorg-xlsfonts</text>
<text y="713" x="867" font-size="10" fill="#6a6aa2">lua</text>
<text y="712" x="500" font-size="10" fill="#6a6aa2">libpng</text>
<text y="589" x="752" font-size="10" fill="#0000ff">ncmpcpp</text>
<text y="847" x="1393" font-size="10" fill="#6a6aa2">xdg-utils</text>
<text y="993" x="1367" font-size="14" fill="#0000ff">gcc-fortran</text>
<text y="1034" x="766" font-size="10" fill="#0000ff">msmtp</text>
<text y="689" x="1631" font-size="12" fill="#6a6aa2">imagemagick</text>
<text y="673" x="683" font-size="10" fill="#0000ff">screen</text>
<text y="1066" x="1285" font-size="11" fill="#0000ff">lynx</text>
<text y="534" x="1582" font-size="14" fill="#6a6aa2">pygtk</text>
<text y="1117" x="1500" font-size="12" fill="#0000ff">ipython</text>
<text y="712" x="1463" font-size="10" fill="#6a6aa2">libgcrypt</text>
<text y="571" x="1232" font-size="10" fill="#0000ff">unclutter</text>
<text y="828" x="1206" font-size="10" fill="#0000ff">lsof</text>
<text y="761" x="750" font-size="10" fill="#6a6aa2">libxxf86vm</text>
<text y="860" x="1055" font-size="11" fill="#0000ff">gtk</text>
<text y="560" x="635" font-size="10" fill="#0000ff">termsyn</text>
<text y="1219" x="107" font-size="48" fill="#0000ff">python2-matplotlib</text>
<text y="804" x="1560" font-size="10" fill="#6a6aa2">hicolor-icon-theme</text>
<text y="682" x="1180" font-size="35" fill="#0000ff">linux</text>
<text y="652" x="489" font-size="12" fill="#0000ff">mumble</text>
<text y="1114" x="891" font-size="22" fill="#0000ff">gvim</text>
<text y="966" x="1207" font-size="10" fill="#0000ff">heirloom-mailx</text>
<text y="629" x="751" font-size="12" fill="#6a6aa2">ncurses</text>
<text y="1048" x="1104" font-size="10" fill="#6a6aa2">libxi</text>
<text y="811" x="889" font-size="10" fill="#6a6aa2">imlib2</text>
<text y="640" x="914" font-size="10" fill="#0000ff">xorg-xpr</text>
<text y="525" x="823" font-size="10" fill="#0000ff">xorg-xinit</text>
<text y="491" x="902" font-size="10" fill="#6a6aa2">lib32-alsa-lib</text>
<text y="1089" x="883" font-size="10" fill="#6a6aa2">libnl</text>
<text y="761" x="1207" font-size="10" fill="#6a6aa2">zlib</text>
<text y="579" x="1082" font-size="10" fill="#0000ff">sxiv</text>
<text y="503" x="606" font-size="14" fill="#0000ff">xorg-fonts-75dpi</text>
<text y="742" x="958" font-size="15" fill="#6a6aa2">lib32-libgl</text>
<text y="594" x="1169" font-size="10" fill="#6a6aa2">libxext</text>
<text y="1013" x="908" font-size="10" fill="#6a6aa2">avahi</text>
<text y="659" x="822" font-size="10" fill="#0000ff">vi</text>
<text y="1204" x="1178" font-size="10" fill="#6a6aa2">expat</text>
<text y="645" x="1104" font-size="30" fill="#0000ff">skype</text>
<text y="684" x="922" font-size="10" fill="#6a6aa2">texinfo</text>
<text y="620" x="1532" font-size="29" fill="#0000ff">gimp</text>
<text y="1022" x="1750" font-size="35" fill="#0000ff">pdftk</text>
<text y="1173" x="950" font-size="10" fill="#6a6aa2">libgnome-keyring</text>
<text y="733" x="1081" font-size="10" fill="#0000ff">make</text>
<text y="562" x="896" font-size="10" fill="#6a6aa2">giblib</text>
<text y="543" x="1279" font-size="13" fill="#6a6aa2">coreutils</text>
<text y="981" x="987" font-size="10" fill="#6a6aa2">libxdamage</text>
<text y="596" x="622" font-size="10" fill="#0000ff">xorg-xfd</text>
<text y="862" x="1019" font-size="11" fill="#6a6aa2">pam</text>
<text y="889" x="1333" font-size="10" fill="#6a6aa2">iproute2</text>
<text y="745" x="1716" font-size="10" fill="#0000ff">icedtea-web-java7</text>
<text y="547" x="892" font-size="10" fill="#0000ff">xanim</text>
<text y="837" x="1391" font-size="10" fill="#6a6aa2">libxss</text>
<text y="795" x="1165" font-size="10" fill="#0000ff">xf86-input-void</text>
<text y="918" x="1231" font-size="10" fill="#0000ff">sshfs</text>
<text y="625" x="928" font-size="13" fill="#6a6aa2">lib32-glibc</text>
<text y="840" x="1138" font-size="10" fill="#0000ff">laptop-mode-tools</text>
<text y="596" x="996" font-size="10" fill="#6a6aa2">libdrm</text>
<text y="543" x="1209" font-size="10" fill="#6a6aa2">filesystem</text>
<text y="829" x="1467" font-size="10" fill="#0000ff">alsa-plugins</text>
<text y="765" x="969" font-size="10" fill="#6a6aa2">speex</text>
<text y="203" x="1379" font-size="17" fill="#0000ff">texlive-latexextra</text>
<text y="608" x="638" font-size="10" fill="#0000ff">less</text>
<text y="1205" x="1000" font-size="24" fill="#0000ff">evince</text>
<text y="981" x="1776" font-size="10" fill="#6a6aa2">libxtst</text>
<text y="635" x="1469" font-size="10" fill="#6a6aa2">librsvg</text>
<text y="913" x="669" font-size="10" fill="#6a6aa2">libsamplerate</text>
<text y="607" x="966" font-size="10" fill="#0000ff">xcompmgr</text>
<text y="682" x="1487" font-size="11" fill="#6a6aa2">pango</text>
<text y="1194" x="1219" font-size="10" fill="#6a6aa2">wireless_tools</text>
<text y="878" x="871" font-size="10" fill="#0000ff">xorg-server-utils</text>
<text y="947" x="1820" font-size="10" fill="#6a6aa2">libpcap</text>
<text y="758" x="1001" font-size="10" fill="#0000ff">xf86-input-aiptek</text>
<text y="598" x="1368" font-size="19" fill="#0000ff">subversion</text>
<text y="898" x="1389" font-size="38" fill="#0000ff">chromium</text>
<text y="896" x="1617" font-size="10" fill="#6a6aa2">gmp</text>
<text y="697" x="457" font-size="13" fill="#0000ff">dot2tex</text>
<text y="558" x="580" font-size="10" fill="#0000ff">xterm</text>
<text y="728" x="1039" font-size="10" fill="#6a6aa2">xproto</text>
<text y="701" x="657" font-size="10" fill="#6a6aa2">ca-certificates</text>
<text y="610" x="750" font-size="10" fill="#0000ff">ttf-inconsolata</text>
<text y="642" x="732" font-size="10" fill="#0000ff">tamsyn-font</text>
<text y="991" x="1061" font-size="11" fill="#6a6aa2">shadow</text>
<text y="1125" x="1114" font-size="28" fill="#6a6aa2">python2</text>
<text y="860" x="1262" font-size="14" fill="#0000ff">xorg-server</text>
<text y="569" x="743" font-size="10" fill="#0000ff">unrar</text>
<text y="821" x="955" font-size="13" fill="#0000ff">man-pages</text>
<text y="149" x="933" font-size="100" fill="#6a6aa2">texlive-core</text>
<text y="997" x="872" font-size="10" fill="#0000ff">pkg-config</text>
<text y="1084" x="989" font-size="10" fill="#6a6aa2">shared-mime-info</text>
<text y="633" x="881" font-size="10" fill="#0000ff">grub</text>
<text y="782" x="1632" font-size="10" fill="#6a6aa2">zathura</text>
<text y="890" x="1168" font-size="10" fill="#0000ff">xf86-input-joystick</text>
<text y="527" x="518" font-size="10" fill="#6a6aa2">libfontenc</text>
<text y="774" x="1412" font-size="40" fill="#0000ff">inkscape</text>
<text y="726" x="1428" font-size="10" fill="#0000ff">rsync</text>
<text y="570" x="491" font-size="10" fill="#6a6aa2">lsb-release</text>
<text y="823" x="1089" font-size="22" fill="#6a6aa2">glibc</text>
<text y="800" x="1317" font-size="10" fill="#0000ff">btrfs-progs</text>
<text y="738" x="1285" font-size="10" fill="#0000ff">automake</text>
<text y="679" x="1004" font-size="10" fill="#6a6aa2">libice</text>
<text y="1164" x="1368" font-size="10" fill="#0000ff">pacgraph</text>
<text y="434" x="689" font-size="10" fill="#0000ff">lib32-libldap</text>
<text y="728" x="1678" font-size="10" fill="#0000ff">bc</text>
<text y="488" x="738" font-size="11" fill="#6a6aa2">lib32-openssl</text>
<text y="663" x="601" font-size="10" fill="#6a6aa2">libxv</text>
<text y="701" x="1191" font-size="10" fill="#6a6aa2">xorg-xprop</text>
<text y="629" x="1666" font-size="10" fill="#6a6aa2">libsigc++</text>
<text y="514" x="1232" font-size="21" fill="#0000ff">apache-ant</text>
<text y="722" x="1166" font-size="10" fill="#0000ff">wget</text>
<text y="734" x="1171" font-size="10" fill="#0000ff">conky</text>
<text y="1023" x="1119" font-size="10" fill="#6a6aa2">libjpeg-turbo</text>
<text y="1050" x="784" font-size="10" fill="#0000ff">pcmciautils</text>
<text y="545" x="1403" font-size="10" fill="#6a6aa2">acl</text>
<text y="1112" x="846" font-size="10" fill="#6a6aa2">libexif</text>
<text y="784" x="1253" font-size="13" fill="#6a6aa2">glib2</text>
<text y="613" x="1033" font-size="10" fill="#0000ff">xorg-xwd</text>
<text y="1007" x="1059" font-size="10" fill="#6a6aa2">libtiff</text>
<text y="1005" x="985" font-size="10" fill="#6a6aa2">libxcursor</text>
<text y="691" x="669" font-size="10" fill="#6a6aa2">libmng</text>
<text y="806" x="1465" font-size="11" fill="#6a6aa2">nss</text>
<text y="605" x="1138" font-size="10" fill="#6a6aa2">pcre</text>
<text y="766" x="1347" font-size="14" fill="#0000ff">git</text>
<text y="911" x="1032" font-size="13" fill="#0000ff">archlinux-wallpaper</text>
<text y="1158" x="976" font-size="10" fill="#6a6aa2">libxinerama</text>
<text y="600" x="1253" font-size="10" fill="#0000ff">slock</text>
<text y="629" x="1387" font-size="10" fill="#6a6aa2">lib32-zlib</text>
<text y="538" x="1004" font-size="10" fill="#6a6aa2">libshout</text>
<text y="582" x="847" font-size="10" fill="#6a6aa2">taglib</text>
<text y="580" x="1125" font-size="10" fill="#6a6aa2">libtheora</text>
<text y="842" x="1018" font-size="10" fill="#0000ff">cabextract</text>
<text y="839" x="1316" font-size="12" fill="#0000ff">xorg-docs</text>
<text y="744" x="1241" font-size="10" fill="#6a6aa2">attr</text>
<text y="712" x="1137" font-size="10" fill="#0000ff">pacman</text>
<text y="778" x="1302" font-size="10" fill="#0000ff">initscripts</text>
<text y="543" x="1445" font-size="10" fill="#0000ff">python2-gconf</text>
<text y="878" x="1194" font-size="10" fill="#0000ff">autoconf</text>
<text y="1081" x="1233" font-size="10" fill="#6a6aa2">libusbx</text>
<text y="457" x="1034" font-size="10" fill="#6a6aa2">lib32-gcc-libs</text>
<text y="946" x="1322" font-size="10" fill="#0000ff">xf86-input-synaptics</text>
<text y="1202" x="892" font-size="10" fill="#0000ff">usbutils</text>
<text y="651" x="1437" font-size="11" fill="#0000ff">rtorrent</text>
<text y="1017" x="1214" font-size="10" fill="#6a6aa2">curl</text>
<text y="481" x="962" font-size="10" fill="#0000ff">lib32-v4l-utils</text>
<text y="765" x="1160" font-size="10" fill="#0000ff">wmctrl</text>
<text y="847" x="1472" font-size="10" fill="#6a6aa2">bzip2</text>
<text y="553" x="800" font-size="10" fill="#6a6aa2">inetutils</text>
<text y="621" x="845" font-size="10" fill="#0000ff">ncdu</text>
<text y="644" x="1359" font-size="13" fill="#0000ff">gettext</text>
<text y="1035" x="1207" font-size="10" fill="#6a6aa2">libsasl</text>
<text y="822" x="1731" font-size="10" fill="#0000ff">apvlv</text>
<text y="507" x="1026" font-size="10" fill="#6a6aa2">inputproto</text>
<text y="558" x="1412" font-size="10" fill="#6a6aa2">libldap</text>
<text y="917" x="1349" font-size="10" fill="#6a6aa2">xorg-mkfontdir</text>
<text y="1022" x="1444" font-size="10" fill="#0000ff">libtool</text>
<text y="1165" x="1420" font-size="10" fill="#6a6aa2">libffi</text>
<text y="722" x="1580" font-size="10" fill="#6a6aa2">readline</text>
<text y="686" x="1095" font-size="10" fill="#6a6aa2">lib32-expat</text>
<text y="1008" x="1108" font-size="10" fill="#6a6aa2">diffutils</text>
<text y="485" x="1090" font-size="10" fill="#0000ff">xorg-twm</text>
<text y="529" x="1317" font-size="10" fill="#6a6aa2">e2fsprogs</text>
<text y="1156" x="1085" font-size="10" fill="#0000ff">offlineimap</text></g></svg>