<?xml version="1.0" encoding="UTF-8" standalone="no"?>
<!DOCTYPE svg PUBLIC "-//W3C//DTD SVG 1.0//EN" "http://www.w3.org/TR/SVG/DTD/svg10.dtd">
<svg width="1826" xmlns="http://www.w3.org/2000/svg" height="1116.0"><rect y="0" x="0" style="fill:#ffffff;" height="1116.0" width="1826"/><g style="stroke:#606060; stroke-opacity:0.15; fill:none;"><path d="M1232,363 Q1178,504 1125,464"/>
<path d="M1581,530 Q1554,544 1527,508"/>
<path d="M1581,530 Q1353,686 1125,464"/>
<path d="M913,564 Q1241,849 1569,269"/>
<path d="M913,564 Q1238,780 1563,351"/>
<path d="M913,564 Q969,609 1026,538"/>
<path d="M1078,679 Q947,805 816,676"/>
<path d="M1078,679 Q1117,710 1156,520"/>
<path d="M240,418 Q252,428 265,358"/>
<path d="M240,418 Q299,454 358,343"/>
<path d="M1000,727 Q998,728 997,687"/>
<path d="M1008,559 Q1365,865 1722,461"/>
<path d="M1008,559 Q1066,603 1125,464"/>
<path d="M1008,559 Q1132,627 1257,542"/>
<path d="M1008,559 Q1082,616 1156,520"/>
<path d="M878,981 Q823,1016 768,294"/>
<path d="M878,981 Q1061,1078 1244,748"/>
<path d="M878,981 Q764,1061 650,310"/>
<path d="M878,981 Q844,1009 811,893"/>
<path d="M977,293 Q1056,639 1136,565"/>
<path d="M977,293 Q1051,535 1125,464"/>
<path d="M977,293 Q811,612 645,467"/>
<path d="M1520,572 Q947,870 374,427"/>
<path d="M1520,572 Q1186,1024 852,788"/>
<path d="M1520,572 Q833,1224 146,550"/>
<path d="M416,600 Q1048,1228 1680,332"/>
<path d="M416,600 Q633,788 851,347"/>
<path d="M416,600 Q805,958 1195,332"/>
<path d="M416,600 Q737,807 1058,317"/>
<path d="M416,600 Q701,1036 986,753"/>
<path d="M416,600 Q776,844 1136,478"/>
<path d="M416,600 Q662,771 908,263"/>
<path d="M416,600 Q835,1105 1254,735"/>
<path d="M416,600 Q644,995 873,777"/>
<path d="M286,298 Q325,334 364,303"/>
<path d="M1081,537 Q1401,797 1722,461"/>
<path d="M1081,537 Q1118,565 1156,520"/>
<path d="M1049,664 Q994,699 939,495"/>
<path d="M1049,664 Q1102,701 1156,520"/>
<path d="M1049,664 Q955,723 862,599"/>
<path d="M1356,243 Q1532,679 1709,566"/>
<path d="M1356,243 Q1292,729 1229,694"/>
<path d="M966,381 Q908,425 851,347"/>
<path d="M966,381 Q1073,704 1181,636"/>
<path d="M966,381 Q937,406 908,263"/>
<path d="M966,381 Q840,463 715,350"/>
<path d="M966,381 Q951,477 937,463"/>
<path d="M966,381 Q879,611 793,551"/>
<path d="M966,381 Q1101,814 1236,706"/>
<path d="M966,381 Q974,385 983,251"/>
<path d="M862,599 Q1021,751 1181,636"/>
<path d="M862,599 Q1009,703 1156,520"/>
<path d="M862,599 Q1049,854 1236,706"/>
<path d="M862,599 Q887,624 913,564"/>
<path d="M862,599 Q822,633 782,606"/>
<path d="M862,599 Q839,691 816,676"/>
<path d="M862,599 Q827,619 793,551"/>
<path d="M862,599 Q781,671 700,579"/>
<path d="M1696,387 Q1549,524 1403,408"/>
<path d="M1105,594 Q1332,835 1559,624"/>
<path d="M1105,594 Q972,683 839,474"/>
<path d="M1105,594 Q1115,599 1125,464"/>
<path d="M1311,552 Q1233,605 1156,520"/>
<path d="M1680,332 Q1621,391 1563,351"/>
<path d="M1680,332 Q1624,373 1569,269"/>
<path d="M783,541 Q993,677 1203,196"/>
<path d="M783,541 Q979,695 1176,373"/>
<path d="M783,541 Q874,631 966,381"/>
<path d="M783,541 Q822,624 862,599"/>
<path d="M1006,917 Q1366,1197 1727,472"/>
<path d="M1006,917 Q967,937 928,859"/>
<path d="M1006,917 Q845,1026 685,390"/>
<path d="M1006,917 Q1096,984 1187,677"/>
<path d="M829,710 Q764,762 700,579"/>
<path d="M829,710 Q1254,1030 1680,332"/>
<path d="M721,236 Q725,433 730,431"/>
<path d="M1198,435 Q1206,440 1214,344"/>
<path d="M1198,435 Q1128,492 1058,317"/>
<path d="M1198,435 Q1142,482 1086,346"/>
<path d="M1198,435 Q1221,762 1244,748"/>
<path d="M1198,435 Q1196,436 1195,332"/>
<path d="M1684,537 Q1605,612 1527,508"/>
<path d="M1684,537 Q1621,663 1559,624"/>
<path d="M1684,537 Q1543,660 1403,408"/>
<path d="M1010,462 Q1067,518 1125,464"/>
<path d="M1010,462 Q847,555 685,390"/>
<path d="M1010,462 Q1083,591 1156,520"/>
<path d="M1010,462 Q1009,559 1008,559"/>
<path d="M572,382 Q1081,900 1590,579"/>
<path d="M572,382 Q608,490 645,467"/>
<path d="M572,382 Q1095,999 1618,484"/>
<path d="M572,382 Q1090,880 1608,565"/>
<path d="M572,382 Q838,789 1105,594"/>
<path d="M572,382 Q651,487 730,431"/>
<path d="M572,382 Q628,439 685,390"/>
<path d="M572,382 Q864,705 1156,520"/>
<path d="M707,380 Q1099,854 1491,541"/>
<path d="M707,380 Q1081,615 1455,375"/>
<path d="M707,380 Q1209,1068 1712,594"/>
<path d="M707,380 Q540,527 374,427"/>
<path d="M1257,542 Q1277,560 1297,345"/>
<path d="M1257,542 Q1206,591 1156,520"/>
<path d="M852,788 Q1210,1026 1569,269"/>
<path d="M852,788 Q1053,922 1254,735"/>
<path d="M852,788 Q499,1099 146,550"/>
<path d="M852,788 Q857,792 862,599"/>
<path d="M1116,330 Q1155,356 1195,332"/>
<path d="M1200,654 Q1136,715 1072,637"/>
<path d="M1200,654 Q1131,705 1062,398"/>
<path d="M358,343 Q311,393 265,358"/>
<path d="M358,343 Q386,432 415,408"/>
<path d="M358,343 Q361,345 364,303"/>
<path d="M1026,766 Q1376,1025 1727,472"/>
<path d="M1026,766 Q1011,773 997,687"/>
<path d="M1393,298 Q1303,418 1214,344"/>
<path d="M1393,298 Q1298,375 1203,196"/>
<path d="M1559,624 Q1094,1001 629,647"/>
<path d="M1559,624 Q1217,830 876,380"/>
<path d="M1559,624 Q1438,1047 1318,933"/>
<path d="M1559,624 Q1520,654 1482,434"/>
<path d="M1559,624 Q1329,844 1100,708"/>
<path d="M851,347 Q612,592 374,427"/>
<path d="M851,347 Q596,856 342,613"/>
<path d="M851,347 Q981,780 1112,695"/>
<path d="M729,619 Q795,669 862,599"/>
<path d="M729,619 Q991,914 1254,735"/>
<path d="M729,619 Q714,627 700,579"/>
<path d="M729,619 Q543,785 358,343"/>
<path d="M1524,530 Q949,998 374,427"/>
<path d="M746,608 Q798,645 851,347"/>
<path d="M746,608 Q608,696 471,433"/>
<path d="M746,608 Q804,640 862,599"/>
<path d="M746,608 Q1074,906 1403,408"/>
<path d="M746,608 Q651,680 556,342"/>
<path d="M746,608 Q1154,974 1562,392"/>
<path d="M746,608 Q764,621 782,370"/>
<path d="M746,608 Q871,752 997,687"/>
<path d="M1705,521 Q1616,591 1527,508"/>
<path d="M1705,521 Q1450,744 1195,332"/>
<path d="M1705,521 Q973,989 241,477"/>
<path d="M1705,521 Q1388,860 1071,566"/>
<path d="M908,263 Q990,939 1072,881"/>
<path d="M953,363 Q1280,883 1608,565"/>
<path d="M953,363 Q1039,533 1125,464"/>
<path d="M953,363 Q841,520 730,431"/>
<path d="M953,363 Q900,533 848,488"/>
<path d="M953,363 Q1105,660 1257,542"/>
<path d="M650,310 Q922,593 1195,332"/>
<path d="M650,310 Q750,411 851,347"/>
<path d="M999,901 Q1035,933 1072,881"/>
<path d="M811,893 Q552,1088 294,224"/>
<path d="M811,893 Q898,941 986,753"/>
<path d="M811,893 Q520,1060 229,131"/>
<path d="M811,893 Q1146,1113 1482,434"/>
<path d="M811,893 Q755,933 700,579"/>
<path d="M811,893 Q1032,1036 1254,735"/>
<path d="M811,893 Q944,1003 1078,679"/>
<path d="M811,893 Q983,1029 1156,520"/>
<path d="M811,893 Q867,1007 923,955"/>
<path d="M811,893 Q968,1012 1125,464"/>
<path d="M811,893 Q829,911 848,488"/>
<path d="M811,893 Q800,941 789,933"/>
<path d="M811,893 Q1102,1106 1394,619"/>
<path d="M811,893 Q999,1069 1187,677"/>
<path d="M811,893 Q866,959 922,910"/>
<path d="M811,893 Q869,930 928,859"/>
<path d="M1100,373 Q1207,536 1314,441"/>
<path d="M1100,373 Q1112,475 1125,464"/>
<path d="M1100,373 Q1198,442 1297,345"/>
<path d="M1100,373 Q1211,574 1323,487"/>
<path d="M1100,373 Q1128,535 1156,520"/>
<path d="M1727,472 Q1224,748 721,236"/>
<path d="M1727,472 Q1197,870 668,409"/>
<path d="M1727,472 Q1565,555 1403,408"/>
<path d="M1727,472 Q1297,733 868,447"/>
<path d="M1727,472 Q1254,925 782,606"/>
<path d="M300,592 Q633,760 966,381"/>
<path d="M300,592 Q581,787 862,599"/>
<path d="M300,592 Q757,890 1214,344"/>
<path d="M300,592 Q331,671 363,648"/>
<path d="M1491,541 Q1509,553 1527,508"/>
<path d="M1491,541 Q1059,757 628,321"/>
<path d="M1491,541 Q1549,609 1608,565"/>
<path d="M1491,541 Q1308,684 1125,464"/>
<path d="M1491,541 Q1447,573 1403,408"/>
<path d="M1527,508 Q1543,639 1559,624"/>
<path d="M1527,508 Q1523,509 1520,445"/>
<path d="M1527,508 Q1624,576 1722,461"/>
<path d="M1527,508 Q950,994 374,427"/>
<path d="M1527,508 Q1326,610 1125,464"/>
<path d="M1527,508 Q1545,519 1563,351"/>
<path d="M1527,508 Q1510,524 1494,420"/>
<path d="M1355,806 Q1115,1003 876,380"/>
<path d="M1355,806 Q1141,1019 928,859"/>
<path d="M1355,806 Q1240,914 1125,464"/>
<path d="M1355,806 Q1457,898 1559,624"/>
<path d="M1355,806 Q1390,830 1425,759"/>
<path d="M1355,806 Q1255,904 1156,520"/>
<path d="M1058,317 Q976,473 894,395"/>
<path d="M1058,317 Q997,508 937,463"/>
<path d="M1058,317 Q1033,395 1009,377"/>
<path d="M1058,317 Q1136,389 1214,344"/>
<path d="M1676,489 Q1601,563 1527,508"/>
<path d="M1676,489 Q1400,718 1125,464"/>
<path d="M1676,489 Q1630,513 1584,466"/>
<path d="M1107,386 Q889,544 672,429"/>
<path d="M1107,386 Q1380,656 1654,418"/>
<path d="M1107,386 Q829,540 552,399"/>
<path d="M1107,386 Q1151,410 1195,332"/>
<path d="M1107,386 Q945,640 783,541"/>
<path d="M1107,386 Q907,551 708,192"/>
<path d="M1107,386 Q1096,393 1086,346"/>
<path d="M1107,386 Q1406,672 1705,521"/>
<path d="M1107,386 Q1160,431 1214,344"/>
<path d="M1107,386 Q703,957 300,592"/>
<path d="M1107,386 Q1274,655 1442,570"/>
<path d="M1107,386 Q937,710 767,583"/>
<path d="M1225,418 Q1228,419 1232,363"/>
<path d="M1225,418 Q1175,493 1125,464"/>
<path d="M1225,418 Q1109,711 994,606"/>
<path d="M1225,418 Q1255,437 1286,283"/>
<path d="M1800,536 Q1225,853 650,310"/>
<path d="M1800,536 Q1752,582 1705,521"/>
<path d="M1208,776 Q813,1068 418,472"/>
<path d="M1208,776 Q1383,932 1559,624"/>
<path d="M1208,776 Q1060,882 913,564"/>
<path d="M1208,776 Q1231,789 1254,735"/>
<path d="M1208,776 Q1051,870 894,395"/>
<path d="M438,372 Q533,433 628,321"/>
<path d="M1523,292 Q1543,362 1563,351"/>
<path d="M1403,408 Q1562,613 1722,461"/>
<path d="M1403,408 Q909,799 415,408"/>
<path d="M1403,408 Q1429,424 1455,375"/>
<path d="M1403,408 Q1092,790 782,606"/>
<path d="M1403,408 Q1083,810 763,647"/>
<path d="M1403,408 Q1429,426 1456,386"/>
<path d="M1403,408 Q1062,606 721,236"/>
<path d="M1403,408 Q1264,585 1125,464"/>
<path d="M1403,408 Q1254,681 1105,594"/>
<path d="M1403,408 Q1066,740 730,431"/>
<path d="M1592,363 Q1132,867 672,429"/>
<path d="M806,490 Q1243,736 1680,332"/>
<path d="M806,490 Q871,534 937,463"/>
<path d="M1590,579 Q1546,619 1503,561"/>
<path d="M1590,579 Q1258,784 927,528"/>
<path d="M1590,579 Q1551,615 1512,380"/>
<path d="M1191,530 Q1158,562 1125,464"/>
<path d="M1191,530 Q1173,539 1156,520"/>
<path d="M491,592 Q1106,1016 1722,461"/>
<path d="M491,592 Q860,1034 1229,694"/>
<path d="M491,592 Q1027,917 1563,351"/>
<path d="M491,592 Q501,602 512,311"/>
<path d="M768,528 Q838,826 909,768"/>
<path d="M768,528 Q1245,817 1722,461"/>
<path d="M1149,425 Q1137,473 1125,464"/>
<path d="M1149,425 Q1109,583 1069,554"/>
<path d="M1027,647 Q1214,827 1401,595"/>
<path d="M1027,647 Q1091,694 1156,520"/>
<path d="M856,528 Q1209,812 1562,392"/>
<path d="M856,528 Q852,531 848,488"/>
<path d="M763,647 Q731,668 700,579"/>
<path d="M763,647 Q746,662 730,431"/>
<path d="M1404,342 Q1463,381 1523,292"/>
<path d="M1404,342 Q1416,437 1429,429"/>
<path d="M1404,342 Q1423,359 1443,221"/>
<path d="M1404,342 Q1496,409 1589,312"/>
<path d="M1404,342 Q1053,787 703,459"/>
<path d="M1404,342 Q1508,444 1612,381"/>
<path d="M1404,342 Q1501,401 1598,250"/>
<path d="M1236,391 Q1215,406 1195,332"/>
<path d="M1236,391 Q826,993 416,600"/>
<path d="M1236,391 Q1065,559 894,395"/>
<path d="M876,380 Q585,547 294,224"/>
<path d="M1621,429 Q1574,543 1527,508"/>
<path d="M1188,796 Q1027,926 866,613"/>
<path d="M1188,796 Q1092,851 997,687"/>
<path d="M1188,796 Q1208,812 1229,694"/>
<path d="M1188,796 Q997,897 806,490"/>
<path d="M868,447 Q1218,682 1569,269"/>
<path d="M868,447 Q818,483 768,294"/>
<path d="M868,447 Q799,508 730,431"/>
<path d="M868,447 Q902,489 937,463"/>
<path d="M628,321 Q606,459 585,444"/>
<path d="M628,321 Q1011,999 1394,619"/>
<path d="M461,461 Q417,495 374,427"/>
<path d="M1298,214 Q1336,307 1374,274"/>
<path d="M1511,593 Q1535,636 1559,624"/>
<path d="M1053,237 Q735,761 418,472"/>
<path d="M1053,237 Q1124,372 1195,332"/>
<path d="M1053,237 Q649,835 245,571"/>
<path d="M884,558 Q833,639 782,606"/>
<path d="M884,558 Q807,618 730,431"/>
<path d="M884,558 Q922,590 960,561"/>
<path d="M884,558 Q976,613 1069,554"/>
<path d="M884,558 Q873,608 862,599"/>
<path d="M1048,741 Q1074,761 1100,708"/>
<path d="M538,447 Q545,451 552,399"/>
<path d="M538,447 Q1048,1122 1559,624"/>
<path d="M538,447 Q477,647 416,600"/>
<path d="M538,447 Q773,668 1009,377"/>
<path d="M538,447 Q866,659 1195,332"/>
<path d="M880,462 Q971,552 1062,398"/>
<path d="M880,462 Q854,727 829,710"/>
<path d="M146,550 Q328,663 511,208"/>
<path d="M146,550 Q236,597 326,468"/>
<path d="M1195,332 Q1185,380 1176,373"/>
<path d="M1195,332 Q718,899 241,477"/>
<path d="M1195,332 Q1066,578 937,463"/>
<path d="M1195,332 Q1325,464 1456,386"/>
<path d="M1195,332 Q1102,449 1009,365"/>
<path d="M1195,332 Q1361,614 1527,508"/>
<path d="M1195,332 Q981,466 768,294"/>
<path d="M1195,332 Q890,669 585,444"/>
<path d="M1701,402 Q1649,480 1598,445"/>
<path d="M1701,402 Q1245,1095 790,697"/>
<path d="M954,574 Q1239,765 1524,530"/>
<path d="M954,574 Q1039,635 1125,464"/>
<path d="M954,574 Q906,785 859,745"/>
<path d="M954,574 Q908,639 862,599"/>
<path d="M798,442 Q930,862 1063,752"/>
<path d="M798,442 Q818,485 839,474"/>
<path d="M798,442 Q782,592 767,583"/>
<path d="M798,442 Q1021,902 1244,748"/>
<path d="M798,442 Q549,764 300,592"/>
<path d="M1128,313 Q1161,361 1195,332"/>
<path d="M1128,313 Q1093,341 1058,317"/>
<path d="M942,510 Q1266,793 1590,579"/>
<path d="M942,510 Q945,511 949,445"/>
<path d="M942,510 Q861,581 781,513"/>
<path d="M942,510 Q919,523 897,312"/>
<path d="M942,510 Q1010,742 1078,679"/>
<path d="M942,510 Q975,588 1008,559"/>
<path d="M703,459 Q1143,725 1584,466"/>
<path d="M703,459 Q709,464 715,350"/>
<path d="M703,459 Q1133,771 1563,351"/>
<path d="M1447,630 Q1487,650 1527,508"/>
<path d="M1447,630 Q1451,632 1455,375"/>
<path d="M1447,630 Q1286,710 1125,464"/>
<path d="M552,560 Q439,635 326,468"/>
<path d="M467,393 Q704,766 942,589"/>
<path d="M467,393 Q469,434 471,433"/>
<path d="M1449,551 Q1488,572 1527,508"/>
<path d="M1449,551 Q1530,612 1612,381"/>
<path d="M1449,551 Q1486,582 1523,292"/>
<path d="M1449,551 Q1439,560 1429,429"/>
<path d="M1449,551 Q1402,588 1356,243"/>
<path d="M1449,551 Q1519,600 1589,312"/>
<path d="M1449,551 Q1203,690 957,423"/>
<path d="M774,628 Q1182,870 1590,579"/>
<path d="M774,628 Q1227,888 1680,332"/>
<path d="M774,628 Q870,678 966,381"/>
<path d="M774,628 Q818,665 862,599"/>
<path d="M774,628 Q939,760 1105,594"/>
<path d="M774,628 Q795,693 816,676"/>
<path d="M1006,409 Q1093,720 1181,636"/>
<path d="M1006,409 Q1065,518 1125,464"/>
<path d="M1314,441 Q1235,597 1156,520"/>
<path d="M1361,454 Q1293,502 1225,418"/>
<path d="M1200,446 Q1162,489 1125,464"/>
<path d="M974,343 Q1348,716 1722,461"/>
<path d="M974,343 Q978,346 983,303"/>
<path d="M974,343 Q930,366 886,295"/>
<path d="M974,343 Q1026,727 1078,679"/>
<path d="M974,343 Q967,564 960,561"/>
<path d="M974,343 Q911,540 848,488"/>
<path d="M949,445 Q1037,534 1125,464"/>
<path d="M1492,488 Q1509,521 1527,508"/>
<path d="M1492,488 Q1308,664 1125,464"/>
<path d="M1492,488 Q1538,531 1584,466"/>
<path d="M474,691 Q477,765 480,764"/>
<path d="M1657,444 Q1592,547 1527,508"/>
<path d="M878,663 Q1131,835 1385,557"/>
<path d="M878,663 Q804,734 730,431"/>
<path d="M878,663 Q979,751 1081,460"/>
<path d="M878,663 Q1001,757 1125,464"/>
<path d="M878,663 Q936,705 994,606"/>
<path d="M878,663 Q868,753 859,745"/>
<path d="M878,663 Q685,805 493,490"/>
<path d="M878,663 Q974,728 1071,301"/>
<path d="M878,663 Q1140,819 1403,408"/>
<path d="M878,663 Q1032,771 1186,515"/>
<path d="M878,663 Q1093,780 1308,572"/>
<path d="M878,663 Q870,667 862,599"/>
<path d="M878,663 Q1017,741 1156,520"/>
<path d="M878,663 Q939,717 1000,507"/>
<path d="M1488,464 Q1507,521 1527,508"/>
<path d="M1488,464 Q1322,673 1156,520"/>
<path d="M945,940 Q1035,1025 1125,464"/>
<path d="M945,940 Q936,944 928,859"/>
<path d="M585,444 Q700,741 816,676"/>
<path d="M448,295 Q344,544 241,477"/>
<path d="M448,295 Q395,525 342,489"/>
<path d="M873,777 Q1182,945 1491,541"/>
<path d="M873,777 Q712,885 552,560"/>
<path d="M873,777 Q900,878 928,859"/>
<path d="M873,777 Q956,845 1039,592"/>
<path d="M1009,377 Q1344,619 1680,332"/>
<path d="M1009,377 Q973,490 937,463"/>
<path d="M428,663 Q650,906 873,777"/>
<path d="M428,663 Q743,949 1058,317"/>
<path d="M428,663 Q422,668 416,600"/>
<path d="M1181,636 Q1082,700 983,251"/>
<path d="M1181,636 Q1168,645 1156,520"/>
<path d="M928,859 Q951,878 975,800"/>
<path d="M928,859 Q890,879 853,804"/>
<path d="M928,859 Q1243,1144 1559,624"/>
<path d="M928,859 Q890,881 852,788"/>
<path d="M928,859 Q635,1151 342,613"/>
<path d="M928,859 Q1000,938 1072,881"/>
<path d="M928,859 Q1026,949 1125,464"/>
<path d="M928,859 Q974,912 1021,882"/>
<path d="M928,859 Q829,948 730,431"/>
<path d="M928,859 Q908,927 889,913"/>
<path d="M1517,314 Q1538,637 1559,624"/>
<path d="M1517,314 Q1349,800 1181,636"/>
<path d="M1517,314 Q1191,914 866,613"/>
<path d="M1517,314 Q1587,508 1657,444"/>
<path d="M1517,314 Q1161,703 806,490"/>
<path d="M1517,314 Q1540,362 1563,351"/>
<path d="M1072,649 Q1381,859 1690,369"/>
<path d="M1072,649 Q1020,848 968,821"/>
<path d="M1072,649 Q1098,665 1125,464"/>
<path d="M1072,649 Q960,750 848,488"/>
<path d="M1072,649 Q987,752 903,693"/>
<path d="M1072,649 Q850,864 628,321"/>
<path d="M1072,649 Q1191,721 1311,552"/>
<path d="M1072,649 Q755,858 438,372"/>
<path d="M1072,649 Q1317,800 1562,392"/>
<path d="M1072,649 Q931,804 790,697"/>
<path d="M1072,649 Q1092,712 1112,695"/>
<path d="M1072,649 Q1034,717 997,687"/>
<path d="M1080,216 Q1102,481 1125,464"/>
<path d="M1080,216 Q747,624 415,408"/>
<path d="M1080,216 Q1053,664 1027,647"/>
<path d="M976,624 Q959,634 942,589"/>
<path d="M1425,759 Q1386,801 1347,773"/>
<path d="M868,284 Q859,353 851,347"/>
<path d="M868,284 Q888,300 908,263"/>
<path d="M929,483 Q1268,741 1608,565"/>
<path d="M1086,346 Q1165,801 1244,748"/>
<path d="M1086,346 Q1131,397 1176,373"/>
<path d="M1086,346 Q1133,666 1181,636"/>
<path d="M1086,346 Q1140,387 1195,332"/>
<path d="M1086,346 Q665,893 245,571"/>
<path d="M1086,346 Q624,780 162,437"/>
<path d="M1086,346 Q693,825 300,592"/>
<path d="M782,606 Q947,784 1112,695"/>
<path d="M1244,748 Q956,940 668,409"/>
<path d="M1244,748 Q1403,838 1563,351"/>
<path d="M989,547 Q1057,596 1125,464"/>
<path d="M989,547 Q855,631 721,236"/>
<path d="M1156,520 Q1226,567 1297,345"/>
<path d="M1156,520 Q972,1068 789,933"/>
<path d="M1072,637 Q1027,664 983,251"/>
<path d="M1072,637 Q886,757 700,579"/>
<path d="M1072,637 Q901,723 730,431"/>
<path d="M1072,637 Q1129,733 1187,677"/>
<path d="M1072,637 Q1294,799 1517,314"/>
<path d="M1287,610 Q1221,665 1156,520"/>
<path d="M584,228 Q582,269 580,268"/>
<path d="M584,228 Q1076,753 1569,269"/>
<path d="M584,228 Q790,866 997,687"/>
<path d="M771,480 Q1180,856 1590,579"/>
<path d="M771,480 Q1184,854 1598,445"/>
<path d="M771,480 Q732,526 693,492"/>
<path d="M848,488 Q1187,704 1527,508"/>
<path d="M848,488 Q808,548 768,528"/>
<path d="M848,488 Q887,562 927,528"/>
<path d="M848,488 Q1040,597 1232,363"/>
<path d="M848,488 Q818,504 788,413"/>
<path d="M848,488 Q582,659 316,446"/>
<path d="M848,488 Q855,605 862,599"/>
<path d="M848,488 Q631,672 415,408"/>
<path d="M848,488 Q895,556 942,510"/>
<path d="M848,488 Q960,968 1072,881"/>
<path d="M848,488 Q814,544 781,513"/>
<path d="M848,488 Q885,985 923,955"/>
<path d="M848,488 Q809,515 771,480"/>
<path d="M848,488 Q888,514 929,483"/>
<path d="M848,488 Q819,506 790,464"/>
<path d="M848,488 Q1081,763 1314,531"/>
<path d="M848,488 Q917,796 986,753"/>
<path d="M1314,531 Q1518,635 1722,461"/>
<path d="M1314,531 Q1137,704 960,561"/>
<path d="M1314,531 Q1007,765 700,579"/>
<path d="M1314,531 Q903,838 493,490"/>
<path d="M1497,332 Q1470,352 1443,221"/>
<path d="M1497,332 Q1510,339 1523,292"/>
<path d="M1497,332 Q1547,369 1598,250"/>
<path d="M352,261 Q339,480 326,468"/>
<path d="M1081,460 Q1076,463 1071,301"/>
<path d="M1081,460 Q1118,544 1156,520"/>
<path d="M689,525 Q793,719 898,639"/>
<path d="M689,525 Q728,550 768,528"/>
<path d="M689,525 Q922,722 1156,520"/>
<path d="M689,525 Q1001,778 1314,531"/>
<path d="M1161,297 Q1178,346 1195,332"/>
<path d="M793,551 Q780,562 768,294"/>
<path d="M793,551 Q746,614 700,579"/>
<path d="M909,768 Q1182,906 1456,386"/>
<path d="M909,768 Q1032,878 1156,520"/>
<path d="M911,758 Q919,863 928,859"/>
<path d="M911,758 Q875,793 839,474"/>
<path d="M911,758 Q893,767 876,380"/>
<path d="M1136,478 Q1331,671 1527,508"/>
<path d="M1136,478 Q1175,516 1214,344"/>
<path d="M1136,478 Q1022,539 908,263"/>
<path d="M1136,478 Q1015,585 894,395"/>
<path d="M1136,478 Q1036,561 937,463"/>
<path d="M1428,472 Q1477,537 1527,508"/>
<path d="M1428,472 Q838,1000 248,559"/>
<path d="M1428,472 Q1315,582 1203,196"/>
<path d="M1428,472 Q1302,571 1176,373"/>
<path d="M1428,472 Q1311,574 1195,332"/>
<path d="M1428,472 Q836,1054 245,571"/>
<path d="M1428,472 Q1105,849 783,541"/>
<path d="M1428,472 Q912,1081 396,632"/>
<path d="M162,437 Q201,514 241,477"/>
<path d="M162,437 Q216,676 271,630"/>
<path d="M162,437 Q262,739 363,648"/>
<path d="M768,294 Q809,381 851,347"/>
<path d="M939,495 Q1032,542 1125,464"/>
<path d="M939,495 Q900,618 862,599"/>
<path d="M788,413 Q819,430 851,347"/>
<path d="M788,413 Q751,439 715,350"/>
<path d="M1598,250 Q1523,590 1449,551"/>
<path d="M1598,250 Q1580,366 1563,351"/>
<path d="M1580,485 Q1589,492 1598,445"/>
<path d="M1580,485 Q1368,663 1156,520"/>
<path d="M1233,527 Q1179,560 1125,464"/>
<path d="M1233,527 Q1194,558 1156,520"/>
<path d="M1230,558 Q891,833 552,399"/>
<path d="M1230,558 Q1177,587 1125,464"/>
<path d="M1230,558 Q786,942 342,489"/>
<path d="M1612,381 Q1587,404 1563,351"/>
<path d="M627,353 Q654,367 681,297"/>
<path d="M627,353 Q1117,988 1608,565"/>
<path d="M627,353 Q852,868 1078,679"/>
<path d="M1104,504 Q1114,513 1125,464"/>
<path d="M248,559 Q244,562 241,477"/>
<path d="M248,559 Q259,639 271,630"/>
<path d="M248,559 Q220,583 192,535"/>
<path d="M1382,522 Q1397,596 1412,584"/>
<path d="M986,753 Q947,799 909,768"/>
<path d="M986,753 Q976,760 966,381"/>
<path d="M986,753 Q1121,829 1257,542"/>
<path d="M986,753 Q664,978 342,613"/>
<path d="M878,408 Q987,903 1097,807"/>
<path d="M878,408 Q968,470 1058,317"/>
<path d="M878,408 Q923,466 969,434"/>
<path d="M1112,695 Q870,823 628,321"/>
<path d="M1112,695 Q913,880 715,350"/>
<path d="M1374,274 Q1284,407 1195,332"/>
<path d="M629,647 Q806,800 983,251"/>
<path d="M629,647 Q892,879 1156,520"/>
<path d="M1152,555 Q1138,564 1125,464"/>
<path d="M1152,555 Q1154,556 1156,520"/>
<path d="M1608,565 Q1003,950 399,455"/>
<path d="M1608,565 Q1366,729 1125,464"/>
<path d="M1608,565 Q1501,725 1394,619"/>
<path d="M1608,565 Q1212,931 816,676"/>
<path d="M1608,565 Q1308,858 1008,559"/>
<path d="M632,545 Q667,567 703,459"/>
<path d="M632,545 Q1040,813 1449,551"/>
<path d="M632,545 Q1170,1068 1709,566"/>
<path d="M632,545 Q930,878 1229,694"/>
<path d="M632,545 Q749,635 866,422"/>
<path d="M1769,415 Q1472,668 1176,373"/>
<path d="M1769,415 Q1438,648 1107,386"/>
<path d="M1769,415 Q1737,540 1705,521"/>
<path d="M229,131 Q552,646 876,380"/>
<path d="M374,387 Q374,427 374,427"/>
<path d="M1584,466 Q1587,581 1590,579"/>
<path d="M1584,466 Q1543,593 1503,561"/>
<path d="M1584,466 Q1571,633 1559,624"/>
<path d="M1584,466 Q1622,552 1661,525"/>
<path d="M1584,466 Q1655,533 1727,472"/>
<path d="M1584,466 Q1197,799 810,370"/>
<path d="M1584,466 Q1552,497 1520,445"/>
<path d="M1584,466 Q1599,514 1615,501"/>
<path d="M1584,466 Q987,1034 391,439"/>
<path d="M1584,466 Q1316,874 1049,664"/>
<path d="M1584,466 Q1536,500 1488,464"/>
<path d="M1584,466 Q1520,527 1456,386"/>
<path d="M1584,466 Q1602,482 1621,429"/>
<path d="M1584,466 Q979,934 374,427"/>
<path d="M1584,466 Q1354,670 1125,464"/>
<path d="M1584,466 Q1573,472 1563,351"/>
<path d="M1584,466 Q1552,600 1520,572"/>
<path d="M1584,466 Q1068,829 552,399"/>
<path d="M1584,466 Q1175,862 767,583"/>
<path d="M1584,466 Q1596,572 1608,565"/>
<path d="M1584,466 Q1537,580 1491,541"/>
<path d="M1584,466 Q1492,554 1400,396"/>
<path d="M1584,466 Q1533,492 1482,434"/>
<path d="M1584,466 Q1640,515 1696,387"/>
<path d="M1584,466 Q1582,530 1581,530"/>
<path d="M1584,466 Q963,929 342,613"/>
<path d="M1584,466 Q1659,559 1735,504"/>
<path d="M1584,466 Q1561,480 1539,435"/>
<path d="M1584,466 Q1619,484 1654,418"/>
<path d="M1584,466 Q1643,591 1703,552"/>
<path d="M1584,466 Q1225,887 866,613"/>
<path d="M1584,466 Q1389,630 1195,332"/>
<path d="M1584,466 Q1548,497 1512,380"/>
<path d="M1584,466 Q1539,509 1494,420"/>
<path d="M1584,466 Q1540,490 1496,364"/>
<path d="M1584,466 Q1588,469 1592,363"/>
<path d="M1584,466 Q1513,626 1442,570"/>
<path d="M192,535 Q267,601 342,489"/>
<path d="M342,613 Q528,726 715,350"/>
<path d="M1332,258 Q1353,290 1374,274"/>
<path d="M1332,258 Q1263,372 1195,332"/>
<path d="M1332,258 Q1209,449 1086,346"/>
<path d="M1332,258 Q1288,785 1244,748"/>
<path d="M1332,258 Q1195,439 1058,317"/>
<path d="M1332,258 Q1113,532 894,395"/>
<path d="M448,802 Q574,914 700,579"/>
<path d="M448,802 Q671,945 894,395"/>
<path d="M1574,408 Q1365,637 1156,520"/>
<path d="M1654,418 Q1434,571 1214,344"/>
<path d="M1250,296 Q1203,549 1156,520"/>
<path d="M364,303 Q669,1103 975,800"/>
<path d="M364,303 Q643,506 922,324"/>
<path d="M364,303 Q403,340 442,311"/>
<path d="M364,303 Q894,1134 1425,759"/>
<path d="M1176,373 Q1166,528 1156,520"/>
<path d="M593,433 Q822,704 1051,482"/>
<path d="M593,433 Q1063,1023 1533,603"/>
<path d="M593,433 Q572,452 552,399"/>
<path d="M593,433 Q1196,905 1800,536"/>
<path d="M593,433 Q1092,754 1592,363"/>
<path d="M593,433 Q1010,804 1428,472"/>
<path d="M593,433 Q735,800 878,663"/>
<path d="M241,477 Q283,505 326,468"/>
<path d="M1288,635 Q851,966 415,408"/>
<path d="M1288,635 Q1222,669 1156,520"/>
<path d="M1303,673 Q859,909 415,358"/>
<path d="M1303,673 Q1353,708 1403,408"/>
<path d="M1303,673 Q1443,774 1584,466"/>
<path d="M1303,673 Q1214,720 1125,464"/>
<path d="M1303,673 Q1165,749 1027,647"/>
<path d="M1303,673 Q1245,721 1187,677"/>
<path d="M1303,673 Q1309,679 1316,475"/>
<path d="M1630,523 Q1578,565 1527,508"/>
<path d="M1630,523 Q1377,703 1125,464"/>
<path d="M1630,523 Q1607,534 1584,466"/>
<path d="M552,399 Q1039,882 1527,508"/>
<path d="M552,399 Q1055,919 1559,624"/>
<path d="M552,399 Q756,729 960,561"/>
<path d="M552,399 Q447,564 342,489"/>
<path d="M552,399 Q1042,908 1533,603"/>
<path d="M1563,351 Q1372,817 1181,636"/>
<path d="M1563,351 Q1261,801 960,561"/>
<path d="M1503,561 Q1314,699 1125,464"/>
<path d="M1503,561 Q1329,668 1156,520"/>
<path d="M1482,434 Q1319,627 1156,520"/>
<path d="M1186,515 Q1093,567 1000,507"/>
<path d="M1186,515 Q1155,545 1125,464"/>
<path d="M1412,584 Q982,833 552,560"/>
<path d="M1412,584 Q1462,627 1512,380"/>
<path d="M1412,584 Q1513,679 1614,604"/>
<path d="M1412,584 Q1206,754 1000,507"/>
<path d="M1412,584 Q1331,626 1250,296"/>
<path d="M1412,584 Q1373,622 1334,542"/>
<path d="M1412,584 Q1360,615 1308,572"/>
<path d="M1412,584 Q1373,637 1335,600"/>
<path d="M1412,584 Q1142,927 873,777"/>
<path d="M1412,584 Q1240,753 1069,554"/>
<path d="M1412,584 Q1145,847 878,663"/>
<path d="M1229,694 Q1475,860 1722,461"/>
<path d="M1229,694 Q1396,812 1563,351"/>
<path d="M1229,694 Q1192,727 1156,520"/>
<path d="M471,433 Q999,1010 1527,508"/>
<path d="M471,433 Q525,460 580,268"/>
<path d="M471,433 Q684,756 898,639"/>
<path d="M471,433 Q723,1037 975,800"/>
<path d="M471,433 Q443,451 415,408"/>
<path d="M471,433 Q406,661 342,613"/>
<path d="M471,433 Q431,463 391,439"/>
<path d="M471,433 Q504,481 538,461"/>
<path d="M471,433 Q469,609 467,608"/>
<path d="M471,433 Q528,484 585,444"/>
<path d="M471,433 Q1017,809 1563,351"/>
<path d="M471,433 Q511,458 552,399"/>
<path d="M471,433 Q571,497 672,429"/>
<path d="M471,433 Q422,469 374,427"/>
<path d="M471,433 Q444,496 418,472"/>
<path d="M471,433 Q600,525 730,431"/>
<path d="M471,433 Q672,902 873,777"/>
<path d="M471,433 Q385,673 300,592"/>
<path d="M1174,493 Q1149,506 1125,464"/>
<path d="M1168,233 Q1113,352 1058,317"/>
<path d="M1168,233 Q792,794 416,600"/>
<path d="M1168,233 Q1031,506 894,395"/>
<path d="M1168,233 Q1181,345 1195,332"/>
<path d="M1323,487 Q1239,564 1156,520"/>
<path d="M1416,538 Q1520,630 1625,544"/>
<path d="M1416,538 Q1471,582 1527,508"/>
<path d="M1416,538 Q1061,815 707,380"/>
<path d="M1416,538 Q1431,645 1447,630"/>
<path d="M903,693 Q816,775 730,431"/>
<path d="M903,693 Q995,759 1087,624"/>
<path d="M903,693 Q950,717 997,687"/>
<path d="M1661,525 Q1408,654 1156,520"/>
<path d="M957,423 Q828,700 700,579"/>
<path d="M957,423 Q947,469 937,463"/>
<path d="M957,423 Q1260,621 1563,351"/>
<path d="M1159,542 Q1142,556 1125,464"/>
<path d="M1159,542 Q1157,542 1156,520"/>
<path d="M1051,482 Q1088,518 1125,464"/>
<path d="M1051,482 Q1292,774 1533,603"/>
<path d="M1051,482 Q696,840 342,489"/>
<path d="M1175,566 Q795,839 415,408"/>
<path d="M1175,566 Q1212,597 1250,296"/>
<path d="M1175,566 Q1294,680 1413,366"/>
<path d="M1175,566 Q1241,623 1308,572"/>
<path d="M1175,566 Q1165,571 1156,520"/>
<path d="M1175,566 Q834,847 493,490"/>
<path d="M1414,657 Q1275,779 1136,565"/>
<path d="M1414,657 Q1404,666 1394,619"/>
<path d="M1414,657 Q1362,705 1311,552"/>
<path d="M1194,480 Q1159,505 1125,464"/>
<path d="M894,395 Q1231,608 1569,269"/>
<path d="M1134,362 Q1164,385 1195,332"/>
<path d="M1071,566 Q1098,590 1125,464"/>
<path d="M1071,566 Q656,790 241,477"/>
<path d="M1385,557 Q1255,646 1125,464"/>
<path d="M942,589 Q774,709 607,577"/>
<path d="M942,589 Q1250,924 1559,624"/>
<path d="M942,589 Q904,633 866,613"/>
<path d="M942,589 Q1033,659 1125,464"/>
<path d="M942,589 Q902,625 862,599"/>
<path d="M942,589 Q1172,795 1403,408"/>
<path d="M942,589 Q1083,714 1225,418"/>
<path d="M1071,301 Q743,650 415,358"/>
<path d="M1290,335 Q1242,371 1195,332"/>
<path d="M1618,484 Q1302,980 986,753"/>
<path d="M1618,484 Q1572,538 1527,508"/>
<path d="M418,472 Q972,830 1527,508"/>
<path d="M418,472 Q1049,1085 1680,332"/>
<path d="M418,472 Q593,628 768,294"/>
<path d="M418,472 Q799,916 1181,636"/>
<path d="M418,472 Q910,964 1403,408"/>
<path d="M418,472 Q665,763 913,564"/>
<path d="M418,472 Q696,881 975,648"/>
<path d="M418,472 Q596,776 774,628"/>
<path d="M418,472 Q787,817 1156,520"/>
<path d="M418,472 Q677,610 937,463"/>
<path d="M1714,435 Q1393,1061 1072,881"/>
<path d="M1097,807 Q784,1018 471,433"/>
<path d="M1097,807 Q730,1059 364,303"/>
<path d="M1097,807 Q826,964 556,342"/>
<path d="M1097,807 Q906,922 715,350"/>
<path d="M1097,807 Q1012,907 928,859"/>
<path d="M1097,807 Q1126,831 1156,520"/>
<path d="M768,318 Q822,422 876,380"/>
<path d="M1184,594 Q1387,785 1590,579"/>
<path d="M1184,594 Q1144,614 1105,594"/>
<path d="M1184,594 Q1066,659 949,445"/>
<path d="M1184,594 Q934,819 685,390"/>
<path d="M1184,594 Q907,790 630,602"/>
<path d="M1254,735 Q1408,848 1563,351"/>
<path d="M1618,555 Q1608,561 1598,445"/>
<path d="M1618,555 Q1343,807 1069,554"/>
<path d="M1272,429 Q1198,521 1125,464"/>
<path d="M1272,429 Q756,777 241,477"/>
<path d="M1272,429 Q1488,648 1705,521"/>
<path d="M1087,624 Q1012,683 937,463"/>
<path d="M1087,624 Q1134,661 1181,636"/>
<path d="M1087,624 Q1407,896 1727,472"/>
<path d="M1087,624 Q1026,667 966,381"/>
<path d="M685,390 Q550,512 415,358"/>
<path d="M685,390 Q1044,719 1403,408"/>
<path d="M685,390 Q700,401 715,350"/>
<path d="M685,390 Q846,683 1008,559"/>
<path d="M363,648 Q405,672 448,295"/>
<path d="M1185,265 Q1199,353 1214,344"/>
<path d="M1487,582 Q1507,597 1527,508"/>
<path d="M1487,582 Q1523,659 1559,624"/>
<path d="M1487,582 Q1238,793 989,547"/>
<path d="M1487,582 Q1535,612 1584,466"/>
<path d="M1442,570 Q997,898 552,399"/>
<path d="M1442,570 Q1225,777 1009,377"/>
<path d="M1442,570 Q1328,641 1214,344"/>
<path d="M1442,570 Q892,938 342,489"/>
<path d="M1031,472 Q1078,503 1125,464"/>
<path d="M1031,472 Q1093,562 1156,520"/>
<path d="M1429,429 Q1496,475 1563,351"/>
<path d="M580,268 Q1069,1057 1559,624"/>
<path d="M580,268 Q650,329 721,236"/>
<path d="M580,268 Q509,408 438,372"/>
<path d="M580,268 Q777,492 974,343"/>
<path d="M580,268 Q788,892 997,687"/>
<path d="M975,800 Q913,850 851,347"/>
<path d="M975,800 Q845,892 715,350"/>
<path d="M975,800 Q837,896 700,579"/>
<path d="M975,800 Q941,821 908,263"/>
<path d="M975,800 Q802,935 629,647"/>
<path d="M975,800 Q956,813 937,463"/>
<path d="M1308,572 Q1232,645 1156,520"/>
<path d="M1308,572 Q1346,592 1385,557"/>
<path d="M1308,572 Q1270,598 1233,527"/>
<path d="M1308,572 Q1216,657 1125,464"/>
<path d="M1308,572 Q1282,585 1257,542"/>
<path d="M1308,572 Q1311,573 1314,531"/>
<path d="M1308,572 Q1351,654 1394,619"/>
<path d="M1308,572 Q1298,642 1288,635"/>
<path d="M1308,572 Q1021,777 734,156"/>
<path d="M1308,572 Q1364,622 1421,482"/>
<path d="M1308,572 Q1354,641 1401,595"/>
<path d="M538,461 Q1014,980 1491,541"/>
<path d="M538,461 Q622,504 707,380"/>
<path d="M538,461 Q502,638 467,608"/>
<path d="M538,461 Q1048,959 1559,624"/>
<path d="M538,461 Q677,780 816,676"/>
<path d="M538,461 Q596,681 654,637"/>
<path d="M1598,445 Q1644,484 1690,369"/>
<path d="M1598,445 Q1561,560 1524,530"/>
<path d="M1598,445 Q1505,510 1413,366"/>
<path d="M1598,445 Q1629,468 1661,394"/>
<path d="M1598,445 Q1634,491 1670,460"/>
<path d="M1598,445 Q1270,785 942,510"/>
<path d="M1598,445 Q1303,777 1008,559"/>
<path d="M1598,445 Q1253,1013 909,768"/>
<path d="M1598,445 Q1568,463 1539,435"/>
<path d="M1598,445 Q1349,903 1100,708"/>
<path d="M1598,445 Q1586,454 1574,408"/>
<path d="M1598,445 Q1609,454 1621,429"/>
<path d="M1598,445 Q1361,678 1125,464"/>
<path d="M1598,445 Q1610,455 1623,406"/>
<path d="M1598,445 Q1299,684 1000,507"/>
<path d="M1598,445 Q1194,806 790,464"/>
<path d="M1598,445 Q1662,531 1727,472"/>
<path d="M1598,445 Q1656,486 1714,435"/>
<path d="M1598,445 Q1591,469 1584,466"/>
<path d="M467,608 Q536,668 606,525"/>
<path d="M467,608 Q749,841 1031,472"/>
<path d="M467,608 Q716,788 966,381"/>
<path d="M467,608 Q664,724 862,599"/>
<path d="M467,608 Q738,858 1009,377"/>
<path d="M467,608 Q414,660 361,575"/>
<path d="M467,608 Q840,857 1214,344"/>
<path d="M975,648 Q821,786 668,409"/>
<path d="M975,648 Q1348,945 1722,461"/>
<path d="M975,648 Q1102,811 1229,694"/>
<path d="M975,648 Q1104,744 1234,590"/>
<path d="M975,648 Q992,662 1009,365"/>
<path d="M1305,379 Q1250,426 1195,332"/>
<path d="M1305,379 Q1181,496 1058,317"/>
<path d="M1305,379 Q1230,558 1156,520"/>
<path d="M1322,293 Q1506,549 1690,369"/>
<path d="M1322,293 Q1258,373 1195,332"/>
<path d="M1322,293 Q1190,416 1058,317"/>
<path d="M511,208 Q442,482 374,427"/>
<path d="M790,697 Q957,805 1125,464"/>
<path d="M790,697 Q826,719 862,599"/>
<path d="M1461,659 Q1567,760 1673,505"/>
<path d="M1461,659 Q1494,688 1527,508"/>
<path d="M1461,659 Q1114,880 768,528"/>
<path d="M1461,659 Q1217,845 974,343"/>
<path d="M1461,659 Q1594,778 1727,472"/>
<path d="M1461,659 Q972,1006 483,619"/>
<path d="M1461,659 Q1179,850 898,639"/>
<path d="M1461,659 Q1035,1036 610,415"/>
<path d="M1461,659 Q1446,673 1431,507"/>
<path d="M1461,659 Q1218,832 975,648"/>
<path d="M1461,659 Q1097,1014 734,156"/>
<path d="M1461,659 Q1283,803 1105,594"/>
<path d="M1461,659 Q926,986 391,439"/>
<path d="M1461,659 Q1266,1035 1072,881"/>
<path d="M1461,659 Q1121,845 782,370"/>
<path d="M1461,659 Q1585,742 1709,566"/>
<path d="M1461,659 Q1559,747 1657,444"/>
<path d="M1461,659 Q1324,750 1187,677"/>
<path d="M1461,659 Q1229,871 997,687"/>
<path d="M1461,659 Q1423,679 1385,557"/>
<path d="M1461,659 Q1168,822 876,380"/>
<path d="M1461,659 Q1092,1187 724,908"/>
<path d="M1461,659 Q1345,797 1229,694"/>
<path d="M1461,659 Q1570,720 1680,332"/>
<path d="M1461,659 Q999,1078 538,461"/>
<path d="M1461,659 Q1293,760 1125,464"/>
<path d="M1461,659 Q1387,705 1314,531"/>
<path d="M1461,659 Q939,1033 418,472"/>
<path d="M1461,659 Q970,1239 480,764"/>
<path d="M1461,659 Q1389,980 1318,933"/>
<path d="M1461,659 Q1265,767 1069,554"/>
<path d="M1142,208 Q929,823 717,665"/>
<path d="M1142,208 Q1075,403 1009,365"/>
<path d="M1142,208 Q1058,695 975,648"/>
<path d="M1142,208 Q742,946 342,613"/>
<path d="M1142,208 Q1168,353 1195,332"/>
<path d="M1443,221 Q1446,552 1449,551"/>
<path d="M1443,221 Q1503,393 1563,351"/>
<path d="M342,489 Q382,588 423,561"/>
<path d="M342,489 Q334,496 326,468"/>
<path d="M342,489 Q290,519 238,462"/>
<path d="M342,489 Q427,539 512,311"/>
<path d="M1214,344 Q1094,749 975,648"/>
<path d="M1214,344 Q1234,751 1254,735"/>
<path d="M1214,344 Q1204,348 1195,332"/>
<path d="M1214,344 Q1224,596 1234,590"/>
<path d="M1214,344 Q831,685 448,295"/>
<path d="M1519,405 Q1558,480 1598,445"/>
<path d="M960,561 Q830,685 700,579"/>
<path d="M960,561 Q794,723 628,321"/>
<path d="M960,561 Q888,713 816,676"/>
<path d="M556,342 Q765,943 975,800"/>
<path d="M556,342 Q458,656 361,575"/>
<path d="M556,342 Q727,763 898,639"/>
<path d="M556,342 Q523,608 491,592"/>
<path d="M556,342 Q436,524 316,446"/>
<path d="M556,342 Q502,370 448,295"/>
<path d="M556,342 Q583,428 610,415"/>
<path d="M556,342 Q683,488 810,370"/>
<path d="M556,342 Q473,521 391,439"/>
<path d="M556,342 Q454,426 352,261"/>
<path d="M556,342 Q534,356 512,311"/>
<path d="M556,342 Q459,733 363,648"/>
<path d="M556,342 Q513,459 471,433"/>
<path d="M556,342 Q618,375 681,297"/>
<path d="M556,342 Q554,561 552,560"/>
<path d="M556,342 Q533,356 511,208"/>
<path d="M556,342 Q441,527 326,468"/>
<path d="M556,342 Q449,582 342,489"/>
<path d="M556,342 Q413,714 271,630"/>
<path d="M556,342 Q592,362 628,321"/>
<path d="M556,342 Q614,482 672,429"/>
<path d="M556,342 Q515,600 474,575"/>
<path d="M556,342 Q487,535 418,472"/>
<path d="M556,342 Q643,506 730,431"/>
<path d="M901,898 Q1281,1225 1661,525"/>
<path d="M901,898 Q1206,1089 1511,593"/>
<path d="M901,898 Q1249,1165 1598,445"/>
<path d="M901,898 Q925,917 949,445"/>
<path d="M901,898 Q1094,1084 1288,635"/>
<path d="M901,898 Q1151,1071 1401,595"/>
<path d="M901,898 Q1003,975 1105,594"/>
<path d="M901,898 Q914,911 928,859"/>
<path d="M937,463 Q639,846 342,613"/>
<path d="M937,463 Q1024,768 1112,695"/>
<path d="M787,183 Q831,407 876,380"/>
<path d="M787,183 Q747,212 708,192"/>
<path d="M787,183 Q760,200 734,156"/>
<path d="M787,183 Q580,600 374,427"/>
<path d="M787,183 Q830,808 873,777"/>
<path d="M787,183 Q876,430 966,381"/>
<path d="M630,602 Q1016,855 1403,408"/>
<path d="M630,602 Q629,602 628,321"/>
<path d="M630,602 Q680,644 730,431"/>
<path d="M630,602 Q657,623 685,390"/>
<path d="M630,602 Q665,621 700,579"/>
<path d="M1234,590 Q1159,836 1084,789"/>
<path d="M1234,590 Q1116,999 999,901"/>
<path d="M1234,590 Q1231,695 1229,694"/>
<path d="M1394,619 Q943,1004 493,490"/>
<path d="M1394,619 Q904,874 415,408"/>
<path d="M396,632 Q532,749 668,409"/>
<path d="M396,632 Q799,897 1203,196"/>
<path d="M396,632 Q786,933 1176,373"/>
<path d="M396,632 Q681,900 966,381"/>
<path d="M396,632 Q629,808 862,599"/>
<path d="M396,632 Q474,678 552,399"/>
<path d="M396,632 Q294,722 192,535"/>
<path d="M1467,352 Q1515,396 1563,351"/>
<path d="M1467,352 Q1355,834 1244,748"/>
<path d="M1467,352 Q1262,456 1058,317"/>
<path d="M1467,352 Q1180,676 894,395"/>
<path d="M1467,352 Q1276,470 1086,346"/>
<path d="M1069,554 Q1379,754 1690,369"/>
<path d="M1069,554 Q1097,571 1125,464"/>
<path d="M1069,554 Q1275,708 1482,434"/>
<path d="M1069,554 Q1231,744 1394,619"/>
<path d="M1069,554 Q1048,657 1027,647"/>
<path d="M1136,565 Q1068,602 1000,507"/>
<path d="M1136,565 Q1130,570 1125,464"/>
<path d="M1136,565 Q1309,673 1482,434"/>
<path d="M922,324 Q632,898 342,613"/>
<path d="M922,324 Q944,393 966,381"/>
<path d="M483,619 Q449,644 416,600"/>
<path d="M483,619 Q848,974 1214,344"/>
<path d="M810,370 Q1012,475 1214,344"/>
<path d="M810,370 Q762,408 715,350"/>
<path d="M1146,401 Q1135,473 1125,464"/>
<path d="M977,494 Q874,574 771,480"/>
<path d="M977,494 Q1051,533 1125,464"/>
<path d="M977,494 Q853,567 730,431"/>
<path d="M326,468 Q418,525 511,208"/>
<path d="M326,468 Q725,718 1125,464"/>
<path d="M326,468 Q400,638 474,575"/>
<path d="M326,468 Q408,650 491,592"/>
<path d="M326,468 Q419,532 512,311"/>
<path d="M1125,576 Q1125,576 1125,464"/>
<path d="M1125,576 Q1140,589 1156,520"/>
<path d="M1533,603 Q1530,605 1527,508"/>
<path d="M1533,603 Q1329,760 1125,464"/>
<path d="M1533,603 Q937,940 342,489"/>
<path d="M361,575 Q404,602 448,295"/>
<path d="M361,575 Q483,645 606,525"/>
<path d="M1421,482 Q1407,626 1394,619"/>
<path d="M1421,482 Q1024,867 628,321"/>
<path d="M1421,482 Q1335,536 1250,296"/>
<path d="M1421,482 Q1288,644 1156,520"/>
<path d="M1401,595 Q1263,678 1125,464"/>
<path d="M1401,595 Q1278,710 1156,520"/>
<path d="M1503,620 Q1564,671 1625,544"/>
<path d="M1503,620 Q1515,627 1527,508"/>
<path d="M1503,620 Q1475,648 1447,630"/>
<path d="M1503,620 Q1020,904 538,461"/>
<path d="M546,805 Q513,832 480,764"/>
<path d="M847,819 Q1218,1102 1590,579"/>
<path d="M847,819 Q631,1025 415,408"/>
<path d="M847,819 Q903,858 960,561"/>
<path d="M847,819 Q887,892 928,859"/>
<path d="M1615,501 Q1571,534 1527,508"/>
<path d="M1615,501 Q1370,657 1125,464"/>
<path d="M1615,501 Q1233,730 851,347"/>
<path d="M700,579 Q940,760 1181,636"/>
<path d="M700,579 Q521,771 342,613"/>
<path d="M700,579 Q664,679 629,647"/>
<path d="M708,192 Q1099,737 1491,541"/>
<path d="M708,192 Q657,564 606,525"/>
<path d="M708,192 Q587,685 467,608"/>
<path d="M708,192 Q961,505 1214,344"/>
<path d="M1712,594 Q1618,643 1524,530"/>
<path d="M1712,594 Q1704,598 1696,387"/>
<path d="M1243,240 Q1013,676 783,541"/>
<path d="M1243,240 Q819,964 396,632"/>
<path d="M1243,240 Q1228,353 1214,344"/>
<path d="M1243,240 Q1164,391 1086,346"/>
<path d="M1157,716 Q1342,891 1527,508"/>
<path d="M1157,716 Q943,918 730,431"/>
<path d="M1157,716 Q1193,738 1229,694"/>
<path d="M1157,716 Q1169,725 1181,636"/>
<path d="M1157,716 Q1141,730 1125,464"/>
<path d="M1157,716 Q1012,789 868,447"/>
<path d="M1157,716 Q1009,841 862,599"/>
<path d="M1157,716 Q1363,826 1569,269"/>
<path d="M1157,716 Q1061,798 966,381"/>
<path d="M1157,716 Q1200,780 1244,748"/>
<path d="M1157,716 Q1172,728 1187,677"/>
<path d="M1063,752 Q1067,754 1072,649"/>
<path d="M1063,752 Q865,939 668,409"/>
<path d="M969,434 Q1082,504 1195,332"/>
<path d="M969,434 Q718,829 467,608"/>
<path d="M969,434 Q1013,467 1058,317"/>
<path d="M969,434 Q607,893 245,571"/>
<path d="M969,434 Q1004,612 1039,592"/>
<path d="M969,434 Q634,781 300,592"/>
<path d="M969,434 Q1047,504 1125,464"/>
<path d="M969,434 Q1205,739 1442,570"/>
<path d="M969,434 Q868,676 767,583"/>
<path d="M645,467 Q885,618 1125,464"/>
<path d="M645,467 Q717,735 790,697"/>
<path d="M645,467 Q900,672 1156,520"/>
<path d="M1204,464 Q1164,486 1125,464"/>
<path d="M1614,604 Q1180,964 746,608"/>
<path d="M1614,604 Q1507,663 1400,396"/>
<path d="M1614,604 Q1230,1021 847,819"/>
<path d="M1614,604 Q1287,870 960,561"/>
<path d="M1614,604 Q1548,647 1482,434"/>
<path d="M1614,604 Q1233,1071 852,788"/>
<path d="M1614,604 Q1174,857 734,156"/>
<path d="M1614,604 Q1346,899 1078,679"/>
<path d="M1614,604 Q1588,622 1562,392"/>
<path d="M715,350 Q1218,888 1722,461"/>
<path d="M715,350 Q544,512 374,427"/>
<path d="M839,474 Q1199,843 1559,624"/>
<path d="M839,474 Q857,492 876,380"/>
<path d="M839,474 Q1116,878 1394,619"/>
<path d="M839,474 Q534,711 229,131"/>
<path d="M839,474 Q997,642 1156,520"/>
<path d="M1581,549 Q1589,553 1598,445"/>
<path d="M1581,549 Q1412,906 1244,748"/>
<path d="M1581,549 Q1645,617 1709,566"/>
<path d="M1581,549 Q1237,803 894,395"/>
<path d="M1292,244 Q1282,436 1272,429"/>
<path d="M1292,244 Q1247,275 1203,196"/>
<path d="M1292,244 Q1324,264 1356,243"/>
<path d="M1292,244 Q1243,364 1195,332"/>
<path d="M1292,244 Q1217,315 1142,208"/>
<path d="M1292,244 Q1165,703 1039,592"/>
<path d="M1292,244 Q844,927 396,632"/>
<path d="M1292,244 Q1181,642 1071,566"/>
<path d="M415,408 Q785,715 1156,520"/>
<path d="M1589,312 Q1576,361 1563,351"/>
<path d="M1157,617 Q1078,695 1000,507"/>
<path d="M1157,617 Q892,772 628,321"/>
<path d="M1157,617 Q1113,639 1069,554"/>
<path d="M1157,617 Q1156,617 1156,520"/>
<path d="M1157,617 Q825,892 493,490"/>
<path d="M997,687 Q1262,821 1527,508"/>
<path d="M997,687 Q645,912 294,224"/>
<path d="M997,687 Q991,757 986,753"/>
<path d="M997,687 Q978,699 960,561"/>
<path d="M997,687 Q1042,722 1087,624"/>
<path d="M997,687 Q929,724 862,599"/>
<path d="M997,687 Q717,954 438,372"/>
<path d="M997,687 Q941,721 886,295"/>
<path d="M997,687 Q1037,708 1078,679"/>
<path d="M997,687 Q1092,738 1187,677"/>
<path d="M997,687 Q1359,910 1722,461"/>
<path d="M997,687 Q954,722 911,678"/>
<path d="M997,687 Q962,887 928,859"/>
<path d="M997,687 Q922,726 848,488"/>
<path d="M997,687 Q952,746 907,713"/>
<path d="M997,687 Q1040,813 1084,789"/>
<path d="M1539,435 Q1471,477 1403,408"/>
<path d="M1539,435 Q1257,823 975,648"/>
<path d="M1246,405 Q1259,437 1272,429"/>
<path d="M1246,405 Q1301,449 1356,243"/>
<path d="M1246,405 Q1185,504 1125,464"/>
<path d="M1246,405 Q1404,536 1563,351"/>
<path d="M1246,405 Q1310,463 1374,274"/>
<path d="M1246,405 Q1148,561 1051,482"/>
<path d="M1246,405 Q1389,703 1533,603"/>
<path d="M1246,405 Q1371,502 1497,332"/>
<path d="M1246,405 Q1126,521 1006,409"/>
<path d="M1246,405 Q1325,455 1404,342"/>
<path d="M1246,405 Q1347,618 1449,551"/>
<path d="M1246,405 Q965,598 685,390"/>
<path d="M1246,405 Q1062,833 878,663"/>
<path d="M1246,405 Q1158,613 1071,566"/>
<path d="M1505,656 Q1532,681 1559,624"/>
<path d="M480,764 Q696,881 913,564"/>
<path d="M480,764 Q802,931 1125,464"/>
<path d="M480,764 Q998,1109 1517,314"/>
<path d="M480,764 Q464,813 448,802"/>
<path d="M1316,475 Q1220,563 1125,464"/>
<path d="M1316,475 Q1023,666 730,431"/>
<path d="M968,821 Q1347,1088 1727,472"/>
<path d="M968,821 Q948,869 928,859"/>
<path d="M968,821 Q849,914 730,431"/>
<path d="M968,821 Q967,821 966,381"/>
<path d="M968,821 Q915,873 862,599"/>
<path d="M1413,366 Q1366,408 1320,323"/>
<path d="M1062,398 Q1121,688 1181,636"/>
<path d="M1062,398 Q904,741 746,608"/>
<path d="M1062,398 Q1014,425 966,381"/>
<path d="M1073,520 Q1099,533 1125,464"/>
<path d="M1187,677 Q1081,865 975,800"/>
<path d="M1187,677 Q1220,757 1254,735"/>
<path d="M1187,677 Q1184,679 1181,636"/>
<path d="M1187,677 Q1373,807 1559,624"/>
<path d="M1187,677 Q1076,764 966,381"/>
<path d="M1187,677 Q764,1015 342,613"/>
<path d="M1187,677 Q1171,685 1156,520"/>
<path d="M1187,677 Q1143,741 1100,708"/>
<path d="M1187,677 Q1156,701 1125,464"/>
<path d="M1187,677 Q1211,721 1236,706"/>
<path d="M1187,677 Q1149,731 1112,695"/>
<path d="M1187,677 Q958,894 730,431"/>
<path d="M1187,677 Q1104,930 1021,882"/>
<path d="M589,490 Q541,516 493,490"/>
<path d="M654,637 Q869,982 1084,789"/>
<path d="M1125,464 Q1342,803 1559,624"/>
<path d="M1125,464 Q1206,698 1288,635"/>
<path d="M1125,464 Q1101,695 1078,679"/>
<path d="M1125,464 Q1109,479 1093,429"/>
<path d="M1125,464 Q1219,546 1314,441"/>
<path d="M1125,464 Q1042,641 960,561"/>
<path d="M1125,464 Q1031,546 937,463"/>
<path d="M1125,464 Q1322,655 1520,445"/>
<path d="M1125,464 Q1218,611 1311,552"/>
<path d="M1125,464 Q762,665 399,455"/>
<path d="M1125,464 Q1309,634 1494,420"/>
<path d="M1125,464 Q1224,576 1323,487"/>
<path d="M1125,464 Q1049,555 974,483"/>
<path d="M1125,464 Q1222,544 1320,323"/>
<path d="M1125,464 Q1393,667 1661,525"/>
<path d="M1125,464 Q929,603 734,156"/>
<path d="M1125,464 Q1423,657 1722,461"/>
<path d="M1125,464 Q749,757 374,427"/>
<path d="M1125,464 Q1098,488 1071,301"/>
<path d="M1125,464 Q1259,697 1394,619"/>
<path d="M1125,464 Q1081,527 1038,495"/>
<path d="M1125,464 Q1000,566 876,380"/>
<path d="M1125,464 Q1191,606 1257,542"/>
<path d="M1125,464 Q1140,530 1156,520"/>
<path d="M1125,464 Q1414,738 1703,552"/>
<path d="M1125,464 Q1187,519 1250,296"/>
<path d="M1039,592 Q1082,620 1125,464"/>
<path d="M1039,592 Q795,752 552,560"/>
<path d="M889,913 Q1224,1226 1559,624"/>
<path d="M889,913 Q1103,1089 1318,933"/>
<path d="M889,913 Q1022,994 1156,520"/>
<path d="M316,446 Q235,580 155,506"/>
<path d="M672,429 Q696,441 721,236"/>
<path d="M672,429 Q943,656 1214,344"/>
<path d="M1107,270 Q1141,401 1176,373"/>
<path d="M1107,270 Q1151,371 1195,332"/>
<path d="M1107,270 Q1107,386 1107,386"/>
<path d="M1142,735 Q1350,857 1559,624"/>
<path d="M1142,735 Q1164,755 1187,677"/>
<path d="M668,409 Q521,542 374,427"/>
<path d="M866,613 Q1196,912 1527,508"/>
<path d="M866,613 Q609,764 352,261"/>
<path d="M866,613 Q817,649 768,294"/>
<path d="M866,613 Q864,614 862,599"/>
<path d="M866,613 Q783,661 700,579"/>
<path d="M866,613 Q889,628 913,564"/>
<path d="M866,613 Q937,651 1009,377"/>
<path d="M866,613 Q901,634 937,463"/>
<path d="M866,613 Q1273,1018 1680,332"/>
<path d="M866,613 Q995,679 1125,464"/>
<path d="M866,613 Q612,760 358,343"/>
<path d="M866,613 Q1134,865 1403,408"/>
<path d="M866,613 Q920,688 975,648"/>
<path d="M717,665 Q921,783 1125,464"/>
<path d="M717,665 Q827,751 937,463"/>
<path d="M717,665 Q858,996 999,901"/>
<path d="M717,665 Q789,725 862,599"/>
<path d="M730,431 Q955,831 1181,636"/>
<path d="M730,431 Q715,588 700,579"/>
<path d="M730,431 Q921,793 1112,695"/>
<path d="M730,431 Q1149,813 1569,269"/>
<path d="M730,431 Q749,449 768,294"/>
<path d="M730,431 Q536,724 342,613"/>
<path d="M730,431 Q699,448 668,409"/>
<path d="M730,431 Q983,906 1236,706"/>
<path d="M730,431 Q773,705 816,676"/>
<path d="M1496,364 Q1599,616 1703,552"/>
<path d="M1496,364 Q1511,518 1527,508"/>
<path d="M1496,364 Q1578,589 1661,525"/>
<path d="M1496,364 Q1529,383 1563,351"/>
<path d="M1264,308 Q1229,354 1195,332"/>
<path d="M392,537 Q441,619 491,592"/>
<path d="M392,537 Q975,934 1559,624"/>
<path d="M392,537 Q318,630 245,571"/>
<path d="M392,537 Q316,577 241,477"/>
<path d="M392,537 Q292,603 192,535"/>
<path d="M392,537 Q367,630 342,613"/>
<path d="M392,537 Q465,577 538,447"/>
<path d="M392,537 Q977,902 1563,351"/>
<path d="M392,537 Q377,660 363,648"/>
<path d="M392,537 Q395,539 399,455"/>
<path d="M392,537 Q472,617 552,560"/>
<path d="M392,537 Q359,563 326,468"/>
<path d="M392,537 Q429,642 467,608"/>
<path d="M392,537 Q367,558 342,489"/>
<path d="M392,537 Q442,569 493,490"/>
<path d="M392,537 Q331,683 271,630"/>
<path d="M392,537 Q404,609 416,600"/>
<path d="M392,537 Q774,729 1156,520"/>
<path d="M392,537 Q376,585 361,575"/>
<path d="M392,537 Q433,606 474,575"/>
<path d="M392,537 Q394,633 396,632"/>
<path d="M392,537 Q561,649 730,431"/>
<path d="M392,537 Q346,622 300,592"/>
<path d="M898,639 Q1212,825 1527,508"/>
<path d="M898,639 Q1289,939 1680,332"/>
<path d="M898,639 Q813,685 729,619"/>
<path d="M898,639 Q833,688 768,294"/>
<path d="M898,639 Q882,651 866,613"/>
<path d="M898,639 Q880,650 862,599"/>
<path d="M898,639 Q799,700 700,579"/>
<path d="M898,639 Q936,668 975,648"/>
<path d="M898,639 Q763,754 629,647"/>
<path d="M898,639 Q836,673 774,628"/>
<path d="M898,639 Q852,666 806,490"/>
<path d="M245,571 Q605,867 966,381"/>
<path d="M245,571 Q553,841 862,599"/>
<path d="M245,571 Q258,639 271,630"/>
<path d="M391,439 Q628,735 866,613"/>
<path d="M391,439 Q664,698 937,463"/>
<path d="M782,370 Q570,552 358,343"/>
<path d="M782,370 Q816,394 851,347"/>
<path d="M782,370 Q863,1009 945,940"/>
<path d="M782,370 Q748,398 715,350"/>
<path d="M782,370 Q845,408 908,263"/>
<path d="M782,370 Q969,701 1156,520"/>
<path d="M681,297 Q705,455 730,431"/>
<path d="M681,297 Q1120,990 1559,624"/>
<path d="M681,297 Q802,1067 923,955"/>
<path d="M681,297 Q957,759 1233,527"/>
<path d="M681,297 Q1171,818 1661,394"/>
<path d="M923,955 Q997,1005 1072,881"/>
<path d="M923,955 Q941,965 960,561"/>
<path d="M767,583 Q1027,749 1287,610"/>
<path d="M767,583 Q866,637 966,381"/>
<path d="M767,583 Q814,643 862,599"/>
<path d="M767,583 Q883,995 999,901"/>
<path d="M767,583 Q990,705 1214,344"/>
<path d="M1320,369 Q1267,400 1214,344"/>
<path d="M1308,748 Q1047,905 787,183"/>
<path d="M1308,748 Q1515,912 1722,461"/>
<path d="M1308,748 Q1331,827 1355,806"/>
<path d="M610,415 Q550,627 491,592"/>
<path d="M610,415 Q468,587 326,468"/>
<path d="M610,415 Q463,530 316,446"/>
<path d="M1625,544 Q1514,612 1403,408"/>
<path d="M1625,544 Q1576,582 1527,508"/>
<path d="M1431,507 Q1479,545 1527,508"/>
<path d="M1431,507 Q1495,684 1559,624"/>
<path d="M1431,507 Q1572,601 1714,435"/>
<path d="M1431,507 Q1417,520 1403,408"/>
<path d="M1431,507 Q1293,595 1156,520"/>
<path d="M1543,545 Q1535,549 1527,508"/>
<path d="M1543,545 Q1369,664 1195,332"/>
<path d="M1543,545 Q1314,678 1086,346"/>
<path d="M1543,545 Q1334,740 1125,464"/>
<path d="M1543,545 Q1378,651 1214,344"/>
<path d="M1543,545 Q1563,562 1584,466"/>
<path d="M1735,504 Q1680,596 1625,544"/>
<path d="M1735,504 Q1631,604 1527,508"/>
<path d="M1735,504 Q1591,747 1447,630"/>
<path d="M724,908 Q1141,1273 1559,624"/>
<path d="M724,908 Q901,1084 1078,679"/>
<path d="M724,908 Q812,992 901,898"/>
<path d="M724,908 Q924,1022 1125,464"/>
<path d="M724,908 Q940,1113 1156,520"/>
<path d="M724,908 Q767,935 811,893"/>
<path d="M399,455 Q446,521 493,490"/>
<path d="M1234,373 Q1179,492 1125,464"/>
<path d="M1234,373 Q1121,633 1008,559"/>
<path d="M1234,373 Q1153,948 1072,881"/>
<path d="M1234,373 Q1195,541 1156,520"/>
<path d="M1234,373 Q1274,552 1314,531"/>
<path d="M1000,507 Q1116,604 1233,527"/>
<path d="M1000,507 Q1062,569 1125,464"/>
<path d="M1000,507 Q1197,765 1394,619"/>
<path d="M1000,507 Q1128,614 1257,542"/>
<path d="M1000,507 Q1078,560 1156,520"/>
<path d="M1000,507 Q1144,708 1288,635"/>
<path d="M1021,882 Q1290,1062 1559,624"/>
<path d="M1021,882 Q936,938 851,347"/>
<path d="M1162,606 Q972,733 782,606"/>
<path d="M1162,606 Q1124,656 1087,624"/>
<path d="M1673,505 Q1616,668 1559,624"/>
<path d="M1673,505 Q1407,870 1142,735"/>
<path d="M1673,505 Q1700,527 1727,472"/>
<path d="M1673,505 Q1372,1091 1072,881"/>
<path d="M1673,505 Q1260,792 848,488"/>
<path d="M474,575 Q1016,1121 1559,624"/>
<path d="M1128,284 Q1126,464 1125,464"/>
<path d="M1128,284 Q918,436 708,192"/>
<path d="M773,777 Q856,848 939,495"/>
<path d="M773,777 Q816,806 859,745"/>
<path d="M897,312 Q874,359 851,347"/>
<path d="M1072,881 Q870,1031 668,409"/>
<path d="M1072,881 Q743,1049 415,408"/>
<path d="M607,577 Q479,665 352,261"/>
<path d="M607,577 Q540,616 474,575"/>
<path d="M794,403 Q926,474 1058,317"/>
<path d="M794,403 Q762,459 730,431"/>
<path d="M1722,461 Q1520,1134 1318,933"/>
<path d="M781,513 Q1090,674 1400,396"/>
<path d="M1400,396 Q1495,645 1590,579"/>
<path d="M1400,396 Q777,840 155,506"/>
<path d="M1400,396 Q1456,428 1512,380"/>
<path d="M1400,396 Q1091,807 782,606"/>
<path d="M1400,396 Q1204,683 1008,559"/>
<path d="M866,422 Q784,518 703,459"/>
<path d="M866,422 Q1157,730 1449,551"/>
<path d="M866,422 Q1011,598 1156,520"/>
<path d="M796,383 Q824,808 852,788"/>
<path d="M796,383 Q960,625 1125,464"/>
<path d="M796,383 Q976,690 1156,520"/>
<path d="M796,383 Q836,409 876,380"/>
<path d="M886,295 Q590,533 294,224"/>
<path d="M886,295 Q936,781 986,753"/>
<path d="M886,295 Q1005,543 1125,464"/>
<path d="M886,295 Q808,505 730,431"/>
<path d="M1562,392 Q1626,452 1690,369"/>
<path d="M1562,392 Q1321,606 1081,460"/>
<path d="M1562,392 Q1580,459 1598,445"/>
<path d="M1562,392 Q1644,524 1727,472"/>
<path d="M1562,392 Q1629,449 1696,387"/>
<path d="M1562,392 Q1333,812 1105,594"/>
<path d="M1562,392 Q1359,637 1156,520"/>
<path d="M1562,392 Q1285,812 1008,559"/>
<path d="M1562,392 Q1343,659 1125,464"/>
<path d="M1562,392 Q1574,399 1587,330"/>
<path d="M1562,392 Q1590,503 1618,484"/>
<path d="M1562,392 Q1291,1035 1021,882"/>
<path d="M1562,392 Q1245,715 929,483"/>
<path d="M1562,392 Q1573,474 1584,466"/>
<path d="M512,311 Q736,761 960,561"/>
<path d="M1320,323 Q1308,353 1297,345"/>
<path d="M1320,323 Q1238,591 1156,520"/>
<path d="M1025,282 Q1041,330 1058,317"/>
<path d="M1512,380 Q1334,633 1156,520"/>
<path d="M1512,380 Q1243,677 974,483"/></g><g font-family="Monospace"><text y="363" x="1210" font-size="10" fill="#0000ff">iputils</text>
<text y="530" x="1562" font-size="10" fill="#6a6aa2">libmad</text>
<text y="564" x="907" font-size="10" fill="#6a6aa2">gd</text>
<text y="679" x="1065" font-size="10" fill="#6a6aa2">gdbm</text>
<text y="418" x="224" font-size="10" fill="#0000ff">rhino</text>
<text y="727" x="948" font-size="10" fill="#0000ff">python2-docutils</text>
<text y="559" x="991" font-size="11" fill="#6a6aa2">gpgme</text>
<text y="981" x="826" font-size="10" fill="#0000ff">urxvt-url-select</text>
<text y="561" x="369" font-size="13" fill="#0000ff">lib32-ati-dri</text>
<text y="293" x="945" font-size="10" fill="#0000ff">pptpclient</text>
<text y="572" x="1501" font-size="10" fill="#6a6aa2">mpg123</text>
<text y="365" x="990" font-size="10" fill="#6a6aa2">giflib</text>
<text y="600" x="400" font-size="10" fill="#6a6aa2">libxt</text>
<text y="298" x="270" font-size="10" fill="#0000ff">junit</text>
<text y="537" x="1065" font-size="10" fill="#0000ff">unzip</text>
<text y="664" x="1007" font-size="10" fill="#6a6aa2">libusb-compat</text>
<text y="243" x="1330" font-size="10" fill="#6a6aa2">libxfont</text>
<text y="381" x="946" font-size="16" fill="#6a6aa2">gtk2</text>
<text y="599" x="833" font-size="23" fill="#6a6aa2">gtk3</text>
<text y="387" x="1683" font-size="10" fill="#6a6aa2">jack</text>
<text y="594" x="1086" font-size="10" fill="#6a6aa2">gnutls</text>
<text y="552" x="1292" font-size="10" fill="#6a6aa2">dhcpcd</text>
<text y="332" x="1627" font-size="15" fill="#6a6aa2">ghostscript</text>
<text y="678" x="879" font-size="11" fill="#0000ff">mercurial</text>
<text y="541" x="741" font-size="10" fill="#6a6aa2">libxcomposite</text>
<text y="415" x="1033" font-size="10" fill="#0000ff">licenses</text>
<text y="917" x="984" font-size="10" fill="#6a6aa2">libxslt</text>
<text y="710" x="797" font-size="10" fill="#6a6aa2">libspectre</text>
<text y="236" x="651" font-size="12" fill="#6a6aa2">gstreamer0.10-base</text>
<text y="435" x="1159" font-size="10" fill="#0000ff">xorg-x11perf</text>
<text y="537" x="1658" font-size="10" fill="#6a6aa2">libproxy</text>
<text y="462" x="971" font-size="10" fill="#6a6aa2">libgpg-error</text>
<text y="382" x="501" font-size="17" fill="#0000ff">wireshark-cli</text>
<text y="283" x="1247" font-size="10" fill="#0000ff">cpufrequtils</text>
<text y="933" x="1273" font-size="28" fill="#0000ff">boost</text>
<text y="495" x="1025" font-size="10" fill="#0000ff">acpi</text>
<text y="380" x="675" font-size="10" fill="#6a6aa2">libsndfile</text>
<text y="542" x="1244" font-size="10" fill="#6a6aa2">gawk</text>
<text y="789" x="1065" font-size="10" fill="#0000ff">archey</text>
<text y="788" x="830" font-size="10" fill="#6a6aa2">libltdl</text>
<text y="330" x="1097" font-size="10" fill="#0000ff">wmname</text>
<text y="654" x="1139" font-size="10" fill="#0000ff">zathura-pdf-poppler</text>
<text y="343" x="215" font-size="21" fill="#6a6aa2">jre7-openjdk-headless</text>
<text y="766" x="968" font-size="10" fill="#0000ff">python2-feedparser</text>
<text y="298" x="1364" font-size="10" fill="#6a6aa2">xextproto</text>
<text y="624" x="1533" font-size="10" fill="#6a6aa2">gcc-libs</text>
<text y="347" x="820" font-size="14" fill="#0000ff">firefox</text>
<text y="619" x="713" font-size="10" fill="#6a6aa2">lcms2</text>
<text y="530" x="1492" font-size="10" fill="#0000ff">alsa-utils</text>
<text y="608" x="727" font-size="10" fill="#6a6aa2">sqlite</text>
<text y="521" x="1686" font-size="10" fill="#6a6aa2">libxcb</text>
<text y="263" x="866" font-size="12" fill="#0000ff">flashplugin</text>
<text y="363" x="924" font-size="10" fill="#0000ff">syslog-ng</text>
<text y="310" x="585" font-size="10" fill="#6a6aa2">startup-notification</text>
<text y="901" x="990" font-size="10" fill="#0000ff">feh</text>
<text y="893" x="791" font-size="16" fill="#6a6aa2">perl</text>
<text y="373" x="1094" font-size="10" fill="#6a6aa2">m4</text>
<text y="472" x="1702" font-size="11" fill="#6a6aa2">libxml2</text>
<text y="592" x="271" font-size="10" fill="#6a6aa2">libxrandr</text>
<text y="541" x="1465" font-size="10" fill="#6a6aa2">libpulse</text>
<text y="508" x="1460" font-size="19" fill="#0000ff">gomplay-git</text>
<text y="806" x="1243" font-size="23" fill="#0000ff">libreoffice-sdk</text>
<text y="317" x="1039" font-size="10" fill="#6a6aa2">libxmu</text>
<text y="489" x="1637" font-size="10" fill="#6a6aa2">opencore-amr</text>
<text y="386" x="1075" font-size="10" fill="#0000ff">xorg-utils</text>
<text y="375" x="1442" font-size="10" fill="#6a6aa2">flac</text>
<text y="418" x="1193" font-size="10" fill="#6a6aa2">sysfsutils</text>
<text y="536" x="1774" font-size="10" fill="#6a6aa2">xcb-util</text>
<text y="462" x="190" font-size="10" fill="#0000ff">lib32-intel-dri</text>
<text y="776" x="1180" font-size="11" fill="#0000ff">pstoedit</text>
<text y="372" x="403" font-size="10" fill="#6a6aa2">dbus-python</text>
<text y="292" x="1481" font-size="10" fill="#0000ff">terminus-font</text>
<text y="408" x="1311" font-size="11" fill="#0000ff">gstreamer0.10-good-plugins</text>
<text y="420" x="1478" font-size="10" fill="#6a6aa2">faad2</text>
<text y="363" x="1570" font-size="10" fill="#6a6aa2">libxvmc</text>
<text y="490" x="793" font-size="10" fill="#6a6aa2">lcms</text>
<text y="579" x="1577" font-size="10" fill="#6a6aa2">krb5</text>
<text y="530" x="1165" font-size="10" fill="#0000ff">iptables</text>
<text y="592" x="439" font-size="10" fill="#6a6aa2">lib32-fontconfig</text>
<text y="528" x="752" font-size="10" fill="#0000ff">links</text>
<text y="425" x="1136" font-size="10" fill="#0000ff">sudo</text>
<text y="706" x="1227" font-size="10" fill="#6a6aa2">atk</text>
<text y="647" x="998" font-size="10" fill="#0000ff">logrotate</text>
<text y="528" x="840" font-size="10" fill="#0000ff">socat</text>
<text y="647" x="682" font-size="10" fill="#6a6aa2">gsettings-desktop-schemas</text>
<text y="342" x="1339" font-size="10" fill="#6a6aa2">xorg-fonts-encodings</text>
<text y="391" x="1194" font-size="10" fill="#0000ff">xorg-xkbutils</text>
<text y="380" x="853" font-size="24" fill="#6a6aa2">gcc</text>
<text y="429" x="1608" font-size="10" fill="#6a6aa2">lame</text>
<text y="796" x="1142" font-size="12" fill="#0000ff">uniconvertor</text>
<text y="427" x="348" font-size="10" fill="#6a6aa2">alsa-lib</text>
<text y="447" x="846" font-size="10" fill="#6a6aa2">librsvg</text>
<text y="321" x="599" font-size="10" fill="#6a6aa2">dbus-core</text>
<text y="461" x="435" font-size="10" fill="#0000ff">alsa-oss</text>
<text y="214" x="1263" font-size="10" fill="#0000ff">xorg-xkbevd</text>
<text y="593" x="1495" font-size="10" fill="#0000ff">gperf</text>
<text y="237" x="1005" font-size="10" fill="#0000ff">xorg-xcursorgen</text>
<text y="558" x="865" font-size="10" fill="#6a6aa2">polkit</text>
<text y="741" x="1019" font-size="10" fill="#0000ff">aspell-en</text>
<text y="447" x="524" font-size="11" fill="#6a6aa2">mesa</text>
<text y="462" x="848" font-size="10" fill="#0000ff">zathura-ps</text>
<text y="550" x="107" font-size="10" fill="#0000ff">lib32-mpg123</text>
<text y="552" x="1681" font-size="10" fill="#6a6aa2">fribidi</text>
<text y="332" x="1174" font-size="11" fill="#6a6aa2">libx11</text>
<text y="402" x="1675" font-size="10" fill="#0000ff">powertop</text>
<text y="538" x="1000" font-size="10" fill="#0000ff">fswebcam</text>
<text y="574" x="928" font-size="10" fill="#6a6aa2">pciutils</text>
<text y="442" x="779" font-size="10" fill="#0000ff">xmobar</text>
<text y="745" x="843" font-size="10" fill="#6a6aa2">hwids</text>
<text y="311" x="433" font-size="10" fill="#0000ff">jna</text>
<text y="313" x="1096" font-size="10" fill="#0000ff">xorg-xkill</text>
<text y="460" x="1657" font-size="10" fill="#0000ff">htop</text>
<text y="510" x="929" font-size="10" fill="#0000ff">mutt</text>
<text y="459" x="668" font-size="11" fill="#6a6aa2">ttf-dejavu</text>
<text y="630" x="1428" font-size="10" fill="#6a6aa2">libogg</text>
<text y="560" x="517" font-size="10" fill="#6a6aa2">lib32-libsm</text>
<text y="393" x="445" font-size="10" fill="#0000ff">v4l2ucp</text>
<text y="551" x="1401" font-size="10" fill="#6a6aa2">xorg-font-utils</text>
<text y="628" x="752" font-size="10" fill="#6a6aa2">libcups</text>
<text y="409" x="987" font-size="10" fill="#6a6aa2">pixman</text>
<text y="441" x="1301" font-size="10" fill="#0000ff">flex</text>
<text y="454" x="1306" font-size="10" fill="#0000ff">xf86-input-acecad</text>
<text y="446" x="1139" font-size="10" fill="#0000ff">xf86-input-keyboard</text>
<text y="343" x="937" font-size="19" fill="#6a6aa2">python</text>
<text y="445" x="930" font-size="10" fill="#6a6aa2">libidn</text>
<text y="488" x="1466" font-size="10" fill="#6a6aa2">xvidcore</text>
<text y="691" x="410" font-size="11" fill="#0000ff">texlive-publishers</text>
<text y="444" x="1631" font-size="10" fill="#6a6aa2">openjpeg</text>
<text y="600" x="1293" font-size="10" fill="#0000ff">reiserfsprogs</text>
<text y="663" x="836" font-size="10" fill="#6a6aa2">systemd-tools</text>
<text y="464" x="1469" font-size="10" fill="#6a6aa2">libdca</text>
<text y="940" x="932" font-size="10" fill="#6a6aa2">nspr</text>
<text y="444" x="572" font-size="10" fill="#6a6aa2">dbus</text>
<text y="295" x="406" font-size="10" fill="#6a6aa2">lib32-libxext</text>
<text y="777" x="857" font-size="10" fill="#6a6aa2">libsm</text>
<text y="377" x="990" font-size="10" fill="#6a6aa2">jasper</text>
<text y="663" x="389" font-size="10" fill="#0000ff">xorg-smproxy</text>
<text y="636" x="1165" font-size="10" fill="#6a6aa2">cairo</text>
<text y="859" x="689" font-size="41" fill="#6a6aa2">libreoffice-common</text>
<text y="314" x="1492" font-size="11" fill="#6a6aa2">poppler</text>
<text y="649" x="1059" font-size="10" fill="#0000ff">wicd</text>
<text y="216" x="1051" font-size="10" fill="#6a6aa2">run-parts</text>
<text y="624" x="934" font-size="10" fill="#0000ff">vloopback-svn</text>
<text y="759" x="1371" font-size="14" fill="#6a6aa2">jdk7-openjdk</text>
<text y="284" x="823" font-size="10" fill="#6a6aa2">mozilla-common</text>
<text y="483" x="920" font-size="10" fill="#0000ff">ntp</text>
<text y="346" x="1054" font-size="10" fill="#6a6aa2">libxrender</text>
<text y="606" x="766" font-size="10" fill="#6a6aa2">gconf</text>
<text y="748" x="1225" font-size="10" fill="#6a6aa2">libxft</text>
<text y="547" x="980" font-size="10" fill="#6a6aa2">orc</text>
<text y="520" x="1143" font-size="10" fill="#6a6aa2">bash</text>
<text y="637" x="1033" font-size="10" fill="#6a6aa2">poppler-glib</text>
<text y="610" x="1271" font-size="10" fill="#0000ff">dmenu</text>
<text y="228" x="529" font-size="10" fill="#6a6aa2">python2-pyparsing</text>
<text y="480" x="749" font-size="10" fill="#6a6aa2">openssh</text>
<text y="488" x="823" font-size="11" fill="#6a6aa2">openssl</text>
<text y="531" x="1282" font-size="10" fill="#6a6aa2">libarchive</text>
<text y="332" x="1445" font-size="10" fill="#6a6aa2">xorg-fonts-alias</text>
<text y="542" x="1308" font-size="10" fill="#0000ff">jfsutils</text>
<text y="358" x="383" font-size="10" fill="#0000ff">cryptsetup</text>
<text y="261" x="291" font-size="10" fill="#6a6aa2">lib32-libjpeg-turbo</text>
<text y="460" x="1068" font-size="10" fill="#0000ff">lvm2</text>
<text y="525" x="683" font-size="10" fill="#6a6aa2">xz</text>
<text y="297" x="1132" font-size="10" fill="#0000ff">xorg-xwud</text>
<text y="551" x="725" font-size="10" fill="#6a6aa2">gtk-update-icon-cache</text>
<text y="768" x="900" font-size="10" fill="#6a6aa2">gpm</text>
<text y="358" x="233" font-size="10" fill="#6a6aa2">java-rhino</text>
<text y="758" x="898" font-size="10" fill="#6a6aa2">mpfr</text>
<text y="478" x="1117" font-size="10" fill="#6a6aa2">libxpm</text>
<text y="472" x="1399" font-size="10" fill="#6a6aa2">libxfixes</text>
<text y="437" x="110" font-size="10" fill="#6a6aa2">lib32-libxrender</text>
<text y="224" x="172" font-size="27" fill="#0000ff">clang-analyzer</text>
<text y="294" x="733" font-size="10" fill="#6a6aa2">gdk-pixbuf2</text>
<text y="495" x="920" font-size="10" fill="#6a6aa2">libusb</text>
<text y="413" x="762" font-size="10" fill="#6a6aa2">libevent</text>
<text y="250" x="1532" font-size="12" fill="#0000ff">xorg-fonts-100dpi</text>
<text y="485" x="1554" font-size="10" fill="#0000ff">pm-utils</text>
<text y="527" x="1220" font-size="10" fill="#6a6aa2">grep</text>
<text y="558" x="1204" font-size="10" fill="#6a6aa2">libglapi</text>
<text y="381" x="1573" font-size="10" fill="#0000ff">ttf-ms-fonts</text>
<text y="353" x="618" font-size="10" fill="#0000ff">zsh</text>
<text y="504" x="1052" font-size="10" fill="#0000ff">xf86-input-mouse</text>
<text y="559" x="200" font-size="10" fill="#6a6aa2">lib32-libxfixes</text>
<text y="522" x="1356" font-size="10" fill="#0000ff">xfsprogs</text>
<text y="753" x="966" font-size="16" fill="#0000ff">gvim</text>
<text y="408" x="849" font-size="10" fill="#6a6aa2">xorg-xset</text>
<text y="695" x="1083" font-size="10" fill="#6a6aa2">dbus-glib</text>
<text y="274" x="1342" font-size="10" fill="#6a6aa2">libxkbfile</text>
<text y="647" x="600" font-size="10" fill="#6a6aa2">djvulibre</text>
<text y="555" x="1136" font-size="10" fill="#0000ff">which</text>
<text y="910" x="909" font-size="10" fill="#0000ff">alsi</text>
<text y="565" x="1589" font-size="10" fill="#6a6aa2">libcap</text>
<text y="545" x="580" font-size="10" fill="#6a6aa2">xorg-mkfontscale</text>
<text y="196" x="1171" font-size="10" fill="#6a6aa2">fixesproto</text>
<text y="415" x="1727" font-size="10" fill="#6a6aa2">xorg-xwininfo</text>
<text y="131" x="132" font-size="100" fill="#0000ff">ghc</text>
<text y="387" x="335" font-size="10" fill="#0000ff">alsa-plugins</text>
<text y="466" x="1539" font-size="20" fill="#0000ff">mplayer</text>
<text y="535" x="140" font-size="10" fill="#6a6aa2">lib32-libxdamage</text>
<text y="613" x="284" font-size="10" fill="#6a6aa2">desktop-file-utils</text>
<text y="258" x="1297" font-size="10" fill="#0000ff">xorg-xclock</text>
<text y="802" x="432" font-size="10" fill="#6a6aa2">t1lib</text>
<text y="408" x="1561" font-size="10" fill="#0000ff">nano</text>
<text y="418" x="1619" font-size="10" fill="#6a6aa2">libxxf86dga</text>
<text y="296" x="1224" font-size="10" fill="#0000ff">fakeroot</text>
<text y="303" x="325" font-size="10" fill="#6a6aa2">jre7-openjdk</text>
<text y="373" x="1141" font-size="10" fill="#0000ff">compton-git</text>
<text y="492" x="671" font-size="10" fill="#0000ff">autossh</text>
<text y="433" x="541" font-size="10" fill="#0000ff">xf86-video-intel</text>
<text y="477" x="202" font-size="10" fill="#6a6aa2">lib32-libx11</text>
<text y="635" x="1259" font-size="10" fill="#6a6aa2">findutils</text>
<text y="673" x="1290" font-size="10" fill="#6a6aa2">popt</text>
<text y="523" x="1617" font-size="10" fill="#6a6aa2">x264</text>
<text y="510" x="1214" font-size="15" fill="#0000ff">linux-headers</text>
<text y="399" x="533" font-size="12" fill="#6a6aa2">libgl</text>
<text y="351" x="1531" font-size="10" fill="#6a6aa2">fontconfig</text>
<text y="561" x="1477" font-size="10" fill="#6a6aa2">keyutils</text>
<text y="434" x="1475" font-size="11" fill="#6a6aa2">db</text>
<text y="515" x="1177" font-size="10" fill="#6a6aa2">kbd</text>
<text y="584" x="1380" font-size="10" fill="#6a6aa2">util-linux</text>
<text y="694" x="1200" font-size="10" fill="#6a6aa2">freetype2</text>
<text y="433" x="458" font-size="21" fill="#6a6aa2">qt</text>
<text y="493" x="1158" font-size="10" fill="#0000ff">patch</text>
<text y="233" x="1126" font-size="10" fill="#0000ff">xorg-xfontsel</text>
<text y="487" x="1307" font-size="10" fill="#0000ff">bison</text>
<text y="538" x="1387" font-size="10" fill="#6a6aa2">libvorbis</text>
<text y="693" x="851" font-size="10" fill="#6a6aa2">python2-gobject2</text>
<text y="525" x="1648" font-size="10" fill="#6a6aa2">enca</text>
<text y="423" x="935" font-size="10" fill="#6a6aa2">gsfonts</text>
<text y="542" x="1101" font-size="10" fill="#0000ff">xf86-input-vmmouse</text>
<text y="482" x="1012" font-size="10" fill="#6a6aa2">libpciaccess</text>
<text y="566" x="1166" font-size="10" fill="#6a6aa2">sed</text>
<text y="657" x="1395" font-size="10" fill="#0000ff">netcfg</text>
<text y="480" x="1178" font-size="10" fill="#0000ff">mdadm</text>
<text y="395" x="875" font-size="10" fill="#6a6aa2">libxaw</text>
<text y="362" x="1073" font-size="10" fill="#0000ff">mozplugger-chromium</text>
<text y="566" x="1052" font-size="10" fill="#6a6aa2">libxau</text>
<text y="557" x="1372" font-size="10" fill="#6a6aa2">kmod</text>
<text y="589" x="913" font-size="10" fill="#6a6aa2">v4l-utils</text>
<text y="301" x="1029" font-size="10" fill="#6a6aa2">device-mapper</text>
<text y="335" x="1248" font-size="10" fill="#0000ff">xorg-xlsfonts</text>
<text y="484" x="1609" font-size="10" fill="#6a6aa2">lua</text>
<text y="472" x="399" font-size="10" fill="#6a6aa2">libpng</text>
<text y="435" x="1692" font-size="10" fill="#0000ff">ncmpcpp</text>
<text y="807" x="1068" font-size="10" fill="#6a6aa2">xdg-utils</text>
<text y="318" x="726" font-size="12" fill="#0000ff">gcc-fortran</text>
<text y="594" x="1168" font-size="10" fill="#0000ff">msmtp</text>
<text y="735" x="1215" font-size="11" fill="#6a6aa2">imagemagick</text>
<text y="555" x="1599" font-size="10" fill="#0000ff">screen</text>
<text y="464" x="777" font-size="10" fill="#0000ff">lynx</text>
<text y="429" x="1246" font-size="10" fill="#6a6aa2">libxdmcp</text>
<text y="624" x="1068" font-size="12" fill="#6a6aa2">pygtk</text>
<text y="390" x="656" font-size="10" fill="#6a6aa2">libgcrypt</text>
<text y="648" x="315" font-size="10" fill="#6a6aa2">lib32-libxrandr</text>
<text y="265" x="1156" font-size="10" fill="#0000ff">unclutter</text>
<text y="582" x="1448" font-size="10" fill="#6a6aa2">schroedinger</text>
<text y="570" x="1410" font-size="10" fill="#6a6aa2">libxxf86vm</text>
<text y="472" x="1022" font-size="10" fill="#0000ff">gtk</text>
<text y="429" x="1407" font-size="10" fill="#0000ff">termsyn</text>
<text y="268" x="423" font-size="27" fill="#0000ff">python2-matplotlib</text>
<text y="800" x="917" font-size="10" fill="#6a6aa2">hicolor-icon-theme</text>
<text y="572" x="1274" font-size="21" fill="#0000ff">linux</text>
<text y="461" x="517" font-size="11" fill="#0000ff">mumble</text>
<text y="528" x="882" font-size="10" fill="#0000ff">heirloom-mailx</text>
<text y="445" x="1573" font-size="11" fill="#6a6aa2">ncurses</text>
<text y="608" x="451" font-size="10" fill="#6a6aa2">libxi</text>
<text y="648" x="956" font-size="10" fill="#6a6aa2">imlib2</text>
<text y="379" x="1279" font-size="10" fill="#0000ff">xorg-xpr</text>
<text y="293" x="1290" font-size="10" fill="#0000ff">xorg-xinit</text>
<text y="208" x="466" font-size="10" fill="#6a6aa2">lib32-alsa-lib</text>
<text y="697" x="774" font-size="10" fill="#6a6aa2">libnl</text>
<text y="659" x="1448" font-size="10" fill="#6a6aa2">zlib</text>
<text y="208" x="1129" font-size="10" fill="#0000ff">sxiv</text>
<text y="221" x="1386" font-size="11" fill="#0000ff">xorg-fonts-75dpi</text>
<text y="489" x="300" font-size="12" fill="#6a6aa2">lib32-libgl</text>
<text y="344" x="1192" font-size="10" fill="#6a6aa2">libxext</text>
<text y="676" x="800" font-size="10" fill="#6a6aa2">avahi</text>
<text y="405" x="1513" font-size="10" fill="#0000ff">vi</text>
<text y="561" x="944" font-size="10" fill="#6a6aa2">expat</text>
<text y="342" x="526" font-size="19" fill="#0000ff">skype</text>
<text y="898" x="879" font-size="10" fill="#6a6aa2">texinfo</text>
<text y="463" x="913" font-size="19" fill="#0000ff">gimp</text>
<text y="183" x="752" font-size="22" fill="#0000ff">pdftk</text>
<text y="602" x="578" font-size="10" fill="#6a6aa2">libgnome-keyring</text>
<text y="590" x="1215" font-size="10" fill="#6a6aa2">giblib</text>
<text y="619" x="1362" font-size="11" fill="#6a6aa2">coreutils</text>
<text y="632" x="364" font-size="10" fill="#6a6aa2">libxdamage</text>
<text y="352" x="1441" font-size="10" fill="#0000ff">xorg-xfd</text>
<text y="554" x="1060" font-size="10" fill="#6a6aa2">pam</text>
<text y="565" x="1110" font-size="10" fill="#6a6aa2">iproute2</text>
<text y="324" x="867" font-size="10" fill="#0000ff">icedtea-web-java7</text>
<text y="619" x="467" font-size="10" fill="#0000ff">xanim</text>
<text y="370" x="791" font-size="10" fill="#6a6aa2">libxss</text>
<text y="401" x="1098" font-size="10" fill="#0000ff">xf86-input-void</text>
<text y="494" x="961" font-size="10" fill="#0000ff">sshfs</text>
<text y="468" x="287" font-size="11" fill="#6a6aa2">lib32-glibc</text>
<text y="576" x="1070" font-size="10" fill="#0000ff">laptop-mode-tools</text>
<text y="603" x="1514" font-size="10" fill="#6a6aa2">libdrm</text>
<text y="575" x="326" font-size="10" fill="#6a6aa2">lib32-libxi</text>
<text y="482" x="1389" font-size="10" fill="#6a6aa2">filesystem</text>
<text y="595" x="1388" font-size="10" fill="#6a6aa2">gzip</text>
<text y="620" x="1487" font-size="10" fill="#6a6aa2">speex</text>
<text y="805" x="470" font-size="13" fill="#0000ff">texlive-latexextra</text>
<text y="394" x="1648" font-size="10" fill="#0000ff">less</text>
<text y="819" x="834" font-size="10" fill="#6a6aa2">neon</text>
<text y="445" x="1501" font-size="10" fill="#6a6aa2">a52dec</text>
<text y="501" x="1596" font-size="10" fill="#6a6aa2">libvpx</text>
<text y="579" x="669" font-size="16" fill="#0000ff">evince</text>
<text y="192" x="686" font-size="10" fill="#6a6aa2">libxtst</text>
<text y="156" x="721" font-size="10" fill="#6a6aa2">file</text>
<text y="594" x="1670" font-size="10" fill="#6a6aa2">libsamplerate</text>
<text y="240" x="1217" font-size="10" fill="#0000ff">xcompmgr</text>
<text y="716" x="1141" font-size="10" fill="#6a6aa2">pango</text>
<text y="752" x="1018" font-size="10" fill="#6a6aa2">wireless_tools</text>
<text y="434" x="914" font-size="10" fill="#0000ff">xorg-server-utils</text>
<text y="386" x="1440" font-size="10" fill="#6a6aa2">aalib</text>
<text y="467" x="623" font-size="10" fill="#6a6aa2">libpcap</text>
<text y="464" x="1149" font-size="10" fill="#0000ff">xf86-input-aiptek</text>
<text y="604" x="1569" font-size="14" fill="#0000ff">subversion</text>
<text y="630" x="219" font-size="10" fill="#6a6aa2">lib32-libxcursor</text>
<text y="350" x="658" font-size="22" fill="#0000ff">chromium</text>
<text y="474" x="830" font-size="10" fill="#6a6aa2">gmp</text>
<text y="269" x="1544" font-size="11" fill="#0000ff">dot2tex</text>
<text y="549" x="1565" font-size="10" fill="#0000ff">xterm</text>
<text y="244" x="1273" font-size="10" fill="#6a6aa2">xproto</text>
<text y="408" x="367" font-size="10" fill="#6a6aa2">ca-certificates</text>
<text y="708" x="1081" font-size="10" fill="#6a6aa2">aspell</text>
<text y="312" x="1554" font-size="10" fill="#0000ff">tamsyn-font</text>
<text y="617" x="1138" font-size="10" fill="#6a6aa2">shadow</text>
<text y="687" x="957" font-size="18" fill="#6a6aa2">python2</text>
<text y="435" x="1517" font-size="10" fill="#6a6aa2">libcaca</text>
<text y="405" x="1204" font-size="12" fill="#0000ff">xorg-server</text>
<text y="656" x="1489" font-size="10" fill="#0000ff">unrar</text>
<text y="487" x="1236" font-size="11" fill="#0000ff">man-pages</text>
<text y="764" x="278" font-size="52" fill="#6a6aa2">texlive-core</text>
<text y="475" x="1284" font-size="10" fill="#0000ff">pkg-config</text>
<text y="821" x="916" font-size="10" fill="#6a6aa2">shared-mime-info</text>
<text y="366" x="1400" font-size="10" fill="#0000ff">grub</text>
<text y="398" x="1040" font-size="10" fill="#6a6aa2">zathura</text>
<text y="520" x="1012" font-size="10" fill="#0000ff">xf86-input-joystick</text>
<text y="566" x="1677" font-size="10" fill="#6a6aa2">libfontenc</text>
<text y="677" x="1128" font-size="23" fill="#0000ff">inkscape</text>
<text y="46" x="0" font-size="55" fill="#0000ff">4936MB</text>
<text y="490" x="573" font-size="10" fill="#0000ff">rsync</text>
<text y="637" x="619" font-size="10" fill="#6a6aa2">lsb-release</text>
<text y="464" x="1101" font-size="15" fill="#6a6aa2">glibc</text>
<text y="483" x="939" font-size="10" fill="#0000ff">btrfs-progs</text>
<text y="933" x="763" font-size="10" fill="#0000ff">automake</text>
<text y="592" x="1020" font-size="10" fill="#6a6aa2">libice</text>
<text y="303" x="957" font-size="10" fill="#0000ff">pacgraph</text>
<text y="913" x="877" font-size="13" fill="#6a6aa2">icu</text>
<text y="506" x="113" font-size="10" fill="#0000ff">lib32-libldap</text>
<text y="330" x="1581" font-size="10" fill="#0000ff">bc</text>
<text y="446" x="274" font-size="10" fill="#6a6aa2">lib32-openssl</text>
<text y="429" x="656" font-size="10" fill="#6a6aa2">libxv</text>
<text y="270" x="1075" font-size="10" fill="#6a6aa2">xorg-xprop</text>
<text y="735" x="1113" font-size="10" fill="#6a6aa2">libsigc++</text>
<text y="773" x="1315" font-size="10" fill="#0000ff">apache-ant</text>
<text y="409" x="652" font-size="10" fill="#0000ff">conky</text>
<text y="613" x="824" font-size="10" fill="#6a6aa2">libjpeg-turbo</text>
<text y="606" x="959" font-size="10" fill="#0000ff">pcmciautils</text>
<text y="490" x="484" font-size="10" fill="#6a6aa2">acl</text>
<text y="665" x="695" font-size="10" fill="#6a6aa2">libexif</text>
<text y="431" x="713" font-size="11" fill="#6a6aa2">glib2</text>
<text y="364" x="1477" font-size="10" fill="#6a6aa2">libass</text>
<text y="308" x="1238" font-size="10" fill="#0000ff">xorg-xwd</text>
<text y="537" x="246" font-size="45" fill="#0000ff">wine_gecko</text>
<text y="639" x="876" font-size="10" fill="#6a6aa2">libtiff</text>
<text y="571" x="213" font-size="10" fill="#6a6aa2">libxcursor</text>
<text y="439" x="372" font-size="10" fill="#6a6aa2">libmng</text>
<text y="370" x="773" font-size="10" fill="#6a6aa2">nss</text>
<text y="297" x="668" font-size="10" fill="#6a6aa2">pcre</text>
<text y="955" x="913" font-size="11" fill="#0000ff">git</text>
<text y="449" x="977" font-size="11" fill="#0000ff">archlinux-wallpaper</text>
<text y="583" x="732" font-size="10" fill="#6a6aa2">libxinerama</text>
<text y="369" x="1304" font-size="10" fill="#0000ff">slock</text>
<text y="748" x="1299" font-size="10" fill="#6a6aa2">zip</text>
<text y="415" x="578" font-size="10" fill="#6a6aa2">lib32-zlib</text>
<text y="544" x="1599" font-size="10" fill="#6a6aa2">libshout</text>
<text y="507" x="1412" font-size="10" fill="#6a6aa2">taglib</text>
<text y="545" x="1534" font-size="10" fill="#6a6aa2">sdl</text>
<text y="504" x="1706" font-size="10" fill="#6a6aa2">libtheora</text>
<text y="429" x="1061" font-size="10" fill="#0000ff">cabextract</text>
<text y="908" x="692" font-size="11" fill="#0000ff">xorg-docs</text>
<text y="455" x="386" font-size="10" fill="#6a6aa2">attr</text>
<text y="373" x="1215" font-size="10" fill="#0000ff">pacman</text>
<text y="507" x="965" font-size="10" fill="#0000ff">initscripts</text>
<text y="882" x="995" font-size="10" fill="#6a6aa2">hunspell</text>
<text y="606" x="1120" font-size="10" fill="#0000ff">python2-gconf</text>
<text y="345" x="1271" font-size="10" fill="#0000ff">autoconf</text>
<text y="505" x="1647" font-size="10" fill="#0000ff">rtorrent</text>
<text y="804" x="796" font-size="11" fill="#0000ff">libreoffice-base</text>
<text y="575" x="429" font-size="10" fill="#6a6aa2">lib32-gcc-libs</text>
<text y="284" x="1063" font-size="10" fill="#0000ff">xf86-input-synaptics</text>
<text y="777" x="747" font-size="10" fill="#0000ff">usbutils</text>
<text y="312" x="865" font-size="10" fill="#6a6aa2">mime-types</text>
<text y="881" x="1059" font-size="10" fill="#6a6aa2">curl</text>
<text y="577" x="559" font-size="10" fill="#0000ff">lib32-v4l-utils</text>
<text y="403" x="775" font-size="10" fill="#0000ff">wmctrl</text>
<text y="461" x="1706" font-size="10" fill="#6a6aa2">bzip2</text>
<text y="369" x="1661" font-size="10" fill="#6a6aa2">inetutils</text>
<text y="406" x="1610" font-size="10" fill="#0000ff">ncdu</text>
<text y="513" x="759" font-size="10" fill="#6a6aa2">libsasl</text>
<text y="251" x="967" font-size="10" fill="#0000ff">apvlv</text>
<text y="525" x="574" font-size="10" fill="#6a6aa2">inputproto</text>
<text y="396" x="1378" font-size="10" fill="#6a6aa2">libldap</text>
<text y="422" x="821" font-size="10" fill="#6a6aa2">xorg-mkfontdir</text>
<text y="383" x="774" font-size="10" fill="#0000ff">libtool</text>
<text y="295" x="867" font-size="10" fill="#6a6aa2">libffi</text>
<text y="392" x="1536" font-size="10" fill="#6a6aa2">readline</text>
<text y="311" x="477" font-size="10" fill="#6a6aa2">lib32-expat</text>
<text y="323" x="1291" font-size="10" fill="#6a6aa2">diffutils</text>
<text y="282" x="999" font-size="10" fill="#0000ff">xorg-twm</text>
<text y="380" x="1483" font-size="10" fill="#6a6aa2">e2fsprogs</text>
<text y="713" x="872" font-size="10" fill="#0000ff">offlineimap</text></g></svg>