<?xml version="1.0" encoding="UTF-8" standalone="no"?>
<!DOCTYPE svg PUBLIC "-//W3C//DTD SVG 1.0//EN" "http://www.w3.org/TR/SVG/DTD/svg10.dtd">
<svg width="2606" xmlns="http://www.w3.org/2000/svg" height="1367.0"><rect y="0" x="0" style="fill:#ffffff;" height="1367.0" width="2606"/><g style="stroke:#606060; stroke-opacity:0.15; fill:none;"><path d="M1226,785 Q1214,791 1202,612"/>
<path d="M929,844 Q1275,1120 1622,571"/>
<path d="M929,844 Q1065,973 1202,612"/>
<path d="M1096,340 Q1293,1146 1491,1018"/>
<path d="M1096,340 Q1082,738 1068,728"/>
<path d="M1096,340 Q1079,417 1063,402"/>
<path d="M1250,543 Q1277,564 1304,400"/>
<path d="M1250,543 Q1227,563 1205,548"/>
<path d="M414,731 Q390,758 366,735"/>
<path d="M414,731 Q373,753 333,675"/>
<path d="M1453,473 Q1412,507 1372,457"/>
<path d="M1226,690 Q1165,929 1105,870"/>
<path d="M1226,690 Q1214,698 1202,612"/>
<path d="M1226,690 Q1378,958 1531,822"/>
<path d="M1226,690 Q1215,697 1205,548"/>
<path d="M1627,178 Q1525,698 1424,601"/>
<path d="M1627,178 Q1550,288 1474,221"/>
<path d="M1627,178 Q1629,715 1631,714"/>
<path d="M1627,178 Q1602,195 1578,148"/>
<path d="M943,668 Q1167,867 1391,674"/>
<path d="M943,668 Q1072,767 1202,612"/>
<path d="M943,668 Q1402,1137 1862,741"/>
<path d="M726,827 Q822,915 918,708"/>
<path d="M726,827 Q955,951 1184,486"/>
<path d="M726,827 Q1073,1179 1421,907"/>
<path d="M1572,542 Q1501,1028 1430,975"/>
<path d="M1572,542 Q1548,647 1525,634"/>
<path d="M1572,542 Q1064,1234 557,884"/>
<path d="M1572,542 Q998,1377 424,813"/>
<path d="M1572,542 Q1446,711 1320,588"/>
<path d="M1572,542 Q1512,615 1452,565"/>
<path d="M1572,542 Q1548,563 1524,362"/>
<path d="M1572,542 Q1539,563 1506,390"/>
<path d="M1572,542 Q1481,619 1390,56"/>
<path d="M1572,542 Q1366,902 1160,780"/>
<path d="M411,694 Q389,709 367,636"/>
<path d="M1105,493 Q1105,870 1105,870"/>
<path d="M1105,493 Q1155,591 1205,548"/>
<path d="M1384,342 Q1309,524 1235,481"/>
<path d="M1384,342 Q1294,628 1205,548"/>
<path d="M1384,342 Q1297,427 1210,381"/>
<path d="M1424,620 Q1223,800 1023,693"/>
<path d="M1424,620 Q1386,879 1349,857"/>
<path d="M1370,517 Q1447,686 1525,634"/>
<path d="M1370,517 Q1382,523 1394,225"/>
<path d="M1370,517 Q1447,563 1524,362"/>
<path d="M1370,517 Q1098,797 827,612"/>
<path d="M1370,517 Q1445,653 1520,605"/>
<path d="M1370,517 Q1237,607 1105,421"/>
<path d="M1370,517 Q1341,535 1313,122"/>
<path d="M1370,517 Q1406,566 1442,531"/>
<path d="M1210,381 Q1302,455 1394,225"/>
<path d="M1210,381 Q1207,549 1205,548"/>
<path d="M1210,381 Q1261,431 1313,122"/>
<path d="M1210,381 Q1153,434 1096,340"/>
<path d="M1210,381 Q1134,558 1059,491"/>
<path d="M1210,381 Q1257,444 1304,400"/>
<path d="M1210,381 Q1157,462 1105,421"/>
<path d="M1210,381 Q1181,403 1153,287"/>
<path d="M791,736 Q900,839 1010,549"/>
<path d="M1244,720 Q991,1113 739,922"/>
<path d="M1244,720 Q1027,884 811,453"/>
<path d="M1244,720 Q1223,733 1202,612"/>
<path d="M1131,681 Q1168,703 1205,548"/>
<path d="M1430,975 Q1249,1132 1068,728"/>
<path d="M1430,975 Q1460,1047 1491,1018"/>
<path d="M1283,249 Q837,1094 391,849"/>
<path d="M1283,249 Q900,1069 518,850"/>
<path d="M1283,249 Q1326,547 1370,517"/>
<path d="M1283,249 Q1246,416 1210,381"/>
<path d="M1267,295 Q1210,344 1153,287"/>
<path d="M1267,295 Q1348,1043 1430,975"/>
<path d="M1807,1095 Q1504,1386 1202,734"/>
<path d="M652,943 Q604,989 557,861"/>
<path d="M652,943 Q538,1029 424,813"/>
<path d="M652,943 Q889,1180 1127,929"/>
<path d="M652,943 Q1063,1334 1474,221"/>
<path d="M652,943 Q604,989 557,884"/>
<path d="M1653,533 Q1637,580 1622,571"/>
<path d="M1653,533 Q1196,1338 739,922"/>
<path d="M1653,533 Q1331,749 1010,549"/>
<path d="M1026,648 Q1114,698 1202,612"/>
<path d="M1026,648 Q1225,820 1424,148"/>
<path d="M1026,648 Q1115,708 1205,548"/>
<path d="M1026,648 Q1126,782 1226,690"/>
<path d="M1779,687 Q1267,1086 755,770"/>
<path d="M1779,687 Q1820,780 1862,741"/>
<path d="M1779,687 Q1700,734 1622,507"/>
<path d="M1779,687 Q1363,1135 948,834"/>
<path d="M1779,687 Q1511,855 1244,720"/>
<path d="M1779,687 Q1490,995 1202,734"/>
<path d="M1779,687 Q1601,822 1424,148"/>
<path d="M1779,687 Q1492,970 1205,548"/>
<path d="M1646,287 Q1425,755 1205,548"/>
<path d="M1146,827 Q1094,862 1042,739"/>
<path d="M1146,827 Q1047,904 948,481"/>
<path d="M1146,827 Q1005,973 864,890"/>
<path d="M1146,827 Q1032,929 918,708"/>
<path d="M1531,822 Q1245,1088 959,403"/>
<path d="M1531,822 Q1368,955 1205,548"/>
<path d="M1184,486 Q1337,1128 1491,1018"/>
<path d="M1184,486 Q1302,975 1421,907"/>
<path d="M1184,486 Q1287,571 1390,56"/>
<path d="M1184,486 Q1197,493 1210,381"/>
<path d="M443,875 Q500,935 557,884"/>
<path d="M1596,190 Q1568,214 1540,118"/>
<path d="M1596,190 Q1516,541 1437,492"/>
<path d="M333,675 Q349,744 366,735"/>
<path d="M333,675 Q678,1188 1023,880"/>
<path d="M333,675 Q350,684 367,636"/>
<path d="M1248,429 Q1332,503 1417,131"/>
<path d="M1248,429 Q1310,505 1372,457"/>
<path d="M555,820 Q556,861 557,861"/>
<path d="M555,820 Q473,890 391,849"/>
<path d="M739,922 Q745,926 751,749"/>
<path d="M739,922 Q924,1018 1109,324"/>
<path d="M739,922 Q778,959 818,493"/>
<path d="M739,922 Q1084,1175 1430,261"/>
<path d="M739,922 Q1192,1263 1646,287"/>
<path d="M1525,634 Q1221,980 918,708"/>
<path d="M1525,634 Q1407,716 1290,145"/>
<path d="M1525,634 Q1504,652 1484,257"/>
<path d="M1112,470 Q1161,504 1210,381"/>
<path d="M1112,470 Q1251,585 1390,56"/>
<path d="M1112,470 Q1132,489 1153,287"/>
<path d="M1112,470 Q722,1050 333,675"/>
<path d="M937,823 Q927,828 918,708"/>
<path d="M1288,370 Q1406,713 1525,634"/>
<path d="M1288,370 Q1148,923 1008,799"/>
<path d="M1288,370 Q1249,406 1210,381"/>
<path d="M1288,370 Q1149,666 1010,549"/>
<path d="M1288,370 Q1245,914 1202,892"/>
<path d="M1288,370 Q1048,853 808,678"/>
<path d="M1288,370 Q1035,712 782,546"/>
<path d="M1288,370 Q1330,482 1372,457"/>
<path d="M1527,530 Q1574,609 1622,571"/>
<path d="M1527,530 Q1042,1338 557,884"/>
<path d="M1527,530 Q1327,1097 1127,910"/>
<path d="M1527,530 Q1313,657 1100,517"/>
<path d="M1524,362 Q1330,513 1136,353"/>
<path d="M1367,556 Q1157,975 948,834"/>
<path d="M1367,556 Q1284,660 1202,612"/>
<path d="M1367,556 Q1284,815 1202,734"/>
<path d="M1367,556 Q1221,658 1075,300"/>
<path d="M1367,556 Q1449,880 1531,822"/>
<path d="M1631,714 Q1094,1248 557,884"/>
<path d="M1631,714 Q1578,764 1525,634"/>
<path d="M1142,394 Q1139,395 1136,353"/>
<path d="M1578,148 Q1133,465 688,192"/>
<path d="M1578,148 Q1542,416 1506,390"/>
<path d="M1578,148 Q1164,1125 751,749"/>
<path d="M1578,148 Q1365,463 1153,287"/>
<path d="M1578,148 Q1484,219 1390,56"/>
<path d="M1578,148 Q1414,679 1250,543"/>
<path d="M1578,148 Q1391,718 1205,548"/>
<path d="M1578,148 Q1541,214 1505,194"/>
<path d="M1578,148 Q1390,707 1202,612"/>
<path d="M1578,148 Q1326,433 1075,300"/>
<path d="M1578,148 Q1616,183 1655,155"/>
<path d="M1578,148 Q1498,848 1418,776"/>
<path d="M1578,148 Q1481,240 1385,185"/>
<path d="M1578,148 Q1588,155 1599,108"/>
<path d="M1281,614 Q1158,779 1035,678"/>
<path d="M1281,614 Q1241,633 1202,612"/>
<path d="M1281,614 Q1120,739 959,403"/>
<path d="M1281,614 Q1139,785 997,674"/>
<path d="M1281,614 Q1243,642 1205,548"/>
<path d="M1417,131 Q1612,1250 1807,1095"/>
<path d="M1417,131 Q1264,933 1111,852"/>
<path d="M1417,131 Q1213,679 1010,549"/>
<path d="M1417,131 Q1449,682 1482,665"/>
<path d="M1417,131 Q1238,646 1059,491"/>
<path d="M1417,131 Q1401,198 1385,185"/>
<path d="M1377,371 Q1373,519 1370,517"/>
<path d="M1377,371 Q1293,460 1210,381"/>
<path d="M1377,371 Q967,1245 557,861"/>
<path d="M1042,739 Q1332,908 1622,571"/>
<path d="M1042,739 Q1140,1015 1239,926"/>
<path d="M1042,739 Q995,863 948,834"/>
<path d="M1042,739 Q1122,807 1202,612"/>
<path d="M1042,739 Q1026,754 1010,549"/>
<path d="M1622,571 Q1180,1274 739,922"/>
<path d="M1622,571 Q1241,1066 860,831"/>
<path d="M1622,571 Q1363,1037 1105,870"/>
<path d="M1622,571 Q1270,916 918,708"/>
<path d="M1622,571 Q1412,799 1202,612"/>
<path d="M1622,571 Q1345,965 1068,728"/>
<path d="M1622,571 Q1295,1098 968,810"/>
<path d="M424,813 Q375,866 326,827"/>
<path d="M424,813 Q972,1267 1520,605"/>
<path d="M424,813 Q938,1313 1452,565"/>
<path d="M424,813 Q490,901 557,861"/>
<path d="M798,808 Q1210,1093 1622,571"/>
<path d="M798,808 Q1000,1003 1202,612"/>
<path d="M798,808 Q835,844 873,791"/>
<path d="M407,916 Q678,1165 950,719"/>
<path d="M407,916 Q629,1104 851,698"/>
<path d="M407,916 Q701,1206 995,711"/>
<path d="M407,916 Q482,987 557,884"/>
<path d="M407,916 Q845,1203 1283,249"/>
<path d="M407,916 Q512,995 617,501"/>
<path d="M407,916 Q767,1207 1127,929"/>
<path d="M407,916 Q967,1348 1527,530"/>
<path d="M407,916 Q482,962 557,861"/>
<path d="M407,916 Q892,1207 1377,371"/>
<path d="M407,916 Q632,1057 858,873"/>
<path d="M407,916 Q785,1158 1164,475"/>
<path d="M1007,581 Q1116,848 1226,785"/>
<path d="M1007,581 Q1104,686 1202,612"/>
<path d="M1007,581 Q1140,699 1273,342"/>
<path d="M1007,581 Q986,598 965,495"/>
<path d="M1535,490 Q1583,753 1631,714"/>
<path d="M1535,490 Q1531,533 1527,530"/>
<path d="M1473,81 Q1260,1000 1047,838"/>
<path d="M1473,81 Q1106,1191 739,922"/>
<path d="M1473,81 Q1284,444 1096,340"/>
<path d="M1473,81 Q1431,115 1390,56"/>
<path d="M1473,81 Q899,1168 326,827"/>
<path d="M1927,1133 Q1583,1319 1239,926"/>
<path d="M1069,504 Q1068,728 1068,728"/>
<path d="M1010,549 Q1057,904 1105,870"/>
<path d="M1010,549 Q1016,884 1023,880"/>
<path d="M1010,549 Q979,579 948,481"/>
<path d="M1010,549 Q1034,567 1059,491"/>
<path d="M1010,549 Q1077,597 1145,248"/>
<path d="M1010,549 Q884,888 759,785"/>
<path d="M1010,549 Q1408,1486 1807,1095"/>
<path d="M1010,549 Q1106,677 1202,612"/>
<path d="M1010,549 Q1127,832 1244,720"/>
<path d="M1010,549 Q1106,827 1202,734"/>
<path d="M767,828 Q858,877 950,719"/>
<path d="M1589,518 Q1509,1053 1430,975"/>
<path d="M1589,518 Q1554,632 1520,605"/>
<path d="M755,770 Q911,965 1068,825"/>
<path d="M755,770 Q926,878 1098,237"/>
<path d="M755,770 Q894,1008 1033,895"/>
<path d="M1361,567 Q1281,670 1202,612"/>
<path d="M1361,567 Q1283,613 1205,548"/>
<path d="M1129,407 Q1277,503 1425,397"/>
<path d="M1129,407 Q1117,876 1105,870"/>
<path d="M1288,662 Q1245,687 1202,612"/>
<path d="M1288,662 Q1308,676 1328,523"/>
<path d="M1203,497 Q1397,960 1592,848"/>
<path d="M1203,497 Q1204,548 1205,548"/>
<path d="M1089,260 Q948,792 808,678"/>
<path d="M1089,260 Q1082,304 1075,300"/>
<path d="M1145,248 Q1149,290 1153,287"/>
<path d="M1145,248 Q1173,750 1202,734"/>
<path d="M1406,708 Q1237,803 1069,504"/>
<path d="M1406,708 Q1231,920 1057,768"/>
<path d="M1406,708 Q1287,1058 1168,946"/>
<path d="M1406,708 Q1268,951 1131,817"/>
<path d="M1406,708 Q1137,970 869,564"/>
<path d="M1406,708 Q1220,1077 1034,911"/>
<path d="M1406,708 Q1306,1080 1207,986"/>
<path d="M463,891 Q510,927 557,884"/>
<path d="M463,891 Q1017,1377 1572,542"/>
<path d="M463,891 Q394,949 326,827"/>
<path d="M818,493 Q753,547 688,192"/>
<path d="M815,720 Q1218,1046 1622,571"/>
<path d="M1424,327 Q1375,370 1326,328"/>
<path d="M1424,327 Q1398,476 1372,457"/>
<path d="M1424,327 Q1386,887 1349,857"/>
<path d="M1424,327 Q1506,584 1589,518"/>
<path d="M1482,665 Q1486,1020 1491,1018"/>
<path d="M1482,665 Q1453,687 1424,601"/>
<path d="M1482,665 Q1342,845 1202,734"/>
<path d="M1482,665 Q1501,675 1520,605"/>
<path d="M1239,926 Q1159,991 1079,815"/>
<path d="M1239,926 Q1328,1003 1418,776"/>
<path d="M831,657 Q874,748 918,708"/>
<path d="M1554,679 Q1590,717 1627,694"/>
<path d="M798,947 Q768,965 739,922"/>
<path d="M619,831 Q833,966 1047,838"/>
<path d="M619,831 Q588,913 557,884"/>
<path d="M619,831 Q932,1011 1246,470"/>
<path d="M1018,388 Q1038,507 1059,491"/>
<path d="M1018,388 Q1110,798 1202,734"/>
<path d="M1018,388 Q1130,524 1242,454"/>
<path d="M1018,388 Q1173,668 1328,523"/>
<path d="M1018,388 Q1114,478 1210,381"/>
<path d="M1534,329 Q1482,359 1430,261"/>
<path d="M1324,265 Q1380,526 1437,492"/>
<path d="M1324,265 Q1295,318 1267,295"/>
<path d="M1421,907 Q1438,921 1456,807"/>
<path d="M1421,907 Q1376,946 1331,880"/>
<path d="M557,884 Q537,903 518,850"/>
<path d="M557,884 Q842,1114 1127,910"/>
<path d="M557,884 Q1004,1280 1452,565"/>
<path d="M557,884 Q1038,1217 1520,605"/>
<path d="M557,884 Q658,939 759,785"/>
<path d="M557,884 Q591,961 625,932"/>
<path d="M557,884 Q1089,1325 1622,571"/>
<path d="M557,884 Q990,1130 1424,601"/>
<path d="M557,884 Q818,1105 1079,815"/>
<path d="M1382,748 Q1257,825 1133,761"/>
<path d="M1382,748 Q1335,784 1289,450"/>
<path d="M1054,311 Q995,853 937,823"/>
<path d="M1054,311 Q1128,661 1202,612"/>
<path d="M1054,311 Q1206,435 1359,284"/>
<path d="M1054,311 Q1132,429 1210,381"/>
<path d="M834,413 Q1034,528 1234,264"/>
<path d="M834,413 Q822,462 811,453"/>
<path d="M834,413 Q999,581 1164,475"/>
<path d="M834,413 Q1154,713 1474,221"/>
<path d="M834,413 Q1105,670 1377,371"/>
<path d="M538,802 Q547,892 557,884"/>
<path d="M538,802 Q481,869 424,813"/>
<path d="M1210,339 Q982,887 755,770"/>
<path d="M1210,339 Q1281,662 1353,604"/>
<path d="M1210,339 Q1113,408 1016,354"/>
<path d="M1210,339 Q1327,741 1445,632"/>
<path d="M1210,339 Q1230,561 1250,543"/>
<path d="M1210,339 Q1218,696 1226,690"/>
<path d="M869,564 Q871,792 873,791"/>
<path d="M869,564 Q848,623 827,612"/>
<path d="M869,564 Q968,800 1068,728"/>
<path d="M1672,654 Q1647,678 1622,571"/>
<path d="M1672,654 Q1310,857 948,481"/>
<path d="M1672,654 Q1437,846 1202,612"/>
<path d="M1128,746 Q1194,811 1260,279"/>
<path d="M1128,746 Q1068,839 1008,799"/>
<path d="M1480,510 Q1551,615 1622,571"/>
<path d="M1480,510 Q1257,1067 1034,911"/>
<path d="M1480,510 Q1274,640 1069,504"/>
<path d="M1480,510 Q1268,936 1057,768"/>
<path d="M1480,510 Q1452,639 1424,620"/>
<path d="M1480,510 Q1321,798 1162,711"/>
<path d="M1480,510 Q1305,950 1131,817"/>
<path d="M1480,510 Q1544,645 1608,592"/>
<path d="M1341,354 Q1048,1021 755,770"/>
<path d="M1341,354 Q1385,1003 1430,975"/>
<path d="M1341,354 Q1355,527 1370,517"/>
<path d="M1341,354 Q1275,444 1210,381"/>
<path d="M1341,354 Q1292,768 1244,720"/>
<path d="M1341,354 Q1322,412 1304,400"/>
<path d="M1317,615 Q1355,652 1394,225"/>
<path d="M1317,615 Q1259,649 1202,612"/>
<path d="M1035,678 Q1120,750 1205,548"/>
<path d="M926,525 Q966,605 1007,581"/>
<path d="M1110,569 Q1156,639 1202,612"/>
<path d="M839,355 Q972,960 1105,870"/>
<path d="M839,355 Q801,377 763,313"/>
<path d="M839,355 Q800,384 761,351"/>
<path d="M839,355 Q1044,665 1250,543"/>
<path d="M839,355 Q1040,646 1242,454"/>
<path d="M839,355 Q957,423 1075,300"/>
<path d="M1353,604 Q1277,661 1202,612"/>
<path d="M797,748 Q1209,1030 1622,571"/>
<path d="M797,748 Q999,893 1202,612"/>
<path d="M797,748 Q835,824 873,791"/>
<path d="M2336,675 Q2276,711 2216,631"/>
<path d="M1717,612 Q1669,641 1622,571"/>
<path d="M1365,386 Q1474,841 1584,750"/>
<path d="M1365,386 Q1283,802 1202,734"/>
<path d="M1365,386 Q1286,684 1208,630"/>
<path d="M1365,386 Q1283,680 1202,612"/>
<path d="M1365,386 Q1319,429 1273,342"/>
<path d="M1365,386 Q1362,388 1359,284"/>
<path d="M1365,386 Q1436,761 1508,719"/>
<path d="M1365,386 Q1173,772 982,613"/>
<path d="M1365,386 Q1187,677 1010,549"/>
<path d="M1365,386 Q1293,615 1222,567"/>
<path d="M1365,386 Q1446,839 1527,782"/>
<path d="M1365,386 Q1287,428 1210,381"/>
<path d="M1365,386 Q1285,598 1205,548"/>
<path d="M1365,386 Q1326,714 1288,676"/>
<path d="M901,751 Q1261,958 1622,571"/>
<path d="M901,751 Q1053,874 1205,548"/>
<path d="M1079,815 Q1191,887 1304,400"/>
<path d="M1244,968 Q1185,1025 1127,910"/>
<path d="M1244,968 Q1244,968 1245,832"/>
<path d="M1160,780 Q1101,820 1042,739"/>
<path d="M1160,780 Q1217,934 1275,904"/>
<path d="M1452,565 Q1095,1124 739,922"/>
<path d="M1452,565 Q1441,985 1430,975"/>
<path d="M1452,565 Q1486,628 1520,605"/>
<path d="M1621,616 Q1390,958 1160,780"/>
<path d="M1621,616 Q1022,1157 424,813"/>
<path d="M1621,616 Q1596,636 1572,542"/>
<path d="M1394,225 Q1418,547 1442,531"/>
<path d="M1394,225 Q1299,637 1205,548"/>
<path d="M1284,767 Q1011,1148 739,922"/>
<path d="M1284,767 Q1339,819 1394,225"/>
<path d="M1284,767 Q1305,785 1326,328"/>
<path d="M1284,767 Q1500,926 1717,612"/>
<path d="M1284,767 Q1436,901 1589,518"/>
<path d="M1284,767 Q1176,854 1068,728"/>
<path d="M1339,411 Q1204,707 1070,612"/>
<path d="M1339,411 Q1295,482 1252,440"/>
<path d="M1339,411 Q1270,659 1202,612"/>
<path d="M1339,411 Q1207,533 1075,300"/>
<path d="M1339,411 Q1437,516 1535,423"/>
<path d="M1339,411 Q1289,970 1239,926"/>
<path d="M1339,411 Q1235,745 1131,681"/>
<path d="M1339,411 Q1633,1389 1927,1133"/>
<path d="M1339,411 Q1073,894 808,678"/>
<path d="M1339,411 Q1314,465 1289,450"/>
<path d="M1339,411 Q1411,472 1484,257"/>
<path d="M1339,411 Q1355,473 1372,457"/>
<path d="M926,681 Q1064,781 1202,612"/>
<path d="M926,681 Q974,914 1023,880"/>
<path d="M926,681 Q1064,805 1203,497"/>
<path d="M1301,312 Q1280,328 1260,279"/>
<path d="M1613,665 Q1569,695 1525,634"/>
<path d="M1613,665 Q1568,704 1524,362"/>
<path d="M1002,321 Q975,853 948,834"/>
<path d="M1127,929 Q1300,1083 1474,221"/>
<path d="M1127,929 Q822,1134 518,850"/>
<path d="M1127,929 Q1260,1033 1394,225"/>
<path d="M1127,929 Q842,1106 557,884"/>
<path d="M1127,929 Q1186,968 1246,470"/>
<path d="M1127,929 Q1252,1033 1377,371"/>
<path d="M1059,491 Q1271,642 1484,257"/>
<path d="M1474,221 Q1292,992 1111,852"/>
<path d="M1474,221 Q1271,894 1068,728"/>
<path d="M1176,809 Q1189,818 1202,612"/>
<path d="M1176,809 Q1491,1278 1807,1095"/>
<path d="M1205,548 Q1082,628 959,403"/>
<path d="M1205,548 Q1430,677 1655,155"/>
<path d="M1540,118 Q1491,571 1442,531"/>
<path d="M1540,118 Q1346,445 1153,287"/>
<path d="M1540,118 Q1371,818 1202,734"/>
<path d="M1540,118 Q1462,261 1385,185"/>
<path d="M1540,118 Q1412,866 1284,767"/>
<path d="M1157,454 Q1181,566 1205,548"/>
<path d="M2022,1096 Q1977,1125 1932,1069"/>
<path d="M2022,1096 Q1756,1290 1491,1018"/>
<path d="M2022,1096 Q1697,1272 1372,457"/>
<path d="M1021,340 Q888,872 755,770"/>
<path d="M1021,340 Q1077,794 1133,761"/>
<path d="M1021,340 Q978,408 935,374"/>
<path d="M1075,300 Q1348,828 1622,571"/>
<path d="M1075,300 Q1102,421 1129,407"/>
<path d="M1075,300 Q1086,308 1098,237"/>
<path d="M1075,300 Q1150,843 1226,785"/>
<path d="M1075,300 Q900,822 725,707"/>
<path d="M1075,300 Q1062,965 1049,955"/>
<path d="M1075,300 Q1142,434 1210,381"/>
<path d="M1075,300 Q1049,905 1023,880"/>
<path d="M1075,300 Q1142,397 1210,339"/>
<path d="M1075,300 Q1105,372 1136,353"/>
<path d="M1075,300 Q1045,370 1016,354"/>
<path d="M1075,300 Q1290,421 1505,194"/>
<path d="M1075,300 Q1048,353 1021,340"/>
<path d="M1075,300 Q1038,339 1002,321"/>
<path d="M1075,300 Q1071,348 1067,346"/>
<path d="M1075,300 Q1347,951 1619,763"/>
<path d="M1075,300 Q1290,590 1506,390"/>
<path d="M1619,763 Q1362,1050 1105,870"/>
<path d="M1619,763 Q1430,862 1242,454"/>
<path d="M1619,763 Q1386,964 1153,287"/>
<path d="M1619,763 Q1563,795 1508,719"/>
<path d="M1455,693 Q1311,1020 1168,946"/>
<path d="M1455,693 Q1262,820 1069,504"/>
<path d="M1455,693 Q1331,1057 1207,986"/>
<path d="M1328,1017 Q1329,1018 1331,880"/>
<path d="M1208,630 Q1095,716 982,613"/>
<path d="M1208,630 Q1206,631 1205,548"/>
<path d="M1208,409 Q1165,451 1122,377"/>
<path d="M1208,409 Q1168,437 1129,407"/>
<path d="M1208,409 Q1206,549 1205,548"/>
<path d="M1208,409 Q1413,935 1619,763"/>
<path d="M595,918 Q576,935 557,884"/>
<path d="M1105,421 Q1264,752 1424,601"/>
<path d="M1105,421 Q1129,439 1153,287"/>
<path d="M1425,397 Q1092,1092 759,785"/>
<path d="M1425,397 Q1315,635 1205,548"/>
<path d="M1320,588 Q1471,669 1622,571"/>
<path d="M1320,588 Q938,1087 557,861"/>
<path d="M1320,588 Q1422,648 1524,362"/>
<path d="M1320,588 Q823,1130 326,827"/>
<path d="M1320,588 Q1420,689 1520,605"/>
<path d="M1708,538 Q1665,598 1622,571"/>
<path d="M1708,538 Q1508,1061 1309,914"/>
<path d="M1708,538 Q1049,1288 391,849"/>
<path d="M1708,538 Q1113,1367 518,850"/>
<path d="M1708,538 Q1132,1346 557,884"/>
<path d="M1708,538 Q1477,669 1246,470"/>
<path d="M1708,538 Q1495,701 1283,249"/>
<path d="M1708,538 Q1460,664 1213,317"/>
<path d="M1424,601 Q1474,659 1525,634"/>
<path d="M1235,481 Q1218,623 1202,612"/>
<path d="M1235,481 Q1222,492 1210,381"/>
<path d="M725,707 Q1125,978 1525,634"/>
<path d="M725,707 Q776,740 827,612"/>
<path d="M1207,986 Q1343,1086 1480,510"/>
<path d="M1207,986 Q1137,1027 1068,728"/>
<path d="M1207,773 Q1170,793 1133,761"/>
<path d="M1207,773 Q1206,773 1205,548"/>
<path d="M1607,775 Q1404,941 1202,612"/>
<path d="M1607,775 Q1406,898 1205,548"/>
<path d="M1296,602 Q1145,814 995,711"/>
<path d="M1296,602 Q1249,642 1202,612"/>
<path d="M1296,602 Q1270,847 1245,832"/>
<path d="M1034,911 Q1051,922 1068,728"/>
<path d="M1406,942 Q1353,984 1300,948"/>
<path d="M1406,942 Q1177,1095 948,834"/>
<path d="M1406,942 Q1328,1008 1250,543"/>
<path d="M1142,641 Q1172,664 1202,612"/>
<path d="M1309,914 Q1218,991 1127,910"/>
<path d="M1309,914 Q1277,939 1245,832"/>
<path d="M1697,760 Q1649,850 1601,812"/>
<path d="M1506,390 Q1465,423 1425,397"/>
<path d="M1506,390 Q1438,574 1370,517"/>
<path d="M1506,390 Q1518,832 1531,822"/>
<path d="M1506,390 Q1398,461 1290,145"/>
<path d="M831,638 Q748,693 665,649"/>
<path d="M831,638 Q627,948 424,813"/>
<path d="M831,638 Q957,738 1084,665"/>
<path d="M1484,257 Q1361,989 1239,926"/>
<path d="M1484,257 Q1155,895 827,612"/>
<path d="M1627,694 Q1092,1335 557,884"/>
<path d="M1109,324 Q1275,674 1442,531"/>
<path d="M1109,324 Q1157,573 1205,548"/>
<path d="M1185,675 Q1193,683 1202,612"/>
<path d="M1185,675 Q1195,684 1205,548"/>
<path d="M948,834 Q1164,1010 1381,697"/>
<path d="M948,834 Q1075,913 1202,612"/>
<path d="M948,834 Q1183,952 1418,776"/>
<path d="M948,834 Q1126,932 1304,400"/>
<path d="M948,834 Q1087,921 1226,690"/>
<path d="M921,462 Q895,589 869,564"/>
<path d="M921,462 Q1200,773 1480,510"/>
<path d="M921,462 Q972,727 1023,693"/>
<path d="M921,462 Q1135,1024 1349,857"/>
<path d="M921,462 Q829,647 737,559"/>
<path d="M1564,451 Q1041,1174 518,850"/>
<path d="M1564,451 Q985,1472 407,916"/>
<path d="M1564,451 Q1545,547 1527,530"/>
<path d="M975,734 Q946,761 918,708"/>
<path d="M873,791 Q814,823 755,770"/>
<path d="M873,791 Q970,908 1068,825"/>
<path d="M873,791 Q806,976 739,922"/>
<path d="M873,791 Q892,875 912,858"/>
<path d="M873,791 Q1145,999 1417,131"/>
<path d="M873,791 Q896,803 919,656"/>
<path d="M873,791 Q866,836 860,831"/>
<path d="M873,791 Q919,819 966,771"/>
<path d="M873,791 Q987,882 1101,778"/>
<path d="M873,791 Q1128,1027 1384,342"/>
<path d="M873,791 Q887,799 901,751"/>
<path d="M873,791 Q816,820 759,785"/>
<path d="M873,791 Q844,806 815,720"/>
<path d="M873,791 Q895,806 918,708"/>
<path d="M873,791 Q1037,918 1202,612"/>
<path d="M873,791 Q970,854 1068,728"/>
<path d="M873,791 Q799,891 726,827"/>
<path d="M873,791 Q934,846 995,711"/>
<path d="M873,791 Q1018,865 1164,475"/>
<path d="M873,791 Q910,859 948,834"/>
<path d="M873,791 Q957,833 1042,739"/>
<path d="M873,791 Q864,858 856,854"/>
<path d="M873,791 Q812,845 751,749"/>
<path d="M873,791 Q832,820 791,736"/>
<path d="M873,791 Q901,859 929,844"/>
<path d="M873,791 Q1081,987 1290,145"/>
<path d="M873,791 Q845,809 817,710"/>
<path d="M873,791 Q948,899 1023,852"/>
<path d="M873,791 Q862,799 851,698"/>
<path d="M873,791 Q811,899 749,860"/>
<path d="M873,791 Q1099,947 1326,328"/>
<path d="M873,791 Q715,996 557,884"/>
<path d="M873,791 Q953,969 1033,895"/>
<path d="M873,791 Q920,835 968,810"/>
<path d="M873,791 Q930,983 988,929"/>
<path d="M873,791 Q820,869 767,828"/>
<path d="M873,791 Q865,879 858,873"/>
<path d="M1290,145 Q1058,736 827,612"/>
<path d="M620,855 Q1123,1240 1627,694"/>
<path d="M620,855 Q588,910 557,884"/>
<path d="M620,855 Q873,1067 1127,929"/>
<path d="M620,855 Q1047,1145 1474,221"/>
<path d="M620,855 Q522,919 424,813"/>
<path d="M620,855 Q473,965 326,827"/>
<path d="M2250,709 Q1701,1205 1153,287"/>
<path d="M2250,709 Q1288,1670 326,827"/>
<path d="M1201,809 Q1203,810 1205,548"/>
<path d="M851,698 Q704,995 557,861"/>
<path d="M1042,519 Q1123,616 1205,548"/>
<path d="M367,636 Q845,1052 1324,215"/>
<path d="M367,636 Q810,964 1254,529"/>
<path d="M367,636 Q271,707 175,578"/>
<path d="M367,636 Q314,688 262,611"/>
<path d="M518,850 Q861,1125 1205,548"/>
<path d="M989,599 Q996,630 1003,626"/>
<path d="M989,599 Q1334,829 1679,641"/>
<path d="M989,599 Q992,712 995,711"/>
<path d="M989,599 Q1262,838 1535,490"/>
<path d="M989,599 Q878,885 767,828"/>
<path d="M989,599 Q1348,801 1708,538"/>
<path d="M989,599 Q1177,780 1365,386"/>
<path d="M1127,910 Q1229,962 1331,880"/>
<path d="M1433,758 Q1228,1076 1023,880"/>
<path d="M1433,758 Q1319,845 1205,548"/>
<path d="M1351,125 Q1319,261 1287,232"/>
<path d="M1351,125 Q1180,683 1010,549"/>
<path d="M1351,125 Q1112,1010 873,791"/>
<path d="M1351,125 Q1276,678 1202,612"/>
<path d="M1351,125 Q1277,562 1203,497"/>
<path d="M1351,125 Q1368,198 1385,185"/>
<path d="M1351,125 Q1231,660 1112,584"/>
<path d="M833,732 Q1227,1059 1622,571"/>
<path d="M833,732 Q1017,900 1202,612"/>
<path d="M833,732 Q853,805 873,791"/>
<path d="M995,711 Q1308,1003 1622,571"/>
<path d="M995,711 Q867,992 739,922"/>
<path d="M995,711 Q1118,804 1242,454"/>
<path d="M995,711 Q1120,901 1245,832"/>
<path d="M995,711 Q1337,944 1679,641"/>
<path d="M995,711 Q1223,933 1452,565"/>
<path d="M1068,728 Q1231,826 1394,225"/>
<path d="M1068,728 Q1155,802 1242,454"/>
<path d="M1068,825 Q1135,878 1202,612"/>
<path d="M1068,825 Q1136,872 1205,548"/>
<path d="M751,749 Q978,910 1205,548"/>
<path d="M1222,567 Q1255,704 1288,676"/>
<path d="M1222,567 Q1212,619 1202,612"/>
<path d="M1601,812 Q1564,838 1527,782"/>
<path d="M1601,812 Q1317,1169 1033,895"/>
<path d="M1601,812 Q1604,893 1607,892"/>
<path d="M1601,812 Q1444,927 1288,676"/>
<path d="M1601,812 Q1321,989 1042,519"/>
<path d="M1601,812 Q1566,858 1532,836"/>
<path d="M1601,812 Q1401,1022 1202,892"/>
<path d="M1601,812 Q1630,861 1660,836"/>
<path d="M1601,812 Q1380,1009 1160,780"/>
<path d="M1601,812 Q1464,901 1328,523"/>
<path d="M1601,812 Q1483,884 1365,386"/>
<path d="M1349,857 Q1227,988 1105,870"/>
<path d="M1349,857 Q1208,928 1068,728"/>
<path d="M1349,857 Q1277,926 1205,548"/>
<path d="M1008,799 Q1315,1093 1622,571"/>
<path d="M1008,799 Q1470,1302 1932,1069"/>
<path d="M1008,799 Q1065,853 1122,377"/>
<path d="M1008,799 Q1166,885 1324,215"/>
<path d="M1008,799 Q1015,887 1023,880"/>
<path d="M1008,799 Q1149,911 1290,145"/>
<path d="M1008,799 Q1054,843 1101,778"/>
<path d="M1008,799 Q1098,936 1188,860"/>
<path d="M1008,799 Q1156,884 1305,387"/>
<path d="M1008,799 Q1043,834 1079,815"/>
<path d="M1008,799 Q1038,822 1068,728"/>
<path d="M1008,799 Q1001,805 995,711"/>
<path d="M1008,799 Q979,822 950,719"/>
<path d="M1008,799 Q963,840 918,708"/>
<path d="M1008,799 Q1027,854 1047,838"/>
<path d="M1008,799 Q1105,885 1202,734"/>
<path d="M1008,799 Q1084,840 1160,780"/>
<path d="M1008,799 Q1192,967 1377,371"/>
<path d="M1122,612 Q1162,648 1202,612"/>
<path d="M493,863 Q458,883 424,813"/>
<path d="M493,863 Q1032,1303 1572,542"/>
<path d="M493,863 Q409,907 326,827"/>
<path d="M493,863 Q525,902 557,884"/>
<path d="M997,674 Q1101,742 1205,548"/>
<path d="M1569,507 Q1624,545 1679,470"/>
<path d="M1569,507 Q1595,584 1622,571"/>
<path d="M1569,507 Q1357,956 1146,827"/>
<path d="M1569,507 Q1620,697 1672,654"/>
<path d="M1535,423 Q1368,829 1202,734"/>
<path d="M1535,423 Q1409,654 1283,564"/>
<path d="M1535,423 Q1453,512 1372,457"/>
<path d="M912,858 Q1058,959 1205,548"/>
<path d="M1608,592 Q1380,780 1153,287"/>
<path d="M1608,592 Q1564,638 1520,605"/>
<path d="M1608,592 Q1338,990 1068,728"/>
<path d="M1107,599 Q1154,652 1202,612"/>
<path d="M1107,599 Q1156,629 1205,548"/>
<path d="M1003,626 Q1102,701 1202,612"/>
<path d="M1003,626 Q1341,918 1679,641"/>
<path d="M1003,626 Q1124,921 1245,832"/>
<path d="M1621,801 Q1322,1096 1023,880"/>
<path d="M1621,801 Q1331,1089 1042,519"/>
<path d="M1621,801 Q1458,940 1296,852"/>
<path d="M1621,801 Q1574,842 1527,782"/>
<path d="M1621,801 Q1413,1004 1205,548"/>
<path d="M1621,801 Q1564,835 1508,719"/>
<path d="M1480,649 Q1435,708 1391,674"/>
<path d="M1480,649 Q1449,792 1418,776"/>
<path d="M1480,649 Q1305,774 1131,681"/>
<path d="M1160,580 Q1181,623 1202,612"/>
<path d="M326,827 Q908,1331 1491,1018"/>
<path d="M622,904 Q589,928 557,884"/>
<path d="M1100,517 Q1151,639 1202,612"/>
<path d="M1100,517 Q1113,922 1127,910"/>
<path d="M1584,750 Q1393,872 1202,612"/>
<path d="M1260,279 Q1395,821 1530,739"/>
<path d="M1260,279 Q999,1055 739,922"/>
<path d="M1260,279 Q1293,353 1326,328"/>
<path d="M1260,279 Q1231,640 1202,612"/>
<path d="M1260,279 Q1235,396 1210,381"/>
<path d="M1260,279 Q1135,662 1010,549"/>
<path d="M1260,279 Q1133,650 1007,581"/>
<path d="M982,613 Q1134,722 1287,232"/>
<path d="M551,948 Q554,950 557,884"/>
<path d="M1622,507 Q1564,556 1506,390"/>
<path d="M1622,507 Q1622,571 1622,571"/>
<path d="M1047,838 Q1334,1100 1622,571"/>
<path d="M1047,838 Q1238,1111 1430,975"/>
<path d="M1047,838 Q1235,1022 1424,601"/>
<path d="M1047,838 Q1220,973 1394,225"/>
<path d="M1047,838 Q1028,849 1010,549"/>
<path d="M1047,838 Q1071,857 1096,340"/>
<path d="M1047,838 Q1088,872 1129,313"/>
<path d="M1047,838 Q1194,981 1341,354"/>
<path d="M1047,838 Q1126,887 1205,548"/>
<path d="M1047,838 Q1283,1069 1520,605"/>
<path d="M971,658 Q1053,705 1136,353"/>
<path d="M665,649 Q836,893 1008,799"/>
<path d="M665,649 Q516,742 367,636"/>
<path d="M665,649 Q933,1140 1202,892"/>
<path d="M665,649 Q746,728 827,612"/>
<path d="M665,649 Q935,900 1205,548"/>
<path d="M892,448 Q855,528 818,493"/>
<path d="M1067,705 Q911,879 755,770"/>
<path d="M1067,705 Q1155,795 1244,720"/>
<path d="M1067,705 Q1210,844 1353,604"/>
<path d="M1067,705 Q1245,873 1424,148"/>
<path d="M1067,705 Q1077,711 1087,212"/>
<path d="M1390,56 Q1229,822 1068,728"/>
<path d="M1050,797 Q1091,837 1133,761"/>
<path d="M1050,797 Q1189,876 1328,523"/>
<path d="M1148,558 Q1175,630 1202,612"/>
<path d="M1148,558 Q1137,918 1127,910"/>
<path d="M1148,558 Q1337,730 1527,530"/>
<path d="M1283,564 Q1401,716 1520,605"/>
<path d="M1283,564 Q1338,592 1394,225"/>
<path d="M1283,564 Q1350,626 1417,131"/>
<path d="M1283,564 Q1326,591 1370,517"/>
<path d="M1424,148 Q1355,276 1287,232"/>
<path d="M1424,148 Q1217,718 1010,549"/>
<path d="M1424,148 Q1125,799 827,612"/>
<path d="M1424,148 Q1404,200 1385,185"/>
<path d="M1424,148 Q1325,754 1226,690"/>
<path d="M498,836 Q527,877 557,861"/>
<path d="M751,721 Q1186,1021 1622,571"/>
<path d="M751,721 Q745,925 739,922"/>
<path d="M751,721 Q963,955 1176,809"/>
<path d="M751,721 Q812,826 873,791"/>
<path d="M858,873 Q926,928 995,711"/>
<path d="M858,873 Q1155,1080 1452,565"/>
<path d="M858,873 Q707,1010 557,861"/>
<path d="M858,873 Q1051,987 1245,832"/>
<path d="M1329,511 Q1265,649 1202,612"/>
<path d="M1329,511 Q1267,601 1205,548"/>
<path d="M1057,768 Q1062,771 1068,728"/>
<path d="M1932,1069 Q1335,1463 739,922"/>
<path d="M1932,1069 Q1869,1156 1807,1095"/>
<path d="M1932,1069 Q1929,1134 1927,1133"/>
<path d="M1932,1069 Q1385,1519 839,355"/>
<path d="M1932,1069 Q1652,1328 1372,457"/>
<path d="M1324,215 Q1424,715 1525,634"/>
<path d="M1324,215 Q1075,829 827,612"/>
<path d="M1324,215 Q1238,371 1153,287"/>
<path d="M1324,215 Q1424,434 1524,362"/>
<path d="M1324,215 Q1216,391 1109,324"/>
<path d="M1324,215 Q1422,686 1520,605"/>
<path d="M1527,782 Q1366,890 1205,548"/>
<path d="M1527,782 Q1555,810 1584,750"/>
<path d="M1527,782 Q1567,821 1607,775"/>
<path d="M1527,782 Q1364,910 1202,612"/>
<path d="M1527,782 Q1529,823 1531,822"/>
<path d="M1527,782 Q1573,817 1619,763"/>
<path d="M1527,782 Q1472,809 1418,776"/>
<path d="M1527,782 Q1480,821 1433,758"/>
<path d="M1527,782 Q1001,1050 476,473"/>
<path d="M1527,782 Q1486,900 1446,877"/>
<path d="M1527,782 Q1559,873 1592,848"/>
<path d="M1188,860 Q1115,902 1042,739"/>
<path d="M1188,860 Q1167,878 1146,827"/>
<path d="M1188,860 Q1246,895 1305,387"/>
<path d="M1188,860 Q963,1107 739,922"/>
<path d="M1188,860 Q1246,899 1304,400"/>
<path d="M1188,860 Q1312,984 1437,858"/>
<path d="M1133,761 Q1101,780 1070,612"/>
<path d="M1133,761 Q1035,872 937,823"/>
<path d="M1133,761 Q1214,930 1296,852"/>
<path d="M1133,761 Q1172,796 1211,748"/>
<path d="M1133,761 Q1127,804 1122,801"/>
<path d="M1133,761 Q1171,792 1210,339"/>
<path d="M1133,761 Q1179,791 1226,690"/>
<path d="M1133,761 Q1279,905 1425,397"/>
<path d="M1133,761 Q1078,901 1023,852"/>
<path d="M1133,761 Q1281,846 1430,261"/>
<path d="M1133,761 Q1167,834 1201,809"/>
<path d="M1133,761 Q974,885 815,720"/>
<path d="M1133,761 Q1167,789 1202,612"/>
<path d="M1133,761 Q1096,795 1059,749"/>
<path d="M1133,761 Q1210,817 1288,676"/>
<path d="M1133,761 Q1100,780 1067,346"/>
<path d="M1133,761 Q1275,889 1417,131"/>
<path d="M1133,761 Q1052,839 971,658"/>
<path d="M1133,761 Q1003,869 873,791"/>
<path d="M1305,387 Q1333,836 1362,817"/>
<path d="M1305,387 Q1317,520 1329,511"/>
<path d="M1305,387 Q1337,540 1370,517"/>
<path d="M1305,387 Q1257,428 1210,381"/>
<path d="M1305,387 Q1378,602 1452,565"/>
<path d="M1305,387 Q931,1193 557,861"/>
<path d="M1129,313 Q1120,860 1111,852"/>
<path d="M1129,313 Q1117,876 1105,870"/>
<path d="M1129,313 Q1239,948 1349,857"/>
<path d="M1129,313 Q1313,956 1497,824"/>
<path d="M1129,313 Q877,1066 625,932"/>
<path d="M635,868 Q596,907 557,884"/>
<path d="M635,868 Q529,960 424,813"/>
<path d="M635,868 Q920,1119 1205,548"/>
<path d="M454,926 Q762,1225 1070,612"/>
<path d="M454,926 Q505,955 557,884"/>
<path d="M454,926 Q439,939 424,813"/>
<path d="M1456,807 Q1187,951 918,708"/>
<path d="M1289,450 Q1245,652 1202,612"/>
<path d="M1289,450 Q1249,478 1210,381"/>
<path d="M1674,419 Q1500,532 1326,68"/>
<path d="M1674,419 Q1648,590 1622,571"/>
<path d="M1674,419 Q1401,621 1129,407"/>
<path d="M1674,419 Q1256,716 839,355"/>
<path d="M1674,419 Q1545,527 1417,131"/>
<path d="M1674,419 Q1575,602 1476,546"/>
<path d="M1674,419 Q1398,560 1122,377"/>
<path d="M1674,419 Q1502,927 1330,780"/>
<path d="M1674,419 Q1632,507 1591,481"/>
<path d="M1674,419 Q1401,686 1129,313"/>
<path d="M1674,419 Q1075,1010 476,473"/>
<path d="M1674,419 Q1459,922 1244,720"/>
<path d="M1674,419 Q1387,932 1101,778"/>
<path d="M1674,419 Q1405,567 1136,353"/>
<path d="M1674,419 Q1228,803 782,546"/>
<path d="M1674,419 Q1348,1015 1023,693"/>
<path d="M1674,419 Q1695,632 1717,612"/>
<path d="M1674,419 Q1529,560 1385,185"/>
<path d="M1674,419 Q1523,542 1372,457"/>
<path d="M1674,419 Q1629,775 1584,750"/>
<path d="M1674,419 Q1246,881 818,493"/>
<path d="M1674,419 Q1577,500 1480,97"/>
<path d="M1674,419 Q1511,969 1349,857"/>
<path d="M1674,419 Q1552,1094 1430,975"/>
<path d="M1674,419 Q1431,994 1188,860"/>
<path d="M1674,419 Q1438,795 1202,612"/>
<path d="M1674,419 Q1646,777 1619,763"/>
<path d="M1674,419 Q1360,1026 1047,838"/>
<path d="M1674,419 Q1945,823 2216,631"/>
<path d="M1674,419 Q1660,426 1646,287"/>
<path d="M1674,419 Q1501,625 1328,523"/>
<path d="M653,893 Q875,1049 1098,442"/>
<path d="M653,893 Q639,942 625,932"/>
<path d="M653,893 Q891,1019 1129,313"/>
<path d="M653,893 Q971,1104 1290,145"/>
<path d="M653,893 Q605,919 557,884"/>
<path d="M1168,946 Q1324,1096 1480,510"/>
<path d="M1168,946 Q1118,981 1068,728"/>
<path d="M1245,832 Q1312,867 1379,662"/>
<path d="M1245,832 Q1288,914 1331,880"/>
<path d="M1245,832 Q1192,873 1140,840"/>
<path d="M1245,832 Q1269,846 1294,797"/>
<path d="M557,861 Q843,1072 1129,313"/>
<path d="M557,861 Q973,1264 1390,56"/>
<path d="M557,861 Q557,884 557,884"/>
<path d="M557,861 Q1027,1098 1497,824"/>
<path d="M557,861 Q900,1257 1244,968"/>
<path d="M1160,721 Q1146,770 1133,761"/>
<path d="M1242,454 Q1197,496 1153,287"/>
<path d="M1242,454 Q1240,926 1239,926"/>
<path d="M1242,454 Q1273,481 1304,400"/>
<path d="M1202,892 Q1263,945 1324,215"/>
<path d="M1202,892 Q1162,913 1122,377"/>
<path d="M1202,892 Q1265,1079 1328,1017"/>
<path d="M1202,892 Q1224,903 1246,470"/>
<path d="M1202,892 Q1164,930 1127,910"/>
<path d="M1202,892 Q1151,938 1101,778"/>
<path d="M1202,892 Q1251,975 1300,948"/>
<path d="M1202,892 Q1153,927 1105,870"/>
<path d="M1202,892 Q1253,940 1305,387"/>
<path d="M1202,892 Q1135,935 1068,728"/>
<path d="M1202,892 Q1238,922 1275,904"/>
<path d="M1202,892 Q1220,935 1239,926"/>
<path d="M1202,892 Q1076,1012 950,719"/>
<path d="M1202,892 Q1275,944 1349,857"/>
<path d="M1202,892 Q1124,944 1047,838"/>
<path d="M1202,892 Q1289,942 1377,371"/>
<path d="M1202,892 Q1282,951 1362,817"/>
<path d="M1202,892 Q1125,1008 1049,955"/>
<path d="M1202,892 Q1266,934 1330,780"/>
<path d="M1202,892 Q1060,997 919,656"/>
<path d="M1202,892 Q1171,918 1140,840"/>
<path d="M1202,892 Q1255,951 1309,914"/>
<path d="M1202,892 Q1266,927 1331,880"/>
<path d="M1202,892 Q1329,976 1456,807"/>
<path d="M1202,892 Q1105,968 1008,799"/>
<path d="M1202,892 Q1223,904 1245,832"/>
<path d="M1202,892 Q1164,949 1127,929"/>
<path d="M1202,892 Q1310,988 1419,831"/>
<path d="M1202,892 Q1223,986 1244,968"/>
<path d="M1202,892 Q1202,892 1202,734"/>
<path d="M1202,892 Q1181,911 1160,780"/>
<path d="M1176,793 Q1044,925 912,858"/>
<path d="M1176,793 Q987,1054 798,947"/>
<path d="M1176,793 Q1154,813 1133,761"/>
<path d="M1176,793 Q1264,880 1353,604"/>
<path d="M1176,793 Q1304,876 1433,758"/>
<path d="M1176,793 Q1384,974 1592,848"/>
<path d="M1176,793 Q1210,814 1244,720"/>
<path d="M1520,605 Q1405,713 1290,145"/>
<path d="M1520,605 Q1502,616 1484,257"/>
<path d="M548,452 Q683,586 818,493"/>
<path d="M548,452 Q582,525 617,501"/>
<path d="M548,452 Q512,499 476,473"/>
<path d="M548,452 Q733,827 918,708"/>
<path d="M548,452 Q854,1071 1160,780"/>
<path d="M548,452 Q826,1130 1105,870"/>
<path d="M548,452 Q959,757 1370,517"/>
<path d="M1087,212 Q1048,577 1010,549"/>
<path d="M1087,212 Q1163,972 1239,926"/>
<path d="M1087,212 Q1144,791 1202,734"/>
<path d="M1087,212 Q1255,346 1424,148"/>
<path d="M1087,212 Q1120,309 1153,287"/>
<path d="M1195,572 Q1198,614 1202,612"/>
<path d="M1195,572 Q1200,575 1205,548"/>
<path d="M1497,824 Q1467,845 1437,431"/>
<path d="M1497,824 Q1319,944 1142,394"/>
<path d="M1497,824 Q1423,911 1349,857"/>
<path d="M1418,776 Q1463,816 1508,719"/>
<path d="M1418,776 Q1220,1069 1023,880"/>
<path d="M1213,317 Q1162,886 1111,852"/>
<path d="M1213,317 Q802,1170 391,849"/>
<path d="M1213,317 Q865,1054 518,850"/>
<path d="M1213,317 Q1291,560 1370,517"/>
<path d="M1213,317 Q1211,382 1210,381"/>
<path d="M1213,317 Q1104,775 995,711"/>
<path d="M1213,317 Q1229,846 1245,832"/>
<path d="M996,749 Q1032,777 1068,728"/>
<path d="M996,749 Q1235,916 1474,221"/>
<path d="M996,749 Q710,1062 424,813"/>
<path d="M996,749 Q661,1086 326,827"/>
<path d="M996,749 Q1061,966 1127,929"/>
<path d="M1328,523 Q1199,691 1070,612"/>
<path d="M1328,523 Q1265,662 1202,612"/>
<path d="M1328,523 Q1039,952 751,749"/>
<path d="M1328,523 Q1373,803 1418,776"/>
<path d="M1328,523 Q1265,568 1203,497"/>
<path d="M1391,674 Q1339,711 1288,676"/>
<path d="M1391,674 Q1296,741 1202,612"/>
<path d="M1391,674 Q1071,1019 751,749"/>
<path d="M1254,529 Q1272,540 1290,145"/>
<path d="M1254,529 Q1312,584 1370,517"/>
<path d="M1476,546 Q1524,575 1572,542"/>
<path d="M1476,546 Q1016,1272 557,861"/>
<path d="M919,656 Q738,1017 557,861"/>
<path d="M919,656 Q873,691 827,612"/>
<path d="M1147,531 Q1174,628 1202,612"/>
<path d="M1235,709 Q1128,786 1021,340"/>
<path d="M1235,709 Q1218,725 1202,612"/>
<path d="M1235,709 Q1218,745 1202,734"/>
<path d="M1331,880 Q1393,914 1456,807"/>
<path d="M1331,880 Q1266,939 1202,612"/>
<path d="M1331,880 Q1375,902 1419,831"/>
<path d="M1331,880 Q1235,935 1140,840"/>
<path d="M1125,626 Q1163,659 1202,612"/>
<path d="M1125,626 Q1165,654 1205,548"/>
<path d="M1679,641 Q1650,665 1622,571"/>
<path d="M1679,641 Q1440,845 1202,612"/>
<path d="M1679,641 Q1462,1015 1245,832"/>
<path d="M1446,877 Q1432,885 1418,776"/>
<path d="M1446,877 Q1342,981 1239,926"/>
<path d="M1446,877 Q1244,1033 1042,519"/>
<path d="M1446,877 Q1325,968 1205,548"/>
<path d="M1592,848 Q1397,967 1202,612"/>
<path d="M1592,848 Q1398,1012 1205,548"/>
<path d="M1651,460 Q1665,479 1679,470"/>
<path d="M1651,460 Q1636,579 1622,571"/>
<path d="M1651,460 Q1661,662 1672,654"/>
<path d="M1651,460 Q1419,1024 1188,860"/>
<path d="M2355,731 Q2285,779 2216,631"/>
<path d="M966,771 Q1294,1051 1622,571"/>
<path d="M966,771 Q1084,865 1202,612"/>
<path d="M966,771 Q1245,1005 1525,634"/>
<path d="M1153,287 Q1273,378 1394,225"/>
<path d="M1153,287 Q1221,331 1290,145"/>
<path d="M1153,287 Q1131,345 1109,324"/>
<path d="M617,501 Q829,873 1042,739"/>
<path d="M617,501 Q989,1094 1362,817"/>
<path d="M617,501 Q961,775 1305,387"/>
<path d="M617,501 Q587,882 557,861"/>
<path d="M864,890 Q900,923 937,823"/>
<path d="M864,890 Q827,914 791,736"/>
<path d="M643,800 Q963,1084 1283,249"/>
<path d="M643,800 Q928,1034 1213,317"/>
<path d="M643,800 Q600,883 557,861"/>
<path d="M643,800 Q885,1050 1127,929"/>
<path d="M1358,230 Q1490,690 1622,571"/>
<path d="M1358,230 Q1280,787 1202,734"/>
<path d="M1358,230 Q1353,861 1349,857"/>
<path d="M1358,230 Q1376,239 1394,225"/>
<path d="M1358,230 Q1280,688 1202,612"/>
<path d="M1358,230 Q1420,716 1482,665"/>
<path d="M1358,230 Q1284,426 1210,381"/>
<path d="M1358,230 Q1424,1058 1491,1018"/>
<path d="M1358,230 Q1364,520 1370,517"/>
<path d="M1358,230 Q1416,264 1474,221"/>
<path d="M1358,230 Q1371,241 1385,185"/>
<path d="M1234,264 Q1286,460 1339,411"/>
<path d="M1234,264 Q1172,902 1111,852"/>
<path d="M1084,665 Q820,1107 557,884"/>
<path d="M1084,665 Q1194,771 1305,387"/>
<path d="M1084,665 Q754,1104 424,813"/>
<path d="M1084,665 Q1165,736 1246,470"/>
<path d="M1084,665 Q1179,958 1275,904"/>
<path d="M1084,665 Q1230,799 1377,371"/>
<path d="M1084,665 Q1143,710 1202,612"/>
<path d="M1084,665 Q971,963 858,873"/>
<path d="M1084,665 Q1124,685 1164,475"/>
<path d="M1862,741 Q1532,911 1202,612"/>
<path d="M1862,741 Q1575,976 1289,450"/>
<path d="M1862,741 Q1533,964 1205,548"/>
<path d="M1245,519 Q1223,624 1202,612"/>
<path d="M1607,892 Q1181,1163 755,770"/>
<path d="M1607,892 Q1447,986 1288,370"/>
<path d="M1607,892 Q1231,1179 856,854"/>
<path d="M1607,892 Q1424,1013 1242,454"/>
<path d="M1607,892 Q1179,1118 751,749"/>
<path d="M1607,892 Q1315,1108 1023,880"/>
<path d="M1607,892 Q1395,1017 1184,486"/>
<path d="M1607,892 Q1041,1182 476,473"/>
<path d="M1607,892 Q1428,1065 1250,543"/>
<path d="M1607,892 Q1207,1100 808,678"/>
<path d="M827,612 Q966,1004 1105,870"/>
<path d="M827,612 Q872,747 918,708"/>
<path d="M811,453 Q775,952 739,922"/>
<path d="M811,453 Q1114,975 1418,776"/>
<path d="M811,453 Q814,496 818,493"/>
<path d="M811,453 Q1008,684 1205,548"/>
<path d="M1085,795 Q1109,813 1133,761"/>
<path d="M1085,795 Q1279,931 1474,221"/>
<path d="M1085,795 Q1054,812 1023,693"/>
<path d="M1085,795 Q705,1189 326,827"/>
<path d="M583,844 Q865,1055 1148,558"/>
<path d="M583,844 Q487,930 391,849"/>
<path d="M583,844 Q1003,1252 1424,620"/>
<path d="M583,844 Q570,894 557,884"/>
<path d="M583,844 Q618,911 653,893"/>
<path d="M583,844 Q929,1166 1275,904"/>
<path d="M583,844 Q898,1153 1213,317"/>
<path d="M583,844 Q841,1094 1100,517"/>
<path d="M1023,880 Q1114,947 1205,548"/>
<path d="M1162,711 Q1115,759 1068,728"/>
<path d="M1131,817 Q1099,834 1068,728"/>
<path d="M1415,415 Q1351,735 1288,676"/>
<path d="M1415,415 Q1327,1006 1239,926"/>
<path d="M1415,415 Q1371,551 1328,523"/>
<path d="M1415,415 Q1310,643 1205,548"/>
<path d="M1415,415 Q1461,750 1508,719"/>
<path d="M1372,457 Q1497,649 1622,571"/>
<path d="M1372,457 Q1030,747 688,192"/>
<path d="M1372,457 Q1439,499 1506,390"/>
<path d="M1372,457 Q1307,501 1242,454"/>
<path d="M1372,457 Q1327,604 1283,564"/>
<path d="M1372,457 Q1291,509 1210,381"/>
<path d="M1372,457 Q1649,1290 1927,1133"/>
<path d="M1372,457 Q1066,674 761,351"/>
<path d="M1372,457 Q1311,577 1250,543"/>
<path d="M1372,457 Q1378,462 1385,185"/>
<path d="M1372,457 Q1238,997 1105,870"/>
<path d="M1372,457 Q1328,531 1285,496"/>
<path d="M1372,457 Q1223,592 1075,300"/>
<path d="M1372,457 Q1327,496 1282,411"/>
<path d="M1372,457 Q1404,476 1437,431"/>
<path d="M1023,852 Q1016,856 1010,549"/>
<path d="M1023,852 Q1076,884 1129,313"/>
<path d="M1345,630 Q1246,704 1148,558"/>
<path d="M1345,630 Q1384,659 1424,620"/>
<path d="M1345,630 Q1273,697 1202,612"/>
<path d="M1345,630 Q1206,860 1068,728"/>
<path d="M1345,630 Q1486,805 1627,694"/>
<path d="M1345,630 Q1174,745 1003,626"/>
<path d="M1345,630 Q1512,793 1679,641"/>
<path d="M1345,630 Q1400,733 1455,693"/>
<path d="M1345,630 Q1331,639 1317,615"/>
<path d="M1345,630 Q1375,729 1406,708"/>
<path d="M1345,630 Q1412,665 1480,510"/>
<path d="M1345,630 Q1384,666 1424,148"/>
<path d="M1345,630 Q1355,638 1365,386"/>
<path d="M1345,630 Q1222,693 1100,517"/>
<path d="M711,885 Q725,933 739,922"/>
<path d="M2216,631 Q1656,911 1096,340"/>
<path d="M2216,631 Q1709,999 1202,612"/>
<path d="M2216,631 Q1750,1082 1284,767"/>
<path d="M2216,631 Q2233,720 2250,709"/>
<path d="M1112,584 Q1157,652 1202,612"/>
<path d="M1112,584 Q1157,763 1202,734"/>
<path d="M1252,440 Q1334,501 1417,131"/>
<path d="M1252,440 Q1227,758 1202,734"/>
<path d="M1252,440 Q1311,557 1370,517"/>
<path d="M1252,440 Q1231,459 1210,381"/>
<path d="M1296,852 Q1300,855 1304,480"/>
<path d="M1437,492 Q1415,512 1394,225"/>
<path d="M1437,492 Q1362,557 1288,370"/>
<path d="M1437,492 Q1403,536 1370,517"/>
<path d="M1211,509 Q1206,614 1202,612"/>
<path d="M1385,185 Q1354,232 1324,215"/>
<path d="M1385,185 Q1387,186 1390,56"/>
<path d="M1385,185 Q1062,1239 739,922"/>
<path d="M1385,185 Q1377,524 1370,517"/>
<path d="M1385,185 Q1337,220 1290,145"/>
<path d="M1385,185 Q1295,622 1205,548"/>
<path d="M1385,185 Q1407,273 1430,261"/>
<path d="M1385,185 Q1293,688 1202,612"/>
<path d="M1385,185 Q1349,220 1313,122"/>
<path d="M1385,185 Q1434,304 1484,257"/>
<path d="M1385,185 Q1389,228 1394,225"/>
<path d="M1385,185 Q1293,792 1202,734"/>
<path d="M1385,185 Q1376,189 1368,92"/>
<path d="M1568,689 Q1538,745 1508,719"/>
<path d="M1437,858 Q1437,858 1437,431"/>
<path d="M1202,612 Q970,1132 739,922"/>
<path d="M1202,612 Q1317,848 1433,758"/>
<path d="M1202,612 Q1226,628 1250,543"/>
<path d="M1202,612 Q1208,654 1214,651"/>
<path d="M1202,612 Q1118,742 1035,678"/>
<path d="M1202,612 Q1222,623 1242,454"/>
<path d="M1202,612 Q1361,699 1520,605"/>
<path d="M1202,612 Q1031,995 860,831"/>
<path d="M1202,612 Q1166,707 1131,681"/>
<path d="M1202,612 Q1291,747 1381,697"/>
<path d="M1202,612 Q1085,878 968,810"/>
<path d="M1202,612 Q1099,747 997,674"/>
<path d="M1202,612 Q1283,668 1365,492"/>
<path d="M1202,612 Q1253,650 1304,480"/>
<path d="M1202,612 Q1057,983 912,858"/>
<path d="M1202,612 Q839,974 476,473"/>
<path d="M1202,612 Q1153,908 1105,870"/>
<path d="M1202,612 Q1060,779 918,708"/>
<path d="M1202,612 Q1092,700 982,613"/>
<path d="M1202,612 Q1310,846 1418,776"/>
<path d="M1202,612 Q1230,633 1258,581"/>
<path d="M1202,612 Q1010,759 818,493"/>
<path d="M1202,612 Q1366,959 1531,822"/>
<path d="M1202,612 Q1203,613 1205,548"/>
<path d="M1202,612 Q975,981 749,860"/>
<path d="M1202,612 Q1122,679 1042,519"/>
<path d="M1275,904 Q1238,935 1202,612"/>
<path d="M1049,955 Q1113,1053 1177,1002"/>
<path d="M950,719 Q1378,1357 1807,1095"/>
<path d="M950,719 Q753,1034 557,861"/>
<path d="M465,901 Q491,925 518,850"/>
<path d="M465,901 Q511,937 557,884"/>
<path d="M465,901 Q436,944 407,916"/>
<path d="M1371,249 Q1055,1206 739,922"/>
<path d="M1371,249 Q1378,255 1385,185"/>
<path d="M1111,852 Q1014,938 918,708"/>
<path d="M1326,328 Q1474,666 1622,571"/>
<path d="M1326,328 Q1327,1017 1328,1017"/>
<path d="M1326,328 Q1375,629 1424,601"/>
<path d="M1326,328 Q1268,436 1210,381"/>
<path d="M1326,328 Q1239,407 1153,287"/>
<path d="M1326,328 Q1211,412 1096,340"/>
<path d="M1326,328 Q1389,609 1452,565"/>
<path d="M1326,328 Q1423,676 1520,605"/>
<path d="M1326,328 Q1378,1020 1430,975"/>
<path d="M1326,328 Q1264,668 1202,612"/>
<path d="M1326,328 Q829,977 333,675"/>
<path d="M1326,328 Q1168,632 1010,549"/>
<path d="M1326,328 Q1227,408 1129,313"/>
<path d="M1098,442 Q1150,656 1202,612"/>
<path d="M1098,442 Q1309,762 1520,605"/>
<path d="M1098,442 Q1120,463 1142,394"/>
<path d="M1098,442 Q1154,478 1210,381"/>
<path d="M1202,734 Q1346,1137 1491,1018"/>
<path d="M1202,734 Q1313,829 1424,601"/>
<path d="M1202,734 Q1298,822 1394,225"/>
<path d="M1202,734 Q1177,758 1153,287"/>
<path d="M1202,734 Q1312,808 1423,580"/>
<path d="M1202,734 Q1343,815 1484,257"/>
<path d="M1202,734 Q1156,889 1111,852"/>
<path d="M1202,734 Q1257,768 1313,122"/>
<path d="M1202,734 Q1246,758 1290,145"/>
<path d="M1202,734 Q1253,769 1304,400"/>
<path d="M988,929 Q868,1016 749,860"/>
<path d="M988,929 Q1305,1157 1622,571"/>
<path d="M988,929 Q950,958 912,858"/>
<path d="M988,929 Q1028,951 1068,728"/>
<path d="M504,916 Q530,932 557,884"/>
<path d="M1122,377 Q1372,708 1622,571"/>
<path d="M1122,377 Q1276,1090 1430,975"/>
<path d="M1122,377 Q1117,474 1112,470"/>
<path d="M1122,377 Q1273,680 1424,601"/>
<path d="M1122,377 Q1224,463 1326,328"/>
<path d="M1122,377 Q1166,411 1210,381"/>
<path d="M1122,377 Q1137,390 1153,287"/>
<path d="M1122,377 Q1125,380 1129,313"/>
<path d="M1122,377 Q1115,383 1109,324"/>
<path d="M1122,377 Q1231,436 1341,354"/>
<path d="M1122,377 Q1355,733 1589,518"/>
<path d="M1246,470 Q1308,568 1370,517"/>
<path d="M1246,470 Q1228,480 1210,381"/>
<path d="M1101,778 Q1213,882 1326,328"/>
<path d="M1101,778 Q1310,928 1520,605"/>
<path d="M782,546 Q557,863 333,675"/>
<path d="M782,546 Q1153,1004 1525,634"/>
<path d="M782,546 Q804,628 827,612"/>
<path d="M782,546 Q992,804 1202,612"/>
<path d="M782,546 Q1153,880 1524,362"/>
<path d="M782,546 Q993,689 1205,548"/>
<path d="M1300,948 Q1251,983 1202,734"/>
<path d="M1300,948 Q1019,1121 739,922"/>
<path d="M1300,948 Q1402,1043 1505,194"/>
<path d="M1300,948 Q1453,1074 1607,775"/>
<path d="M1300,948 Q1255,974 1211,748"/>
<path d="M1505,194 Q1320,512 1136,353"/>
<path d="M1505,194 Q1373,565 1242,454"/>
<path d="M1164,475 Q1160,478 1157,454"/>
<path d="M1164,475 Q1153,485 1142,394"/>
<path d="M1164,475 Q1187,487 1210,381"/>
<path d="M1164,475 Q1267,571 1370,517"/>
<path d="M1164,475 Q860,1063 557,861"/>
<path d="M633,843 Q595,892 557,861"/>
<path d="M1330,780 Q1330,880 1331,880"/>
<path d="M1330,780 Q1189,1062 1049,955"/>
<path d="M1679,470 Q1344,869 1010,549"/>
<path d="M1679,470 Q1650,597 1622,571"/>
<path d="M1591,481 Q1606,583 1622,571"/>
<path d="M1591,481 Q1165,1191 739,922"/>
<path d="M1591,481 Q1281,955 971,658"/>
<path d="M1591,481 Q1300,694 1010,549"/>
<path d="M1591,481 Q1398,697 1205,548"/>
<path d="M960,697 Q1291,887 1622,571"/>
<path d="M960,697 Q758,1026 557,884"/>
<path d="M960,697 Q1043,974 1127,929"/>
<path d="M960,697 Q1081,763 1202,612"/>
<path d="M960,697 Q758,1007 557,861"/>
<path d="M960,697 Q916,827 873,791"/>
<path d="M817,710 Q1248,1043 1679,470"/>
<path d="M817,710 Q1219,926 1622,571"/>
<path d="M817,710 Q1244,1009 1672,654"/>
<path d="M1480,97 Q1109,1200 739,922"/>
<path d="M1480,97 Q1365,654 1250,543"/>
<path d="M1480,97 Q1328,931 1176,793"/>
<path d="M1480,97 Q1341,699 1202,612"/>
<path d="M1480,97 Q1342,662 1205,548"/>
<path d="M1480,97 Q1529,191 1578,148"/>
<path d="M1381,697 Q1444,769 1508,719"/>
<path d="M1290,690 Q1246,725 1202,612"/>
<path d="M1290,690 Q1258,719 1226,690"/>
<path d="M1290,690 Q1213,741 1136,353"/>
<path d="M1290,690 Q1247,711 1205,548"/>
<path d="M1290,690 Q1454,853 1619,763"/>
<path d="M1288,676 Q1447,887 1607,775"/>
<path d="M1288,676 Q1245,710 1202,612"/>
<path d="M1288,676 Q1353,824 1418,776"/>
<path d="M1288,676 Q1409,899 1531,822"/>
<path d="M1288,676 Q1246,716 1205,548"/>
<path d="M1288,676 Q1360,829 1433,758"/>
<path d="M1368,92 Q1053,1174 739,922"/>
<path d="M1368,92 Q1446,680 1525,634"/>
<path d="M1196,664 Q1127,715 1059,491"/>
<path d="M1196,664 Q1239,699 1283,564"/>
<path d="M1326,68 Q1032,1095 739,922"/>
<path d="M1326,68 Q1348,265 1371,249"/>
<path d="M1326,68 Q1371,162 1417,131"/>
<path d="M1326,68 Q1231,403 1136,353"/>
<path d="M1326,68 Q1200,396 1075,300"/>
<path d="M1419,831 Q1079,1120 739,922"/>
<path d="M931,508 Q1066,681 1202,612"/>
<path d="M931,508 Q774,651 617,501"/>
<path d="M1533,229 Q1384,591 1235,481"/>
<path d="M1533,229 Q1446,367 1359,284"/>
<path d="M1445,632 Q1485,657 1525,634"/>
<path d="M1136,353 Q1123,862 1111,852"/>
<path d="M1136,353 Q1079,919 1023,880"/>
<path d="M1530,739 Q1429,1076 1328,1017"/>
<path d="M1530,739 Q1474,865 1419,831"/>
<path d="M1108,692 Q766,1028 424,813"/>
<path d="M1108,692 Q1155,765 1202,734"/>
<path d="M1105,870 Q1375,1086 1646,287"/>
<path d="M1423,580 Q1081,1184 739,922"/>
<path d="M1423,580 Q1314,641 1205,548"/>
<path d="M1423,580 Q1465,742 1508,719"/>
<path d="M1016,354 Q936,915 856,854"/>
<path d="M856,854 Q805,901 755,770"/>
<path d="M856,854 Q1016,1151 1177,1002"/>
<path d="M856,854 Q944,943 1033,895"/>
<path d="M856,854 Q957,950 1059,491"/>
<path d="M856,854 Q1041,971 1226,690"/>
<path d="M737,559 Q803,618 869,564"/>
<path d="M737,559 Q1108,796 1480,510"/>
<path d="M737,559 Q971,676 1205,548"/>
<path d="M912,479 Q1048,620 1184,486"/>
<path d="M912,479 Q1057,740 1202,612"/>
<path d="M912,479 Q1058,677 1205,548"/>
<path d="M912,479 Q865,529 818,493"/>
<path d="M761,351 Q724,379 688,192"/>
<path d="M761,351 Q1133,666 1506,390"/>
<path d="M761,351 Q981,789 1202,612"/>
<path d="M761,351 Q981,930 1202,734"/>
<path d="M808,678 Q939,797 1070,612"/>
<path d="M808,678 Q1008,797 1208,630"/>
<path d="M808,678 Q970,920 1133,761"/>
<path d="M808,678 Q1112,916 1417,131"/>
<path d="M808,678 Q799,743 791,736"/>
<path d="M808,678 Q1026,844 1244,720"/>
<path d="M808,678 Q1006,847 1205,548"/>
<path d="M808,678 Q1017,816 1226,690"/>
<path d="M808,678 Q1005,855 1202,612"/>
<path d="M808,678 Q768,698 728,678"/>
<path d="M808,678 Q1215,1054 1622,507"/>
<path d="M808,678 Q1088,822 1368,92"/>
<path d="M808,678 Q905,746 1002,321"/>
<path d="M808,678 Q840,808 873,791"/>
<path d="M1140,840 Q1191,885 1242,454"/>
<path d="M1304,480 Q1131,602 959,403"/>
<path d="M1304,480 Q1254,576 1205,548"/>
<path d="M373,889 Q398,909 424,813"/>
<path d="M1033,895 Q1119,980 1205,548"/>
<path d="M1033,895 Q1199,1060 1365,492"/></g><g font-family="Monospace"><text y="785" x="1204" font-size="10" fill="#0000ff">iputils</text>
<text y="844" x="910" font-size="10" fill="#6a6aa2">libmad</text>
<text y="340" x="1090" font-size="10" fill="#6a6aa2">gd</text>
<text y="543" x="1237" font-size="10" fill="#6a6aa2">gdbm</text>
<text y="731" x="398" font-size="10" fill="#0000ff">rhino</text>
<text y="473" x="1396" font-size="11" fill="#0000ff">python2-docutils</text>
<text y="690" x="1207" font-size="12" fill="#6a6aa2">gpgme</text>
<text y="178" x="1575" font-size="10" fill="#0000ff">urxvt-url-select</text>
<text y="662" x="1308" font-size="17" fill="#0000ff">lib32-ati-dri</text>
<text y="668" x="911" font-size="10" fill="#0000ff">pptpclient</text>
<text y="827" x="707" font-size="10" fill="#6a6aa2">mpg123</text>
<text y="932" x="606" font-size="10" fill="#6a6aa2">giflib</text>
<text y="542" x="1556" font-size="10" fill="#6a6aa2">libxt</text>
<text y="694" x="395" font-size="10" fill="#0000ff">junit</text>
<text y="493" x="1089" font-size="10" fill="#0000ff">unzip</text>
<text y="342" x="1342" font-size="10" fill="#6a6aa2">libusb-compat</text>
<text y="620" x="1398" font-size="10" fill="#6a6aa2">libxfont</text>
<text y="517" x="1339" font-size="24" fill="#6a6aa2">gtk2</text>
<text y="381" x="1160" font-size="39" fill="#6a6aa2">gtk3</text>
<text y="736" x="778" font-size="10" fill="#6a6aa2">jack</text>
<text y="720" x="1223" font-size="11" fill="#6a6aa2">gnutls</text>
<text y="681" x="1112" font-size="10" fill="#6a6aa2">dhcpcd</text>
<text y="975" x="1352" font-size="22" fill="#6a6aa2">ghostscript</text>
<text y="496" x="1247" font-size="13" fill="#0000ff">mercurial</text>
<text y="249" x="1241" font-size="10" fill="#6a6aa2">libxcomposite</text>
<text y="654" x="1099" font-size="10" fill="#0000ff">licenses</text>
<text y="295" x="1235" font-size="10" fill="#6a6aa2">libspectre</text>
<text y="1095" x="1714" font-size="16" fill="#6a6aa2">gstreamer0.10-base</text>
<text y="943" x="613" font-size="10" fill="#0000ff">xorg-x11perf</text>
<text y="533" x="1627" font-size="10" fill="#6a6aa2">libproxy</text>
<text y="648" x="987" font-size="10" fill="#6a6aa2">libgpg-error</text>
<text y="687" x="1670" font-size="26" fill="#0000ff">wireshark-cli</text>
<text y="495" x="926" font-size="10" fill="#0000ff">cpufrequtils</text>
<text y="287" x="1555" font-size="56" fill="#0000ff">boost</text>
<text y="581" x="1245" font-size="10" fill="#0000ff">acpi</text>
<text y="827" x="1114" font-size="10" fill="#6a6aa2">libsndfile</text>
<text y="822" x="1518" font-size="10" fill="#6a6aa2">gawk</text>
<text y="431" x="1418" font-size="10" fill="#0000ff">archey</text>
<text y="486" x="1162" font-size="10" fill="#6a6aa2">libltdl</text>
<text y="875" x="424" font-size="10" fill="#0000ff">wmname</text>
<text y="190" x="1535" font-size="10" fill="#0000ff">zathura-pdf-poppler</text>
<text y="675" x="108" font-size="33" fill="#6a6aa2">jre7-openjdk-headless</text>
<text y="429" x="1190" font-size="10" fill="#0000ff">python2-feedparser</text>
<text y="820" x="526" font-size="10" fill="#6a6aa2">xextproto</text>
<text y="922" x="713" font-size="10" fill="#6a6aa2">gcc-libs</text>
<text y="634" x="1482" font-size="19" fill="#0000ff">firefox</text>
<text y="470" x="1096" font-size="10" fill="#6a6aa2">lcms2</text>
<text y="823" x="902" font-size="11" fill="#0000ff">alsa-utils</text>
<text y="370" x="1269" font-size="10" fill="#6a6aa2">sqlite</text>
<text y="530" x="1506" font-size="11" fill="#6a6aa2">libxcb</text>
<text y="362" x="1471" font-size="15" fill="#0000ff">flashplugin</text>
<text y="556" x="1338" font-size="10" fill="#0000ff">syslog-ng</text>
<text y="714" x="1566" font-size="10" fill="#6a6aa2">startup-notification</text>
<text y="394" x="1133" font-size="10" fill="#0000ff">feh</text>
<text y="148" x="1547" font-size="24" fill="#6a6aa2">perl</text>
<text y="614" x="1275" font-size="10" fill="#6a6aa2">m4</text>
<text y="131" x="1388" font-size="13" fill="#6a6aa2">libxml2</text>
<text y="371" x="1348" font-size="10" fill="#6a6aa2">libxrandr</text>
<text y="739" x="1016" font-size="10" fill="#6a6aa2">libpulse</text>
<text y="571" x="1519" font-size="29" fill="#0000ff">gomplay-git</text>
<text y="813" x="405" font-size="10" fill="#6a6aa2">libxmu</text>
<text y="808" x="759" font-size="10" fill="#6a6aa2">opencore-amr</text>
<text y="916" x="375" font-size="10" fill="#0000ff">xorg-utils</text>
<text y="481" x="935" font-size="10" fill="#6a6aa2">flac</text>
<text y="581" x="975" font-size="10" fill="#6a6aa2">sysfsutils</text>
<text y="490" x="1509" font-size="10" fill="#6a6aa2">xcb-util</text>
<text y="797" x="1246" font-size="10" fill="#0000ff">lib32-intel-dri</text>
<text y="81" x="1442" font-size="12" fill="#0000ff">pstoedit</text>
<text y="1133" x="1892" font-size="10" fill="#6a6aa2">dbus-python</text>
<text y="504" x="1027" font-size="10" fill="#0000ff">terminus-font</text>
<text y="549" x="909" font-size="12" fill="#0000ff">gstreamer0.10-good-plugins</text>
<text y="810" x="952" font-size="10" fill="#6a6aa2">faad2</text>
<text y="828" x="745" font-size="10" fill="#6a6aa2">libxvmc</text>
<text y="518" x="1576" font-size="10" fill="#6a6aa2">lcms</text>
<text y="770" x="741" font-size="11" fill="#6a6aa2">krb5</text>
<text y="567" x="1335" font-size="10" fill="#0000ff">iptables</text>
<text y="407" x="1112" font-size="11" fill="#0000ff">links</text>
<text y="662" x="1275" font-size="10" fill="#0000ff">sudo</text>
<text y="122" x="1304" font-size="10" fill="#6a6aa2">atk</text>
<text y="497" x="1174" font-size="10" fill="#0000ff">logrotate</text>
<text y="260" x="1073" font-size="10" fill="#0000ff">socat</text>
<text y="248" x="1064" font-size="10" fill="#6a6aa2">gsettings-desktop-schemas</text>
<text y="708" x="1341" font-size="10" fill="#6a6aa2">xorg-fonts-encodings</text>
<text y="891" x="421" font-size="10" fill="#0000ff">xorg-xkbutils</text>
<text y="493" x="779" font-size="41" fill="#6a6aa2">gcc</text>
<text y="720" x="802" font-size="10" fill="#6a6aa2">lame</text>
<text y="327" x="1370" font-size="14" fill="#0000ff">uniconvertor</text>
<text y="708" x="892" font-size="10" fill="#6a6aa2">alsa-lib</text>
<text y="665" x="1460" font-size="10" fill="#6a6aa2">librsvg</text>
<text y="926" x="1210" font-size="10" fill="#6a6aa2">dbus-core</text>
<text y="657" x="805" font-size="10" fill="#0000ff">alsa-oss</text>
<text y="679" x="1519" font-size="10" fill="#0000ff">xorg-xkbevd</text>
<text y="947" x="782" font-size="10" fill="#0000ff">gperf</text>
<text y="831" x="571" font-size="10" fill="#0000ff">xorg-xcursorgen</text>
<text y="388" x="999" font-size="10" fill="#6a6aa2">polkit</text>
<text y="329" x="1502" font-size="11" fill="#0000ff">aspell-en</text>
<text y="265" x="1292" font-size="10" fill="#0000ff">zathura-ps</text>
<text y="907" x="1382" font-size="10" fill="#0000ff">lib32-mpg123</text>
<text y="860" x="727" font-size="10" fill="#6a6aa2">fribidi</text>
<text y="884" x="530" font-size="14" fill="#6a6aa2">libx11</text>
<text y="748" x="1356" font-size="10" fill="#0000ff">powertop</text>
<text y="402" x="1037" font-size="10" fill="#0000ff">fswebcam</text>
<text y="311" x="1028" font-size="10" fill="#6a6aa2">pciutils</text>
<text y="413" x="815" font-size="10" fill="#0000ff">xmobar</text>
<text y="284" x="1343" font-size="10" fill="#6a6aa2">hwids</text>
<text y="611" x="253" font-size="10" fill="#0000ff">jna</text>
<text y="802" x="506" font-size="10" fill="#0000ff">xorg-xkill</text>
<text y="801" x="1109" font-size="10" fill="#0000ff">htop</text>
<text y="339" x="1196" font-size="11" fill="#0000ff">mutt</text>
<text y="564" x="830" font-size="12" fill="#6a6aa2">ttf-dejavu</text>
<text y="654" x="1653" font-size="10" fill="#6a6aa2">libogg</text>
<text y="746" x="1106" font-size="10" fill="#0000ff">v4l2ucp</text>
<text y="510" x="1432" font-size="10" fill="#6a6aa2">xorg-font-utils</text>
<text y="354" x="1319" font-size="10" fill="#6a6aa2">libcups</text>
<text y="615" x="1298" font-size="10" fill="#6a6aa2">pixman</text>
<text y="678" x="1022" font-size="10" fill="#0000ff">flex</text>
<text y="525" x="871" font-size="10" fill="#0000ff">xf86-input-acecad</text>
<text y="569" x="1049" font-size="10" fill="#0000ff">xf86-input-keyboard</text>
<text y="355" x="781" font-size="30" fill="#6a6aa2">python</text>
<text y="604" x="1334" font-size="10" fill="#6a6aa2">libidn</text>
<text y="748" x="771" font-size="10" fill="#6a6aa2">xvidcore</text>
<text y="675" x="2260" font-size="13" fill="#0000ff">texlive-publishers</text>
<text y="612" x="1691" font-size="10" fill="#6a6aa2">openjpeg</text>
<text y="836" x="1618" font-size="10" fill="#0000ff">reiserfsprogs</text>
<text y="386" x="1323" font-size="10" fill="#6a6aa2">systemd-tools</text>
<text y="751" x="882" font-size="10" fill="#6a6aa2">libdca</text>
<text y="261" x="1411" font-size="10" fill="#6a6aa2">aspell</text>
<text y="815" x="1066" font-size="10" fill="#6a6aa2">dbus</text>
<text y="968" x="1202" font-size="10" fill="#6a6aa2">lib32-libxext</text>
<text y="780" x="1144" font-size="10" fill="#6a6aa2">libsm</text>
<text y="565" x="1427" font-size="13" fill="#6a6aa2">jasper</text>
<text y="616" x="1582" font-size="10" fill="#0000ff">xorg-smproxy</text>
<text y="225" x="1378" font-size="10" fill="#6a6aa2">cairo</text>
<text y="767" x="1253" font-size="14" fill="#6a6aa2">poppler</text>
<text y="411" x="1325" font-size="11" fill="#0000ff">wicd</text>
<text y="681" x="897" font-size="10" fill="#6a6aa2">run-parts</text>
<text y="312" x="1259" font-size="10" fill="#0000ff">vloopback-svn</text>
<text y="665" x="1568" font-size="10" fill="#6a6aa2">mozilla-common</text>
<text y="321" x="993" font-size="10" fill="#0000ff">ntp</text>
<text y="929" x="1095" font-size="10" fill="#6a6aa2">libxrender</text>
<text y="491" x="1042" font-size="11" fill="#6a6aa2">gconf</text>
<text y="221" x="1455" font-size="10" fill="#6a6aa2">libxft</text>
<text y="809" x="1167" font-size="10" fill="#6a6aa2">orc</text>
<text y="548" x="1192" font-size="10" fill="#6a6aa2">bash</text>
<text y="118" x="1501" font-size="10" fill="#6a6aa2">poppler-glib</text>
<text y="454" x="1141" font-size="10" fill="#0000ff">dmenu</text>
<text y="1096" x="1967" font-size="10" fill="#6a6aa2">python2-pyparsing</text>
<text y="340" x="996" font-size="11" fill="#6a6aa2">openssh</text>
<text y="300" x="1046" font-size="13" fill="#6a6aa2">openssl</text>
<text y="763" x="1587" font-size="10" fill="#6a6aa2">libarchive</text>
<text y="693" x="1403" font-size="10" fill="#6a6aa2">xorg-fonts-alias</text>
<text y="836" x="1506" font-size="10" fill="#0000ff">jfsutils</text>
<text y="232" x="1255" font-size="10" fill="#0000ff">cryptsetup</text>
<text y="1017" x="1267" font-size="10" fill="#6a6aa2">lib32-libjpeg-turbo</text>
<text y="630" x="1195" font-size="10" fill="#0000ff">lvm2</text>
<text y="409" x="1202" font-size="10" fill="#6a6aa2">xz</text>
<text y="918" x="566" font-size="10" fill="#0000ff">xorg-xwud</text>
<text y="421" x="1037" font-size="10" fill="#6a6aa2">gtk-update-icon-cache</text>
<text y="397" x="1416" font-size="10" fill="#6a6aa2">gpm</text>
<text y="735" x="334" font-size="10" fill="#6a6aa2">java-rhino</text>
<text y="588" x="1301" font-size="10" fill="#6a6aa2">libxpm</text>
<text y="538" x="1679" font-size="10" fill="#6a6aa2">libxfixes</text>
<text y="192" x="479" font-size="46" fill="#0000ff">clang-analyzer</text>
<text y="601" x="1385" font-size="11" fill="#6a6aa2">gdk-pixbuf2</text>
<text y="481" x="1216" font-size="10" fill="#6a6aa2">libusb</text>
<text y="707" x="699" font-size="10" fill="#6a6aa2">libevent</text>
<text y="733" x="1283" font-size="21" fill="#0000ff">linux-headers</text>
<text y="986" x="1130" font-size="14" fill="#0000ff">xorg-fonts-100dpi</text>
<text y="773" x="1181" font-size="10" fill="#0000ff">pm-utils</text>
<text y="775" x="1594" font-size="10" fill="#6a6aa2">grep</text>
<text y="602" x="1270" font-size="10" fill="#6a6aa2">libglapi</text>
<text y="911" x="992" font-size="11" fill="#0000ff">ttf-ms-fonts</text>
<text y="942" x="1396" font-size="11" fill="#0000ff">zsh</text>
<text y="641" x="1090" font-size="10" fill="#0000ff">xf86-input-mouse</text>
<text y="914" x="1261" font-size="10" fill="#6a6aa2">lib32-libxfixes</text>
<text y="760" x="1671" font-size="10" fill="#0000ff">xfsprogs</text>
<text y="390" x="1478" font-size="22" fill="#0000ff">gvim</text>
<text y="638" x="802" font-size="10" fill="#6a6aa2">xorg-xset</text>
<text y="257" x="1455" font-size="10" fill="#6a6aa2">dbus-glib</text>
<text y="694" x="1595" font-size="10" fill="#6a6aa2">libxkbfile</text>
<text y="324" x="1080" font-size="10" fill="#6a6aa2">djvulibre</text>
<text y="675" x="1169" font-size="10" fill="#0000ff">which</text>
<text y="108" x="1586" font-size="10" fill="#0000ff">alsi</text>
<text y="834" x="929" font-size="10" fill="#6a6aa2">libcap</text>
<text y="462" x="869" font-size="10" fill="#6a6aa2">xorg-mkfontscale</text>
<text y="849" x="359" font-size="10" fill="#6a6aa2">fixesproto</text>
<text y="451" x="1522" font-size="10" fill="#6a6aa2">xorg-xwininfo</text>
<text y="734" x="936" font-size="10" fill="#0000ff">alsa-plugins</text>
<text y="791" x="801" font-size="32" fill="#0000ff">mplayer</text>
<text y="145" x="1232" font-size="10" fill="#6a6aa2">desktop-file-utils</text>
<text y="855" x="585" font-size="10" fill="#0000ff">xorg-xclock</text>
<text y="709" x="2234" font-size="10" fill="#6a6aa2">t1lib</text>
<text y="809" x="1188" font-size="10" fill="#0000ff">nano</text>
<text y="698" x="816" font-size="10" fill="#6a6aa2">libxxf86dga</text>
<text y="519" x="1016" font-size="10" fill="#0000ff">fakeroot</text>
<text y="636" x="328" font-size="10" fill="#6a6aa2">jre7-openjdk</text>
<text y="850" x="483" font-size="10" fill="#0000ff">compton-git</text>
<text y="374" x="913" font-size="10" fill="#0000ff">autossh</text>
<text y="599" x="937" font-size="10" fill="#0000ff">xf86-video-intel</text>
<text y="910" x="1088" font-size="10" fill="#6a6aa2">lib32-libx11</text>
<text y="758" x="1404" font-size="10" fill="#6a6aa2">findutils</text>
<text y="125" x="1338" font-size="10" fill="#6a6aa2">popt</text>
<text y="732" x="820" font-size="10" fill="#6a6aa2">x264</text>
<text y="711" x="973" font-size="14" fill="#6a6aa2">libgl</text>
<text y="728" x="1036" font-size="10" fill="#6a6aa2">fontconfig</text>
<text y="825" x="1042" font-size="10" fill="#6a6aa2">keyutils</text>
<text y="749" x="742" font-size="14" fill="#6a6aa2">db</text>
<text y="567" x="1212" font-size="11" fill="#6a6aa2">kbd</text>
<text y="812" x="1566" font-size="11" fill="#6a6aa2">util-linux</text>
<text y="857" x="1320" font-size="10" fill="#6a6aa2">freetype2</text>
<text y="799" x="987" font-size="33" fill="#6a6aa2">qt</text>
<text y="612" x="1106" font-size="10" fill="#0000ff">patch</text>
<text y="863" x="451" font-size="10" fill="#0000ff">xorg-xfontsel</text>
<text y="674" x="981" font-size="10" fill="#0000ff">bison</text>
<text y="507" x="1537" font-size="11" fill="#6a6aa2">libvorbis</text>
<text y="423" x="1483" font-size="10" fill="#6a6aa2">python2-gobject2</text>
<text y="858" x="898" font-size="11" fill="#6a6aa2">enca</text>
<text y="592" x="1583" font-size="11" fill="#6a6aa2">gsfonts</text>
<text y="599" x="1049" font-size="10" fill="#0000ff">xf86-input-vmmouse</text>
<text y="626" x="964" font-size="10" fill="#6a6aa2">libpciaccess</text>
<text y="801" x="1612" font-size="10" fill="#6a6aa2">sed</text>
<text y="649" x="1461" font-size="10" fill="#0000ff">netcfg</text>
<text y="580" x="1144" font-size="10" fill="#0000ff">mdadm</text>
<text y="827" x="307" font-size="10" fill="#6a6aa2">libxaw</text>
<text y="904" x="561" font-size="10" fill="#0000ff">mozplugger-chromium</text>
<text y="517" x="1081" font-size="10" fill="#6a6aa2">libxau</text>
<text y="750" x="1571" font-size="10" fill="#6a6aa2">kmod</text>
<text y="279" x="1231" font-size="10" fill="#6a6aa2">v4l-utils</text>
<text y="613" x="940" font-size="10" fill="#6a6aa2">device-mapper</text>
<text y="948" x="509" font-size="10" fill="#0000ff">xorg-xlsfonts</text>
<text y="507" x="1613" font-size="10" fill="#6a6aa2">lua</text>
<text y="838" x="1028" font-size="10" fill="#6a6aa2">libpng</text>
<text y="658" x="949" font-size="10" fill="#0000ff">ncmpcpp</text>
<text y="649" x="636" font-size="10" fill="#6a6aa2">xdg-utils</text>
<text y="448" x="842" font-size="14" fill="#0000ff">gcc-fortran</text>
<text y="705" x="1051" font-size="10" fill="#0000ff">msmtp</text>
<text y="56" x="1348" font-size="12" fill="#6a6aa2">imagemagick</text>
<text y="797" x="1031" font-size="10" fill="#0000ff">screen</text>
<text y="346" x="1053" font-size="11" fill="#0000ff">lynx</text>
<text y="558" x="1122" font-size="10" fill="#6a6aa2">libxdmcp</text>
<text y="564" x="1261" font-size="14" fill="#6a6aa2">pygtk</text>
<text y="148" x="1395" font-size="10" fill="#6a6aa2">libgcrypt</text>
<text y="836" x="469" font-size="10" fill="#0000ff">unclutter</text>
<text y="721" x="712" font-size="10" fill="#6a6aa2">schroedinger</text>
<text y="873" x="826" font-size="10" fill="#6a6aa2">libxxf86vm</text>
<text y="511" x="1319" font-size="11" fill="#0000ff">gtk</text>
<text y="768" x="1035" font-size="10" fill="#0000ff">termsyn</text>
<text y="1069" x="1652" font-size="48" fill="#0000ff">python2-matplotlib</text>
<text y="215" x="1266" font-size="10" fill="#6a6aa2">hicolor-icon-theme</text>
<text y="782" x="1471" font-size="35" fill="#0000ff">linux</text>
<text y="46" x="0" font-size="55" fill="#0000ff">3569MB</text>
<text y="860" x="1165" font-size="12" fill="#0000ff">mumble</text>
<text y="237" x="1053" font-size="10" fill="#0000ff">heirloom-mailx</text>
<text y="761" x="1106" font-size="12" fill="#6a6aa2">ncurses</text>
<text y="387" x="1289" font-size="10" fill="#6a6aa2">libxi</text>
<text y="313" x="1110" font-size="10" fill="#6a6aa2">imlib2</text>
<text y="868" x="609" font-size="10" fill="#0000ff">xorg-xpr</text>
<text y="926" x="422" font-size="10" fill="#0000ff">xorg-xinit</text>
<text y="807" x="1411" font-size="10" fill="#6a6aa2">lib32-alsa-lib</text>
<text y="450" x="1273" font-size="10" fill="#6a6aa2">libnl</text>
<text y="419" x="1661" font-size="10" fill="#6a6aa2">zlib</text>
<text y="893" x="640" font-size="10" fill="#0000ff">sxiv</text>
<text y="946" x="1096" font-size="14" fill="#0000ff">xorg-fonts-75dpi</text>
<text y="832" x="1192" font-size="15" fill="#6a6aa2">lib32-libgl</text>
<text y="861" x="535" font-size="10" fill="#6a6aa2">libxext</text>
<text y="400" x="1288" font-size="10" fill="#6a6aa2">avahi</text>
<text y="721" x="1154" font-size="10" fill="#0000ff">vi</text>
<text y="454" x="1226" font-size="10" fill="#6a6aa2">expat</text>
<text y="892" x="1154" font-size="30" fill="#0000ff">skype</text>
<text y="793" x="1154" font-size="10" fill="#6a6aa2">texinfo</text>
<text y="605" x="1483" font-size="29" fill="#0000ff">gimp</text>
<text y="452" x="492" font-size="35" fill="#0000ff">pdftk</text>
<text y="212" x="1035" font-size="10" fill="#6a6aa2">libgnome-keyring</text>
<text y="572" x="1182" font-size="10" fill="#0000ff">make</text>
<text y="824" x="1478" font-size="10" fill="#6a6aa2">giblib</text>
<text y="776" x="1380" font-size="13" fill="#6a6aa2">coreutils</text>
<text y="317" x="1181" font-size="10" fill="#6a6aa2">libxdamage</text>
<text y="749" x="970" font-size="10" fill="#0000ff">xorg-xfd</text>
<text y="523" x="1318" font-size="11" fill="#6a6aa2">pam</text>
<text y="674" x="1365" font-size="10" fill="#6a6aa2">iproute2</text>
<text y="529" x="1199" font-size="10" fill="#0000ff">icedtea-web-java7</text>
<text y="546" x="1460" font-size="10" fill="#0000ff">xanim</text>
<text y="656" x="900" font-size="10" fill="#6a6aa2">libxss</text>
<text y="531" x="1099" font-size="10" fill="#0000ff">xf86-input-void</text>
<text y="709" x="1219" font-size="10" fill="#0000ff">sshfs</text>
<text y="880" x="1285" font-size="13" fill="#6a6aa2">lib32-glibc</text>
<text y="626" x="1070" font-size="10" fill="#0000ff">laptop-mode-tools</text>
<text y="641" x="1660" font-size="10" fill="#6a6aa2">libdrm</text>
<text y="877" x="1414" font-size="10" fill="#6a6aa2">filesystem</text>
<text y="848" x="1579" font-size="10" fill="#6a6aa2">gzip</text>
<text y="460" x="1635" font-size="10" fill="#6a6aa2">speex</text>
<text y="731" x="2256" font-size="17" fill="#0000ff">texlive-latexextra</text>
<text y="748" x="1198" font-size="10" fill="#0000ff">less</text>
<text y="831" x="841" font-size="10" fill="#6a6aa2">a52dec</text>
<text y="771" x="947" font-size="10" fill="#6a6aa2">libvpx</text>
<text y="287" x="1107" font-size="24" fill="#0000ff">evince</text>
<text y="501" x="595" font-size="10" fill="#6a6aa2">libxtst</text>
<text y="473" x="463" font-size="10" fill="#6a6aa2">file</text>
<text y="890" x="822" font-size="10" fill="#6a6aa2">libsamplerate</text>
<text y="800" x="617" font-size="10" fill="#0000ff">xcompmgr</text>
<text y="230" x="1341" font-size="11" fill="#6a6aa2">pango</text>
<text y="264" x="1189" font-size="10" fill="#6a6aa2">wireless_tools</text>
<text y="665" x="1029" font-size="10" fill="#0000ff">xorg-server-utils</text>
<text y="785" x="743" font-size="10" fill="#6a6aa2">aalib</text>
<text y="741" x="1840" font-size="10" fill="#6a6aa2">libpcap</text>
<text y="519" x="1190" font-size="10" fill="#0000ff">xf86-input-aiptek</text>
<text y="892" x="1546" font-size="19" fill="#0000ff">subversion</text>
<text y="612" x="736" font-size="35" fill="#0000ff">chromium</text>
<text y="453" x="802" font-size="10" fill="#6a6aa2">gmp</text>
<text y="1018" x="1462" font-size="13" fill="#0000ff">dot2tex</text>
<text y="795" x="1069" font-size="10" fill="#0000ff">xterm</text>
<text y="844" x="564" font-size="10" fill="#6a6aa2">xproto</text>
<text y="880" x="975" font-size="10" fill="#6a6aa2">ca-certificates</text>
<text y="711" x="1114" font-size="10" fill="#0000ff">ttf-inconsolata</text>
<text y="817" x="1096" font-size="10" fill="#0000ff">tamsyn-font</text>
<text y="415" x="1394" font-size="11" fill="#6a6aa2">shadow</text>
<text y="457" x="1309" font-size="28" fill="#6a6aa2">python2</text>
<text y="852" x="1001" font-size="10" fill="#6a6aa2">libcaca</text>
<text y="630" x="1295" font-size="14" fill="#0000ff">xorg-server</text>
<text y="885" x="695" font-size="10" fill="#0000ff">unrar</text>
<text y="543" x="1329" font-size="13" fill="#0000ff">man-pages</text>
<text y="631" x="1826" font-size="100" fill="#6a6aa2">texlive-core</text>
<text y="584" x="1080" font-size="10" fill="#0000ff">pkg-config</text>
<text y="440" x="1200" font-size="10" fill="#6a6aa2">shared-mime-info</text>
<text y="852" x="1283" font-size="10" fill="#0000ff">grub</text>
<text y="492" x="1415" font-size="10" fill="#6a6aa2">zathura</text>
<text y="509" x="1150" font-size="10" fill="#0000ff">xf86-input-joystick</text>
<text y="693" x="991" font-size="10" fill="#6a6aa2">libfontenc</text>
<text y="185" x="1281" font-size="40" fill="#0000ff">inkscape</text>
<text y="689" x="1552" font-size="10" fill="#0000ff">rsync</text>
<text y="858" x="1402" font-size="10" fill="#6a6aa2">lsb-release</text>
<text y="612" x="1167" font-size="22" fill="#6a6aa2">glibc</text>
<text y="492" x="1330" font-size="10" fill="#0000ff">btrfs-progs</text>
<text y="155" x="1629" font-size="10" fill="#0000ff">automake</text>
<text y="904" x="1256" font-size="10" fill="#6a6aa2">libice</text>
<text y="313" x="737" font-size="10" fill="#0000ff">pacgraph</text>
<text y="1002" x="1135" font-size="10" fill="#0000ff">lib32-libldap</text>
<text y="678" x="722" font-size="10" fill="#0000ff">bc</text>
<text y="955" x="1003" font-size="11" fill="#6a6aa2">lib32-openssl</text>
<text y="719" x="934" font-size="10" fill="#6a6aa2">libxv</text>
<text y="901" x="433" font-size="10" fill="#6a6aa2">xorg-xprop</text>
<text y="249" x="1342" font-size="10" fill="#6a6aa2">libsigc++</text>
<text y="578" x="107" font-size="21" fill="#0000ff">apache-ant</text>
<text y="852" x="1095" font-size="10" fill="#0000ff">conky</text>
<text y="328" x="1284" font-size="10" fill="#6a6aa2">libjpeg-turbo</text>
<text y="342" x="1238" font-size="10" fill="#0000ff">pcmciautils</text>
<text y="719" x="1499" font-size="10" fill="#6a6aa2">acl</text>
<text y="442" x="1076" font-size="10" fill="#6a6aa2">libexif</text>
<text y="734" x="1181" font-size="13" fill="#6a6aa2">glib2</text>
<text y="929" x="969" font-size="10" fill="#6a6aa2">libass</text>
<text y="916" x="478" font-size="10" fill="#0000ff">xorg-xwd</text>
<text y="377" x="1100" font-size="10" fill="#6a6aa2">libtiff</text>
<text y="470" x="1214" font-size="10" fill="#6a6aa2">libxcursor</text>
<text y="778" x="1082" font-size="10" fill="#6a6aa2">libmng</text>
<text y="546" x="772" font-size="11" fill="#6a6aa2">nss</text>
<text y="948" x="1287" font-size="10" fill="#6a6aa2">pcre</text>
<text y="194" x="1492" font-size="14" fill="#0000ff">git</text>
<text y="645" x="1248" font-size="13" fill="#0000ff">archlinux-wallpaper</text>
<text y="475" x="1129" font-size="10" fill="#6a6aa2">libxinerama</text>
<text y="843" x="617" font-size="10" fill="#0000ff">slock</text>
<text y="780" x="1298" font-size="10" fill="#6a6aa2">lib32-zlib</text>
<text y="470" x="1653" font-size="10" fill="#6a6aa2">libshout</text>
<text y="481" x="1572" font-size="10" fill="#6a6aa2">taglib</text>
<text y="697" x="951" font-size="10" fill="#6a6aa2">sdl</text>
<text y="710" x="788" font-size="10" fill="#6a6aa2">libtheora</text>
<text y="651" x="1182" font-size="10" fill="#0000ff">cabextract</text>
<text y="97" x="1445" font-size="12" fill="#0000ff">xorg-docs</text>
<text y="697" x="1368" font-size="10" fill="#6a6aa2">attr</text>
<text y="690" x="1271" font-size="10" fill="#0000ff">pacman</text>
<text y="676" x="1253" font-size="10" fill="#0000ff">initscripts</text>
<text y="92" x="1342" font-size="10" fill="#6a6aa2">hunspell</text>
<text y="664" x="1154" font-size="10" fill="#0000ff">python2-gconf</text>
<text y="403" x="933" font-size="10" fill="#0000ff">autoconf</text>
<text y="68" x="1298" font-size="11" fill="#0000ff">rtorrent</text>
<text y="831" x="1374" font-size="10" fill="#6a6aa2">lib32-gcc-libs</text>
<text y="508" x="866" font-size="10" fill="#0000ff">xf86-input-synaptics</text>
<text y="229" x="1507" font-size="10" fill="#0000ff">usbutils</text>
<text y="632" x="1413" font-size="10" fill="#6a6aa2">mime-types</text>
<text y="353" x="1123" font-size="10" fill="#6a6aa2">curl</text>
<text y="739" x="1482" font-size="10" fill="#0000ff">lib32-v4l-utils</text>
<text y="692" x="1089" font-size="10" fill="#0000ff">wmctrl</text>
<text y="870" x="1089" font-size="10" fill="#6a6aa2">bzip2</text>
<text y="612" x="1041" font-size="10" fill="#6a6aa2">inetutils</text>
<text y="749" x="1046" font-size="10" fill="#0000ff">ncdu</text>
<text y="580" x="1394" font-size="13" fill="#0000ff">gettext</text>
<text y="354" x="994" font-size="10" fill="#6a6aa2">libsasl</text>
<text y="531" x="1426" font-size="10" fill="#0000ff">apvlv</text>
<text y="817" x="1330" font-size="10" fill="#6a6aa2">inputproto</text>
<text y="854" x="834" font-size="10" fill="#6a6aa2">libldap</text>
<text y="559" x="692" font-size="10" fill="#6a6aa2">xorg-mkfontdir</text>
<text y="479" x="890" font-size="10" fill="#0000ff">libtool</text>
<text y="351" x="742" font-size="10" fill="#6a6aa2">libffi</text>
<text y="678" x="782" font-size="10" fill="#6a6aa2">readline</text>
<text y="840" x="1105" font-size="10" fill="#6a6aa2">lib32-expat</text>
<text y="480" x="1275" font-size="10" fill="#6a6aa2">diffutils</text>
<text y="889" x="347" font-size="10" fill="#0000ff">xorg-twm</text>
<text y="895" x="1004" font-size="10" fill="#6a6aa2">e2fsprogs</text>
<text y="411" x="1247" font-size="10" fill="#0000ff">offlineimap</text></g></svg>