<?xml version="1.0" encoding="UTF-8" standalone="no"?>
<!DOCTYPE svg PUBLIC "-//W3C//DTD SVG 1.0//EN" "http://www.w3.org/TR/SVG/DTD/svg10.dtd">
<svg width="2046" xmlns="http://www.w3.org/2000/svg" height="1520.0"><rect y="0" x="0" style="fill:#ffffff;" height="1520.0" width="2046"/><g style="stroke:#606060; stroke-opacity:0.15; fill:none;"><path d="M833,539 Q966,746 1099,615"/>
<path d="M930,436 Q935,822 940,820"/>
<path d="M930,436 Q1014,689 1099,615"/>
<path d="M1174,598 Q1136,641 1099,615"/>
<path d="M1036,1086 Q674,1342 313,643"/>
<path d="M1036,1086 Q717,1331 399,641"/>
<path d="M1036,1086 Q1036,1086 1037,1021"/>
<path d="M1214,1223 Q1192,1240 1171,1080"/>
<path d="M1214,1223 Q1143,1280 1073,945"/>
<path d="M1325,1248 Q1289,1274 1253,1186"/>
<path d="M1153,648 Q1057,810 962,758"/>
<path d="M1153,648 Q1126,671 1099,615"/>
<path d="M1153,648 Q1231,1325 1309,1280"/>
<path d="M1153,648 Q1113,984 1073,945"/>
<path d="M1475,968 Q1389,1018 1303,764"/>
<path d="M1475,968 Q1225,1204 975,286"/>
<path d="M1475,968 Q1438,1214 1402,1187"/>
<path d="M1475,968 Q1473,1010 1471,1009"/>
<path d="M1386,570 Q1299,828 1213,753"/>
<path d="M1386,570 Q1242,744 1099,615"/>
<path d="M1386,570 Q1023,905 661,370"/>
<path d="M797,550 Q1004,704 1212,456"/>
<path d="M797,550 Q1205,1359 1613,988"/>
<path d="M797,550 Q743,808 690,770"/>
<path d="M564,771 Q440,853 317,689"/>
<path d="M564,771 Q837,990 1110,806"/>
<path d="M564,771 Q732,873 900,715"/>
<path d="M564,771 Q647,813 731,697"/>
<path d="M564,771 Q960,1691 1356,1311"/>
<path d="M564,771 Q986,1087 1409,779"/>
<path d="M564,771 Q703,873 843,665"/>
<path d="M564,771 Q971,1579 1378,1199"/>
<path d="M564,771 Q1142,1555 1720,1069"/>
<path d="M1504,922 Q1524,995 1545,981"/>
<path d="M1068,904 Q1015,947 962,758"/>
<path d="M1068,904 Q1070,947 1073,945"/>
<path d="M905,1121 Q929,1193 953,1176"/>
<path d="M905,1121 Q989,1165 1073,945"/>
<path d="M905,1121 Q1004,1215 1103,1105"/>
<path d="M661,713 Q991,946 1321,370"/>
<path d="M661,713 Q1041,1470 1422,1237"/>
<path d="M907,769 Q1008,899 1110,806"/>
<path d="M907,769 Q1258,1390 1609,1140"/>
<path d="M907,769 Q875,787 843,665"/>
<path d="M907,769 Q875,932 844,909"/>
<path d="M907,769 Q1076,979 1246,838"/>
<path d="M907,769 Q947,1131 988,1103"/>
<path d="M907,769 Q1229,1341 1551,1145"/>
<path d="M907,769 Q1001,914 1095,845"/>
<path d="M1103,1105 Q1356,1309 1609,1140"/>
<path d="M1103,1105 Q1088,1119 1073,945"/>
<path d="M1103,1105 Q1327,1325 1551,1145"/>
<path d="M1103,1105 Q1069,1122 1036,1086"/>
<path d="M1103,1105 Q1074,1226 1046,1206"/>
<path d="M1103,1105 Q1137,1131 1171,1080"/>
<path d="M1103,1105 Q1045,1148 988,1103"/>
<path d="M1103,1105 Q1186,1173 1270,1114"/>
<path d="M912,534 Q864,690 817,649"/>
<path d="M1264,457 Q1119,593 975,286"/>
<path d="M1264,457 Q1237,818 1210,795"/>
<path d="M1264,457 Q1181,684 1099,615"/>
<path d="M855,713 Q964,1017 1073,945"/>
<path d="M1203,721 Q1151,766 1099,615"/>
<path d="M317,689 Q358,725 399,641"/>
<path d="M317,689 Q315,690 313,643"/>
<path d="M999,701 Q1049,727 1099,615"/>
<path d="M979,1188 Q1100,1276 1222,820"/>
<path d="M979,1188 Q848,1287 717,755"/>
<path d="M979,1188 Q943,1208 907,769"/>
<path d="M979,1188 Q1041,1246 1103,1105"/>
<path d="M926,728 Q1012,814 1099,615"/>
<path d="M1518,1038 Q1176,1327 835,519"/>
<path d="M1518,1038 Q1548,1139 1579,1118"/>
<path d="M1518,1038 Q1136,1378 754,881"/>
<path d="M1518,1038 Q1497,1176 1477,1164"/>
<path d="M1156,1012 Q1213,1160 1270,1114"/>
<path d="M1156,1012 Q736,1376 317,689"/>
<path d="M419,798 Q625,960 831,852"/>
<path d="M419,798 Q462,846 506,806"/>
<path d="M1097,56 Q1006,538 916,485"/>
<path d="M822,609 Q861,727 901,692"/>
<path d="M822,609 Q776,729 731,697"/>
<path d="M822,609 Q782,759 742,738"/>
<path d="M822,609 Q1112,1453 1402,1187"/>
<path d="M822,609 Q861,736 900,715"/>
<path d="M877,847 Q908,874 940,820"/>
<path d="M877,847 Q926,881 975,286"/>
<path d="M877,847 Q847,865 817,649"/>
<path d="M827,566 Q963,684 1099,615"/>
<path d="M827,566 Q790,910 754,881"/>
<path d="M827,566 Q950,1058 1073,945"/>
<path d="M827,566 Q990,796 1153,648"/>
<path d="M763,326 Q798,410 834,383"/>
<path d="M763,326 Q712,397 661,370"/>
<path d="M763,326 Q854,826 945,779"/>
<path d="M763,326 Q751,435 739,426"/>
<path d="M763,326 Q1013,686 1264,457"/>
<path d="M763,326 Q839,528 916,485"/>
<path d="M763,326 Q758,885 754,881"/>
<path d="M763,326 Q918,1050 1073,945"/>
<path d="M1418,357 Q1096,594 775,386"/>
<path d="M1418,357 Q1081,838 744,668"/>
<path d="M1418,357 Q1394,376 1370,337"/>
<path d="M1418,357 Q1315,511 1212,456"/>
<path d="M1309,1280 Q1274,1305 1240,936"/>
<path d="M1309,1280 Q1191,1383 1073,945"/>
<path d="M647,468 Q933,612 1220,422"/>
<path d="M1613,988 Q963,1377 313,643"/>
<path d="M1613,988 Q1495,1280 1378,1199"/>
<path d="M1613,988 Q1151,1326 690,770"/>
<path d="M1613,988 Q1358,1328 1103,1105"/>
<path d="M1694,1005 Q1655,1105 1617,1071"/>
<path d="M1694,1005 Q1242,1401 790,823"/>
<path d="M1487,528 Q1356,629 1225,445"/>
<path d="M1487,528 Q1516,996 1545,981"/>
<path d="M1263,1082 Q1049,1198 835,519"/>
<path d="M1263,1082 Q1258,1188 1253,1186"/>
<path d="M1159,820 Q1030,888 901,692"/>
<path d="M1159,820 Q1190,844 1222,820"/>
<path d="M975,286 Q1150,1160 1326,1059"/>
<path d="M975,286 Q1063,836 1151,771"/>
<path d="M975,286 Q1270,1132 1566,875"/>
<path d="M975,286 Q877,473 780,405"/>
<path d="M975,286 Q1209,1284 1443,1055"/>
<path d="M1110,806 Q814,1060 518,822"/>
<path d="M1110,806 Q1383,1292 1656,1140"/>
<path d="M1110,806 Q1161,835 1212,456"/>
<path d="M1040,1132 Q1071,1163 1103,1105"/>
<path d="M1040,1132 Q1209,1327 1378,1199"/>
<path d="M1040,1132 Q1155,1202 1270,1114"/>
<path d="M1040,1132 Q1263,1346 1487,528"/>
<path d="M1024,1115 Q1067,1154 1110,806"/>
<path d="M1024,1115 Q1161,1185 1299,425"/>
<path d="M1024,1115 Q1063,1139 1103,1105"/>
<path d="M1024,1115 Q920,1168 817,649"/>
<path d="M1024,1115 Q1074,1142 1124,395"/>
<path d="M1024,1115 Q879,1256 734,500"/>
<path d="M1024,1115 Q914,1186 804,876"/>
<path d="M1024,1115 Q1138,1252 1253,1186"/>
<path d="M964,738 Q952,829 940,820"/>
<path d="M964,738 Q932,762 900,715"/>
<path d="M964,738 Q682,1019 401,672"/>
<path d="M964,738 Q1063,806 1163,588"/>
<path d="M843,665 Q1198,1484 1553,1163"/>
<path d="M1572,1310 Q1528,1335 1485,791"/>
<path d="M1572,1310 Q1267,1576 962,758"/>
<path d="M1572,1310 Q1572,1310 1572,1270"/>
<path d="M1016,364 Q877,527 739,426"/>
<path d="M1016,364 Q1057,652 1099,615"/>
<path d="M1016,364 Q966,526 916,485"/>
<path d="M1016,364 Q1012,1010 1009,1008"/>
<path d="M1016,364 Q1162,1413 1309,1280"/>
<path d="M1636,1217 Q1594,1257 1553,1163"/>
<path d="M1471,1009 Q1382,1061 1294,292"/>
<path d="M1471,1009 Q1413,1360 1356,1311"/>
<path d="M1471,1009 Q1710,1247 1949,579"/>
<path d="M1471,1009 Q1125,1248 780,405"/>
<path d="M1471,1009 Q1370,1211 1270,1114"/>
<path d="M1471,1009 Q1424,1227 1378,1199"/>
<path d="M1471,1009 Q1342,1329 1214,1223"/>
<path d="M1471,1009 Q1272,1123 1073,945"/>
<path d="M1471,1009 Q1440,1027 1410,978"/>
<path d="M1471,1009 Q1285,1143 1099,615"/>
<path d="M1471,1009 Q1240,1163 1009,1008"/>
<path d="M1471,1009 Q1447,1057 1423,1043"/>
<path d="M1471,1009 Q1342,1119 1214,767"/>
<path d="M1471,1009 Q1474,1165 1477,1164"/>
<path d="M1471,1009 Q1511,1031 1551,1005"/>
<path d="M1471,1009 Q1525,1148 1579,1118"/>
<path d="M1151,670 Q1231,743 1311,486"/>
<path d="M1151,670 Q1125,686 1099,615"/>
<path d="M1151,670 Q1195,967 1240,936"/>
<path d="M1151,670 Q1224,716 1298,656"/>
<path d="M1151,670 Q1112,966 1073,945"/>
<path d="M835,519 Q966,593 1097,56"/>
<path d="M835,519 Q830,521 826,457"/>
<path d="M835,519 Q826,656 817,649"/>
<path d="M835,519 Q1001,933 1168,830"/>
<path d="M835,519 Q940,1302 1046,1206"/>
<path d="M437,776 Q672,968 907,769"/>
<path d="M437,776 Q770,1292 1103,1105"/>
<path d="M437,776 Q669,992 901,692"/>
<path d="M437,776 Q479,798 521,681"/>
<path d="M775,386 Q857,885 940,820"/>
<path d="M775,386 Q953,492 1132,355"/>
<path d="M775,386 Q757,441 739,426"/>
<path d="M775,386 Q937,765 1099,615"/>
<path d="M775,386 Q796,666 817,649"/>
<path d="M940,820 Q957,836 975,286"/>
<path d="M940,820 Q847,870 755,449"/>
<path d="M940,820 Q951,828 962,758"/>
<path d="M940,820 Q1076,947 1212,456"/>
<path d="M940,820 Q1019,878 1099,615"/>
<path d="M940,820 Q669,1044 399,641"/>
<path d="M940,820 Q903,847 867,377"/>
<path d="M1572,1270 Q1361,1386 1151,771"/>
<path d="M1572,1270 Q1575,1273 1579,1118"/>
<path d="M1572,1270 Q1335,1417 1099,615"/>
<path d="M1572,1270 Q1273,1471 975,286"/>
<path d="M1572,1270 Q1635,1318 1699,1243"/>
<path d="M1572,1270 Q1322,1402 1073,945"/>
<path d="M731,697 Q681,734 631,698"/>
<path d="M731,697 Q988,999 1246,838"/>
<path d="M731,697 Q1028,1124 1326,831"/>
<path d="M731,697 Q816,769 901,692"/>
<path d="M893,408 Q916,839 940,820"/>
<path d="M893,408 Q996,717 1099,615"/>
<path d="M893,408 Q863,465 834,438"/>
<path d="M834,812 Q1027,927 1220,422"/>
<path d="M834,812 Q807,837 781,471"/>
<path d="M834,812 Q1028,990 1223,396"/>
<path d="M834,812 Q867,834 900,715"/>
<path d="M834,812 Q906,1239 979,1188"/>
<path d="M834,812 Q1159,1104 1485,855"/>
<path d="M834,812 Q788,848 742,738"/>
<path d="M834,812 Q899,876 964,738"/>
<path d="M834,812 Q867,830 901,692"/>
<path d="M834,812 Q635,938 437,776"/>
<path d="M834,812 Q801,830 769,350"/>
<path d="M834,812 Q944,1130 1054,1075"/>
<path d="M901,571 Q867,594 833,539"/>
<path d="M901,571 Q1000,713 1099,615"/>
<path d="M901,571 Q982,1208 1063,1160"/>
<path d="M901,571 Q826,642 751,595"/>
<path d="M1227,905 Q1168,953 1110,806"/>
<path d="M1227,905 Q1095,1003 964,738"/>
<path d="M1428,1283 Q1369,1324 1311,380"/>
<path d="M1428,1283 Q1201,1434 975,286"/>
<path d="M1428,1283 Q1232,1441 1036,1086"/>
<path d="M1428,1283 Q1403,1298 1378,1199"/>
<path d="M1428,1283 Q1029,1670 631,698"/>
<path d="M1045,86 Q1088,380 1132,355"/>
<path d="M431,603 Q415,653 399,641"/>
<path d="M817,649 Q889,820 962,758"/>
<path d="M817,649 Q1021,810 1225,445"/>
<path d="M817,649 Q780,699 744,668"/>
<path d="M817,649 Q931,1296 1046,1206"/>
<path d="M817,649 Q1002,1381 1188,1209"/>
<path d="M817,649 Q872,701 928,423"/>
<path d="M817,649 Q957,766 1097,56"/>
<path d="M817,649 Q958,746 1099,615"/>
<path d="M817,649 Q1040,770 1264,457"/>
<path d="M817,649 Q866,679 916,485"/>
<path d="M860,633 Q979,733 1099,615"/>
<path d="M1179,610 Q1139,650 1099,615"/>
<path d="M1436,817 Q876,1369 317,689"/>
<path d="M1436,817 Q1341,916 1246,838"/>
<path d="M834,383 Q859,577 885,553"/>
<path d="M834,383 Q931,1096 1028,1046"/>
<path d="M834,383 Q711,551 588,475"/>
<path d="M1249,502 Q1230,511 1212,456"/>
<path d="M349,811 Q655,1072 962,758"/>
<path d="M349,811 Q885,1752 1422,1237"/>
<path d="M349,811 Q374,824 399,641"/>
<path d="M349,811 Q691,1114 1033,418"/>
<path d="M941,1078 Q1108,1428 1276,1309"/>
<path d="M941,1078 Q951,1085 962,758"/>
<path d="M1317,629 Q1208,709 1099,615"/>
<path d="M1317,629 Q1165,748 1014,649"/>
<path d="M986,399 Q1167,804 1348,686"/>
<path d="M986,399 Q1029,981 1073,945"/>
<path d="M1084,1020 Q909,1140 734,500"/>
<path d="M1084,1020 Q1046,1053 1009,1008"/>
<path d="M1188,1209 Q1229,1243 1270,1114"/>
<path d="M1188,1209 Q1052,1333 916,485"/>
<path d="M636,637 Q533,705 431,603"/>
<path d="M636,637 Q557,708 479,629"/>
<path d="M636,637 Q801,1036 966,933"/>
<path d="M636,637 Q559,704 482,655"/>
<path d="M636,637 Q552,696 468,616"/>
<path d="M636,637 Q404,838 173,650"/>
<path d="M830,801 Q865,827 900,715"/>
<path d="M830,801 Q697,911 564,771"/>
<path d="M830,801 Q730,873 631,698"/>
<path d="M1049,586 Q1074,635 1099,615"/>
<path d="M744,410 Q842,902 940,820"/>
<path d="M1457,1312 Q1349,1388 1241,1128"/>
<path d="M1457,1312 Q1355,1389 1253,1186"/>
<path d="M1457,1312 Q1439,1327 1422,1237"/>
<path d="M1457,1312 Q1446,1318 1436,817"/>
<path d="M1168,830 Q740,1210 313,643"/>
<path d="M1168,830 Q1235,876 1303,764"/>
<path d="M1168,830 Q1042,945 916,485"/>
<path d="M1168,830 Q1207,875 1246,838"/>
<path d="M1132,355 Q1248,506 1364,446"/>
<path d="M1132,355 Q1173,797 1214,767"/>
<path d="M541,602 Q511,682 482,655"/>
<path d="M541,602 Q486,643 431,603"/>
<path d="M541,602 Q357,762 173,650"/>
<path d="M1156,489 Q1184,506 1212,456"/>
<path d="M646,485 Q666,497 687,448"/>
<path d="M1025,229 Q1000,310 975,286"/>
<path d="M751,708 Q1031,909 1311,380"/>
<path d="M751,708 Q825,772 900,715"/>
<path d="M751,708 Q572,996 393,835"/>
<path d="M1151,771 Q1222,829 1294,292"/>
<path d="M937,1158 Q991,1247 1046,1206"/>
<path d="M937,1158 Q926,1166 916,485"/>
<path d="M937,1158 Q1051,1269 1166,1164"/>
<path d="M937,1158 Q975,1194 1014,649"/>
<path d="M937,1158 Q1020,1227 1103,1105"/>
<path d="M1297,1095 Q1370,1158 1443,1055"/>
<path d="M506,806 Q864,1131 1223,396"/>
<path d="M506,806 Q740,951 975,286"/>
<path d="M506,806 Q535,834 564,771"/>
<path d="M506,806 Q916,1095 1326,831"/>
<path d="M506,806 Q703,928 900,715"/>
<path d="M719,807 Q754,843 790,823"/>
<path d="M719,807 Q937,1123 1156,1012"/>
<path d="M690,770 Q883,941 1076,301"/>
<path d="M690,770 Q632,837 574,783"/>
<path d="M900,715 Q1005,906 1110,806"/>
<path d="M900,715 Q808,844 717,755"/>
<path d="M900,715 Q650,848 401,672"/>
<path d="M900,715 Q1073,1000 1246,838"/>
<path d="M900,715 Q914,726 928,423"/>
<path d="M900,715 Q983,797 1067,713"/>
<path d="M900,715 Q920,839 940,820"/>
<path d="M900,715 Q1101,903 1303,764"/>
<path d="M900,715 Q1132,849 1364,446"/>
<path d="M849,338 Q962,550 1075,478"/>
<path d="M849,338 Q992,1155 1135,1043"/>
<path d="M1183,1098 Q1216,1127 1249,502"/>
<path d="M1183,1098 Q1141,1123 1099,615"/>
<path d="M1183,1098 Q1141,1260 1099,1239"/>
<path d="M1183,1098 Q1143,1132 1103,1105"/>
<path d="M918,622 Q1008,691 1099,615"/>
<path d="M1267,720 Q1317,1101 1368,1072"/>
<path d="M1267,720 Q1238,820 1210,795"/>
<path d="M1267,720 Q1160,1141 1054,1075"/>
<path d="M1267,720 Q1334,1251 1402,1187"/>
<path d="M1267,720 Q852,1020 437,776"/>
<path d="M1112,552 Q1105,620 1099,615"/>
<path d="M979,718 Q939,757 900,715"/>
<path d="M979,718 Q855,838 731,697"/>
<path d="M1089,997 Q961,1086 834,383"/>
<path d="M1089,997 Q1094,1001 1100,459"/>
<path d="M1089,997 Q1024,1086 960,1042"/>
<path d="M1089,997 Q1176,1072 1264,861"/>
<path d="M1089,997 Q1151,1259 1214,1223"/>
<path d="M1089,997 Q1121,1018 1153,648"/>
<path d="M1028,636 Q1063,660 1099,615"/>
<path d="M966,933 Q900,977 834,438"/>
<path d="M966,933 Q905,970 844,909"/>
<path d="M966,933 Q682,1099 399,641"/>
<path d="M1105,861 Q1022,903 940,820"/>
<path d="M1105,861 Q924,1019 744,668"/>
<path d="M1105,861 Q1102,863 1099,615"/>
<path d="M554,617 Q564,788 574,783"/>
<path d="M1363,398 Q1262,1281 1161,1196"/>
<path d="M1363,398 Q1331,452 1299,425"/>
<path d="M1036,873 Q988,913 940,820"/>
<path d="M1036,873 Q733,1147 431,603"/>
<path d="M1036,873 Q757,1109 479,629"/>
<path d="M1036,873 Q848,983 661,713"/>
<path d="M1036,873 Q752,1133 468,616"/>
<path d="M1036,873 Q1109,936 1182,865"/>
<path d="M1008,1211 Q921,1280 834,383"/>
<path d="M1008,1211 Q662,1496 317,689"/>
<path d="M1008,1211 Q957,1245 907,769"/>
<path d="M1008,1211 Q1055,1246 1103,1105"/>
<path d="M1008,1211 Q1136,1319 1264,457"/>
<path d="M1008,1211 Q1089,1281 1171,1080"/>
<path d="M1190,479 Q1399,1339 1609,1140"/>
<path d="M1190,479 Q1144,660 1099,615"/>
<path d="M1311,486 Q1192,1011 1073,945"/>
<path d="M958,388 Q929,585 901,571"/>
<path d="M1161,1067 Q1050,1153 940,820"/>
<path d="M1161,1067 Q739,1391 317,689"/>
<path d="M1161,1067 Q1100,1169 1040,1132"/>
<path d="M1161,1067 Q1232,1106 1303,764"/>
<path d="M1161,1067 Q1201,1150 1241,1128"/>
<path d="M1161,1067 Q1132,1127 1103,1105"/>
<path d="M1161,1067 Q1215,1168 1270,1114"/>
<path d="M1161,1067 Q1170,1153 1179,1148"/>
<path d="M1161,1067 Q1243,1140 1326,1059"/>
<path d="M1161,1067 Q1084,1262 1008,1211"/>
<path d="M1161,1067 Q1298,1164 1436,817"/>
<path d="M1138,702 Q1118,714 1099,615"/>
<path d="M831,1064 Q896,1110 962,758"/>
<path d="M831,1064 Q839,1070 848,1023"/>
<path d="M831,1064 Q866,1113 902,1080"/>
<path d="M831,1064 Q1022,1385 1214,1223"/>
<path d="M831,1064 Q998,1284 1166,1164"/>
<path d="M831,1064 Q920,1115 1009,1008"/>
<path d="M1100,459 Q1099,615 1099,615"/>
<path d="M821,399 Q880,873 940,820"/>
<path d="M821,399 Q960,735 1099,615"/>
<path d="M821,399 Q827,441 834,438"/>
<path d="M660,616 Q616,652 573,550"/>
<path d="M967,555 Q1033,679 1099,615"/>
<path d="M1119,792 Q1029,881 940,820"/>
<path d="M971,1134 Q1180,1290 1389,728"/>
<path d="M971,1134 Q943,1155 916,485"/>
<path d="M971,1134 Q996,1150 1021,978"/>
<path d="M971,1134 Q1035,1166 1099,615"/>
<path d="M971,1134 Q1017,1205 1063,1160"/>
<path d="M971,1134 Q1035,1272 1099,1239"/>
<path d="M971,1134 Q677,1367 383,771"/>
<path d="M971,1134 Q1127,1275 1283,524"/>
<path d="M971,1134 Q894,1203 817,649"/>
<path d="M971,1134 Q1005,1163 1040,545"/>
<path d="M971,1134 Q1133,1250 1296,743"/>
<path d="M971,1134 Q1037,1195 1103,1105"/>
<path d="M971,1134 Q1022,1162 1073,945"/>
<path d="M971,1134 Q1138,1294 1306,586"/>
<path d="M755,438 Q847,876 940,820"/>
<path d="M755,438 Q914,1043 1073,945"/>
<path d="M1595,1156 Q1347,1313 1099,615"/>
<path d="M1595,1156 Q1587,1161 1579,1118"/>
<path d="M1364,446 Q1267,1158 1171,1080"/>
<path d="M1291,616 Q1195,705 1099,615"/>
<path d="M985,540 Q1042,669 1099,615"/>
<path d="M1216,376 Q808,1015 401,672"/>
<path d="M1216,376 Q883,902 550,695"/>
<path d="M1720,1069 Q1247,1436 775,386"/>
<path d="M1720,1069 Q1137,1485 554,617"/>
<path d="M1720,1069 Q1649,1165 1579,1118"/>
<path d="M1720,1069 Q1434,1312 1148,478"/>
<path d="M1326,831 Q821,1291 317,689"/>
<path d="M1326,831 Q1286,867 1246,838"/>
<path d="M660,783 Q1190,1472 1720,1069"/>
<path d="M660,783 Q695,807 731,697"/>
<path d="M660,783 Q612,822 564,771"/>
<path d="M1609,1140 Q1352,1307 1095,845"/>
<path d="M1609,1140 Q1341,1309 1073,945"/>
<path d="M1106,503 Q1102,618 1099,615"/>
<path d="M1579,1118 Q1589,1125 1600,1036"/>
<path d="M1579,1118 Q1534,1160 1489,1072"/>
<path d="M1579,1118 Q1277,1406 975,286"/>
<path d="M1579,1118 Q1596,1131 1613,988"/>
<path d="M1579,1118 Q1048,1411 518,822"/>
<path d="M1579,1118 Q1566,1171 1553,1163"/>
<path d="M1579,1118 Q1339,1248 1099,615"/>
<path d="M1579,1118 Q1580,1119 1582,1053"/>
<path d="M1579,1118 Q1247,1297 916,485"/>
<path d="M1579,1118 Q1643,1203 1708,1146"/>
<path d="M315,661 Q645,850 975,286"/>
<path d="M315,661 Q962,1635 1609,1140"/>
<path d="M315,661 Q778,1401 1241,1128"/>
<path d="M315,661 Q717,1078 1119,792"/>
<path d="M315,661 Q875,1369 1436,817"/>
<path d="M315,661 Q357,699 399,641"/>
<path d="M1335,1153 Q1196,1223 1058,378"/>
<path d="M1335,1153 Q1494,1294 1653,1179"/>
<path d="M1335,1153 Q1217,1255 1099,615"/>
<path d="M1335,1153 Q1172,1272 1009,1008"/>
<path d="M1335,1153 Q1365,1171 1395,1140"/>
<path d="M1335,1153 Q1233,1209 1132,355"/>
<path d="M1335,1153 Q1095,1339 855,713"/>
<path d="M1335,1153 Q1190,1227 1045,86"/>
<path d="M1335,1153 Q1034,1346 734,500"/>
<path d="M1335,1153 Q1235,1211 1135,1043"/>
<path d="M1335,1153 Q1495,1289 1656,1140"/>
<path d="M1335,1153 Q1294,1214 1253,1186"/>
<path d="M1218,489 Q1158,655 1099,615"/>
<path d="M1218,489 Q1221,490 1225,445"/>
<path d="M1218,489 Q1102,575 986,399"/>
<path d="M1081,1196 Q1121,1233 1161,1196"/>
<path d="M1699,1243 Q1733,1293 1768,1259"/>
<path d="M1155,900 Q1132,919 1110,806"/>
<path d="M1155,900 Q999,1021 843,665"/>
<path d="M1054,972 Q896,1096 739,426"/>
<path d="M909,754 Q904,757 900,715"/>
<path d="M742,738 Q1072,1392 1402,1187"/>
<path d="M742,738 Q729,763 717,755"/>
<path d="M742,738 Q1175,1408 1609,1140"/>
<path d="M742,738 Q821,809 900,715"/>
<path d="M742,738 Q567,937 393,835"/>
<path d="M742,738 Q557,872 372,582"/>
<path d="M742,738 Q589,890 437,776"/>
<path d="M1046,1206 Q1351,1371 1656,1140"/>
<path d="M1402,1187 Q1114,1334 826,457"/>
<path d="M1402,1187 Q900,1563 399,641"/>
<path d="M974,566 Q1036,670 1099,615"/>
<path d="M974,566 Q1035,599 1097,56"/>
<path d="M1073,945 Q1156,995 1240,936"/>
<path d="M1073,945 Q1248,1166 1423,1043"/>
<path d="M1617,1071 Q1356,1277 1095,845"/>
<path d="M1617,1071 Q1443,1282 1270,1114"/>
<path d="M1617,1071 Q1266,1342 916,485"/>
<path d="M1617,1071 Q1547,1205 1477,1164"/>
<path d="M1617,1071 Q966,1504 315,661"/>
<path d="M994,955 Q1033,978 1073,945"/>
<path d="M1099,119 Q1097,160 1095,159"/>
<path d="M1099,119 Q706,1025 313,643"/>
<path d="M1099,119 Q1176,1244 1253,1186"/>
<path d="M1116,1030 Q975,1110 834,383"/>
<path d="M1116,1030 Q1095,1048 1075,478"/>
<path d="M1116,1030 Q1183,1084 1250,954"/>
<path d="M1065,777 Q1082,792 1099,615"/>
<path d="M1009,1008 Q974,1034 940,820"/>
<path d="M1009,1008 Q975,1109 941,1078"/>
<path d="M1009,1008 Q1018,1051 1028,1046"/>
<path d="M1009,1008 Q921,1086 833,539"/>
<path d="M1009,1008 Q941,1075 873,869"/>
<path d="M1009,1008 Q941,1073 874,360"/>
<path d="M1009,1008 Q1056,1138 1103,1105"/>
<path d="M1009,1008 Q1117,1078 1225,445"/>
<path d="M1009,1008 Q1049,1041 1089,997"/>
<path d="M1009,1008 Q1281,1391 1553,1163"/>
<path d="M1009,1008 Q984,1054 960,1042"/>
<path d="M1009,1008 Q1209,1192 1410,978"/>
<path d="M1009,1008 Q1062,1065 1116,1030"/>
<path d="M1009,1008 Q1031,1025 1054,972"/>
<path d="M1009,1008 Q973,1049 938,1029"/>
<path d="M1009,1008 Q1100,1058 1192,785"/>
<path d="M1009,1008 Q1182,1429 1356,1311"/>
<path d="M1192,785 Q1077,893 962,758"/>
<path d="M1192,785 Q1179,1175 1166,1164"/>
<path d="M1192,785 Q1231,1147 1270,1114"/>
<path d="M1192,785 Q787,1110 383,771"/>
<path d="M1036,732 Q1067,762 1099,615"/>
<path d="M921,603 Q1010,670 1099,615"/>
<path d="M891,300 Q732,902 574,783"/>
<path d="M1021,978 Q1152,1057 1283,524"/>
<path d="M1021,978 Q1047,998 1073,945"/>
<path d="M978,1155 Q1069,1236 1161,1067"/>
<path d="M978,1155 Q959,1166 941,1078"/>
<path d="M978,1155 Q1025,1182 1073,945"/>
<path d="M978,1155 Q1085,1218 1192,785"/>
<path d="M1000,465 Q1058,1074 1116,1030"/>
<path d="M1000,465 Q1049,658 1099,615"/>
<path d="M1000,465 Q958,524 916,485"/>
<path d="M990,687 Q945,750 900,715"/>
<path d="M988,1103 Q1145,1211 1303,764"/>
<path d="M988,1103 Q1129,1185 1270,1114"/>
<path d="M1276,1309 Q1102,1466 928,423"/>
<path d="M1276,1309 Q1174,1378 1073,945"/>
<path d="M1579,1015 Q1579,1118 1579,1118"/>
<path d="M1579,1015 Q1394,1114 1210,795"/>
<path d="M1579,1015 Q1365,1140 1151,771"/>
<path d="M1409,779 Q1174,1022 940,820"/>
<path d="M1409,779 Q1155,913 901,692"/>
<path d="M1409,779 Q1126,980 843,665"/>
<path d="M1409,779 Q1020,985 631,698"/>
<path d="M1409,779 Q1327,881 1246,838"/>
<path d="M1033,844 Q986,887 940,820"/>
<path d="M1033,844 Q624,1068 215,761"/>
<path d="M1033,844 Q1127,910 1222,820"/>
<path d="M1033,844 Q875,958 717,755"/>
<path d="M1033,844 Q966,907 900,715"/>
<path d="M1033,844 Q713,1057 393,835"/>
<path d="M1033,844 Q1006,1211 979,1188"/>
<path d="M1033,844 Q795,1008 558,801"/>
<path d="M372,582 Q386,679 401,672"/>
<path d="M372,582 Q392,858 412,846"/>
<path d="M372,582 Q446,724 521,681"/>
<path d="M1054,1075 Q1024,1090 994,955"/>
<path d="M1054,1075 Q980,1135 907,769"/>
<path d="M1054,1075 Q1078,1117 1103,1105"/>
<path d="M1054,1075 Q1345,1494 1636,1217"/>
<path d="M1054,1075 Q977,1122 901,692"/>
<path d="M1303,764 Q1206,900 1110,806"/>
<path d="M1228,659 Q1163,714 1099,615"/>
<path d="M953,1176 Q1026,1227 1099,615"/>
<path d="M953,1176 Q1028,1235 1103,1105"/>
<path d="M873,869 Q991,973 1110,806"/>
<path d="M873,869 Q858,918 844,909"/>
<path d="M173,650 Q604,1297 1036,873"/>
<path d="M173,650 Q286,708 399,641"/>
<path d="M996,478 Q1035,503 1075,478"/>
<path d="M996,478 Q1034,982 1073,945"/>
<path d="M1269,805 Q1184,850 1099,615"/>
<path d="M1269,805 Q1171,1023 1073,945"/>
<path d="M1298,600 Q1260,634 1223,396"/>
<path d="M1298,600 Q1198,694 1099,615"/>
<path d="M1298,600 Q924,977 550,695"/>
<path d="M468,616 Q433,668 399,641"/>
<path d="M1146,420 Q1183,464 1221,432"/>
<path d="M1146,420 Q942,548 739,426"/>
<path d="M1146,420 Q1180,1256 1214,1223"/>
<path d="M1078,655 Q1088,661 1099,615"/>
<path d="M215,761 Q308,811 401,672"/>
<path d="M215,761 Q313,913 412,846"/>
<path d="M215,761 Q429,939 643,829"/>
<path d="M1398,625 Q1372,679 1347,659"/>
<path d="M1356,1311 Q1316,1336 1276,1309"/>
<path d="M1356,1311 Q1131,1493 907,769"/>
<path d="M1356,1311 Q1332,1324 1309,1280"/>
<path d="M1356,1311 Q937,1552 518,822"/>
<path d="M930,835 Q1270,1142 1611,962"/>
<path d="M930,835 Q830,885 731,697"/>
<path d="M930,835 Q991,880 1053,743"/>
<path d="M1656,1140 Q1394,1398 1132,355"/>
<path d="M1656,1140 Q1250,1511 844,909"/>
<path d="M687,448 Q793,820 900,715"/>
<path d="M1326,1059 Q1210,1172 1095,845"/>
<path d="M1326,1059 Q1199,1145 1073,945"/>
<path d="M1031,720 Q1065,741 1099,615"/>
<path d="M1031,720 Q1052,962 1073,945"/>
<path d="M739,426 Q558,912 378,760"/>
<path d="M739,426 Q919,745 1099,615"/>
<path d="M739,426 Q976,913 1214,767"/>
<path d="M739,426 Q955,1220 1171,1080"/>
<path d="M739,426 Q946,786 1153,648"/>
<path d="M1146,937 Q1056,1025 966,933"/>
<path d="M1146,937 Q1091,988 1036,873"/>
<path d="M1146,937 Q1233,1011 1321,370"/>
<path d="M1146,937 Q1284,1358 1422,1237"/>
<path d="M1146,937 Q1103,976 1061,927"/>
<path d="M1072,817 Q894,932 717,755"/>
<path d="M1072,817 Q953,916 834,812"/>
<path d="M1072,817 Q1018,851 964,738"/>
<path d="M1949,579 Q1550,1124 1151,771"/>
<path d="M1153,432 Q1182,475 1212,456"/>
<path d="M834,438 Q834,438 834,383"/>
<path d="M834,438 Q859,566 885,553"/>
<path d="M834,438 Q904,497 975,286"/>
<path d="M834,438 Q865,477 896,462"/>
<path d="M834,438 Q834,519 835,519"/>
<path d="M834,438 Q818,958 802,945"/>
<path d="M834,438 Q794,486 755,449"/>
<path d="M834,438 Q876,466 919,377"/>
<path d="M834,438 Q1104,680 1374,436"/>
<path d="M834,438 Q869,1153 905,1121"/>
<path d="M834,438 Q794,457 755,438"/>
<path d="M834,438 Q881,473 928,423"/>
<path d="M834,438 Q789,475 744,410"/>
<path d="M834,438 Q1023,643 1212,456"/>
<path d="M834,438 Q966,742 1099,615"/>
<path d="M834,438 Q616,844 399,641"/>
<path d="M834,438 Q815,566 797,550"/>
<path d="M834,438 Q1028,616 1223,396"/>
<path d="M834,438 Q944,1183 1054,1075"/>
<path d="M834,438 Q786,465 739,426"/>
<path d="M834,438 Q804,458 775,386"/>
<path d="M834,438 Q806,459 778,367"/>
<path d="M834,438 Q807,451 780,405"/>
<path d="M834,438 Q873,563 912,534"/>
<path d="M834,438 Q882,462 930,436"/>
<path d="M834,438 Q676,920 518,822"/>
<path d="M834,438 Q752,560 671,496"/>
<path d="M834,438 Q870,547 907,524"/>
<path d="M834,438 Q807,488 781,471"/>
<path d="M834,438 Q771,478 709,413"/>
<path d="M834,438 Q1037,1325 1241,1128"/>
<path d="M834,438 Q867,747 900,715"/>
<path d="M834,438 Q711,575 588,475"/>
<path d="M834,438 Q850,449 867,377"/>
<path d="M834,438 Q807,521 781,495"/>
<path d="M834,438 Q740,533 647,468"/>
<path d="M834,438 Q801,469 769,350"/>
<path d="M1019,619 Q1059,640 1099,615"/>
<path d="M518,822 Q681,1035 844,909"/>
<path d="M1167,315 Q1075,626 983,576"/>
<path d="M1167,315 Q999,973 831,852"/>
<path d="M1167,315 Q1178,490 1190,479"/>
<path d="M1167,315 Q1069,1214 971,1134"/>
<path d="M1167,315 Q1195,413 1223,396"/>
<path d="M667,593 Q968,1386 1270,1114"/>
<path d="M667,593 Q649,715 631,698"/>
<path d="M1006,502 Q1039,964 1073,945"/>
<path d="M781,471 Q841,722 901,692"/>
<path d="M1391,674 Q1232,1086 1073,945"/>
<path d="M1545,981 Q1572,1051 1600,1036"/>
<path d="M1545,981 Q1237,1274 930,982"/>
<path d="M1545,981 Q1508,1076 1471,1048"/>
<path d="M1545,981 Q1622,1285 1699,1243"/>
<path d="M1140,691 Q1119,703 1099,615"/>
<path d="M717,755 Q895,1091 1073,945"/>
<path d="M1227,332 Q1105,680 983,576"/>
<path d="M1227,332 Q1029,1004 831,852"/>
<path d="M1227,332 Q1225,397 1223,396"/>
<path d="M1227,332 Q1227,905 1227,905"/>
<path d="M1227,332 Q937,626 647,468"/>
<path d="M1227,332 Q1130,911 1033,844"/>
<path d="M1227,332 Q1099,1206 971,1134"/>
<path d="M401,672 Q487,852 574,783"/>
<path d="M1289,783 Q1257,806 1225,445"/>
<path d="M1289,783 Q1181,1048 1073,945"/>
<path d="M1548,1210 Q1130,1431 712,848"/>
<path d="M1548,1210 Q1182,1481 817,649"/>
<path d="M1548,1210 Q1191,1456 834,438"/>
<path d="M1548,1210 Q1323,1345 1099,615"/>
<path d="M1548,1210 Q1267,1350 986,399"/>
<path d="M1548,1210 Q1512,1236 1477,1164"/>
<path d="M1548,1210 Q1417,1319 1286,690"/>
<path d="M930,448 Q935,823 940,820"/>
<path d="M930,448 Q1014,663 1099,615"/>
<path d="M930,448 Q882,487 834,438"/>
<path d="M1223,396 Q1081,921 940,820"/>
<path d="M1223,396 Q1099,509 975,286"/>
<path d="M1223,396 Q1194,1178 1166,1164"/>
<path d="M1223,396 Q886,936 550,695"/>
<path d="M1223,396 Q1027,993 831,852"/>
<path d="M399,641 Q1004,1732 1609,1140"/>
<path d="M399,641 Q782,1422 1166,1164"/>
<path d="M885,553 Q992,705 1099,615"/>
<path d="M885,553 Q979,996 1073,945"/>
<path d="M1031,528 Q1065,645 1099,615"/>
<path d="M1031,528 Q1052,956 1073,945"/>
<path d="M1537,1059 Q1185,1271 834,383"/>
<path d="M1537,1059 Q1381,1149 1225,445"/>
<path d="M1537,1059 Q1351,1308 1166,1164"/>
<path d="M1537,1059 Q1558,1129 1579,1118"/>
<path d="M780,405 Q926,1077 1073,945"/>
<path d="M1040,545 Q1173,707 1306,586"/>
<path d="M1040,545 Q1069,635 1099,615"/>
<path d="M1076,516 Q1087,621 1099,615"/>
<path d="M1347,659 Q950,871 554,617"/>
<path d="M1347,659 Q967,1006 588,475"/>
<path d="M1347,659 Q1387,731 1428,692"/>
<path d="M1347,659 Q1326,671 1306,586"/>
<path d="M1347,659 Q1369,691 1391,674"/>
<path d="M1347,659 Q1371,681 1395,602"/>
<path d="M1347,659 Q1321,765 1296,743"/>
<path d="M1347,659 Q1366,669 1386,556"/>
<path d="M1347,659 Q1533,1199 1720,1069"/>
<path d="M1347,659 Q1180,799 1014,649"/>
<path d="M1347,659 Q1159,1248 971,1134"/>
<path d="M1278,700 Q1188,771 1099,615"/>
<path d="M1299,425 Q1119,988 940,820"/>
<path d="M1299,425 Q1197,491 1095,159"/>
<path d="M1299,425 Q1230,1110 1161,1067"/>
<path d="M1299,425 Q1449,1112 1600,1036"/>
<path d="M1299,425 Q1262,467 1225,445"/>
<path d="M1299,425 Q908,1093 518,822"/>
<path d="M1299,425 Q1336,455 1374,436"/>
<path d="M1299,425 Q1344,450 1389,419"/>
<path d="M1299,425 Q873,1152 448,834"/>
<path d="M1299,425 Q1331,474 1364,446"/>
<path d="M1299,425 Q849,887 399,641"/>
<path d="M1299,425 Q1261,445 1223,396"/>
<path d="M1299,425 Q1259,451 1220,422"/>
<path d="M1299,425 Q1255,481 1212,456"/>
<path d="M1299,425 Q1305,430 1311,380"/>
<path d="M1299,425 Q1107,586 916,485"/>
<path d="M1299,425 Q1509,1271 1720,1069"/>
<path d="M1299,425 Q868,1148 437,776"/>
<path d="M1117,715 Q1108,722 1099,615"/>
<path d="M781,680 Q756,721 731,697"/>
<path d="M781,680 Q672,875 564,771"/>
<path d="M781,680 Q706,747 631,698"/>
<path d="M781,680 Q840,756 900,715"/>
<path d="M1298,656 Q1185,1042 1073,945"/>
<path d="M1001,968 Q1073,1015 1146,840"/>
<path d="M1001,968 Q970,990 940,820"/>
<path d="M1001,968 Q1209,1115 1418,357"/>
<path d="M1001,968 Q1053,1006 1105,861"/>
<path d="M1395,1140 Q1155,1298 916,485"/>
<path d="M1395,1140 Q1359,1161 1323,802"/>
<path d="M1395,1140 Q1324,1229 1253,1186"/>
<path d="M896,462 Q984,1017 1073,945"/>
<path d="M1182,865 Q1226,1155 1270,1114"/>
<path d="M1182,865 Q1214,889 1246,838"/>
<path d="M1182,865 Q790,1229 399,641"/>
<path d="M912,591 Q1005,695 1099,615"/>
<path d="M912,591 Q992,990 1073,945"/>
<path d="M983,576 Q907,891 831,852"/>
<path d="M983,576 Q1041,668 1099,615"/>
<path d="M983,576 Q766,835 550,695"/>
<path d="M1355,641 Q1290,700 1225,445"/>
<path d="M1355,641 Q1373,686 1391,674"/>
<path d="M1355,641 Q1227,735 1099,598"/>
<path d="M1355,641 Q1325,761 1296,743"/>
<path d="M1355,641 Q1214,1037 1073,945"/>
<path d="M1355,641 Q869,1115 383,771"/>
<path d="M1414,761 Q1313,834 1213,753"/>
<path d="M1414,761 Q1314,848 1214,767"/>
<path d="M1414,761 Q1134,1012 855,713"/>
<path d="M1178,672 Q1138,693 1099,615"/>
<path d="M631,698 Q472,849 313,643"/>
<path d="M934,793 Q917,807 900,715"/>
<path d="M1163,588 Q1131,640 1099,615"/>
<path d="M1163,588 Q782,896 401,672"/>
<path d="M1389,728 Q1244,859 1099,615"/>
<path d="M1161,1196 Q728,1609 296,880"/>
<path d="M1161,1196 Q1068,1285 975,286"/>
<path d="M1161,1196 Q1201,1229 1241,1128"/>
<path d="M1161,1196 Q1130,1219 1099,615"/>
<path d="M1161,1196 Q1132,1217 1103,1105"/>
<path d="M1161,1196 Q989,1353 817,649"/>
<path d="M1161,1196 Q1031,1306 901,571"/>
<path d="M1283,524 Q997,1044 712,848"/>
<path d="M821,724 Q860,754 900,715"/>
<path d="M945,779 Q1150,1422 1356,1311"/>
<path d="M945,779 Q942,822 940,820"/>
<path d="M1311,380 Q1125,944 940,820"/>
<path d="M1311,380 Q814,952 317,689"/>
<path d="M1311,380 Q1307,767 1303,764"/>
<path d="M1311,380 Q1460,1257 1609,1140"/>
<path d="M1311,380 Q1064,868 817,649"/>
<path d="M1311,380 Q1173,1166 1036,1086"/>
<path d="M1311,380 Q1245,1205 1179,1148"/>
<path d="M1311,380 Q1159,1342 1008,1211"/>
<path d="M1311,380 Q1192,1005 1073,945"/>
<path d="M1311,380 Q1278,861 1246,838"/>
<path d="M1075,322 Q1314,1327 1553,1163"/>
<path d="M1611,962 Q1455,1081 1299,425"/>
<path d="M1611,962 Q1578,998 1545,981"/>
<path d="M1611,962 Q1367,1153 1124,395"/>
<path d="M1611,962 Q1227,1235 844,909"/>
<path d="M1611,962 Q1595,1131 1579,1118"/>
<path d="M1611,962 Q1342,1217 1073,945"/>
<path d="M1210,808 Q1180,826 1151,771"/>
<path d="M1178,405 Q1006,516 834,383"/>
<path d="M1178,405 Q1221,486 1264,457"/>
<path d="M1178,405 Q1139,488 1100,459"/>
<path d="M1178,405 Q966,1085 754,881"/>
<path d="M1178,405 Q1148,1144 1118,1123"/>
<path d="M1378,1199 Q888,1607 399,641"/>
<path d="M986,338 Q1030,522 1075,478"/>
<path d="M986,338 Q1000,661 1014,649"/>
<path d="M1053,789 Q1076,800 1099,615"/>
<path d="M1053,789 Q727,1079 401,672"/>
<path d="M1053,789 Q1008,833 964,738"/>
<path d="M1323,802 Q1284,876 1246,838"/>
<path d="M1323,802 Q1466,1256 1609,1140"/>
<path d="M1323,802 Q1079,1026 835,519"/>
<path d="M1323,802 Q1115,932 907,769"/>
<path d="M754,881 Q733,893 712,848"/>
<path d="M754,881 Q785,900 817,649"/>
<path d="M754,881 Q799,932 844,909"/>
<path d="M754,881 Q953,1043 1153,648"/>
<path d="M521,681 Q868,949 1216,376"/>
<path d="M822,690 Q861,715 901,692"/>
<path d="M738,340 Q839,893 940,820"/>
<path d="M738,340 Q856,425 975,286"/>
<path d="M738,340 Q856,641 974,566"/>
<path d="M738,340 Q786,483 834,438"/>
<path d="M769,350 Q996,553 1223,396"/>
<path d="M769,350 Q1047,1103 1326,831"/>
<path d="M769,350 Q835,729 901,692"/>
<path d="M769,350 Q659,786 550,695"/>
<path d="M1048,451 Q1073,637 1099,615"/>
<path d="M1048,451 Q1060,955 1073,945"/>
<path d="M479,629 Q439,678 399,641"/>
<path d="M1095,159 Q1035,316 975,286"/>
<path d="M1095,159 Q1096,159 1097,56"/>
<path d="M1095,159 Q1070,174 1045,86"/>
<path d="M1095,159 Q963,1164 831,1064"/>
<path d="M1095,159 Q1174,1254 1253,1186"/>
<path d="M1600,1036 Q1355,1227 1110,806"/>
<path d="M1600,1036 Q1222,1327 844,909"/>
<path d="M1600,1036 Q1435,1249 1270,1114"/>
<path d="M1600,1036 Q1221,1226 843,665"/>
<path d="M1600,1036 Q1463,1139 1326,1059"/>
<path d="M1600,1036 Q1423,1146 1246,838"/>
<path d="M1035,565 Q1067,634 1099,615"/>
<path d="M1296,743 Q1342,766 1389,728"/>
<path d="M1296,743 Q1282,817 1269,805"/>
<path d="M1296,743 Q1197,810 1099,615"/>
<path d="M1296,743 Q1244,817 1192,785"/>
<path d="M1296,743 Q1255,793 1214,767"/>
<path d="M1296,743 Q1292,784 1289,783"/>
<path d="M1296,743 Q1409,888 1523,824"/>
<path d="M1296,743 Q1370,800 1444,614"/>
<path d="M1296,743 Q1322,756 1348,686"/>
<path d="M1296,743 Q1184,1013 1073,945"/>
<path d="M1389,419 Q1082,657 775,386"/>
<path d="M1389,419 Q1403,429 1418,357"/>
<path d="M1389,419 Q918,1151 448,834"/>
<path d="M1389,419 Q1182,610 975,286"/>
<path d="M1389,419 Q1280,1186 1171,1080"/>
<path d="M1389,419 Q1429,440 1469,419"/>
<path d="M1255,550 Q1177,685 1099,615"/>
<path d="M1075,478 Q1066,484 1058,378"/>
<path d="M1075,478 Q1162,573 1249,502"/>
<path d="M1075,478 Q1087,607 1099,598"/>
<path d="M1075,478 Q1022,571 970,519"/>
<path d="M1075,478 Q1021,523 968,457"/>
<path d="M1075,478 Q1082,1002 1089,997"/>
<path d="M1075,478 Q1114,668 1153,648"/>
<path d="M1075,478 Q1175,1382 1276,1309"/>
<path d="M1075,478 Q991,571 907,524"/>
<path d="M1075,478 Q1259,1212 1443,1055"/>
<path d="M1075,478 Q1040,521 1006,502"/>
<path d="M1075,478 Q909,583 744,410"/>
<path d="M1075,478 Q1087,622 1099,615"/>
<path d="M1075,478 Q1033,510 991,443"/>
<path d="M1075,478 Q1190,670 1306,586"/>
<path d="M1075,478 Q1006,1073 938,1029"/>
<path d="M1075,478 Q955,594 835,519"/>
<path d="M1075,478 Q1075,478 1075,322"/>
<path d="M1075,478 Q954,568 834,438"/>
<path d="M1179,1148 Q1002,1253 826,457"/>
<path d="M1179,1148 Q1070,1252 962,758"/>
<path d="M1179,1148 Q1300,1303 1422,1237"/>
<path d="M1179,1148 Q1273,1215 1367,1165"/>
<path d="M1179,1148 Q1123,1202 1067,713"/>
<path d="M802,787 Q851,834 900,715"/>
<path d="M802,787 Q766,820 731,697"/>
<path d="M802,787 Q937,1035 1073,945"/>
<path d="M1023,889 Q1040,903 1058,378"/>
<path d="M1023,889 Q961,926 900,715"/>
<path d="M1023,889 Q877,973 731,697"/>
<path d="M1076,301 Q1144,507 1212,456"/>
<path d="M1135,1043 Q1117,1058 1099,615"/>
<path d="M1135,1043 Q1119,1118 1103,1105"/>
<path d="M931,848 Q966,868 1001,489"/>
<path d="M931,848 Q935,852 940,820"/>
<path d="M931,848 Q936,1081 941,1078"/>
<path d="M931,848 Q881,1106 831,1064"/>
<path d="M931,848 Q883,879 835,519"/>
<path d="M931,848 Q707,1013 484,771"/>
<path d="M931,848 Q1046,1127 1161,1067"/>
<path d="M931,848 Q973,887 1016,348"/>
<path d="M931,848 Q921,866 912,859"/>
<path d="M931,848 Q1055,1213 1179,1148"/>
<path d="M931,848 Q1227,1137 1523,824"/>
<path d="M931,848 Q1097,975 1264,457"/>
<path d="M931,848 Q1152,1048 1374,436"/>
<path d="M931,848 Q1242,1340 1553,1163"/>
<path d="M931,848 Q867,908 804,876"/>
<path d="M931,848 Q1126,963 1321,370"/>
<path d="M931,848 Q1025,901 1119,792"/>
<path d="M931,848 Q1204,1312 1477,1164"/>
<path d="M931,848 Q1092,1333 1253,1186"/>
<path d="M931,848 Q1160,1061 1389,728"/>
<path d="M931,848 Q1041,914 1151,771"/>
<path d="M931,848 Q1147,1191 1363,1006"/>
<path d="M931,848 Q1176,1469 1422,1237"/>
<path d="M931,848 Q624,1037 317,689"/>
<path d="M931,848 Q1160,1037 1389,419"/>
<path d="M931,848 Q1015,919 1099,615"/>
<path d="M931,848 Q1061,963 1192,785"/>
<path d="M931,848 Q1121,977 1311,380"/>
<path d="M931,848 Q752,976 573,550"/>
<path d="M931,848 Q1248,1104 1566,875"/>
<path d="M931,848 Q972,881 1014,649"/>
<path d="M862,836 Q1021,1265 1181,1110"/>
<path d="M862,836 Q964,917 1067,713"/>
<path d="M862,836 Q1020,1261 1179,1148"/>
<path d="M862,836 Q690,977 518,822"/>
<path d="M862,836 Q881,848 900,715"/>
<path d="M482,655 Q759,1044 1036,873"/>
<path d="M482,655 Q440,687 399,641"/>
<path d="M550,695 Q614,779 678,727"/>
<path d="M550,695 Q562,789 574,783"/>
<path d="M550,695 Q583,715 617,669"/>
<path d="M550,695 Q791,881 1033,418"/>
<path d="M901,692 Q1040,1277 1179,1148"/>
<path d="M901,692 Q1139,1361 1378,1199"/>
<path d="M901,692 Q900,715 900,715"/>
<path d="M901,692 Q1134,1349 1367,1165"/>
<path d="M901,692 Q1058,778 1216,376"/>
<path d="M1063,439 Q1069,483 1075,478"/>
<path d="M1166,1164 Q1218,1212 1270,1114"/>
<path d="M1166,1164 Q1149,1175 1132,355"/>
<path d="M1166,1164 Q1168,1165 1171,1080"/>
<path d="M1124,395 Q1362,1201 1600,1036"/>
<path d="M1124,395 Q877,799 630,648"/>
<path d="M1124,395 Q1142,1084 1161,1067"/>
<path d="M1124,395 Q736,1159 349,811"/>
<path d="M1124,395 Q999,495 874,360"/>
<path d="M1124,395 Q1170,422 1216,376"/>
<path d="M1124,395 Q1070,438 1016,348"/>
<path d="M1124,395 Q963,1090 802,945"/>
<path d="M1124,395 Q1249,528 1374,436"/>
<path d="M1124,395 Q1007,486 891,300"/>
<path d="M1124,395 Q1078,462 1033,418"/>
<path d="M1124,395 Q822,887 521,681"/>
<path d="M1124,395 Q1211,503 1299,425"/>
<path d="M1124,395 Q1172,457 1221,432"/>
<path d="M1124,395 Q839,809 554,617"/>
<path d="M1124,395 Q1100,415 1076,301"/>
<path d="M1124,395 Q849,967 574,783"/>
<path d="M1124,395 Q837,844 550,695"/>
<path d="M1124,395 Q768,1078 412,846"/>
<path d="M1124,395 Q1128,398 1132,355"/>
<path d="M1124,395 Q1172,468 1220,422"/>
<path d="M1124,395 Q707,1159 290,785"/>
<path d="M1124,395 Q1217,470 1311,380"/>
<path d="M1124,395 Q1020,545 916,485"/>
<path d="M1519,1191 Q1207,1430 896,462"/>
<path d="M1519,1191 Q1272,1394 1025,229"/>
<path d="M1519,1191 Q1297,1344 1075,478"/>
<path d="M1519,1191 Q1309,1331 1100,459"/>
<path d="M1519,1191 Q1404,1282 1289,783"/>
<path d="M1519,1191 Q1433,1239 1348,686"/>
<path d="M1519,1191 Q1391,1315 1264,457"/>
<path d="M1519,1191 Q1549,1211 1579,1118"/>
<path d="M1246,838 Q882,1075 518,822"/>
<path d="M1246,838 Q1451,1244 1656,1140"/>
<path d="M1485,791 Q1318,905 1151,771"/>
<path d="M1485,791 Q1485,855 1485,855"/>
<path d="M1485,791 Q1504,834 1523,824"/>
<path d="M1485,791 Q1348,915 1212,456"/>
<path d="M1485,791 Q1602,1157 1720,1069"/>
<path d="M1485,791 Q1196,950 907,769"/>
<path d="M1118,1123 Q967,1270 817,649"/>
<path d="M1118,1123 Q1125,1128 1132,355"/>
<path d="M1118,1123 Q1017,1222 916,485"/>
<path d="M1118,1123 Q936,1214 754,881"/>
<path d="M1118,1123 Q1194,1190 1270,1114"/>
<path d="M1087,576 Q1093,620 1099,615"/>
<path d="M1367,1165 Q1403,1270 1440,1251"/>
<path d="M1367,1165 Q1501,1336 1636,1217"/>
<path d="M1367,1165 Q1394,1261 1422,1237"/>
<path d="M1214,767 Q798,1060 383,771"/>
<path d="M1214,767 Q1219,771 1225,445"/>
<path d="M558,801 Q692,893 826,457"/>
<path d="M558,801 Q890,1140 1222,820"/>
<path d="M558,801 Q637,854 717,755"/>
<path d="M558,801 Q732,963 907,769"/>
<path d="M558,801 Q830,1320 1103,1105"/>
<path d="M558,801 Q890,1010 1223,396"/>
<path d="M558,801 Q600,862 643,829"/>
<path d="M335,620 Q367,660 399,641"/>
<path d="M335,620 Q868,1498 1402,1187"/>
<path d="M335,620 Q533,820 731,697"/>
<path d="M335,620 Q483,806 631,698"/>
<path d="M335,620 Q538,921 742,738"/>
<path d="M1014,649 Q1036,666 1058,378"/>
<path d="M1014,649 Q1056,672 1099,615"/>
<path d="M1014,649 Q897,763 780,405"/>
<path d="M1014,649 Q1114,830 1214,767"/>
<path d="M1014,649 Q1000,659 986,399"/>
<path d="M1213,753 Q1259,790 1306,586"/>
<path d="M1213,753 Q1156,796 1099,615"/>
<path d="M1213,753 Q996,866 780,405"/>
<path d="M930,982 Q724,1171 518,822"/>
<path d="M930,982 Q918,988 907,769"/>
<path d="M484,771 Q524,809 564,771"/>
<path d="M484,771 Q692,908 901,692"/>
<path d="M802,945 Q851,979 901,692"/>
<path d="M802,945 Q823,955 844,909"/>
<path d="M1251,673 Q1175,739 1099,615"/>
<path d="M1045,759 Q1072,780 1099,615"/>
<path d="M574,783 Q825,942 1076,301"/>
<path d="M574,783 Q836,997 1099,615"/>
<path d="M574,783 Q432,898 290,785"/>
<path d="M574,783 Q461,892 349,811"/>
<path d="M574,783 Q803,989 1033,418"/>
<path d="M938,506 Q1018,676 1099,615"/>
<path d="M938,506 Q1005,993 1073,945"/>
<path d="M831,852 Q885,902 940,820"/>
<path d="M831,852 Q965,941 1099,615"/>
<path d="M831,852 Q690,969 550,695"/>
<path d="M630,648 Q923,894 1216,376"/>
<path d="M630,648 Q545,951 460,873"/>
<path d="M1444,614 Q1329,872 1214,767"/>
<path d="M1444,614 Q1288,728 1132,355"/>
<path d="M1444,614 Q1417,688 1391,674"/>
<path d="M1444,614 Q1258,1104 1073,945"/>
<path d="M1348,686 Q1223,751 1099,615"/>
<path d="M1348,686 Q1210,1027 1073,945"/>
<path d="M1088,834 Q1117,859 1146,840"/>
<path d="M1088,834 Q1014,900 940,820"/>
<path d="M1088,834 Q1096,865 1105,861"/>
<path d="M1088,834 Q1238,953 1389,419"/>
<path d="M660,581 Q616,620 573,550"/>
<path d="M1028,600 Q1063,639 1099,615"/>
<path d="M919,377 Q929,826 940,820"/>
<path d="M919,377 Q1009,684 1099,615"/>
<path d="M919,377 Q1014,863 1110,806"/>
<path d="M1270,1114 Q1439,1285 1609,1140"/>
<path d="M1270,1114 Q894,1317 518,822"/>
<path d="M1270,1114 Q1298,1140 1326,1059"/>
<path d="M1485,855 Q1130,1099 775,386"/>
<path d="M1485,855 Q972,1315 460,873"/>
<path d="M1485,855 Q966,1124 448,834"/>
<path d="M1485,855 Q1193,1139 901,692"/>
<path d="M1370,337 Q1309,553 1249,502"/>
<path d="M1370,337 Q1141,710 912,534"/>
<path d="M755,612 Q867,1279 979,1188"/>
<path d="M755,612 Q656,869 558,801"/>
<path d="M755,612 Q828,760 901,692"/>
<path d="M755,612 Q748,744 742,738"/>
<path d="M1473,1204 Q1206,1468 940,820"/>
<path d="M1473,1204 Q1194,1407 916,485"/>
<path d="M1473,1204 Q1447,1253 1422,1237"/>
<path d="M1473,1204 Q1541,1264 1609,1140"/>
<path d="M1473,1204 Q1286,1373 1099,615"/>
<path d="M1473,1204 Q1320,1336 1168,830"/>
<path d="M1473,1204 Q1288,1374 1103,1105"/>
<path d="M1473,1204 Q893,1759 313,643"/>
<path d="M1473,1204 Q1190,1482 907,769"/>
<path d="M1473,1204 Q1437,1222 1402,1187"/>
<path d="M1473,1204 Q1475,1205 1477,1164"/>
<path d="M1368,1072 Q1351,1165 1335,1153"/>
<path d="M1368,1072 Q1097,1220 826,457"/>
<path d="M1053,743 Q976,807 900,715"/>
<path d="M1053,743 Q750,1106 448,834"/>
<path d="M1053,743 Q892,898 731,697"/>
<path d="M1053,743 Q723,1031 393,835"/>
<path d="M1053,743 Q1100,783 1148,478"/>
<path d="M1053,743 Q745,955 437,776"/>
<path d="M1053,743 Q1076,759 1099,615"/>
<path d="M1053,743 Q911,846 769,350"/>
<path d="M1053,743 Q1053,1075 1054,1075"/>
<path d="M661,370 Q880,802 1099,615"/>
<path d="M661,370 Q898,1222 1135,1043"/>
<path d="M661,370 Q867,1122 1073,945"/>
<path d="M1241,568 Q1170,659 1099,615"/>
<path d="M1428,692 Q1226,1261 1024,1115"/>
<path d="M1428,692 Q1103,950 778,367"/>
<path d="M1428,692 Q1482,1110 1537,1059"/>
<path d="M1428,692 Q1297,1254 1166,1164"/>
<path d="M1428,692 Q1104,864 780,405"/>
<path d="M1428,692 Q1520,1038 1613,988"/>
<path d="M1428,692 Q1475,861 1523,824"/>
<path d="M1428,692 Q1321,1277 1214,1223"/>
<path d="M1428,692 Q1081,911 734,500"/>
<path d="M1241,537 Q1170,658 1099,615"/>
<path d="M844,909 Q903,959 962,758"/>
<path d="M844,909 Q1028,1056 1212,456"/>
<path d="M1210,795 Q1092,865 975,286"/>
<path d="M1210,795 Q1180,810 1151,771"/>
<path d="M1210,795 Q1212,796 1214,767"/>
<path d="M1210,795 Q1579,1076 1949,579"/>
<path d="M1210,795 Q1141,1001 1073,945"/>
<path d="M1267,478 Q1171,571 1075,478"/>
<path d="M1267,478 Q1334,1223 1402,1187"/>
<path d="M1267,478 Q1294,492 1321,370"/>
<path d="M1267,478 Q949,861 631,698"/>
<path d="M976,775 Q1014,812 1053,789"/>
<path d="M976,775 Q1099,915 1222,820"/>
<path d="M976,775 Q818,894 661,713"/>
<path d="M976,775 Q938,804 900,715"/>
<path d="M976,775 Q919,892 862,836"/>
<path d="M976,775 Q1062,847 1148,478"/>
<path d="M976,775 Q767,927 558,801"/>
<path d="M976,775 Q1069,840 1163,588"/>
<path d="M1225,445 Q1149,1014 1073,945"/>
<path d="M935,647 Q1120,821 1306,586"/>
<path d="M935,647 Q1033,702 1132,355"/>
<path d="M935,647 Q974,671 1014,649"/>
<path d="M935,647 Q1004,1008 1073,945"/>
<path d="M935,647 Q659,948 383,771"/>
<path d="M1253,1186 Q1096,1341 940,820"/>
<path d="M1253,1186 Q1273,1201 1294,292"/>
<path d="M1253,1186 Q1304,1338 1356,1311"/>
<path d="M1253,1186 Q1209,1227 1166,1164"/>
<path d="M1253,1186 Q1288,1215 1323,802"/>
<path d="M1253,1186 Q1178,1255 1103,1105"/>
<path d="M1253,1186 Q1149,1261 1045,86"/>
<path d="M1253,1186 Q1077,1321 902,1080"/>
<path d="M1253,1186 Q1233,1242 1214,1223"/>
<path d="M1253,1186 Q1365,1279 1477,1164"/>
<path d="M1253,1186 Q1107,1265 962,758"/>
<path d="M1253,1186 Q1285,1238 1317,1214"/>
<path d="M1253,1186 Q1416,1286 1579,1118"/>
<path d="M1253,1186 Q1131,1301 1009,1008"/>
<path d="M1253,1186 Q1251,1187 1249,1145"/>
<path d="M1253,1186 Q1346,1328 1440,1251"/>
<path d="M907,524 Q862,676 817,649"/>
<path d="M907,524 Q1043,1221 1179,1148"/>
<path d="M790,583 Q921,900 1053,789"/>
<path d="M790,583 Q725,760 661,713"/>
<path d="M790,583 Q944,752 1099,615"/>
<path d="M790,583 Q594,786 399,641"/>
<path d="M790,583 Q738,625 687,448"/>
<path d="M790,583 Q886,668 983,576"/>
<path d="M790,583 Q810,869 831,852"/>
<path d="M790,583 Q665,698 541,602"/>
<path d="M790,583 Q990,767 1190,479"/>
<path d="M790,583 Q713,683 636,637"/>
<path d="M790,583 Q913,937 1036,873"/>
<path d="M790,583 Q772,893 754,881"/>
<path d="M790,583 Q880,1213 971,1134"/>
<path d="M790,583 Q976,740 1163,588"/>
<path d="M930,255 Q952,298 975,286"/>
<path d="M573,550 Q804,1225 1036,1086"/>
<path d="M573,550 Q836,820 1099,615"/>
<path d="M573,550 Q444,757 315,661"/>
<path d="M573,550 Q620,620 667,593"/>
<path d="M1286,690 Q1192,778 1099,615"/>
<path d="M1286,690 Q1101,859 916,485"/>
<path d="M1653,1179 Q1244,1448 835,519"/>
<path d="M1653,1179 Q1616,1209 1579,1118"/>
<path d="M1653,1179 Q1284,1473 916,485"/>
<path d="M1653,1179 Q1280,1499 907,769"/>
<path d="M1653,1179 Q1378,1404 1103,1105"/>
<path d="M1099,598 Q965,818 832,701"/>
<path d="M790,823 Q1199,1394 1609,1140"/>
<path d="M790,823 Q907,1184 1024,1115"/>
<path d="M790,823 Q848,854 907,769"/>
<path d="M1229,628 Q1164,685 1099,615"/>
<path d="M1126,534 Q1112,622 1099,615"/>
<path d="M1477,1164 Q1538,1217 1600,1036"/>
<path d="M1477,1164 Q1427,1239 1378,1199"/>
<path d="M1477,1164 Q1543,1202 1609,1140"/>
<path d="M1477,1164 Q1226,1327 975,286"/>
<path d="M1477,1164 Q1192,1404 907,769"/>
<path d="M1477,1164 Q997,1598 518,822"/>
<path d="M1477,1164 Q1275,1356 1073,945"/>
<path d="M1477,1164 Q1460,1176 1443,1055"/>
<path d="M1477,1164 Q1288,1334 1099,615"/>
<path d="M1477,1164 Q1514,1189 1551,1145"/>
<path d="M1477,1164 Q1566,1235 1656,1140"/>
<path d="M1477,1164 Q1196,1342 916,485"/>
<path d="M1477,1164 Q1529,1205 1582,1053"/>
<path d="M341,830 Q362,840 383,771"/>
<path d="M1469,419 Q1454,1263 1440,1251"/>
<path d="M1099,615 Q1194,836 1289,783"/>
<path d="M1099,615 Q1156,1252 1214,1223"/>
<path d="M1099,615 Q977,811 855,713"/>
<path d="M1099,615 Q1205,710 1311,486"/>
<path d="M1099,615 Q927,722 755,449"/>
<path d="M1099,615 Q1198,719 1298,656"/>
<path d="M1099,615 Q997,707 896,462"/>
<path d="M1099,615 Q1191,685 1283,524"/>
<path d="M1099,615 Q1053,697 1007,669"/>
<path d="M1099,615 Q1204,1384 1309,1280"/>
<path d="M1099,615 Q1086,957 1073,945"/>
<path d="M1099,615 Q1037,670 975,286"/>
<path d="M1099,615 Q1146,643 1194,518"/>
<path d="M1099,615 Q738,1098 378,760"/>
<path d="M1099,615 Q983,682 867,377"/>
<path d="M1099,615 Q1132,1186 1166,1164"/>
<path d="M1099,615 Q1311,985 1523,824"/>
<path d="M1099,615 Q1227,694 1356,505"/>
<path d="M1099,615 Q1156,807 1214,767"/>
<path d="M1099,615 Q1172,904 1246,838"/>
<path d="M1099,615 Q1030,825 962,758"/>
<path d="M1099,615 Q1125,792 1151,771"/>
<path d="M1099,615 Q904,784 709,413"/>
<path d="M1099,615 Q965,772 832,701"/>
<path d="M1099,615 Q1245,751 1391,674"/>
<path d="M1099,615 Q1155,670 1212,456"/>
<path d="M1148,478 Q1123,634 1099,615"/>
<path d="M1148,478 Q851,869 554,617"/>
<path d="M1422,1237 Q1192,1420 962,758"/>
<path d="M1422,1237 Q910,1742 399,641"/>
<path d="M1422,1237 Q1247,1370 1073,945"/>
<path d="M1708,1146 Q1341,1407 975,286"/>
<path d="M1708,1146 Q1637,1200 1566,875"/>
<path d="M1708,1146 Q1390,1362 1073,945"/>
<path d="M874,360 Q812,417 751,309"/>
<path d="M1220,422 Q1158,468 1097,56"/>
<path d="M1220,422 Q1060,800 901,692"/>
<path d="M889,885 Q803,937 717,755"/>
<path d="M889,885 Q894,888 900,715"/>
<path d="M889,885 Q861,900 834,812"/>
<path d="M1574,1200 Q1274,1384 975,286"/>
<path d="M1574,1200 Q1525,1247 1477,1164"/>
<path d="M826,457 Q1019,630 1212,456"/>
<path d="M1241,1128 Q1090,1250 940,820"/>
<path d="M1241,1128 Q1066,1219 891,300"/>
<path d="M1241,1128 Q1272,1153 1303,764"/>
<path d="M1241,1128 Q1172,1164 1103,1105"/>
<path d="M1241,1128 Q1255,1138 1270,1114"/>
<path d="M1241,1128 Q1138,1214 1036,1086"/>
<path d="M1241,1128 Q1283,1153 1326,831"/>
<path d="M1241,1128 Q1243,1130 1246,838"/>
<path d="M1241,1128 Q779,1468 317,689"/>
<path d="M1241,1128 Q1170,1168 1099,615"/>
<path d="M1241,1128 Q1364,1208 1487,528"/>
<path d="M1241,1128 Q1029,1309 817,649"/>
<path d="M1241,1128 Q1210,1176 1179,1148"/>
<path d="M1181,1110 Q1140,1141 1099,615"/>
<path d="M1181,1110 Q1213,1133 1246,838"/>
<path d="M1181,1110 Q1408,1418 1636,1217"/>
<path d="M1181,1110 Q1142,1134 1103,1105"/>
<path d="M916,485 Q1262,1339 1609,1140"/>
<path d="M916,485 Q1093,1269 1270,1114"/>
<path d="M916,485 Q1286,1358 1656,1140"/>
<path d="M916,485 Q614,919 313,643"/>
<path d="M916,485 Q1109,948 1303,764"/>
<path d="M916,485 Q717,980 518,822"/>
<path d="M916,485 Q871,508 826,457"/>
<path d="M916,485 Q1233,1450 1551,1145"/>
<path d="M916,485 Q1043,1190 1171,1080"/>
<path d="M781,495 Q745,530 709,413"/>
<path d="M781,495 Q860,879 940,820"/>
<path d="M781,495 Q838,552 896,462"/>
<path d="M781,495 Q590,791 399,641"/>
<path d="M1082,678 Q1090,683 1099,615"/>
<path d="M855,750 Q877,769 900,715"/>
<path d="M469,738 Q409,858 349,811"/>
<path d="M469,738 Q722,870 975,286"/>
<path d="M469,738 Q431,872 393,835"/>
<path d="M469,738 Q435,759 401,672"/>
<path d="M469,738 Q556,900 643,829"/>
<path d="M469,738 Q493,835 518,822"/>
<path d="M469,738 Q487,817 506,806"/>
<path d="M469,738 Q434,765 399,641"/>
<path d="M469,738 Q495,761 521,681"/>
<path d="M469,738 Q423,797 378,760"/>
<path d="M469,738 Q511,767 554,617"/>
<path d="M469,738 Q521,827 574,783"/>
<path d="M469,738 Q458,844 448,834"/>
<path d="M469,738 Q509,777 550,695"/>
<path d="M469,738 Q426,792 383,771"/>
<path d="M469,738 Q440,872 412,846"/>
<path d="M469,738 Q516,812 564,771"/>
<path d="M469,738 Q771,1175 1073,945"/>
<path d="M469,738 Q549,810 630,648"/>
<path d="M469,738 Q379,845 290,785"/>
<path d="M469,738 Q513,842 558,801"/>
<path d="M469,738 Q692,923 916,485"/>
<path d="M469,738 Q453,790 437,776"/>
<path d="M643,829 Q596,868 550,695"/>
<path d="M393,835 Q650,1054 907,769"/>
<path d="M393,835 Q748,1354 1103,1105"/>
<path d="M393,835 Q402,852 412,846"/>
<path d="M1374,436 Q1307,1186 1241,1128"/>
<path d="M1374,436 Q1310,890 1246,838"/>
<path d="M804,876 Q1145,1131 1487,528"/>
<path d="M804,876 Q957,1001 1110,806"/>
<path d="M804,876 Q1199,1500 1595,1156"/>
<path d="M804,876 Q824,927 844,909"/>
<path d="M804,876 Q823,889 843,665"/>
<path d="M804,876 Q938,1061 1073,945"/>
<path d="M1221,432 Q1068,597 916,485"/>
<path d="M1221,432 Q1098,553 975,286"/>
<path d="M1221,432 Q1315,1033 1410,978"/>
<path d="M1221,432 Q1245,828 1269,805"/>
<path d="M1221,432 Q1095,601 970,519"/>
<path d="M1410,978 Q1481,1222 1553,1163"/>
<path d="M1410,978 Q1288,1253 1166,1164"/>
<path d="M741,864 Q714,879 687,448"/>
<path d="M741,864 Q820,928 900,715"/>
<path d="M741,864 Q741,864 742,738"/>
<path d="M741,864 Q1071,1411 1402,1187"/>
<path d="M741,864 Q736,868 731,697"/>
<path d="M741,864 Q686,899 631,698"/>
<path d="M983,653 Q942,732 901,692"/>
<path d="M1016,348 Q682,1083 349,811"/>
<path d="M1016,348 Q795,915 574,783"/>
<path d="M1016,348 Q945,425 874,360"/>
<path d="M1146,840 Q981,945 817,649"/>
<path d="M1146,840 Q1043,922 940,820"/>
<path d="M912,859 Q926,867 940,820"/>
<path d="M912,859 Q943,889 975,286"/>
<path d="M912,859 Q993,934 1075,322"/>
<path d="M912,859 Q864,903 817,649"/>
<path d="M912,859 Q992,989 1073,945"/>
<path d="M834,479 Q887,853 940,820"/>
<path d="M834,479 Q867,746 900,715"/>
<path d="M834,479 Q788,776 742,738"/>
<path d="M834,479 Q966,717 1099,615"/>
<path d="M834,479 Q867,716 901,692"/>
<path d="M834,479 Q834,479 834,438"/>
<path d="M671,496 Q908,1058 1146,840"/>
<path d="M671,496 Q805,920 940,820"/>
<path d="M671,496 Q888,999 1105,861"/>
<path d="M1363,1006 Q1169,1106 975,286"/>
<path d="M1363,1006 Q1288,1271 1214,1223"/>
<path d="M1363,1006 Q1441,1240 1519,1191"/>
<path d="M1363,1006 Q1231,1085 1099,615"/>
<path d="M1363,1006 Q1218,1109 1073,945"/>
<path d="M1363,1006 Q1417,1057 1471,1009"/>
<path d="M378,760 Q380,772 383,771"/>
<path d="M1120,725 Q1109,731 1099,615"/>
<path d="M1120,725 Q1136,737 1153,648"/>
<path d="M1120,725 Q1336,1307 1553,1163"/>
<path d="M1120,725 Q1096,957 1073,945"/>
<path d="M1120,725 Q1156,818 1192,785"/>
<path d="M1306,586 Q1287,821 1269,805"/>
<path d="M1306,586 Q1202,676 1099,615"/>
<path d="M1306,586 Q1260,806 1214,767"/>
<path d="M1306,586 Q1307,1281 1309,1280"/>
<path d="M1306,586 Q1189,1024 1073,945"/>
<path d="M1306,586 Q1297,789 1289,783"/>
<path d="M1582,1053 Q1278,1327 975,286"/>
<path d="M1582,1053 Q1346,1220 1110,806"/>
<path d="M1484,728 Q1265,1368 1046,1206"/>
<path d="M1484,728 Q1403,859 1323,802"/>
<path d="M1001,489 Q988,498 975,286"/>
<path d="M1001,489 Q1287,1395 1574,1200"/>
<path d="M1001,489 Q918,593 835,519"/>
<path d="M1001,489 Q1277,1410 1553,1163"/>
<path d="M1001,489 Q1005,1011 1009,1008"/>
<path d="M290,785 Q632,1042 975,286"/>
<path d="M1369,473 Q1234,702 1099,615"/>
<path d="M1369,473 Q1427,899 1485,855"/>
<path d="M1211,1250 Q1082,1361 953,1176"/>
<path d="M1211,1250 Q1155,1302 1099,1239"/>
<path d="M1264,861 Q1187,929 1110,806"/>
<path d="M1553,1163 Q1189,1452 826,457"/>
<path d="M1553,1163 Q1389,1321 1225,445"/>
<path d="M296,880 Q593,1096 891,300"/>
<path d="M296,880 Q293,882 290,785"/>
<path d="M836,492 Q783,733 731,697"/>
<path d="M836,492 Q876,530 916,485"/>
<path d="M962,758 Q1264,1064 1566,875"/>
<path d="M960,1042 Q869,1113 778,367"/>
<path d="M778,367 Q806,400 834,383"/>
<path d="M778,367 Q764,376 751,309"/>
<path d="M778,367 Q683,542 588,475"/>
<path d="M778,367 Q912,1317 1046,1206"/>
<path d="M778,367 Q965,802 1153,648"/>
<path d="M1061,927 Q1013,961 966,933"/>
<path d="M1061,927 Q1048,935 1036,873"/>
<path d="M1061,927 Q1067,950 1073,945"/>
<path d="M1358,739 Q1485,1054 1613,988"/>
<path d="M1358,739 Q1228,855 1099,615"/>
<path d="M1358,739 Q1215,1085 1073,945"/>
<path d="M1358,739 Q1254,862 1151,771"/>
<path d="M902,1080 Q1098,1182 1294,292"/>
<path d="M902,1080 Q1129,1508 1356,1311"/>
<path d="M902,1080 Q1000,1138 1099,615"/>
<path d="M902,1080 Q909,1084 916,485"/>
<path d="M734,500 Q896,620 1058,378"/>
<path d="M734,500 Q877,1101 1021,978"/>
<path d="M734,500 Q904,668 1075,478"/>
<path d="M734,500 Q784,559 835,519"/>
<path d="M734,500 Q823,599 912,534"/>
<path d="M734,500 Q999,749 1264,457"/>
<path d="M734,500 Q903,1091 1073,945"/>
<path d="M734,500 Q943,843 1153,648"/>
<path d="M734,500 Q916,754 1099,615"/>
<path d="M734,500 Q764,546 795,524"/>
<path d="M734,500 Q839,854 945,779"/>
<path d="M734,500 Q1158,1464 1582,1053"/>
<path d="M734,500 Q894,1126 1054,972"/>
<path d="M734,500 Q784,530 834,438"/>
<path d="M1033,418 Q1099,1225 1166,1164"/>
<path d="M832,701 Q1036,1111 1240,936"/>
<path d="M832,701 Q952,1012 1073,945"/>
<path d="M793,766 Q762,792 731,697"/>
<path d="M588,475 Q830,1148 1073,945"/>
<path d="M588,475 Q972,739 1356,505"/>
<path d="M448,834 Q454,877 460,873"/>
<path d="M448,834 Q748,994 1048,451"/>
<path d="M448,834 Q677,976 907,769"/>
<path d="M448,834 Q775,1426 1103,1105"/>
<path d="M448,834 Q887,1254 1326,831"/>
<path d="M448,834 Q539,921 630,648"/>
<path d="M448,834 Q674,1016 901,692"/></g><g font-family="Monospace"><text y="539" x="811" font-size="10" fill="#0000ff">iputils</text>
<text y="436" x="911" font-size="10" fill="#6a6aa2">libmad</text>
<text y="598" x="1119" font-size="10" fill="#0000ff">xf86-video-savage</text>
<text y="1086" x="1030" font-size="10" fill="#6a6aa2">gd</text>
<text y="1223" x="1201" font-size="10" fill="#6a6aa2">gdbm</text>
<text y="1248" x="1273" font-size="10" fill="#0000ff">python2-docutils</text>
<text y="648" x="1136" font-size="11" fill="#6a6aa2">gpgme</text>
<text y="968" x="1423" font-size="10" fill="#0000ff">urxvt-url-select</text>
<text y="727" x="624" font-size="13" fill="#0000ff">lib32-ati-dri</text>
<text y="570" x="1354" font-size="10" fill="#0000ff">pptpclient</text>
<text y="550" x="778" font-size="10" fill="#6a6aa2">mpg123</text>
<text y="713" x="1048" font-size="10" fill="#6a6aa2">giflib</text>
<text y="771" x="548" font-size="10" fill="#6a6aa2">libxt</text>
<text y="46" x="0" font-size="55" fill="#0000ff">4982MB</text>
<text y="922" x="1488" font-size="10" fill="#0000ff">junit</text>
<text y="904" x="1052" font-size="10" fill="#0000ff">unzip</text>
<text y="1121" x="863" font-size="10" fill="#6a6aa2">libusb-compat</text>
<text y="713" x="635" font-size="10" fill="#6a6aa2">libxfont</text>
<text y="769" x="887" font-size="16" fill="#6a6aa2">gtk2</text>
<text y="1105" x="1074" font-size="23" fill="#6a6aa2">gtk3</text>
<text y="534" x="899" font-size="10" fill="#6a6aa2">jack</text>
<text y="457" x="1245" font-size="10" fill="#6a6aa2">gnutls</text>
<text y="713" x="836" font-size="10" fill="#6a6aa2">dhcpcd</text>
<text y="721" x="1158" font-size="10" fill="#0000ff">xf86-video-ark</text>
<text y="689" x="264" font-size="15" fill="#6a6aa2">ghostscript</text>
<text y="1214" x="1285" font-size="11" fill="#0000ff">mercurial</text>
<text y="701" x="944" font-size="10" fill="#0000ff">xf86-video-voodoo</text>
<text y="1188" x="937" font-size="10" fill="#6a6aa2">libxcomposite</text>
<text y="728" x="874" font-size="10" fill="#0000ff">xf86-video-dummy</text>
<text y="586" x="1183" font-size="10" fill="#0000ff">licenses</text>
<text y="1038" x="1496" font-size="10" fill="#6a6aa2">libxslt</text>
<text y="1012" x="1124" font-size="10" fill="#6a6aa2">libspectre</text>
<text y="798" x="359" font-size="11" fill="#0000ff">xf86-video-vmware</text>
<text y="56" x="1027" font-size="12" fill="#6a6aa2">gstreamer0.10-base</text>
<text y="609" x="783" font-size="10" fill="#0000ff">xorg-x11perf</text>
<text y="847" x="851" font-size="10" fill="#6a6aa2">libproxy</text>
<text y="566" x="788" font-size="10" fill="#6a6aa2">libgpg-error</text>
<text y="326" x="692" font-size="17" fill="#0000ff">wireshark-cli</text>
<text y="595" x="712" font-size="10" fill="#0000ff">cpufrequtils</text>
<text y="875" x="1521" font-size="28" fill="#0000ff">boost</text>
<text y="669" x="994" font-size="10" fill="#0000ff">acpi</text>
<text y="357" x="1386" font-size="10" fill="#6a6aa2">libsndfile</text>
<text y="1280" x="1296" font-size="10" fill="#6a6aa2">gawk</text>
<text y="468" x="625" font-size="10" fill="#6a6aa2">libxvmc</text>
<text y="988" x="1591" font-size="10" fill="#6a6aa2">libltdl</text>
<text y="1005" x="1633" font-size="10" fill="#0000ff">zathura-pdf-poppler</text>
<text y="528" x="1344" font-size="21" fill="#6a6aa2">jre7-openjdk-headless</text>
<text y="1082" x="1205" font-size="10" fill="#0000ff">python2-feedparser</text>
<text y="820" x="1130" font-size="10" fill="#6a6aa2">xextproto</text>
<text y="286" x="949" font-size="10" fill="#6a6aa2">gcc-libs</text>
<text y="806" x="1079" font-size="14" fill="#0000ff">firefox</text>
<text y="1132" x="1024" font-size="10" fill="#6a6aa2">lcms2</text>
<text y="1115" x="1005" font-size="10" fill="#6a6aa2">sqlite</text>
<text y="738" x="945" font-size="10" fill="#6a6aa2">libxcb</text>
<text y="665" x="801" font-size="12" fill="#0000ff">flashplugin</text>
<text y="1310" x="1563" font-size="10" fill="#6a6aa2">zip</text>
<text y="364" x="987" font-size="10" fill="#0000ff">syslog-ng</text>
<text y="1217" x="1627" font-size="10" fill="#0000ff">feh</text>
<text y="1009" x="1451" font-size="16" fill="#6a6aa2">perl</text>
<text y="670" x="1145" font-size="10" fill="#6a6aa2">m4</text>
<text y="519" x="810" font-size="11" fill="#6a6aa2">libxml2</text>
<text y="776" x="408" font-size="10" fill="#6a6aa2">libxrandr</text>
<text y="386" x="749" font-size="10" fill="#6a6aa2">libpulse</text>
<text y="820" x="873" font-size="19" fill="#0000ff">gomplay-git</text>
<text y="1270" x="1460" font-size="23" fill="#0000ff">libreoffice-sdk</text>
<text y="697" x="712" font-size="10" fill="#6a6aa2">libxmu</text>
<text y="408" x="854" font-size="10" fill="#6a6aa2">opencore-amr</text>
<text y="812" x="802" font-size="10" fill="#0000ff">xorg-utils</text>
<text y="668" x="731" font-size="10" fill="#6a6aa2">flac</text>
<text y="571" x="869" font-size="10" fill="#6a6aa2">sysfsutils</text>
<text y="905" x="1201" font-size="10" fill="#6a6aa2">xcb-util</text>
<text y="669" x="569" font-size="10" fill="#0000ff">lib32-intel-dri</text>
<text y="1283" x="1400" font-size="11" fill="#0000ff">pstoedit</text>
<text y="86" x="1010" font-size="10" fill="#6a6aa2">dbus-python</text>
<text y="603" x="389" font-size="10" fill="#0000ff">terminus-font</text>
<text y="649" x="725" font-size="11" fill="#0000ff">gstreamer0.10-good-plugins</text>
<text y="377" x="851" font-size="10" fill="#6a6aa2">faad2</text>
<text y="1251" x="1421" font-size="10" fill="#0000ff">archey</text>
<text y="633" x="815" font-size="10" fill="#0000ff">xf86-video-sis</text>
<text y="610" x="1124" font-size="10" fill="#0000ff">xf86-video-sisusb</text>
<text y="817" x="1423" font-size="10" fill="#6a6aa2">lcms</text>
<text y="383" x="821" font-size="10" fill="#6a6aa2">krb5</text>
<text y="502" x="1217" font-size="10" fill="#0000ff">alsa-utils</text>
<text y="811" x="297" font-size="10" fill="#6a6aa2">lib32-fontconfig</text>
<text y="1078" x="925" font-size="10" fill="#0000ff">links</text>
<text y="629" x="1304" font-size="10" fill="#0000ff">sudo</text>
<text y="1145" x="1542" font-size="10" fill="#6a6aa2">atk</text>
<text y="399" x="957" font-size="10" fill="#0000ff">logrotate</text>
<text y="1020" x="1068" font-size="10" fill="#0000ff">socat</text>
<text y="1209" x="1107" font-size="10" fill="#6a6aa2">gsettings-desktop-schemas</text>
<text y="637" x="571" font-size="10" fill="#6a6aa2">xorg-fonts-encodings</text>
<text y="801" x="788" font-size="10" fill="#0000ff">xorg-xkbutils</text>
<text y="586" x="991" font-size="10" fill="#0000ff">xf86-video-s3virge</text>
<text y="410" x="731" font-size="10" fill="#6a6aa2">lame</text>
<text y="1312" x="1411" font-size="12" fill="#0000ff">uniconvertor</text>
<text y="456" x="1186" font-size="10" fill="#6a6aa2">alsa-lib</text>
<text y="830" x="1146" font-size="10" fill="#6a6aa2">librsvg</text>
<text y="355" x="1103" font-size="10" fill="#6a6aa2">dbus-core</text>
<text y="602" x="489" font-size="10" fill="#6a6aa2">xorg-fonts-alias</text>
<text y="489" x="1130" font-size="10" fill="#0000ff">alsa-oss</text>
<text y="485" x="611" font-size="10" fill="#0000ff">xorg-xkbevd</text>
<text y="229" x="1009" font-size="10" fill="#0000ff">gperf</text>
<text y="708" x="703" font-size="10" fill="#0000ff">xorg-xcursorgen</text>
<text y="771" x="1128" font-size="24" fill="#6a6aa2">gcc</text>
<text y="1158" x="918" font-size="10" fill="#6a6aa2">polkit</text>
<text y="1095" x="1268" font-size="10" fill="#0000ff">aspell-en</text>
<text y="806" x="492" font-size="11" fill="#6a6aa2">mesa</text>
<text y="807" x="687" font-size="10" fill="#0000ff">zathura-ps</text>
<text y="770" x="651" font-size="10" fill="#0000ff">lib32-mpg123</text>
<text y="413" x="687" font-size="10" fill="#6a6aa2">fribidi</text>
<text y="715" x="879" font-size="11" fill="#6a6aa2">libx11</text>
<text y="338" x="823" font-size="10" fill="#0000ff">powertop</text>
<text y="1021" x="1011" font-size="10" fill="#0000ff">fswebcam</text>
<text y="1098" x="1157" font-size="10" fill="#6a6aa2">pciutils</text>
<text y="622" x="870" font-size="10" fill="#0000ff">xf86-video-r128</text>
<text y="720" x="1248" font-size="10" fill="#0000ff">xmobar</text>
<text y="552" x="1067" font-size="10" fill="#0000ff">xf86-video-ast</text>
<text y="1239" x="1083" font-size="10" fill="#6a6aa2">hwids</text>
<text y="1048" x="1462" font-size="10" fill="#0000ff">jna</text>
<text y="718" x="947" font-size="10" fill="#0000ff">xorg-xkill</text>
<text y="457" x="955" font-size="10" fill="#0000ff">htop</text>
<text y="997" x="1076" font-size="10" fill="#0000ff">mutt</text>
<text y="636" x="973" font-size="10" fill="#0000ff">xf86-video-mach64</text>
<text y="933" x="931" font-size="11" fill="#6a6aa2">ttf-dejavu</text>
<text y="861" x="1086" font-size="10" fill="#6a6aa2">libogg</text>
<text y="617" x="519" font-size="10" fill="#6a6aa2">lib32-libsm</text>
<text y="398" x="1341" font-size="10" fill="#0000ff">v4l2ucp</text>
<text y="873" x="988" font-size="10" fill="#6a6aa2">xorg-font-utils</text>
<text y="1211" x="986" font-size="10" fill="#6a6aa2">libcups</text>
<text y="479" x="1171" font-size="10" fill="#6a6aa2">pixman</text>
<text y="486" x="1298" font-size="10" fill="#0000ff">flex</text>
<text y="388" x="903" font-size="10" fill="#0000ff">xf86-input-acecad</text>
<text y="1067" x="1139" font-size="10" fill="#6a6aa2">libtiff</text>
<text y="702" x="1077" font-size="10" fill="#0000ff">xf86-input-keyboard</text>
<text y="1064" x="794" font-size="19" fill="#6a6aa2">python</text>
<text y="459" x="1081" font-size="10" fill="#6a6aa2">libidn</text>
<text y="399" x="795" font-size="10" fill="#6a6aa2">xvidcore</text>
<text y="616" x="596" font-size="11" fill="#0000ff">texlive-publishers</text>
<text y="555" x="915" font-size="10" fill="#0000ff">xf86-video-xgixp</text>
<text y="792" x="1093" font-size="10" fill="#6a6aa2">openjpeg</text>
<text y="556" x="1344" font-size="10" fill="#0000ff">reiserfsprogs</text>
<text y="1134" x="929" font-size="10" fill="#6a6aa2">systemd-tools</text>
<text y="438" x="736" font-size="10" fill="#6a6aa2">libdca</text>
<text y="1156" x="1582" font-size="10" fill="#6a6aa2">nspr</text>
<text y="446" x="1351" font-size="10" fill="#6a6aa2">dbus</text>
<text y="616" x="1236" font-size="10" fill="#0000ff">xf86-video-cirrus</text>
<text y="540" x="940" font-size="10" fill="#0000ff">xf86-video-xgi</text>
<text y="376" x="1174" font-size="10" fill="#6a6aa2">lib32-libxext</text>
<text y="1069" x="1704" font-size="10" fill="#6a6aa2">libsm</text>
<text y="831" x="1307" font-size="10" fill="#6a6aa2">jasper</text>
<text y="783" x="621" font-size="10" fill="#0000ff">xorg-smproxy</text>
<text y="1140" x="1593" font-size="10" fill="#6a6aa2">cairo</text>
<text y="503" x="1041" font-size="10" fill="#0000ff">xf86-video-rendition</text>
<text y="1118" x="1340" font-size="41" fill="#6a6aa2">libreoffice-common</text>
<text y="661" x="290" font-size="11" fill="#6a6aa2">poppler</text>
<text y="1153" x="1322" font-size="10" fill="#0000ff">wicd</text>
<text y="489" x="1189" font-size="10" fill="#6a6aa2">run-parts</text>
<text y="1196" x="1039" font-size="10" fill="#0000ff">vloopback-svn</text>
<text y="1243" x="1645" font-size="14" fill="#6a6aa2">jdk7-openjdk</text>
<text y="900" x="1110" font-size="10" fill="#6a6aa2">mozilla-common</text>
<text y="972" x="1045" font-size="10" fill="#0000ff">ntp</text>
<text y="754" x="890" font-size="10" fill="#0000ff">wmname</text>
<text y="738" x="710" font-size="10" fill="#6a6aa2">libxrender</text>
<text y="1206" x="1030" font-size="10" fill="#6a6aa2">gconf</text>
<text y="1187" x="1383" font-size="10" fill="#6a6aa2">libxft</text>
<text y="566" x="965" font-size="10" fill="#6a6aa2">orc</text>
<text y="945" x="1060" font-size="10" fill="#6a6aa2">bash</text>
<text y="1071" x="1578" font-size="10" fill="#6a6aa2">poppler-glib</text>
<text y="955" x="978" font-size="10" fill="#0000ff">dmenu</text>
<text y="119" x="1044" font-size="10" fill="#6a6aa2">python2-pyparsing</text>
<text y="1030" x="1094" font-size="10" fill="#6a6aa2">openssh</text>
<text y="777" x="1007" font-size="10" fill="#0000ff">xf86-video-trident</text>
<text y="1008" x="984" font-size="11" fill="#6a6aa2">openssl</text>
<text y="785" x="1160" font-size="10" fill="#6a6aa2">libarchive</text>
<text y="732" x="984" font-size="10" fill="#0000ff">xf86-video-tseng</text>
<text y="602" x="1369" font-size="10" fill="#0000ff">jfsutils</text>
<text y="603" x="869" font-size="10" fill="#0000ff">xf86-video-fbdev</text>
<text y="848" x="680" font-size="10" fill="#0000ff">cryptsetup</text>
<text y="300" x="830" font-size="10" fill="#6a6aa2">lib32-libjpeg-turbo</text>
<text y="978" x="1008" font-size="10" fill="#0000ff">lvm2</text>
<text y="1155" x="972" font-size="10" fill="#6a6aa2">xz</text>
<text y="465" x="984" font-size="10" fill="#0000ff">sshfs</text>
<text y="687" x="961" font-size="10" fill="#0000ff">xorg-xwud</text>
<text y="1103" x="920" font-size="10" fill="#6a6aa2">gtk-update-icon-cache</text>
<text y="1309" x="1267" font-size="10" fill="#6a6aa2">gpm</text>
<text y="1015" x="1566" font-size="10" fill="#6a6aa2">mpfr</text>
<text y="779" x="1390" font-size="10" fill="#6a6aa2">libxpm</text>
<text y="844" x="1004" font-size="10" fill="#6a6aa2">libxfixes</text>
<text y="582" x="320" font-size="10" fill="#6a6aa2">lib32-libxrender</text>
<text y="1075" x="1019" font-size="10" fill="#6a6aa2">libxinerama</text>
<text y="292" x="1172" font-size="27" fill="#0000ff">clang-analyzer</text>
<text y="764" x="1268" font-size="10" fill="#6a6aa2">gdk-pixbuf2</text>
<text y="659" x="1180" font-size="10" fill="#0000ff">xf86-video-i128</text>
<text y="1176" x="934" font-size="10" fill="#6a6aa2">libusb</text>
<text y="869" x="847" font-size="10" fill="#6a6aa2">libevent</text>
<text y="650" x="107" font-size="12" fill="#0000ff">xorg-fonts-100dpi</text>
<text y="478" x="970" font-size="10" fill="#0000ff">pm-utils</text>
<text y="805" x="1256" font-size="10" fill="#6a6aa2">grep</text>
<text y="600" x="1272" font-size="10" fill="#6a6aa2">libglapi</text>
<text y="616" x="429" font-size="10" fill="#0000ff">ttf-ms-fonts</text>
<text y="420" x="1137" font-size="10" fill="#0000ff">zsh</text>
<text y="655" x="1026" font-size="10" fill="#0000ff">xf86-input-mouse</text>
<text y="761" x="167" font-size="10" fill="#6a6aa2">lib32-libxfixes</text>
<text y="625" x="1372" font-size="10" fill="#0000ff">xfsprogs</text>
<text y="1311" x="1336" font-size="16" fill="#0000ff">gvim</text>
<text y="835" x="901" font-size="10" fill="#6a6aa2">xorg-xset</text>
<text y="1140" x="1627" font-size="10" fill="#6a6aa2">dbus-glib</text>
<text y="448" x="655" font-size="10" fill="#6a6aa2">libxkbfile</text>
<text y="1059" x="1297" font-size="10" fill="#6a6aa2">djvulibre</text>
<text y="720" x="1015" font-size="10" fill="#0000ff">which</text>
<text y="1005" x="1538" font-size="10" fill="#0000ff">alsi</text>
<text y="426" x="720" font-size="10" fill="#6a6aa2">libcap</text>
<text y="937" x="1094" font-size="10" fill="#6a6aa2">xorg-mkfontscale</text>
<text y="820" x="1190" font-size="10" fill="#6a6aa2">fixesproto</text>
<text y="817" x="1030" font-size="10" fill="#6a6aa2">xorg-xwininfo</text>
<text y="579" x="1852" font-size="100" fill="#0000ff">ghc</text>
<text y="432" x="1114" font-size="10" fill="#0000ff">alsa-plugins</text>
<text y="438" x="789" font-size="20" fill="#0000ff">mplayer</text>
<text y="619" x="974" font-size="10" fill="#0000ff">xf86-video-apm</text>
<text y="822" x="460" font-size="10" fill="#6a6aa2">desktop-file-utils</text>
<text y="315" x="1108" font-size="13" fill="#0000ff">xf86-video-ati</text>
<text y="593" x="651" font-size="10" fill="#6a6aa2">t1lib</text>
<text y="502" x="993" font-size="10" fill="#0000ff">nano</text>
<text y="471" x="746" font-size="10" fill="#6a6aa2">libxxf86dga</text>
<text y="674" x="1365" font-size="10" fill="#0000ff">fakeroot</text>
<text y="981" x="1506" font-size="10" fill="#6a6aa2">jre7-openjdk</text>
<text y="691" x="1062" font-size="10" fill="#0000ff">xf86-video-siliconmotion</text>
<text y="755" x="682" font-size="10" fill="#0000ff">compton-git</text>
<text y="954" x="1228" font-size="10" fill="#0000ff">autossh</text>
<text y="332" x="1175" font-size="10" fill="#0000ff">xf86-video-intel</text>
<text y="672" x="362" font-size="10" fill="#6a6aa2">lib32-libx11</text>
<text y="783" x="1260" font-size="10" fill="#6a6aa2">findutils</text>
<text y="1210" x="1535" font-size="10" fill="#6a6aa2">popt</text>
<text y="448" x="917" font-size="10" fill="#6a6aa2">x264</text>
<text y="741" x="1108" font-size="15" fill="#0000ff">linux-headers</text>
<text y="396" x="1204" font-size="12" fill="#6a6aa2">libgl</text>
<text y="641" x="367" font-size="10" fill="#6a6aa2">fontconfig</text>
<text y="553" x="859" font-size="10" fill="#6a6aa2">keyutils</text>
<text y="528" x="1005" font-size="10" fill="#0000ff">iptables</text>
<text y="1059" x="1524" font-size="10" fill="#6a6aa2">neon</text>
<text y="405" x="773" font-size="11" fill="#6a6aa2">db</text>
<text y="545" x="1031" font-size="10" fill="#6a6aa2">kbd</text>
<text y="516" x="1034" font-size="10" fill="#0000ff">xf86-video-nv</text>
<text y="659" x="1315" font-size="10" fill="#6a6aa2">util-linux</text>
<text y="700" x="1226" font-size="10" fill="#0000ff">xf86-video-glint</text>
<text y="425" x="1286" font-size="21" fill="#6a6aa2">qt</text>
<text y="715" x="1101" font-size="10" fill="#0000ff">patch</text>
<text y="680" x="739" font-size="10" fill="#0000ff">xorg-xfontsel</text>
<text y="656" x="1282" font-size="10" fill="#0000ff">bison</text>
<text y="968" x="972" font-size="10" fill="#6a6aa2">libvorbis</text>
<text y="1140" x="1343" font-size="10" fill="#6a6aa2">python2-gobject2</text>
<text y="462" x="883" font-size="10" fill="#6a6aa2">enca</text>
<text y="865" x="1160" font-size="10" fill="#6a6aa2">gsfonts</text>
<text y="591" x="854" font-size="10" fill="#0000ff">xf86-input-vmmouse</text>
<text y="576" x="944" font-size="10" fill="#6a6aa2">libpciaccess</text>
<text y="641" x="1346" font-size="10" fill="#6a6aa2">sed</text>
<text y="761" x="1395" font-size="10" fill="#0000ff">netcfg</text>
<text y="672" x="1162" font-size="10" fill="#0000ff">mdadm</text>
<text y="698" x="612" font-size="10" fill="#6a6aa2">libxaw</text>
<text y="793" x="873" font-size="10" fill="#0000ff">mozplugger-chromium</text>
<text y="588" x="1144" font-size="10" fill="#6a6aa2">libxau</text>
<text y="728" x="1376" font-size="10" fill="#6a6aa2">kmod</text>
<text y="1196" x="1132" font-size="10" fill="#6a6aa2">v4l-utils</text>
<text y="524" x="1241" font-size="10" fill="#6a6aa2">device-mapper</text>
<text y="724" x="779" font-size="10" fill="#0000ff">xorg-xlsfonts</text>
<text y="779" x="936" font-size="10" fill="#6a6aa2">lua</text>
<text y="380" x="1292" font-size="10" fill="#6a6aa2">libpng</text>
<text y="322" x="1053" font-size="10" fill="#0000ff">ncmpcpp</text>
<text y="962" x="1582" font-size="10" fill="#6a6aa2">xdg-utils</text>
<text y="808" x="1168" font-size="12" fill="#0000ff">gcc-fortran</text>
<text y="405" x="1162" font-size="10" fill="#0000ff">msmtp</text>
<text y="1199" x="1339" font-size="11" fill="#6a6aa2">imagemagick</text>
<text y="338" x="967" font-size="10" fill="#0000ff">screen</text>
<text y="1029" x="925" font-size="10" fill="#0000ff">lynx</text>
<text y="789" x="1027" font-size="10" fill="#6a6aa2">libxdmcp</text>
<text y="802" x="1304" font-size="12" fill="#6a6aa2">pygtk</text>
<text y="881" x="725" font-size="10" fill="#6a6aa2">libgcrypt</text>
<text y="681" x="473" font-size="10" fill="#6a6aa2">lib32-libxrandr</text>
<text y="690" x="793" font-size="10" fill="#0000ff">unclutter</text>
<text y="340" x="699" font-size="10" fill="#6a6aa2">schroedinger</text>
<text y="350" x="737" font-size="10" fill="#6a6aa2">libxxf86vm</text>
<text y="451" x="1039" font-size="10" fill="#0000ff">gtk</text>
<text y="629" x="457" font-size="10" fill="#0000ff">termsyn</text>
<text y="159" x="938" font-size="27" fill="#0000ff">python2-matplotlib</text>
<text y="1036" x="1542" font-size="10" fill="#6a6aa2">hicolor-icon-theme</text>
<text y="565" x="990" font-size="10" fill="#0000ff">xf86-video-mga</text>
<text y="743" x="1262" font-size="21" fill="#0000ff">linux</text>
<text y="419" x="1368" font-size="11" fill="#0000ff">mumble</text>
<text y="550" x="1213" font-size="10" fill="#0000ff">xf86-video-s3</text>
<text y="1046" x="983" font-size="10" fill="#0000ff">heirloom-mailx</text>
<text y="478" x="1050" font-size="11" fill="#6a6aa2">ncurses</text>
<text y="1148" x="1160" font-size="10" fill="#6a6aa2">imlib2</text>
<text y="787" x="776" font-size="10" fill="#0000ff">xorg-xpr</text>
<text y="889" x="991" font-size="10" fill="#0000ff">xorg-xinit</text>
<text y="301" x="1031" font-size="10" fill="#6a6aa2">lib32-alsa-lib</text>
<text y="1043" x="1119" font-size="10" fill="#6a6aa2">libnl</text>
<text y="848" x="918" font-size="10" fill="#6a6aa2">zlib</text>
<text y="836" x="849" font-size="10" fill="#0000ff">sxiv</text>
<text y="655" x="425" font-size="11" fill="#0000ff">xorg-fonts-75dpi</text>
<text y="695" x="508" font-size="12" fill="#6a6aa2">lib32-libgl</text>
<text y="692" x="879" font-size="10" fill="#6a6aa2">libxext</text>
<text y="1080" x="1155" font-size="10" fill="#6a6aa2">avahi</text>
<text y="439" x="1057" font-size="10" fill="#0000ff">vi</text>
<text y="1164" x="1150" font-size="10" fill="#6a6aa2">expat</text>
<text y="395" x="1094" font-size="19" fill="#0000ff">skype</text>
<text y="1191" x="1497" font-size="10" fill="#6a6aa2">texinfo</text>
<text y="838" x="1222" font-size="19" fill="#0000ff">gimp</text>
<text y="791" x="1450" font-size="22" fill="#0000ff">pdftk</text>
<text y="1123" x="1066" font-size="10" fill="#6a6aa2">libgnome-keyring</text>
<text y="576" x="1026" font-size="10" fill="#0000ff">xf86-video-neomagic</text>
<text y="1165" x="1348" font-size="10" fill="#6a6aa2">giblib</text>
<text y="767" x="1182" font-size="11" fill="#6a6aa2">coreutils</text>
<text y="801" x="526" font-size="10" fill="#6a6aa2">libxdamage</text>
<text y="620" x="309" font-size="10" fill="#0000ff">xorg-xfd</text>
<text y="649" x="1005" font-size="10" fill="#6a6aa2">pam</text>
<text y="753" x="1187" font-size="10" fill="#6a6aa2">iproute2</text>
<text y="982" x="875" font-size="10" fill="#0000ff">icedtea-web-java7</text>
<text y="771" x="468" font-size="10" fill="#0000ff">xanim</text>
<text y="945" x="783" font-size="10" fill="#6a6aa2">libxss</text>
<text y="673" x="1203" font-size="10" fill="#0000ff">xf86-video-i740</text>
<text y="759" x="997" font-size="10" fill="#0000ff">xf86-input-void</text>
<text y="783" x="535" font-size="11" fill="#6a6aa2">lib32-glibc</text>
<text y="506" x="883" font-size="10" fill="#0000ff">laptop-mode-tools</text>
<text y="852" x="812" font-size="10" fill="#6a6aa2">libdrm</text>
<text y="648" x="595" font-size="10" fill="#6a6aa2">lib32-libxi</text>
<text y="614" x="1412" font-size="10" fill="#6a6aa2">filesystem</text>
<text y="686" x="1335" font-size="10" fill="#6a6aa2">gzip</text>
<text y="834" x="1072" font-size="10" fill="#6a6aa2">speex</text>
<text y="581" x="584" font-size="13" fill="#0000ff">texlive-latexextra</text>
<text y="519" x="957" font-size="10" fill="#0000ff">less</text>
<text y="600" x="976" font-size="10" fill="#0000ff">xf86-video-chips</text>
<text y="449" x="736" font-size="10" fill="#6a6aa2">a52dec</text>
<text y="377" x="900" font-size="10" fill="#6a6aa2">libvpx</text>
<text y="1114" x="1239" font-size="16" fill="#0000ff">evince</text>
<text y="855" x="1463" font-size="10" fill="#6a6aa2">libxtst</text>
<text y="824" x="1510" font-size="10" fill="#6a6aa2">file</text>
<text y="337" x="1328" font-size="10" fill="#6a6aa2">libsamplerate</text>
<text y="612" x="729" font-size="10" fill="#0000ff">xcompmgr</text>
<text y="1204" x="1457" font-size="10" fill="#6a6aa2">pango</text>
<text y="1072" x="1323" font-size="10" fill="#6a6aa2">wireless_tools</text>
<text y="743" x="998" font-size="10" fill="#0000ff">xorg-server-utils</text>
<text y="423" x="912" font-size="10" fill="#6a6aa2">aalib</text>
<text y="370" x="639" font-size="10" fill="#6a6aa2">libpcap</text>
<text y="568" x="1186" font-size="10" fill="#0000ff">xf86-input-aiptek</text>
<text y="692" x="1383" font-size="14" fill="#0000ff">subversion</text>
<text y="846" x="360" font-size="10" fill="#6a6aa2">lib32-libxcursor</text>
<text y="537" x="1193" font-size="10" fill="#0000ff">xf86-video-tdfx</text>
<text y="909" x="787" font-size="22" fill="#0000ff">chromium</text>
<text y="795" x="1201" font-size="10" fill="#6a6aa2">gmp</text>
<text y="643" x="288" font-size="11" fill="#0000ff">dot2tex</text>
<text y="478" x="1251" font-size="10" fill="#0000ff">xterm</text>
<text y="775" x="957" font-size="10" fill="#6a6aa2">xproto</text>
<text y="445" x="1177" font-size="10" fill="#6a6aa2">ca-certificates</text>
<text y="1055" x="1424" font-size="10" fill="#6a6aa2">aspell</text>
<text y="647" x="916" font-size="10" fill="#6a6aa2">shadow</text>
<text y="1186" x="1213" font-size="18" fill="#6a6aa2">python2</text>
<text y="524" x="885" font-size="10" fill="#6a6aa2">libcaca</text>
<text y="583" x="748" font-size="12" fill="#0000ff">xorg-server</text>
<text y="255" x="914" font-size="10" fill="#0000ff">unrar</text>
<text y="1145" x="1214" font-size="10" fill="#0000ff">offlineimap</text>
<text y="671" x="891" font-size="11" fill="#0000ff">man-pages</text>
<text y="550" x="371" font-size="52" fill="#6a6aa2">texlive-core</text>
<text y="690" x="1254" font-size="10" fill="#0000ff">pkg-config</text>
<text y="1179" x="1601" font-size="10" fill="#6a6aa2">shared-mime-info</text>
<text y="598" x="1086" font-size="10" fill="#0000ff">grub</text>
<text y="823" x="768" font-size="10" fill="#6a6aa2">zathura</text>
<text y="628" x="1168" font-size="10" fill="#0000ff">xf86-input-joystick</text>
<text y="534" x="1078" font-size="10" fill="#0000ff">xf86-video-vesa</text>
<text y="370" x="1289" font-size="10" fill="#6a6aa2">libfontenc</text>
<text y="1164" x="1418" font-size="23" fill="#0000ff">inkscape</text>
<text y="830" x="325" font-size="10" fill="#0000ff">rsync</text>
<text y="419" x="1434" font-size="10" fill="#6a6aa2">lsb-release</text>
<text y="615" x="1075" font-size="15" fill="#6a6aa2">glibc</text>
<text y="505" x="1321" font-size="10" fill="#0000ff">btrfs-progs</text>
<text y="1043" x="1397" font-size="10" fill="#0000ff">automake</text>
<text y="478" x="1129" font-size="10" fill="#6a6aa2">libice</text>
<text y="1023" x="822" font-size="10" fill="#0000ff">pacgraph</text>
<text y="1237" x="1393" font-size="10" fill="#6a6aa2">freetype2</text>
<text y="1146" x="1696" font-size="13" fill="#6a6aa2">icu</text>
<text y="309" x="709" font-size="10" fill="#0000ff">lib32-libldap</text>
<text y="524" x="789" font-size="10" fill="#0000ff">bc</text>
<text y="360" x="832" font-size="10" fill="#6a6aa2">lib32-openssl</text>
<text y="422" x="1204" font-size="10" fill="#6a6aa2">libxv</text>
<text y="885" x="857" font-size="10" fill="#6a6aa2">xorg-xprop</text>
<text y="1200" x="1545" font-size="10" fill="#6a6aa2">libsigc++</text>
<text y="1259" x="1736" font-size="10" fill="#0000ff">apache-ant</text>
<text y="457" x="810" font-size="10" fill="#0000ff">conky</text>
<text y="1128" x="1199" font-size="10" fill="#6a6aa2">libjpeg-turbo</text>
<text y="1160" x="1028" font-size="10" fill="#0000ff">pcmciautils</text>
<text y="771" x="374" font-size="10" fill="#6a6aa2">acl</text>
<text y="1110" x="1159" font-size="10" fill="#6a6aa2">libexif</text>
<text y="485" x="899" font-size="11" fill="#6a6aa2">glib2</text>
<text y="495" x="762" font-size="10" fill="#6a6aa2">libass</text>
<text y="678" x="1037" font-size="10" fill="#0000ff">xf86-video-v4l</text>
<text y="750" x="829" font-size="10" fill="#0000ff">xorg-xwd</text>
<text y="738" x="323" font-size="45" fill="#0000ff">wine_gecko</text>
<text y="829" x="591" font-size="10" fill="#6a6aa2">lib32-libxdamage</text>
<text y="835" x="361" font-size="10" fill="#6a6aa2">libxcursor</text>
<text y="436" x="1355" font-size="10" fill="#6a6aa2">libmng</text>
<text y="876" x="795" font-size="10" fill="#6a6aa2">nss</text>
<text y="432" x="1208" font-size="10" fill="#6a6aa2">pcre</text>
<text y="978" x="1400" font-size="11" fill="#0000ff">git</text>
<text y="640" x="1174" font-size="11" fill="#0000ff">archlinux-wallpaper</text>
<text y="864" x="706" font-size="10" fill="#0000ff">xorg-xclock</text>
<text y="653" x="967" font-size="10" fill="#0000ff">slock</text>
<text y="348" x="984" font-size="10" fill="#6a6aa2">lib32-zlib</text>
<text y="840" x="1120" font-size="10" fill="#6a6aa2">libshout</text>
<text y="859" x="893" font-size="10" fill="#6a6aa2">taglib</text>
<text y="479" x="825" font-size="10" fill="#6a6aa2">sdl</text>
<text y="496" x="642" font-size="10" fill="#6a6aa2">libtheora</text>
<text y="518" x="1162" font-size="10" fill="#0000ff">cabextract</text>
<text y="1006" x="1331" font-size="11" fill="#0000ff">xorg-docs</text>
<text y="760" x="365" font-size="10" fill="#6a6aa2">attr</text>
<text y="725" x="1101" font-size="10" fill="#0000ff">pacman</text>
<text y="586" x="1271" font-size="10" fill="#0000ff">initscripts</text>
<text y="1053" x="1556" font-size="10" fill="#6a6aa2">hunspell</text>
<text y="728" x="1442" font-size="10" fill="#0000ff">python2-gconf</text>
<text y="936" x="1214" font-size="10" fill="#0000ff">autoconf</text>
<text y="489" x="975" font-size="10" fill="#0000ff">rtorrent</text>
<text y="1072" x="1432" font-size="11" fill="#0000ff">libreoffice-base</text>
<text y="785" x="245" font-size="10" fill="#6a6aa2">lib32-gcc-libs</text>
<text y="473" x="1304" font-size="10" fill="#0000ff">xf86-input-synaptics</text>
<text y="1250" x="1185" font-size="10" fill="#0000ff">usbutils</text>
<text y="861" x="1232" font-size="10" fill="#6a6aa2">mime-types</text>
<text y="1163" x="1540" font-size="10" fill="#6a6aa2">curl</text>
<text y="880" x="248" font-size="10" fill="#0000ff">lib32-v4l-utils</text>
<text y="492" x="817" font-size="10" fill="#0000ff">wmctrl</text>
<text y="758" x="946" font-size="10" fill="#6a6aa2">bzip2</text>
<text y="378" x="1029" font-size="10" fill="#6a6aa2">inetutils</text>
<text y="443" x="978" font-size="10" fill="#0000ff">ncdu</text>
<text y="1042" x="938" font-size="10" fill="#6a6aa2">libsasl</text>
<text y="845" x="1079" font-size="10" fill="#0000ff">apvlv</text>
<text y="873" x="428" font-size="10" fill="#6a6aa2">inputproto</text>
<text y="367" x="756" font-size="10" fill="#6a6aa2">libldap</text>
<text y="927" x="1016" font-size="10" fill="#6a6aa2">xorg-mkfontdir</text>
<text y="739" x="1336" font-size="10" fill="#0000ff">libtool</text>
<text y="1080" x="883" font-size="10" fill="#6a6aa2">libffi</text>
<text y="500" x="708" font-size="10" fill="#6a6aa2">readline</text>
<text y="418" x="998" font-size="10" fill="#6a6aa2">lib32-expat</text>
<text y="701" x="803" font-size="10" fill="#6a6aa2">diffutils</text>
<text y="766" x="767" font-size="10" fill="#0000ff">xorg-twm</text>
<text y="475" x="559" font-size="10" fill="#6a6aa2">e2fsprogs</text>
<text y="834" x="432" font-size="10" fill="#6a6aa2">libxi</text></g></svg>